<svg width="21" height="16" viewBox="0 0 21 16" fill="none" xmlns="http://www.w3.org/2000/svg">
<g clip-path="url(#clip0_229_3224)">
<rect width="19.67" height="14.7525" transform="translate(0.921875 0.368896)" fill="white"/>
<path d="M0.921875 0.368896H20.5918V15.1214H0.921875V0.368896Z" fill="#000066"/>
<path fill-rule="evenodd" clip-rule="evenodd" d="M10.1363 12.4323L8.79324 12.5491L8.97764 13.8829L8.05254 12.9087L7.12743 13.8829L7.31184 12.5491L5.96875 12.4323L7.12743 11.7469L6.38059 10.6251L7.6407 11.1015L8.05254 9.81986L8.46745 11.1015L9.72756 10.6251L8.98072 11.7469L10.1363 12.4323ZM15.8775 13.6616L15.5517 13.176L16.0988 13.382L16.277 12.8257L16.4553 13.382L17.0024 13.176L16.6797 13.6616L17.1837 13.9598L16.5998 14.012L16.6797 14.5929L16.2801 14.1657L15.8744 14.5929L15.9543 14.012L15.3704 13.9628L15.8775 13.6616ZM15.8744 4.99149L15.5517 4.50589L16.0988 4.71181L16.277 4.15552L16.4553 4.71181L17.0024 4.50589L16.6797 4.99149L17.1837 5.29269L16.5998 5.34186L16.6797 5.92274L16.2801 5.49861L15.8744 5.91967L15.9543 5.34186L15.3704 5.29269L15.8744 4.99149ZM12.6258 8.51365L12.3031 8.02804L12.8502 8.23396L13.0284 7.67767L13.2098 8.23396L13.7568 8.02804L13.431 8.51365L13.9351 8.81177L13.3511 8.86402L13.4341 9.4449L13.0284 9.01769L12.6289 9.4449L12.7057 8.86402L12.1218 8.81484L12.6258 8.51365ZM18.7696 7.64694L18.4407 7.16134L18.9878 7.36726L19.1661 6.81096L19.3474 7.36726L19.8945 7.16134L19.5718 7.64694L20.0727 7.94506L19.4888 7.99731L19.5687 8.57512L19.1691 8.15098L18.7635 8.57512L18.8434 7.99731L18.2594 7.94506L18.7696 7.64694ZM17.5802 10.204L17.2636 10.4038L17.3527 10.0381L17.0669 9.79834L17.4388 9.76761L17.5802 9.42338L17.7246 9.77068L18.0965 9.79834L17.8107 10.0381L17.8998 10.4038" fill="white"/>
<path d="M0.921875 0.368896H10.7569V7.74514H0.921875V0.368896Z" fill="#000066"/>
<path d="M2.07441 0.368896L5.824 3.15035L9.55822 0.368896H10.7569V1.32166L7.06874 4.07238L10.7569 6.80774V7.74514H9.52749L5.83937 4.99441L2.16662 7.74514H0.921875V6.82311L4.59463 4.08775L0.921875 1.3524V0.368896H2.07441Z" fill="white"/>
<path d="M7.43755 4.68707L10.7569 7.13045V7.74514L6.59236 4.68707H7.43755ZM4.60999 4.99441L4.7022 5.53226L1.7517 7.74514H0.921875L4.60999 4.99441ZM10.7569 0.368896V0.414998L6.93044 3.30402L6.96117 2.62787L9.9885 0.368896H10.7569ZM0.921875 0.368896L4.59463 3.07352H3.6726L0.921875 1.01432V0.368896Z" fill="#C8102E"/>
<path d="M4.62536 0.368896V7.74514H7.08411V0.368896H4.62536ZM0.921875 2.82764V5.28639H10.7569V2.82764H0.921875Z" fill="white"/>
<path d="M0.921875 3.33476V4.81001H10.7569V3.33476H0.921875ZM5.11711 0.368896V7.74514H6.59236V0.368896H5.11711Z" fill="#C8102E"/>
</g>
<defs>
<clipPath id="clip0_229_3224">
<rect width="19.67" height="14.7525" fill="white" transform="translate(0.921875 0.368896)"/>
</clipPath>
</defs>
</svg>
