<svg width="21" height="16" viewBox="0 0 21 16" fill="none" xmlns="http://www.w3.org/2000/svg">
<path d="M0.320312 0.368896H5.53843V15.1214H0.320312V0.368896ZM15.9775 0.368896H21.1956V15.1214H15.9804L15.9775 0.368896ZM7.10299 7.49734L6.69384 7.63564L8.58112 9.29242C8.72519 9.71597 8.53214 9.83987 8.40824 10.0646L10.454 9.8053L10.405 11.8655L10.8315 11.8539L10.7364 9.80818L12.7879 10.0531C12.6611 9.78513 12.5487 9.64394 12.664 9.2175L14.5484 7.64717L14.2199 7.52615C13.9491 7.3187 14.3352 6.52633 14.3928 6.02497C14.3928 6.02497 13.295 6.40243 13.223 6.20362L12.9406 5.66481L11.9408 6.76548C11.8313 6.79141 11.7852 6.74819 11.7592 6.65599L12.2203 4.35668L11.4884 4.76871C11.4279 4.79752 11.3674 4.77447 11.327 4.70244L10.6211 3.29058L9.89502 4.75718C9.84027 4.80905 9.78553 4.81481 9.73942 4.78023L9.04214 4.38837L9.46281 6.66751C9.42824 6.75972 9.34756 6.78277 9.25536 6.73378L8.29587 5.64752C8.17197 5.84921 8.08841 6.1748 7.9213 6.24972C7.75706 6.31887 7.20096 6.11141 6.82927 6.03074C6.95605 6.48887 7.35367 7.24954 7.10299 7.50022V7.49734Z" fill="#D52B1E"/>
</svg>
