<svg width="21" height="16" viewBox="0 0 21 16" fill="none" xmlns="http://www.w3.org/2000/svg">
<g clip-path="url(#clip0_229_3240)">
<rect width="19.67" height="14.7525" transform="translate(0.921875 0.368896)" fill="white"/>
<path d="M0.921875 0.368896H20.5918V5.28639H0.921875V0.368896Z" fill="#FF9933"/>
<path d="M0.921875 5.28662H20.5918V10.2041H0.921875V5.28662Z" fill="white"/>
<path d="M0.921875 10.2036H20.5918V15.1211H0.921875V10.2036Z" fill="#128807"/>
<path d="M10.7561 9.71183C11.8424 9.71183 12.7231 8.83117 12.7231 7.74483C12.7231 6.65849 11.8424 5.77783 10.7561 5.77783C9.66972 5.77783 8.78906 6.65849 8.78906 7.74483C8.78906 8.83117 9.66972 9.71183 10.7561 9.71183Z" fill="#000088"/>
<path d="M10.7524 9.46617C11.7029 9.46617 12.4735 8.6956 12.4735 7.74505C12.4735 6.7945 11.7029 6.02393 10.7524 6.02393C9.80182 6.02393 9.03125 6.7945 9.03125 7.74505C9.03125 8.6956 9.80182 9.46617 10.7524 9.46617Z" fill="white"/>
<path d="M10.7583 8.08909C10.9484 8.08909 11.1025 7.93497 11.1025 7.74486C11.1025 7.55475 10.9484 7.40063 10.7583 7.40063C10.5682 7.40063 10.4141 7.55475 10.4141 7.74486C10.4141 7.93497 10.5682 8.08909 10.7583 8.08909Z" fill="#000088"/>
<path d="M12.4479 8.05906C12.4966 8.06548 12.5413 8.03115 12.5478 7.98239C12.5542 7.93363 12.5199 7.88889 12.4711 7.88247C12.4223 7.87605 12.3776 7.91038 12.3712 7.95914C12.3648 8.00791 12.3991 8.05264 12.4479 8.05906Z" fill="#000088"/>
<path d="M10.7543 9.46607L10.8133 8.4334L10.7543 7.94165L10.6953 8.4334L10.7543 9.46607Z" fill="#000088"/>
</g>
<defs>
<clipPath id="clip0_229_3240">
<rect width="19.67" height="14.7525" fill="white" transform="translate(0.921875 0.368896)"/>
</clipPath>
</defs>
</svg>
