<svg width="21" height="16" viewBox="0 0 21 16" fill="none" xmlns="http://www.w3.org/2000/svg">
<g clip-path="url(#clip0_229_3211)">
<rect width="19.67" height="14.7525" transform="translate(0.921875 0.492676)" fill="white"/>
<path fill-rule="evenodd" clip-rule="evenodd" d="M0.921875 0.492676H28.9516V1.62793H0.921875V0.492676ZM0.921875 2.76317H28.9516V3.89842H0.921875V2.76317ZM0.921875 5.03079H28.9516V6.16892H0.921875V5.03079ZM0.921875 7.30129H28.9516V8.43654H0.921875V7.30129ZM0.921875 9.57179H28.9516V10.707H0.921875V9.57179ZM0.921875 11.8394H28.9516V12.9747H0.921875V11.8394ZM0.921875 14.1099H28.9516V15.2452H0.921875V14.1099Z" fill="#BD3D44"/>
<path fill-rule="evenodd" clip-rule="evenodd" d="M0.921875 1.62817H28.9516V2.76342H0.921875V1.62817ZM0.921875 3.89867H28.9516V5.03104H0.921875V3.89867ZM0.921875 6.16629H28.9516V7.30154H0.921875V6.16629ZM0.921875 8.43679H28.9516V9.57204H0.921875V8.43679ZM0.921875 10.7073H28.9516V11.8425H0.921875V10.7073ZM0.921875 12.9749H28.9516V14.1102H0.921875V12.9749Z" fill="white"/>
<path fill-rule="evenodd" clip-rule="evenodd" d="M0.921875 0.492676H12.1332V8.43654H0.921875V0.492676Z" fill="#192F5D"/>
<path fill-rule="evenodd" clip-rule="evenodd" d="M1.85408 0.833008L1.9578 1.14707H2.28628L2.02119 1.34012L2.12204 1.65707L1.85408 1.46114L1.58899 1.65419L1.68984 1.34012L1.42188 1.14707H1.75611L1.85408 0.833008ZM3.72407 0.833008L3.82492 1.14707H4.15627L3.88831 1.34012L3.98915 1.65707L3.72407 1.46114L3.4561 1.65419L3.55695 1.34012L3.29187 1.14707H3.62034L3.72407 0.833008ZM5.59118 0.833008L5.69491 1.14707H6.0205L5.75542 1.34012L5.85626 1.65707L5.5883 1.46114L5.32321 1.65419L5.42406 1.34012L5.1561 1.14707H5.48745L5.59118 0.833008ZM7.46117 0.833008L7.56202 1.14707H7.89337L7.62541 1.34012L7.72914 1.65707L7.46117 1.46114L7.19321 1.65419L7.29694 1.34012L7.02897 1.14707H7.35744L7.46117 0.833008ZM9.32828 0.833008L9.43201 1.14707H9.76048L9.4954 1.34012L9.59625 1.65707L9.32828 1.46114L9.0632 1.65419L9.16405 1.34012L8.89896 1.14707H9.22744L9.32828 0.833008ZM11.1983 0.833008L11.2991 1.14707H11.6305L11.3625 1.34012L11.4662 1.65707L11.1983 1.46114L10.9303 1.65419L11.034 1.34012L10.7661 1.14707H11.0974L11.1983 0.833008ZM2.79051 1.62826L2.89136 1.94233H3.22271L2.95475 2.13538L3.05272 2.44944L2.79339 2.25639L2.52543 2.44944L2.62051 2.13538L2.36119 1.94233H2.68967L2.79051 1.62826ZM4.65762 1.62826L4.76135 1.94233H5.08983L4.82186 2.13538L4.92559 2.44944L4.65762 2.25639L4.38966 2.44944L4.49339 2.13538L4.22542 1.94233H4.55678L4.65762 1.62826ZM6.52762 1.62826L6.62846 1.94233H6.95982L6.69185 2.13538L6.7927 2.44944L6.52762 2.25639L6.25965 2.44944L6.3605 2.13538L6.09542 1.94233H6.42389L6.52762 1.62826ZM8.39473 1.62826L8.49846 1.94233H8.82693L8.55896 2.13538L8.66269 2.44944L8.39473 2.25639L8.12964 2.44944L8.23049 2.13538L7.96253 1.94233H8.29676L8.39473 1.62826ZM10.2647 1.62826L10.3656 1.94233H10.6969L10.429 2.13538L10.5298 2.44944L10.2647 2.25639L9.99675 2.44944L10.0976 2.13538L9.83252 1.94233H10.161L10.2647 1.62826ZM1.85408 2.42063L1.9578 2.74046H2.28628L2.02119 2.93351L2.12204 3.24757L1.85408 3.05164L1.58899 3.24757L1.68984 2.93063L1.42188 2.73758H1.75611L1.85408 2.42063ZM3.72407 2.42063L3.82492 2.73758H4.15627L3.88831 2.93063L3.98915 3.24469L3.72407 3.04876L3.4561 3.24469L3.55695 2.92774L3.29187 2.73469H3.62034L3.72407 2.42063ZM5.59118 2.42063L5.69491 2.73758H6.0205L5.75542 2.93063L5.85626 3.24469L5.5883 3.04876L5.32321 3.24469L5.42406 2.92774L5.1561 2.73469H5.48745L5.59118 2.42063ZM7.46117 2.42063L7.56202 2.73758H7.89337L7.62541 2.93063L7.72914 3.24469L7.46117 3.04876L7.19321 3.24469L7.29694 2.92774L7.02897 2.73469H7.35744L7.46117 2.42063ZM9.32828 2.42063L9.43201 2.73758H9.76048L9.4954 2.93063L9.59625 3.24469L9.32828 3.04876L9.0632 3.24469L9.16405 2.92774L8.89896 2.73469H9.22744L9.32828 2.42063ZM11.1983 2.42063L11.2991 2.73758H11.6305L11.3625 2.93063L11.4662 3.24469L11.1983 3.04876L10.9303 3.24469L11.034 2.92774L10.7661 2.73469H11.0974L11.1983 2.42063ZM2.79051 3.21588L2.89136 3.52995H3.22271L2.95475 3.723L3.0556 4.03994L2.79051 3.84401L2.52255 4.03706L2.6234 3.723L2.35831 3.52995H2.68678L2.79051 3.21588ZM4.65762 3.21588L4.76135 3.52995H5.08983L4.82186 3.723L4.92559 4.03994L4.65762 3.84401L4.38966 4.03706L4.49339 3.723L4.22542 3.52995H4.55678L4.65762 3.21588ZM6.52762 3.21588L6.62846 3.52995H6.95982L6.69185 3.723L6.7927 4.03994L6.52762 3.84401L6.25965 4.03706L6.3605 3.723L6.09542 3.52995H6.42389L6.52762 3.21588ZM8.39473 3.21588L8.49846 3.52995H8.82693L8.56185 3.723L8.66269 4.03994L8.39473 3.84401L8.12964 4.03706L8.23049 3.723L7.96253 3.52995H8.29676L8.39473 3.21588ZM10.2647 3.21588L10.3656 3.52995H10.6969L10.429 3.723L10.5298 4.03994L10.2647 3.84401L9.99675 4.03706L10.0976 3.723L9.83252 3.52995H10.161L10.2647 3.21588ZM1.85408 4.01113L1.9578 4.3252H2.28628L2.02119 4.51825L2.12204 4.83519L1.85408 4.63926L1.58899 4.83231L1.68984 4.51825L1.42188 4.3252H1.75611L1.85408 4.01113ZM3.72407 4.01113L3.82492 4.3252H4.15627L3.88831 4.51825L3.98915 4.83231L3.72407 4.63926L3.4561 4.83231L3.55695 4.51825L3.29187 4.3252H3.62034L3.72407 4.01113ZM5.59118 4.01113L5.69491 4.3252H6.0205L5.75542 4.51825L5.85626 4.83519L5.5883 4.63926L5.32321 4.83231L5.42406 4.51825L5.1561 4.3252H5.48745L5.59118 4.01113ZM7.46117 4.01113L7.56202 4.3252H7.89337L7.62541 4.51825L7.72914 4.83519L7.46117 4.63926L7.19321 4.83231L7.29694 4.51825L7.02897 4.3252H7.35744L7.46117 4.01113ZM9.32828 4.01113L9.43201 4.3252H9.76048L9.4954 4.51825L9.59625 4.83519L9.32828 4.63926L9.0632 4.83231L9.16405 4.51825L8.89896 4.3252H9.22744L9.32828 4.01113ZM11.1983 4.01113L11.2991 4.3252H11.6305L11.3625 4.51825L11.4662 4.83519L11.1983 4.63926L10.9303 4.83231L11.034 4.51825L10.7661 4.3252H11.0974L11.1983 4.01113ZM2.79051 4.80638L2.89136 5.12045H3.22271L2.95475 5.3135L3.0556 5.62756L2.79051 5.43163L2.52255 5.62756L2.6234 5.31062L2.35831 5.11757H2.68678L2.79051 4.80638ZM4.65762 4.80638L4.76135 5.12045H5.08983L4.82186 5.3135L4.92559 5.62756L4.65762 5.43163L4.38966 5.62756L4.49339 5.31062L4.22542 5.11757H4.55678L4.65762 4.80638ZM6.52762 4.80638L6.62846 5.12045H6.95982L6.69185 5.3135L6.7927 5.62756L6.52762 5.43163L6.25965 5.62756L6.3605 5.31062L6.09542 5.11757H6.42389L6.52762 4.80638ZM8.39473 4.80638L8.49846 5.12045H8.82693L8.56185 5.3135L8.66269 5.62756L8.39473 5.43163L8.12964 5.62756L8.23049 5.31062L7.96253 5.11757H8.29676L8.39473 4.80638ZM10.2647 4.80638L10.3656 5.12045H10.6969L10.429 5.3135L10.5298 5.62756L10.2647 5.43163L9.99675 5.62756L10.0976 5.31062L9.83252 5.11757H10.161L10.2647 4.80638ZM1.85408 5.59875L1.9578 5.9157H2.28628L2.02119 6.10875L2.12204 6.41993L1.85408 6.22688L1.58899 6.41993L1.68984 6.10587L1.42188 5.91282H1.75611L1.85408 5.59875ZM3.72407 5.59875L3.82492 5.9157H4.15627L3.88831 6.10875L3.99203 6.41993L3.72407 6.22688L3.4561 6.41993L3.55983 6.10587L3.29187 5.91282H3.62034L3.72407 5.59875ZM5.59118 5.59875L5.69491 5.9157H6.0205L5.75542 6.10875L5.85626 6.41993L5.5883 6.22688L5.32321 6.41993L5.42406 6.10587L5.1561 5.91282H5.48745L5.59118 5.59875ZM7.46117 5.59875L7.56202 5.9157H7.89337L7.62541 6.10875L7.72914 6.41993L7.46117 6.22688L7.19321 6.41993L7.29694 6.10587L7.02897 5.91282H7.35744L7.46117 5.59875ZM9.32828 5.59875L9.43201 5.9157H9.76048L9.4954 6.10875L9.59625 6.41993L9.32828 6.22688L9.0632 6.41993L9.16405 6.10587L8.89896 5.91282H9.22744L9.32828 5.59875ZM11.1983 5.59875L11.2991 5.9157H11.6305L11.3625 6.10875L11.4662 6.41993L11.1983 6.22688L10.9303 6.41993L11.034 6.10587L10.7661 5.91282H11.0974L11.1983 5.59875ZM2.79051 6.394L2.89136 6.70807H3.22271L2.95475 6.90112L3.0556 7.21807L2.79051 7.02213L2.52255 7.21518L2.6234 6.90112L2.35831 6.70807H2.68678L2.79051 6.394ZM4.65762 6.394L4.76135 6.70807H5.08983L4.82186 6.90112L4.92559 7.21807L4.65762 7.02213L4.38966 7.21518L4.49339 6.90112L4.22542 6.70807H4.55678L4.65762 6.394ZM6.52762 6.394L6.62846 6.70807H6.95982L6.69185 6.90112L6.7927 7.21807L6.52762 7.02213L6.25965 7.21518L6.3605 6.90112L6.09542 6.70807H6.42389L6.52762 6.394ZM8.39473 6.394L8.49846 6.70807H8.82693L8.56185 6.90112L8.66269 7.21807L8.39473 7.02213L8.12964 7.21518L8.23049 6.90112L7.96253 6.70807H8.29676L8.39473 6.394ZM10.2647 6.394L10.3656 6.70807H10.6969L10.429 6.90112L10.5298 7.21807L10.2647 7.02213L9.99675 7.21518L10.0976 6.90112L9.83252 6.70807H10.161L10.2647 6.394ZM1.85408 7.18925L1.9578 7.50332H2.28628L2.02119 7.69637L2.12204 8.01043L1.85408 7.81738L1.58899 8.01043L1.68984 7.69349L1.42188 7.50044H1.75611L1.85408 7.18925ZM3.72407 7.18925L3.82492 7.50332H4.15627L3.88831 7.69637L3.99203 8.01043L3.72407 7.81738L3.4561 8.01043L3.55983 7.69349L3.29187 7.50044H3.62034L3.72407 7.18925ZM5.59118 7.18925L5.69491 7.50332H6.0205L5.76118 7.69637L5.86203 8.01043L5.59406 7.81738L5.32898 8.01043L5.42982 7.69349L5.16186 7.50044H5.49321L5.59118 7.18925ZM7.46117 7.18925L7.56202 7.50332H7.89337L7.62541 7.69637L7.72914 8.01043L7.46117 7.81738L7.19321 8.01043L7.29694 7.69349L7.02897 7.50044H7.35744L7.46117 7.18925ZM9.32828 7.18925L9.43201 7.50332H9.76048L9.4954 7.69637L9.59625 8.01043L9.32828 7.81738L9.0632 8.01043L9.16405 7.69349L8.89896 7.50044H9.22744L9.32828 7.18925ZM11.1983 7.18925L11.2991 7.50332H11.6305L11.3625 7.69637L11.4662 8.01043L11.1983 7.81738L10.9303 8.01043L11.034 7.69349L10.7661 7.50044H11.0974L11.1983 7.18925Z" fill="#212121"/>
</g>
<defs>
<clipPath id="clip0_229_3211">
<rect width="19.67" height="14.7525" fill="white" transform="translate(0.921875 0.492676)"/>
</clipPath>
</defs>
</svg>
