<svg width="54" height="54" viewBox="0 0 54 54" fill="none" xmlns="http://www.w3.org/2000/svg">
<path d="M27 0L46.0919 7.90812L54 27L46.0919 46.0919L27 54L7.90812 46.0919L0 27L7.90812 7.90812L27 0Z" fill="#F35252"/>
<path d="M39.2385 14H26.0583C24.533 14 23.2968 15.2254 23.2968 16.7368V23.1709C23.9935 23.5141 24.7464 23.8852 25.449 24.2314L26.5241 22.0996C27.175 20.8105 28.7618 20.2867 30.0622 20.9307C31.3652 21.577 31.8932 23.1453 31.2409 24.4369L29.3245 28.2364C29.3758 28.7407 29.3292 29.25 29.1871 29.7369H30.4524L27.1153 38.8312C26.9172 39.3705 27.3 40 27.9415 40C28.3002 40 28.6376 39.7807 28.7671 39.4263L32.3226 29.7369H32.9385L36.5301 39.4293C36.6608 39.7818 36.9973 40 37.3557 40C37.9551 40 38.3946 39.4066 38.1801 38.8288L34.811 29.7369H39.2386C40.7635 29.7369 42 28.5115 42 27.0001V16.7368C42 15.2254 40.7635 14 39.2385 14ZM37.3553 26.0052H33.4119C32.9266 26.0052 32.5329 25.6151 32.5329 25.1342C32.5329 24.6528 32.9266 24.2631 33.4119 24.2631H37.3552C37.841 24.2631 38.2342 24.6528 38.2342 25.1342C38.2342 25.6151 37.841 26.0052 37.3553 26.0052ZM37.3553 22.7395H33.4119C32.9266 22.7395 32.5329 22.3498 32.5329 21.8684C32.5329 21.3876 32.9266 20.9974 33.4119 20.9974H37.3552C37.841 20.9974 38.2342 21.3876 38.2342 21.8684C38.2342 22.3498 37.841 22.7395 37.3553 22.7395ZM37.3553 19.4742H27.9415C27.4558 19.4742 27.0626 19.084 27.0626 18.6032C27.0626 18.1224 27.4558 17.7321 27.9415 17.7321H37.3552C37.8409 17.7321 38.2342 18.1222 38.2342 18.6032C38.2342 19.0841 37.841 19.4742 37.3553 19.4742Z" fill="white"/>
<path d="M27.4643 29.3633C27.6231 28.9021 27.622 28.4203 27.4878 27.9807L29.6691 23.6577C29.8861 23.2274 29.7103 22.7041 29.2761 22.489C28.8422 22.2738 28.3141 22.4482 28.0969 22.8786L26.2366 26.5655C25.1246 26.0168 23.4352 25.1843 22.0743 24.5136C20.8081 23.8896 19.9045 23.3299 18.3627 23.3299H17.5861C18.7866 23.3299 19.858 22.7823 20.5593 21.9253C21.0944 21.2732 21.4144 20.4421 21.4144 19.5364C21.4144 17.4406 19.7006 15.7421 17.5857 15.7421C15.4717 15.7421 13.7578 17.4406 13.7578 19.5364C13.7578 20.5428 14.1533 21.4574 14.7986 22.1361C15.4962 22.8713 16.487 23.3299 17.5854 23.3302C16.1128 23.3302 14.6731 23.9215 13.6374 24.9507C12.5815 25.9943 12 27.3848 12 28.8661V31.665C12 32.87 12.7894 33.8952 13.8828 34.26V39.1287C13.8828 39.6099 14.2763 39.9998 14.7617 39.9998H20.4101C20.8955 39.9998 21.289 39.6099 21.289 39.1287V29.342C22.1224 29.7549 23.2171 30.2973 24.1029 30.7364C24.7238 31.044 25.4494 31.0716 26.0965 30.8108C26.7417 30.5477 27.239 30.0239 27.4608 29.3735L27.4643 29.3633Z" fill="white"/>
</svg>
