<svg width="107" height="101" viewBox="0 0 107 101" fill="none" xmlns="http://www.w3.org/2000/svg">
<g clip-path="url(#clip0_532_3074)">
<g clip-path="url(#clip1_532_3074)">
<path d="M86.9634 24.683H21.8084C19.9166 24.7594 18.1323 25.583 16.8467 26.9729C15.5612 28.3629 14.8792 30.2059 14.9504 32.098V69.183C14.8792 71.075 15.5612 72.918 16.8467 74.308C18.1323 75.698 19.9166 76.5215 21.8084 76.598H86.9634C88.8552 76.5215 90.6394 75.698 91.925 74.308C93.2106 72.918 93.8925 71.075 93.8214 69.183V32.102C93.8936 30.2093 93.2122 28.3652 91.9265 26.9744C90.6408 25.5835 88.8559 24.7594 86.9634 24.683ZM92.1074 69.183C92.1572 70.601 91.6447 71.9813 90.6813 73.0231C89.718 74.0649 88.382 74.6838 86.9644 74.745H83.0774C82.9731 73.8452 82.5424 73.015 81.8669 72.4116C81.1915 71.8082 80.3181 71.4735 79.4124 71.471H29.3594C28.4536 71.4735 27.5803 71.8082 26.9048 72.4116C26.2293 73.015 25.7987 73.8452 25.6944 74.745H21.8074C20.3898 74.6838 19.0537 74.0649 18.0904 73.0231C17.1271 71.9813 16.6145 70.601 16.6644 69.183V32.102C16.6145 30.6839 17.1271 29.3036 18.0904 28.2618C19.0537 27.22 20.3898 26.6011 21.8074 26.54H86.9634C88.381 26.6011 89.717 27.22 90.6804 28.2618C91.6437 29.3036 92.1562 30.6839 92.1064 32.102L92.1074 69.183Z" fill="white"/>
<path d="M15.9227 64.4153C15.7319 64.4155 15.5445 64.3607 15.3836 64.2581C15.2228 64.1555 15.0948 64.0093 15.0145 63.8362C14.9593 63.717 14.9281 63.5886 14.9227 63.4573C14.9174 63.326 14.9379 63.1949 14.9833 63.0716C15.0286 62.9482 15.0973 62.8351 15.1864 62.7385C15.2755 62.642 15.3835 62.5632 15.5028 62.5081L35.3094 53.3255C35.45 53.2601 35.6037 53.2283 35.7586 53.2327C35.9136 53.237 36.0653 53.2768 36.202 53.3499L45.4754 58.3176L70.0985 47.2102C70.3369 47.1015 70.6085 47.0911 70.8543 47.1819L92.8797 55.2307C93.0034 55.2754 93.1166 55.3433 93.2137 55.4319C93.3108 55.5205 93.3885 55.6283 93.4442 55.7473C93.4999 55.8664 93.5321 55.9949 93.5379 56.1262C93.5438 56.2576 93.5242 56.3884 93.4793 56.512C93.4347 56.6357 93.3649 56.7498 93.2762 56.8469C93.1875 56.9441 93.081 57.0226 92.9618 57.0784C92.8426 57.1341 92.7143 57.1664 92.5829 57.1721C92.4514 57.1779 92.3198 57.1576 92.1961 57.1126L70.5536 49.2044L45.8524 60.3469C45.7126 60.4104 45.5606 60.4408 45.4071 60.4358C45.2536 60.4308 45.103 60.3911 44.9676 60.3186L35.7 55.3548L16.3446 64.3274C16.2118 64.3877 16.0685 64.4176 15.9227 64.4153Z" fill="white"/>
<path d="M36.9375 37.9155C36.3442 37.9155 35.7641 38.0914 35.2708 38.4211C34.7774 38.7507 34.3929 39.2192 34.1659 39.7674C33.9388 40.3156 33.8794 40.9188 33.9951 41.5007C34.1109 42.0827 34.3966 42.6172 34.8162 43.0368C35.2357 43.4563 35.7703 43.7421 36.3522 43.8578C36.9342 43.9736 37.5374 43.9142 38.0856 43.6871C38.6337 43.46 39.1023 43.0755 39.4319 42.5822C39.7616 42.0888 39.9375 41.5088 39.9375 40.9155C39.9375 40.1198 39.6214 39.3568 39.0588 38.7941C38.4962 38.2315 37.7331 37.9155 36.9375 37.9155ZM36.9375 35.9155C37.9264 35.9155 38.8931 36.2087 39.7154 36.7581C40.5376 37.3075 41.1785 38.0884 41.5569 39.002C41.9353 39.9157 42.0344 40.921 41.8414 41.8909C41.6485 42.8608 41.1723 43.7517 40.473 44.451C39.7738 45.1503 38.8829 45.6265 37.913 45.8194C36.943 46.0123 35.9377 45.9133 35.0241 45.5349C34.1105 45.1564 33.3296 44.5156 32.7802 43.6933C32.2307 42.8711 31.9375 41.9044 31.9375 40.9155C31.9375 39.5894 32.4643 38.3176 33.402 37.3799C34.3396 36.4423 35.6114 35.9155 36.9375 35.9155Z" fill="white"/>
</g>
</g>
<defs>
<clipPath id="clip0_532_3074">
<rect width="106" height="100" fill="white" transform="translate(0.921875 0.686951)"/>
</clipPath>
<clipPath id="clip1_532_3074">
<rect width="106" height="100" fill="white" transform="translate(0.921875 0.686951)"/>
</clipPath>
</defs>
</svg>
