<svg width="107" height="101" viewBox="0 0 107 101" fill="none" xmlns="http://www.w3.org/2000/svg">
<g clip-path="url(#clip0_532_3125)">
<g clip-path="url(#clip1_532_3125)">
<g clip-path="url(#clip2_532_3125)">
<path d="M39.2782 82.9369H69.3092C70.246 82.9369 71.1446 83.3089 71.8071 83.9713C72.4697 84.6336 72.8419 85.532 72.8422 86.4689H35.7422C35.7425 85.532 36.1148 84.6336 36.7773 83.9713C37.4399 83.3089 38.3384 82.9369 39.2753 82.9369" fill="white"/>
<path d="M71.0737 13.6929H35.7457C33.9507 13.618 32.199 14.2576 30.8746 15.4716C29.5502 16.6856 28.7609 18.3751 28.6797 20.1699V80.8399C28.7609 82.6346 29.5502 84.3241 30.8746 85.5381C32.199 86.7521 33.9507 87.3917 35.7457 87.3168H71.0767C72.8717 87.3917 74.6233 86.7521 75.9478 85.5381C77.2722 84.3241 78.0614 82.6346 78.1427 80.8399V20.1709C78.0614 18.3761 77.2722 16.6866 75.9478 15.4726C74.6233 14.2586 72.8717 13.619 71.0767 13.6939M76.3767 80.8409C76.3126 82.1855 75.7195 83.4503 74.7267 84.3594C73.7338 85.2685 72.4217 85.7482 71.0767 85.6938H35.7457C34.4006 85.7482 33.0887 85.2685 32.0958 84.3594C31.103 83.4503 30.5098 82.1855 30.4457 80.8409V20.1649C30.5098 18.8202 31.103 17.5554 32.0958 16.6463C33.0887 15.7372 34.4006 15.2575 35.7457 15.3119V15.3169H71.0767C72.4217 15.2625 73.7338 15.7422 74.7267 16.6513C75.7195 17.5604 76.3126 18.8252 76.3767 20.1699V80.8409Z" fill="white"/>
<path d="M29.6408 63.91C29.4856 63.91 29.3324 63.874 29.1936 63.8046C29.0547 63.7351 28.9332 63.6338 28.8401 63.5096C28.7613 63.4046 28.7047 63.2853 28.6721 63.1581C28.6395 63.0309 28.632 62.8984 28.6506 62.7684C28.6692 62.6384 28.7126 62.5133 28.7795 62.4003C28.8464 62.2873 28.9362 62.189 29.0412 62.1102L41.3303 52.9266C41.4939 52.8046 41.6908 52.7361 41.8947 52.7294C42.0987 52.7226 42.2996 52.7777 42.4709 52.8885L49.8791 57.6893L62.8674 46.8514C63.0257 46.7193 63.2224 46.6388 63.4279 46.6219C63.6335 46.6051 63.8381 46.6521 64.0158 46.7567L77.6819 54.8046C77.9103 54.9392 78.0764 55.1592 78.1428 55.4159C78.2092 55.6726 78.1719 55.9452 78.0373 56.1737C77.9027 56.4021 77.6827 56.5682 77.426 56.6346C77.1693 56.701 76.8967 56.6627 76.6682 56.5282L63.6076 48.8378L50.592 59.6971C50.4285 59.8346 50.2252 59.9158 50.0119 59.9286C49.7987 59.9414 49.5872 59.8854 49.4084 59.7684L41.967 54.9481L30.2346 63.7137C30.0628 63.842 29.8552 63.9111 29.6408 63.91Z" fill="white"/>
<path d="M44.6562 33.4096C44.0629 33.4096 43.4829 33.5856 42.9895 33.9152C42.4962 34.2448 42.1117 34.7134 41.8846 35.2616C41.6575 35.8097 41.5981 36.4129 41.7139 36.9949C41.8296 37.5768 42.1154 38.1114 42.5349 38.5309C42.9545 38.9505 43.489 39.2362 44.071 39.352C44.6529 39.4677 45.2561 39.4083 45.8043 39.1812C46.3525 38.9542 46.821 38.5697 47.1507 38.0763C47.4803 37.583 47.6562 37.003 47.6562 36.4096C47.6562 35.614 47.3402 34.8509 46.7776 34.2883C46.215 33.7257 45.4519 33.4096 44.6562 33.4096ZM44.6562 31.4096C45.6452 31.4096 46.6119 31.7029 47.4341 32.2523C48.2563 32.8017 48.8972 33.5826 49.2756 34.4962C49.6541 35.4098 49.7531 36.4152 49.5602 37.3851C49.3673 38.355 48.891 39.2459 48.1918 39.9451C47.4925 40.6444 46.6016 41.1206 45.6317 41.3135C44.6618 41.5065 43.6565 41.4074 42.7428 41.029C41.8292 40.6506 41.0483 40.0097 40.4989 39.1875C39.9495 38.3652 39.6562 37.3985 39.6562 36.4096C39.6562 35.0835 40.183 33.8118 41.1207 32.8741C42.0584 31.9364 43.3302 31.4096 44.6562 31.4096Z" fill="white"/>
</g>
</g>
</g>
<defs>
<clipPath id="clip0_532_3125">
<rect width="106" height="100" fill="white" transform="translate(0.640625 0.686951)"/>
</clipPath>
<clipPath id="clip1_532_3125">
<rect width="106" height="100" fill="white" transform="translate(0.640625 0.686951)"/>
</clipPath>
<clipPath id="clip2_532_3125">
<rect width="106" height="100" fill="white" transform="translate(0.640625 0.686951)"/>
</clipPath>
</defs>
</svg>
