<svg width="174" height="107" viewBox="0 0 174 107" fill="none" xmlns="http://www.w3.org/2000/svg">
<g clip-path="url(#clip0_532_3106)">
<g clip-path="url(#clip1_532_3106)">
<g clip-path="url(#clip2_532_3106)">
<path d="M74.4412 78.416H100.941C101.878 78.416 102.777 78.788 103.439 79.4504C104.102 80.1127 104.474 81.0111 104.474 81.948H70.9062C70.9065 81.0111 71.2789 80.1127 71.9414 79.4504C72.6039 78.788 73.5024 78.416 74.4393 78.416" fill="white"/>
<path d="M104.464 19.687H69.1364C67.2624 19.6872 65.4653 20.4318 64.1402 21.7568C62.8151 23.0819 62.0706 24.879 62.0703 26.753V75.531C62.0703 77.405 62.8148 79.2022 64.1399 80.5274C65.465 81.8525 67.2623 82.597 69.1364 82.597H104.467C106.341 82.5962 108.137 81.8514 109.462 80.5263C110.786 79.2013 111.53 77.4045 111.53 75.531V26.753C111.53 24.8789 110.786 23.0817 109.461 21.7565C108.136 20.4314 106.338 19.687 104.464 19.687ZM109.764 75.531C109.763 76.9361 109.204 78.2833 108.21 79.2769C107.217 80.2705 105.87 80.8294 104.464 80.831H69.1364C67.7312 80.8294 66.384 80.2705 65.3904 79.2769C64.3968 78.2833 63.8379 76.9361 63.8363 75.531V26.753C63.8379 25.3478 64.3968 24.0006 65.3904 23.007C66.384 22.0134 67.7312 21.4545 69.1364 21.453H104.467C105.872 21.4548 107.219 22.0138 108.213 23.0073C109.206 24.0009 109.765 25.3479 109.767 26.753L109.764 75.531Z" fill="white"/>
<path d="M63.0705 64.6639C62.9153 64.6639 62.7621 64.6279 62.6233 64.5585C62.4844 64.489 62.3629 64.3877 62.2697 64.2635C62.1909 64.1585 62.1344 64.0392 62.1018 63.912C62.0692 63.7848 62.0617 63.6523 62.0803 63.5223C62.0989 63.3923 62.1423 63.2672 62.2092 63.1542C62.2761 63.0412 62.3659 62.9429 62.4709 62.8641L74.76 53.6805C74.9236 53.5585 75.1205 53.4901 75.3244 53.4833C75.5284 53.4765 75.7293 53.5316 75.9006 53.6424L83.3088 58.4432L96.2971 47.6053C96.4554 47.4732 96.6521 47.3927 96.8576 47.3758C97.0631 47.359 97.2678 47.406 97.4455 47.5106L111.112 55.5585C111.34 55.6931 111.506 55.9131 111.572 56.1698C111.639 56.4265 111.602 56.6991 111.467 56.9276C111.332 57.1561 111.112 57.3221 110.856 57.3885C110.599 57.4549 110.326 57.4167 110.098 57.2821L97.0373 49.5917L84.0217 60.451C83.8582 60.5885 83.6549 60.6697 83.4416 60.6825C83.2284 60.6953 83.0169 60.6393 82.8381 60.5223L75.3967 55.702L63.6643 64.4676C63.4925 64.5959 63.2849 64.665 63.0705 64.6639Z" fill="white"/>
<path d="M79.0938 34.1635C78.5004 34.1635 77.9204 34.3395 77.427 34.6691C76.9337 34.9987 76.5492 35.4673 76.3221 36.0155C76.095 36.5636 76.0356 37.1668 76.1514 37.7488C76.2671 38.3307 76.5529 38.8653 76.9724 39.2848C77.392 39.7044 77.9265 39.9901 78.5085 40.1059C79.0904 40.2216 79.6936 40.1622 80.2418 39.9352C80.79 39.7081 81.2585 39.3236 81.5882 38.8302C81.9178 38.3369 82.0938 37.7569 82.0938 37.1635C82.0938 36.3679 81.7777 35.6048 81.2151 35.0422C80.6525 34.4796 79.8894 34.1635 79.0938 34.1635ZM79.0938 32.1635C80.0827 32.1635 81.0494 32.4568 81.8716 33.0062C82.6938 33.5556 83.3347 34.3365 83.7131 35.2501C84.0916 36.1637 84.1906 37.1691 83.9977 38.139C83.8048 39.1089 83.3285 39.9998 82.6293 40.699C81.93 41.3983 81.0391 41.8745 80.0692 42.0674C79.0993 42.2604 78.094 42.1613 77.1803 41.7829C76.2667 41.4045 75.4858 40.7636 74.9364 39.9414C74.387 39.1191 74.0938 38.1524 74.0938 37.1635C74.0938 35.8374 74.6205 34.5657 75.5582 33.628C76.4959 32.6903 77.7677 32.1635 79.0938 32.1635Z" fill="white"/>
</g>
</g>
</g>
<defs>
<clipPath id="clip0_532_3106">
<rect width="106" height="100" fill="white" transform="translate(34.0703 0.686951)"/>
</clipPath>
<clipPath id="clip1_532_3106">
<rect width="106" height="100" fill="white" transform="translate(34.0703 0.686951)"/>
</clipPath>
<clipPath id="clip2_532_3106">
<rect width="106" height="100" fill="white" transform="translate(34.0703 0.686951)"/>
</clipPath>
</defs>
</svg>
