<svg width="107" height="101" viewBox="0 0 107 101" fill="none" xmlns="http://www.w3.org/2000/svg">
<g clip-path="url(#clip0_532_3056)">
<g clip-path="url(#clip1_532_3056)">
<path d="M32.985 77.9H73.416C74.2407 77.9002 75.0316 78.228 75.6148 78.8112C76.198 79.3943 76.5257 80.1852 76.526 81.01H29.875C29.8753 80.1852 30.203 79.3943 30.7862 78.8112C31.3694 78.228 32.1603 77.9002 32.985 77.9Z" fill="#212121"/>
<path d="M76.5016 19.687H30.3416C28.2233 19.6896 26.1925 20.5322 24.6947 22.0301C23.1969 23.5279 22.3542 25.5587 22.3516 27.6769V73.834C22.3542 75.9522 23.1969 77.983 24.6947 79.4808C26.1925 80.9787 28.2233 81.8213 30.3416 81.824H76.5016C78.6198 81.8213 80.6506 80.9787 82.1484 79.4808C83.6463 77.983 84.4889 75.9522 84.4916 73.834V27.6769C84.4889 25.5587 83.6463 23.5279 82.1484 22.0301C80.6506 20.5322 78.6198 19.6896 76.5016 19.687ZM82.7166 73.834C82.715 75.4818 82.0597 77.0617 80.8945 78.2269C79.7293 79.3921 78.1494 80.0474 76.5016 80.049H30.3416C28.694 80.0468 27.1145 79.3913 25.9496 78.2262C24.7847 77.0611 24.1294 75.4815 24.1276 73.834V27.6769C24.1294 26.0295 24.7847 24.45 25.9496 23.285C27.1146 22.1201 28.6941 21.4648 30.3416 21.463H76.5016C78.1491 21.4648 79.7287 22.1201 80.8938 23.285C82.0589 24.4499 82.7144 26.0294 82.7166 27.6769V73.834Z" fill="#212121"/>
<path d="M23.3519 64.6638C23.178 64.6637 23.0068 64.6183 22.8558 64.532C22.7048 64.4457 22.5789 64.3214 22.4906 64.1716C22.356 63.9431 22.3168 63.6705 22.3832 63.4138C22.4496 63.1571 22.6157 62.9371 22.8441 62.8025L38.4125 53.6199C38.5607 53.5325 38.7287 53.4845 38.9008 53.4812C39.0728 53.4779 39.2434 53.5188 39.3949 53.6003L48.5101 58.5212L65.7211 47.5271C65.8632 47.437 66.0259 47.384 66.1937 47.3728C66.3616 47.3616 66.5292 47.3922 66.682 47.4626L83.9926 55.5105C84.1116 55.566 84.2183 55.6451 84.307 55.7419C84.3958 55.8387 84.4652 55.9515 84.5101 56.0749C84.5551 56.1984 84.5744 56.3295 84.5687 56.4607C84.563 56.5919 84.5324 56.7206 84.4769 56.8396C84.3651 57.08 84.1615 57.2662 83.9125 57.3572C83.6635 57.4481 83.3892 57.4366 83.1488 57.3249L66.3363 49.5076L49.0922 60.5242C48.9418 60.6202 48.7685 60.6739 48.5902 60.6804C48.4119 60.6869 48.2354 60.6461 48.0785 60.5613L38.9418 55.6296L23.8597 64.53C23.7054 64.6192 23.5302 64.6652 23.3519 64.6638Z" fill="#212121"/>
<path d="M43.375 38.1635C42.7817 38.1635 42.2016 38.3395 41.7083 38.6691C41.2149 38.9987 40.8304 39.4673 40.6034 40.0155C40.3763 40.5636 40.3169 41.1668 40.4326 41.7488C40.5484 42.3307 40.8341 42.8653 41.2537 43.2848C41.6732 43.7044 42.2078 43.9901 42.7897 44.1059C43.3717 44.2216 43.9749 44.1622 44.5231 43.9352C45.0712 43.7081 45.5398 43.3236 45.8694 42.8302C46.1991 42.3369 46.375 41.7569 46.375 41.1635C46.375 40.3679 46.0589 39.6048 45.4963 39.0422C44.9337 38.4796 44.1706 38.1635 43.375 38.1635ZM43.375 36.1635C44.3639 36.1635 45.3306 36.4568 46.1529 37.0062C46.9751 37.5556 47.616 38.3365 47.9944 39.2501C48.3728 40.1637 48.4719 41.1691 48.2789 42.139C48.086 43.1089 47.6098 43.9998 46.9105 44.699C46.2113 45.3983 45.3204 45.8745 44.3505 46.0674C43.3805 46.2604 42.3752 46.1613 41.4616 45.7829C40.548 45.4045 39.7671 44.7636 39.2177 43.9414C38.6682 43.1191 38.375 42.1524 38.375 41.1635C38.375 39.8374 38.9018 38.5657 39.8395 37.628C40.7771 36.6903 42.0489 36.1635 43.375 36.1635Z" fill="#212121"/>
</g>
</g>
<defs>
<clipPath id="clip0_532_3056">
<rect width="106" height="100" fill="white" transform="translate(0.351562 0.686951)"/>
</clipPath>
<clipPath id="clip1_532_3056">
<rect width="106" height="100" fill="white" transform="translate(0.351562 0.686951)"/>
</clipPath>
</defs>
</svg>
