<svg width="54" height="54" viewBox="0 0 54 54" fill="none" xmlns="http://www.w3.org/2000/svg">
<path d="M27 0L46.0919 7.90812L54 27L46.0919 46.0919L27 54L7.90812 46.0919L0 27L7.90812 7.90812L27 0Z" fill="#F35252"/>
<path d="M20.2911 34.6818C18.4234 34.6818 16.7621 33.4705 16.1587 31.667L16.1179 31.5311C15.9756 31.0535 15.916 30.6519 15.916 30.2501V22.1923L13.0856 31.7627C12.7216 33.1703 13.5512 34.6297 14.9429 35.0186L32.9837 39.9126C33.2032 39.9704 33.429 39.9998 33.6558 40C34.8177 40 35.8794 39.2188 36.177 38.0676L37.2281 34.6818H20.2911ZM23.4996 22.2728C24.7866 22.2728 25.8329 21.2127 25.8329 19.9091C25.8329 18.6056 24.7866 17.5454 23.4996 17.5454C22.2127 17.5454 21.1662 18.6056 21.1662 19.9091C21.1662 21.2126 22.2127 22.2728 23.4996 22.2728Z" fill="white"/>
<path d="M38.0831 14H20.5826C18.9751 14 17.666 15.3261 17.666 16.9547V29.9545C17.666 31.5831 18.9751 32.9091 20.5826 32.9091H38.0831C39.6909 32.9091 41 31.5831 41 29.9545V16.9547C41 15.3261 39.6909 14 38.0831 14ZM20.5826 16.3637H38.0831C38.4053 16.3637 38.6665 16.6284 38.6665 16.9547V25.3443L34.981 20.9881C34.5901 20.5237 34.0242 20.2755 33.4164 20.2615C32.8121 20.2649 32.2451 20.5367 31.8578 21.0071L27.5245 26.2755L26.1128 24.849C25.3149 24.0408 24.0163 24.0408 23.2195 24.849L19.9994 28.1097V16.9546C19.9994 16.6283 20.2607 16.3637 20.5826 16.3637Z" fill="white"/>
</svg>
