<svg width="79" height="79" viewBox="0 0 79 79" fill="none" xmlns="http://www.w3.org/2000/svg">
<path d="M39.5 0L67.4307 11.5693L79 39.5L67.4307 67.4307L39.5 79L11.5693 67.4307L0 39.5L11.5693 11.5693L39.5 0Z" fill="#F35252"/>
<path d="M52.2435 23.714H55.8855C56.0465 23.714 56.2009 23.6501 56.3148 23.5362C56.4286 23.4224 56.4925 23.268 56.4925 23.107C56.4925 22.946 56.4286 22.7916 56.3148 22.6778C56.2009 22.564 56.0465 22.5 55.8855 22.5H52.2435C52.0825 22.5 51.9281 22.564 51.8143 22.6778C51.7004 22.7916 51.6365 22.946 51.6365 23.107C51.6365 23.268 51.7004 23.4224 51.8143 23.5362C51.9281 23.6501 52.0825 23.714 52.2435 23.714ZM55.4564 28.3922C55.5126 28.4488 55.5795 28.4937 55.6531 28.5243C55.7268 28.555 55.8058 28.5707 55.8855 28.5707C55.9653 28.5707 56.0443 28.555 56.1179 28.5243C56.1916 28.4937 56.2584 28.4488 56.3147 28.3922C56.4285 28.2784 56.4924 28.124 56.4924 27.9631C56.4924 27.8021 56.4285 27.6478 56.3147 27.5339L54.4937 25.7129C54.4087 25.6281 54.3005 25.5703 54.1827 25.547C54.065 25.5236 53.9429 25.5358 53.832 25.5818C53.7585 25.6122 53.6917 25.6567 53.6353 25.7129L51.8143 27.5339C51.7563 27.5899 51.7101 27.6569 51.6783 27.731C51.6465 27.805 51.6297 27.8847 51.629 27.9653C51.6283 28.0459 51.6437 28.1258 51.6742 28.2004C51.7047 28.275 51.7498 28.3428 51.8068 28.3998C51.8638 28.4568 51.9316 28.5018 52.0062 28.5324C52.0808 28.5629 52.1607 28.5782 52.2413 28.5775C52.3219 28.5768 52.4015 28.5601 52.4756 28.5283C52.5497 28.4965 52.6166 28.4502 52.6726 28.3922L53.4575 27.6074V44.101L52.6726 43.3162C52.6166 43.2582 52.5497 43.212 52.4756 43.1801C52.4015 43.1483 52.3219 43.1316 52.2413 43.1309C52.1607 43.1302 52.0808 43.1455 52.0062 43.1761C51.9316 43.2066 51.8638 43.2517 51.8068 43.3087C51.7498 43.3657 51.7047 43.4334 51.6742 43.508C51.6437 43.5826 51.6283 43.6626 51.629 43.7432C51.6297 43.8238 51.6465 43.9034 51.6783 43.9775C51.7101 44.0515 51.7563 44.1185 51.8143 44.1745L53.6353 45.9955C53.7203 46.0804 53.8285 46.1381 53.9463 46.1614C54.0641 46.1848 54.1861 46.1727 54.297 46.1266C54.3705 46.0962 54.4373 46.0517 54.4937 45.9955L56.3147 44.1745C56.3727 44.1185 56.4189 44.0515 56.4507 43.9775C56.4825 43.9034 56.4993 43.8238 56.5 43.7432C56.5007 43.6626 56.4853 43.5826 56.4548 43.508C56.4243 43.4334 56.3792 43.3657 56.3222 43.3087C56.2652 43.2517 56.1974 43.2066 56.1228 43.1761C56.0482 43.1455 55.9683 43.1302 55.8877 43.1309C55.8071 43.1316 55.7275 43.1483 55.6534 43.1801C55.5793 43.212 55.5124 43.2582 55.4564 43.3162L54.6715 44.101V27.6074L55.4564 28.3922ZM55.8855 47.9944H52.2435C52.0825 47.9944 51.9281 48.0584 51.8143 48.1722C51.7004 48.286 51.6365 48.4404 51.6365 48.6014C51.6365 48.7624 51.7004 48.9168 51.8143 49.0306C51.9281 49.1445 52.0825 49.2084 52.2435 49.2084H55.8855C56.0465 49.2084 56.2009 49.1445 56.3148 49.0306C56.4286 48.9168 56.4925 48.7624 56.4925 48.6014C56.4925 48.4404 56.4286 48.286 56.3148 48.1722C56.2009 48.0584 56.0465 47.9944 55.8855 47.9944ZM48.6014 51.6365C48.4404 51.6365 48.286 51.7004 48.1722 51.8143C48.0584 51.9281 47.9944 52.0825 47.9944 52.2435V55.8855C47.9944 56.0465 48.0584 56.2009 48.1722 56.3148C48.286 56.4286 48.4404 56.4925 48.6014 56.4925C48.7624 56.4925 48.9168 56.4286 49.0306 56.3148C49.1445 56.2009 49.2084 56.0465 49.2084 55.8855V52.2435C49.2084 52.0825 49.1445 51.9281 49.0306 51.8143C48.9168 51.7004 48.7624 51.6365 48.6014 51.6365ZM45.9955 53.6353L44.1745 51.8143C44.1185 51.7563 44.0515 51.7101 43.9775 51.6783C43.9034 51.6465 43.8238 51.6297 43.7432 51.629C43.6626 51.6283 43.5826 51.6437 43.508 51.6742C43.4334 51.7047 43.3657 51.7498 43.3087 51.8068C43.2517 51.8638 43.2066 51.9316 43.1761 52.0062C43.1455 52.0808 43.1302 52.1607 43.1309 52.2413C43.1316 52.3219 43.1483 52.4015 43.1801 52.4756C43.212 52.5497 43.2582 52.6166 43.3162 52.6726L44.101 53.4575H27.6074L28.3922 52.6726C28.4502 52.6166 28.4965 52.5497 28.5283 52.4756C28.5601 52.4015 28.5768 52.3219 28.5775 52.2413C28.5782 52.1607 28.5629 52.0808 28.5324 52.0062C28.5018 51.9316 28.4568 51.8638 28.3998 51.8068C28.3428 51.7498 28.275 51.7047 28.2004 51.6742C28.1258 51.6437 28.0459 51.6283 27.9653 51.629C27.8847 51.6297 27.805 51.6465 27.731 51.6783C27.6569 51.7101 27.5899 51.7563 27.5339 51.8143L25.7129 53.6353C25.6281 53.7203 25.5703 53.8285 25.547 53.9463C25.5236 54.0641 25.5358 54.1861 25.5818 54.297C25.6122 54.3705 25.6567 54.4373 25.7129 54.4937L27.5339 56.3147C27.5902 56.3713 27.657 56.4161 27.7307 56.4468C27.8043 56.4774 27.8833 56.4932 27.9631 56.4932C28.0429 56.4932 28.1218 56.4774 28.1955 56.4468C28.2691 56.4161 28.336 56.3713 28.3922 56.3147C28.506 56.2009 28.57 56.0465 28.57 55.8855C28.57 55.7246 28.506 55.5702 28.3922 55.4564L27.6074 54.6715H44.101L43.3162 55.4564C43.2582 55.5124 43.212 55.5793 43.1801 55.6534C43.1483 55.7275 43.1316 55.8071 43.1309 55.8877C43.1302 55.9683 43.1455 56.0482 43.1761 56.1228C43.2066 56.1974 43.2517 56.2652 43.3087 56.3222C43.3657 56.3792 43.4334 56.4243 43.508 56.4548C43.5826 56.4853 43.6626 56.5007 43.7432 56.5C43.8238 56.4993 43.9034 56.4825 43.9775 56.4507C44.0515 56.4189 44.1185 56.3727 44.1745 56.3147L45.9955 54.4937C46.0804 54.4087 46.1381 54.3005 46.1614 54.1827C46.1848 54.065 46.1727 53.9429 46.1266 53.832C46.0962 53.7585 46.0517 53.6917 45.9955 53.6353ZM23.107 51.6365C22.946 51.6365 22.7916 51.7004 22.6778 51.8143C22.564 51.9281 22.5 52.0825 22.5 52.2435V55.8855C22.5 56.0465 22.564 56.2009 22.6778 56.3148C22.7916 56.4286 22.946 56.4925 23.107 56.4925C23.268 56.4925 23.4224 56.4286 23.5362 56.3148C23.6501 56.2009 23.714 56.0465 23.714 55.8855V52.2435C23.714 52.0825 23.6501 51.9281 23.5362 51.8143C23.4224 51.7004 23.268 51.6365 23.107 51.6365ZM44.7081 26.1421H27.0004L35.8542 34.9959L44.7081 26.1421Z" fill="white"/>
<path d="M47.3874 22.5H24.321C23.317 22.5 22.5 23.317 22.5 24.321V47.3874C22.5 48.3914 23.317 49.2084 24.321 49.2084H47.3874C48.3914 49.2084 49.2084 48.3914 49.2084 47.3874V24.321C49.2084 23.317 48.3914 22.5 47.3874 22.5ZM46.7804 46.1734C46.7802 46.2934 46.7445 46.4107 46.6778 46.5104C46.611 46.6101 46.5162 46.6878 46.4053 46.7336C46.3318 46.7643 46.253 46.7802 46.1734 46.7804H25.535C25.415 46.7802 25.2978 46.7445 25.198 46.6778C25.0983 46.611 25.0206 46.5162 24.9748 46.4053C24.9441 46.3318 24.9283 46.253 24.928 46.1734V25.535C24.9282 25.415 24.9639 25.2978 25.0307 25.198C25.0974 25.0983 25.1923 25.0206 25.3032 24.9748C25.3767 24.9441 25.4554 24.9283 25.535 24.928H46.1734C46.2934 24.9282 46.4107 24.9639 46.5104 25.0307C46.6101 25.0974 46.6878 25.1923 46.7336 25.3032C46.7643 25.3767 46.7802 25.4554 46.7804 25.535V46.1734Z" fill="white"/>
<path d="M26.1421 27.0004V44.7081L34.9959 35.8542L26.1421 27.0004ZM45.5664 44.7081V27.0004L36.7125 35.8542L45.5664 44.7081ZM27.0004 45.5664H44.7081L35.8542 36.7125L27.0004 45.5664Z" fill="white"/>
</svg>
