<svg width="107" height="101" viewBox="0 0 107 101" fill="none" xmlns="http://www.w3.org/2000/svg">
<g clip-path="url(#clip0_532_3089)">
<g clip-path="url(#clip1_532_3089)">
<g clip-path="url(#clip2_532_3089)">
<path d="M39.0817 88.743H68.7028C69.6271 88.7416 70.5142 89.1075 71.1688 89.7601C71.8235 90.4127 72.1921 91.2986 72.1937 92.223V92.228H35.5938C35.594 91.3038 35.9612 90.4175 36.6147 89.764C37.2683 89.1105 38.1545 88.7432 39.0787 88.743" fill="white"/>
<path d="M71.319 8.69295H36.469C34.6988 8.61996 32.9717 9.25109 31.6657 10.4482C30.3597 11.6454 29.581 13.3111 29.5 15.0809V86.201C29.581 87.9708 30.3597 89.6365 31.6657 90.8337C32.9717 92.0308 34.6988 92.6619 36.469 92.589H71.319C73.0892 92.6619 74.8162 92.0308 76.1223 90.8337C77.4283 89.6365 78.207 87.9708 78.288 86.201V15.0809C78.207 13.3111 77.4283 11.6454 76.1223 10.4482C74.8162 9.25109 73.0892 8.61996 71.319 8.69295ZM76.546 86.201C76.4842 87.5281 75.8998 88.7769 74.9205 89.6747C73.9412 90.5725 72.6465 91.0464 71.319 90.993H36.469C35.1415 91.0464 33.8467 90.5725 32.8674 89.6747C31.8881 88.7769 31.3038 87.5281 31.242 86.201V15.0809C31.304 13.7541 31.8885 12.5056 32.8678 11.6082C33.8471 10.7107 35.1418 10.2372 36.469 10.2909H71.319C72.6465 10.2375 73.9412 10.7114 74.9205 11.6092C75.8998 12.507 76.4842 13.7558 76.546 15.0829V86.201Z" fill="white"/>
<path d="M30.5034 64.1569C30.3481 64.1569 30.195 64.1208 30.0561 64.0514C29.9173 63.982 29.7957 63.8807 29.7026 63.7565C29.5425 63.5454 29.4734 63.2797 29.5092 63.0172C29.545 62.7547 29.6832 62.5175 29.894 62.3571L41.9936 53.1735C42.1672 53.0425 42.3797 52.9723 42.5971 52.9723C42.8146 52.9723 43.0251 53.0425 43.1987 53.1735L49.5131 57.9108L63.2221 47.0778C63.3812 46.952 63.5745 46.8781 63.7768 46.8649C63.9792 46.8517 64.1809 46.8996 64.3549 47.0036L77.8061 55.0514C77.9188 55.1189 78.0169 55.2086 78.0952 55.3141C78.1735 55.4196 78.2312 55.5392 78.2631 55.6666C78.2951 55.794 78.3 55.9264 78.2807 56.0563C78.2615 56.1862 78.2174 56.3108 78.1499 56.4235C78.0137 56.651 77.7937 56.8158 77.5366 56.8805C77.2795 56.9452 77.0063 56.9051 76.7788 56.7692L63.9194 49.0748L50.1499 59.9577C49.9769 60.0943 49.7629 60.1706 49.5424 60.1735C49.322 60.1764 49.1057 60.1063 48.9292 59.9743L42.603 55.2282L31.1108 63.9547C30.936 64.0867 30.7224 64.1578 30.5034 64.1569Z" fill="white"/>
<path d="M46.5156 33.6567C45.9223 33.6567 45.3423 33.8326 44.8489 34.1623C44.3556 34.4919 43.971 34.9604 43.744 35.5086C43.5169 36.0568 43.4575 36.66 43.5733 37.2419C43.689 37.8239 43.9747 38.3584 44.3943 38.778C44.8139 39.1976 45.3484 39.4833 45.9304 39.599C46.5123 39.7148 47.1155 39.6554 47.6637 39.4283C48.2119 39.2013 48.6804 38.8167 49.01 38.3234C49.3397 37.83 49.5156 37.25 49.5156 36.6567C49.5156 35.861 49.1996 35.098 48.6369 34.5354C48.0743 33.9727 47.3113 33.6567 46.5156 33.6567ZM46.5156 31.6567C47.5045 31.6567 48.4712 31.9499 49.2935 32.4993C50.1157 33.0487 50.7566 33.8296 51.135 34.7433C51.5135 35.6569 51.6125 36.6622 51.4196 37.6321C51.2266 38.602 50.7504 39.4929 50.0512 40.1922C49.3519 40.8915 48.461 41.3677 47.4911 41.5606C46.5212 41.7535 45.5158 41.6545 44.6022 41.2761C43.6886 40.8976 42.9077 40.2568 42.3583 39.4345C41.8089 38.6123 41.5156 37.6456 41.5156 36.6567C41.5156 35.3306 42.0424 34.0588 42.9801 33.1211C43.9178 32.1835 45.1895 31.6567 46.5156 31.6567Z" fill="white"/>
</g>
</g>
</g>
<defs>
<clipPath id="clip0_532_3089">
<rect width="106" height="100" fill="white" transform="translate(0.5 0.686951)"/>
</clipPath>
<clipPath id="clip1_532_3089">
<rect width="106" height="100" fill="white" transform="translate(0.5 0.686951)"/>
</clipPath>
<clipPath id="clip2_532_3089">
<rect width="106" height="100" fill="white" transform="translate(0.5 0.686951)"/>
</clipPath>
</defs>
</svg>
