<svg width="29" height="29" viewBox="0 0 29 29" fill="none" xmlns="http://www.w3.org/2000/svg">
<path d="M28.0938 13.0925C26.3346 12.2192 24.7072 11.1034 23.2593 9.77801C24.0029 6.97145 24.5546 4.11772 24.9105 1.23652C24.9937 0.565321 24.6195 0.34858 24.5032 0.29824C24.3441 0.237821 24.169 0.234044 24.0075 0.287546C23.846 0.341048 23.7079 0.44855 23.6166 0.59189C21.0606 3.64352 17.5587 3.29534 13.8518 2.92478C10.1154 2.55189 6.26133 2.17341 3.40311 5.44691C3.2076 5.2035 2.94481 5.0227 2.64731 4.92691C2.3498 4.83113 2.03067 4.82458 1.72947 4.90808L1.66501 4.92579C1.25796 5.03983 0.912853 5.31033 0.705404 5.67794C0.497955 6.04556 0.445101 6.48027 0.558435 6.88672L6.26179 27.2507C6.34225 27.5375 6.51433 27.7903 6.75191 27.9707C6.98949 28.1511 7.27957 28.2491 7.5781 28.25C7.70328 28.25 7.82753 28.2323 7.94804 28.1987L8.44738 28.0598C8.62053 28.0116 8.78247 27.9298 8.92393 27.8191C9.0654 27.7084 9.18362 27.571 9.27185 27.4147C9.36008 27.2584 9.41659 27.0863 9.43814 26.9082C9.45969 26.7301 9.44588 26.5495 9.39747 26.3767L7.63135 20.0688C10.2032 16.7687 13.7878 17.1179 17.5798 17.4959C21.368 17.8734 25.2809 18.2631 28.155 14.833L28.1564 14.8311C28.296 14.6576 28.3967 14.4562 28.4517 14.2406C28.5067 14.0249 28.5148 13.8 28.4755 13.581C28.4548 13.4754 28.4094 13.3761 28.3431 13.2913C28.2768 13.2064 28.1914 13.1383 28.0938 13.0925ZM8.45766 26.957C8.42986 27.0068 8.39242 27.0506 8.34751 27.0858C8.3026 27.121 8.25113 27.1469 8.19608 27.1621L7.69721 27.301C7.58615 27.3319 7.46731 27.3176 7.36684 27.2611C7.26637 27.2047 7.19249 27.1107 7.16144 26.9999L1.45808 6.63549C1.41141 6.46706 1.43352 6.28705 1.51958 6.13486C1.60564 5.98267 1.74864 5.87072 1.91725 5.82352L1.98124 5.80581C2.14995 5.75932 2.33025 5.7813 2.48278 5.86697C2.63531 5.95263 2.74769 6.09502 2.7954 6.26307L2.84585 6.44392V6.44485L8.49783 26.627C8.5133 26.6819 8.51771 26.7394 8.51082 26.796C8.50392 26.8527 8.48586 26.9074 8.45766 26.957ZM27.4375 14.2354C24.8806 17.2866 21.3792 16.9379 17.6732 16.5679C13.9812 16.1996 10.1715 15.8197 7.32446 18.9711L3.80809 6.41688C6.38044 3.11681 9.96454 3.47479 13.7598 3.85327C17.3635 4.21171 21.083 4.5832 23.9132 1.65789C23.5643 4.31472 23.0444 6.94638 22.3568 9.53656C22.2634 9.8717 22.3695 10.2301 22.6292 10.4613C24.1139 11.8178 25.7758 12.9674 27.5697 13.8789C27.5599 14.008 27.5137 14.1315 27.4375 14.2364V14.2354Z" fill="white"/>
</svg>
