<svg width="29" height="29" viewBox="0 0 29 29" fill="none" xmlns="http://www.w3.org/2000/svg">
<path d="M19.1394 12.1364C20.4448 12.1364 21.503 11.0782 21.503 9.7728C21.503 8.46744 20.4448 7.40925 19.1394 7.40925C17.834 7.40925 16.7758 8.46744 16.7758 9.7728C16.7758 11.0782 17.834 12.1364 19.1394 12.1364Z" fill="white"/>
<path d="M10.8668 12.1364C12.1722 12.1364 13.2304 11.0782 13.2304 9.7728C13.2304 8.46744 12.1722 7.40925 10.8668 7.40925C9.56146 7.40925 8.50327 8.46744 8.50327 9.7728C8.50327 11.0782 9.56146 12.1364 10.8668 12.1364Z" fill="white"/>
<path d="M9.68511 20.4088C10.9905 20.4088 12.0487 19.3506 12.0487 18.0452C12.0487 16.7399 10.9905 15.6817 9.68511 15.6817C8.37976 15.6817 7.32156 16.7399 7.32156 18.0452C7.32156 19.3506 8.37976 20.4088 9.68511 20.4088Z" fill="white"/>
<path d="M28.6362 13.233C28.2923 9.80336 26.7255 6.61202 24.2222 4.24245C21.719 1.87289 18.4466 0.483409 15.0032 0.328037C13.1193 0.259291 11.2407 0.566825 9.47707 1.23266C7.71346 1.89849 6.10031 2.90926 4.73193 4.20586C3.36355 5.50246 2.26741 7.05887 1.50761 8.78408C0.747805 10.5093 0.339589 12.3687 0.306829 14.2535C0.274069 16.1383 0.617424 18.0107 1.31681 19.7613C2.0162 21.5119 3.05759 23.1054 4.38009 24.4488C5.70258 25.7922 7.27964 26.8584 9.01904 27.5851C10.7584 28.3118 12.6253 28.6845 14.5104 28.6812C14.9098 28.6812 15.301 28.6552 15.6922 28.6233C16.1381 28.5864 16.5535 28.3821 16.8551 28.0516C17.1568 27.721 17.3222 27.2887 17.3183 26.8412L17.2828 22.7936C17.277 22.123 17.4709 21.4658 17.8398 20.9057C18.2087 20.3456 18.736 19.908 19.3545 19.6485C19.9729 19.3891 20.6546 19.3196 21.3127 19.4489C21.9708 19.5782 22.5755 19.9004 23.0499 20.3745L23.1681 20.4927C23.5011 20.8263 23.9127 21.0708 24.3649 21.2038C24.8172 21.3367 25.2956 21.3539 25.7562 21.2538C26.2093 21.1564 26.6308 20.9469 26.982 20.6444C27.3332 20.3419 27.6029 19.9562 27.7664 19.5225C28.5316 17.5196 28.8291 15.3684 28.6362 13.233ZM24.7966 17.2109C23.7626 16.4412 22.5344 15.9754 21.2501 15.8658C19.9659 15.7562 18.6765 16.0072 17.5271 16.5905C16.3777 17.1739 15.4139 18.0664 14.7442 19.1677C14.0745 20.2691 13.7254 21.5354 13.7363 22.8243L13.7564 25.1087C11.009 24.9119 8.44515 23.657 6.60436 21.6081C4.76356 19.5591 3.78942 16.8759 3.88695 14.1233C3.98449 11.3706 5.14611 8.7631 7.12731 6.84958C9.10852 4.93606 11.7548 3.86575 14.5092 3.86391C14.6274 3.86391 14.7597 3.86391 14.885 3.871C17.466 3.98773 19.9189 5.02925 21.7953 6.80525C23.6718 8.58125 24.8466 10.9731 25.105 13.5438C25.2169 14.7748 25.1125 16.0159 24.7966 17.2109Z" fill="white"/>
</svg>
