<svg width="26" height="27" viewBox="0 0 26 27" fill="none" xmlns="http://www.w3.org/2000/svg">
<path d="M25.0932 10.1744C24.8536 10.1776 24.6248 10.2741 24.4554 10.4435C24.286 10.6129 24.1895 10.8418 24.1863 11.0814V18.3372L19.1323 12.5567C18.8112 12.2148 18.4234 11.9423 17.993 11.7561C17.5625 11.5698 17.0985 11.4737 16.6295 11.4737C16.1604 11.4737 15.6964 11.5698 15.2659 11.7561C14.8355 11.9423 14.4477 12.2148 14.1266 12.5567L10.6565 16.5233L9.51992 15.1447C9.20674 14.7689 8.81479 14.4666 8.37184 14.2591C7.92888 14.0517 7.44574 13.9441 6.95663 13.9441C6.46751 13.9441 5.98437 14.0517 5.54142 14.2591C5.09846 14.4666 4.70651 14.7689 4.39333 15.1447L1.81794 18.2526V6.24419C1.82113 5.2028 2.23616 4.20499 2.97241 3.46862C3.70866 2.73224 4.70631 2.31714 5.74752 2.31395H15.4203C15.6609 2.31395 15.8915 2.2184 16.0616 2.04831C16.2316 1.87822 16.3272 1.64752 16.3272 1.40698C16.3272 1.16643 16.2316 0.935739 16.0616 0.765647C15.8915 0.595556 15.6609 0.5 15.4203 0.5H5.74752C4.22432 0.5 2.7635 1.10519 1.68644 2.18243C0.609372 3.25968 0.00428254 4.72073 0.00428254 6.24419V20.7558C-0.00142751 20.7756 -0.00142751 20.7965 0.00428254 20.8163C0.0202066 22.3292 0.632319 23.7748 1.70766 24.839C2.78301 25.9032 4.23474 26.5001 5.74752 26.5H20.2568C21.7633 26.497 23.2084 25.902 24.2804 24.8434C25.3525 23.7847 25.9657 22.3471 25.9879 20.8405V11.0814C25.9849 10.8439 25.89 10.6168 25.7232 10.4477C25.5564 10.2786 25.3306 10.1806 25.0932 10.1744ZM20.2568 24.686H5.74752C4.75982 24.6829 3.80953 24.3078 3.08583 23.6356C2.36213 22.9633 1.91809 22.0431 1.84212 21.0581L5.74752 16.3056C5.8938 16.1426 6.07276 16.0122 6.27275 15.923C6.47274 15.8337 6.68927 15.7876 6.90826 15.7876C7.12725 15.7876 7.34379 15.8337 7.54378 15.923C7.74376 16.0122 7.92272 16.1426 8.069 16.3056L9.89475 18.5065C9.97848 18.6084 10.0837 18.6904 10.2028 18.7469C10.322 18.8033 10.4521 18.8327 10.5839 18.833C10.845 18.8186 11.0911 18.7064 11.2731 18.5186L15.4324 13.754C15.5804 13.5981 15.7586 13.4739 15.956 13.3891C16.1535 13.3043 16.3662 13.2606 16.5811 13.2606C16.796 13.2606 17.0087 13.3043 17.2061 13.3891C17.4036 13.4739 17.5818 13.5981 17.7297 13.754L24.1017 21.0098C24.041 21.994 23.6114 22.9192 22.8987 23.6006C22.186 24.2821 21.2426 24.6697 20.2568 24.686Z" fill="white"/>
<path d="M3.63159 7.45349C3.63159 8.11123 3.8266 8.75419 4.19196 9.30108C4.55732 9.84797 5.07662 10.2742 5.68419 10.5259C6.29176 10.7776 6.96031 10.8435 7.60531 10.7152C8.2503 10.5869 8.84276 10.2701 9.30778 9.80503C9.77279 9.33994 10.0895 8.74738 10.2178 8.10228C10.3461 7.45718 10.2802 6.78851 10.0286 6.18084C9.77689 5.57317 9.35071 5.05379 8.80392 4.68837C8.25712 4.32295 7.61426 4.12791 6.95663 4.12791C6.07477 4.12791 5.22904 4.47828 4.60547 5.10195C3.98191 5.72561 3.63159 6.57149 3.63159 7.45349ZM8.46801 7.45349C8.46801 7.75246 8.37936 8.04472 8.21329 8.2933C8.04722 8.54189 7.81117 8.73564 7.53501 8.85005C7.25884 8.96446 6.95495 8.9944 6.66177 8.93607C6.36859 8.87774 6.09929 8.73378 5.88792 8.52237C5.67655 8.31097 5.5326 8.04162 5.47429 7.74839C5.41597 7.45517 5.4459 7.15123 5.56029 6.87501C5.67469 6.5988 5.8684 6.36272 6.11695 6.19662C6.36549 6.03052 6.6577 5.94186 6.95663 5.94186C7.35747 5.94186 7.74189 6.10112 8.02533 6.38461C8.30877 6.66809 8.46801 7.05258 8.46801 7.45349ZM17.8386 5.94186H20.559V8.66279C20.559 8.90334 20.6546 9.13403 20.8246 9.30412C20.9947 9.47421 21.2254 9.56977 21.4659 9.56977C21.7064 9.56977 21.937 9.47421 22.1071 9.30412C22.2772 9.13403 22.3727 8.90334 22.3727 8.66279V5.94186H25.0932C25.3337 5.94186 25.5643 5.8463 25.7344 5.67621C25.9045 5.50612 26 5.27543 26 5.03488C26 4.79434 25.9045 4.56365 25.7344 4.39355C25.5643 4.22346 25.3337 4.12791 25.0932 4.12791H22.3727V1.40698C22.3727 1.16643 22.2772 0.935739 22.1071 0.765647C21.937 0.595556 21.7064 0.5 21.4659 0.5C21.2254 0.5 20.9947 0.595556 20.8246 0.765647C20.6546 0.935739 20.559 1.16643 20.559 1.40698V4.12791H17.8386C17.598 4.12791 17.3674 4.22346 17.1973 4.39355C17.0273 4.56365 16.9317 4.79434 16.9317 5.03488C16.9317 5.27543 17.0273 5.50612 17.1973 5.67621C17.3674 5.8463 17.598 5.94186 17.8386 5.94186Z" fill="white"/>
</svg>
