<svg width="29" height="25" viewBox="0 0 29 25" fill="none" xmlns="http://www.w3.org/2000/svg">
<path d="M1.51353 18.3724C1.72809 18.4797 1.95911 18.5539 2.19738 18.5954L1.8261 19.1254C1.75119 19.2326 1.70216 19.3557 1.68288 19.485L1.13018 23.2124C1.10719 23.3671 1.12777 23.5253 1.18961 23.669C1.25145 23.8127 1.3521 23.9364 1.48028 24.0262C1.60846 24.1159 1.7591 24.1682 1.91533 24.1771C2.07155 24.1861 2.22718 24.1513 2.36476 24.0768L5.48631 22.3865C5.91746 23.1654 6.74768 23.6941 7.69923 23.6941C8.34606 23.6941 8.93689 23.4499 9.38427 23.0491C9.83188 23.4499 10.4228 23.6942 11.0693 23.6942C12.4632 23.6942 13.5971 22.5602 13.5971 21.1666V20.8441C15.1644 21.6067 16.9095 22.0091 18.6523 22.0091C20.4525 22.0091 22.2378 21.5962 23.82 20.8158V22.8516C23.82 23.1437 23.9711 23.4148 24.2195 23.5685C24.3417 23.6439 24.4811 23.6869 24.6246 23.6934C24.768 23.6998 24.9108 23.6695 25.0392 23.6053L28.4095 21.9203C28.5495 21.8503 28.6672 21.7427 28.7495 21.6096C28.8317 21.4765 28.8753 21.3231 28.8753 21.1666V11.056C28.8753 10.5907 28.4979 10.2135 28.0328 10.2135H22.2177L16.2741 7.30528L18.5322 4.08044C18.7989 3.6995 18.7065 3.17383 18.3251 2.90703L15.5646 0.973827C15.1836 0.707253 14.658 0.799593 14.3912 1.18075C14.0344 1.6902 11.7578 4.94161 11.4035 5.44752C10.7124 5.08444 9.88367 5.08619 9.35799 5.3144L6.15196 6.70715C5.68872 6.90783 5.29649 7.24311 5.02618 7.66948L0.425662 14.9056C0.126846 15.3758 0.00310778 16.1825 0.245755 16.9108C0.459194 17.5512 0.909439 18.0703 1.51347 18.3724H1.51353ZM3.04428 21.7928L3.32074 19.9291L4.07418 18.8529C4.39864 19.3264 4.83791 19.7099 5.35089 19.9675L4.70102 20.8956L3.04428 21.7928ZM7.69923 22.0093C7.23471 22.0093 6.8567 21.6313 6.8567 21.1666V20.7548L7.15838 20.3241H8.54181V21.1666C8.54181 21.6313 8.16391 22.0093 7.69923 22.0093ZM11.0695 22.0093C10.6049 22.0093 10.227 21.6313 10.227 21.1666V20.3241H11.9121V21.1666C11.9121 21.6313 11.5341 22.0093 11.0695 22.0093ZM27.1903 20.6459L25.505 21.4884V11.8986H27.1903V20.6459ZM21.6522 11.8128C21.7675 11.8692 21.8942 11.8986 22.0226 11.8986H23.82V18.9495C23.2521 19.1702 21.489 20.3241 18.6525 20.3241C15.6455 20.3241 13.7935 18.9923 13.1313 18.7279C13.0142 18.6698 12.8853 18.6393 12.7546 18.639H6.8567C5.99508 18.639 5.28287 17.9889 5.18395 17.1534C5.2103 17.0312 5.20788 16.9057 5.18002 16.7857C5.26472 15.9353 5.98435 15.2689 6.8567 15.2689H12.0566C13.8183 15.2689 15.4748 14.5828 16.7206 13.337C17.0495 13.0079 17.0495 12.4746 16.7206 12.1454C16.3915 11.8163 15.8581 11.8163 15.529 12.1454C14.6013 13.0729 13.3683 13.5839 12.0567 13.5839H11.8781L15.2955 8.70292L21.6522 11.8128ZM13.3551 5.59833L14.7354 6.56498L9.82092 13.5839H7.76376L13.3551 5.59833ZM15.2881 2.83777L16.6686 3.80426L15.7019 5.18476L14.3216 4.21805L15.2881 2.83777ZM1.87486 15.767L6.44819 8.57373C6.53834 8.4316 6.66912 8.31984 6.82356 8.25295L9.98943 6.87745C10.1269 6.83721 10.2723 6.83254 10.412 6.86385L5.50911 13.8658C4.47281 14.3197 3.70712 15.2799 3.52722 16.4322C3.3732 16.8649 2.70379 17.0834 2.26714 16.8651C1.85621 16.6598 1.69299 16.172 1.87486 15.767Z" fill="white"/>
</svg>
