<svg width="30" height="23" viewBox="0 0 30 23" fill="none" xmlns="http://www.w3.org/2000/svg">
<path fill-rule="evenodd" clip-rule="evenodd" d="M22.5122 0.568919C22.2461 0.835107 22.0966 1.19609 22.0966 1.57248C22.0966 1.94887 22.2461 2.30985 22.5122 2.57603L24.3475 4.41139H16.4184C14.9126 4.41139 13.4684 5.00959 12.4036 6.07439C11.3388 7.13919 10.7406 8.58337 10.7406 10.0892V11.5087C10.7406 11.8852 10.8901 12.2462 11.1563 12.5124C11.4225 12.7786 11.7836 12.9281 12.1601 12.9281C12.5365 12.9281 12.8976 12.7786 13.1638 12.5124C13.43 12.2462 13.5795 11.8852 13.5795 11.5087V10.0892C13.5795 9.3363 13.8786 8.61421 14.411 8.08181C14.9434 7.54941 15.6655 7.25031 16.4184 7.25031H24.3475L22.5122 9.08567C22.2536 9.35339 22.1105 9.71194 22.1138 10.0841C22.117 10.4563 22.2663 10.8123 22.5295 11.0755C22.7926 11.3387 23.1487 11.488 23.5208 11.4912C23.893 11.4944 24.2516 11.3514 24.5193 11.0928L28.7777 6.83441C29.0438 6.56822 29.1933 6.20724 29.1933 5.83085C29.1933 5.45446 29.0438 5.09348 28.7777 4.8273L24.5193 0.568919C24.2531 0.302811 23.8921 0.15332 23.5157 0.15332C23.1393 0.15332 22.7784 0.302811 22.5122 0.568919ZM17.8379 10.0892C17.4614 10.0892 17.1004 10.2388 16.8342 10.505C16.568 10.7712 16.4184 11.1322 16.4184 11.5087V12.9281C16.4184 13.6811 16.1193 14.4032 15.5869 14.9356C15.0545 15.468 14.3324 15.7671 13.5795 15.7671H5.65042L7.48578 13.9317C7.62135 13.8008 7.72949 13.6441 7.80388 13.471C7.87827 13.2978 7.91743 13.1115 7.91907 12.923C7.92071 12.7346 7.88479 12.5477 7.81342 12.3732C7.74205 12.1988 7.63665 12.0403 7.50337 11.907C7.37009 11.7737 7.21161 11.6683 7.03716 11.5969C6.86272 11.5256 6.6758 11.4897 6.48733 11.4913C6.29885 11.4929 6.11259 11.5321 5.93941 11.6065C5.76623 11.6809 5.6096 11.789 5.47866 11.9246L1.22029 16.183C0.954178 16.4492 0.804688 16.8101 0.804688 17.1865C0.804688 17.5629 0.954178 17.9239 1.22029 18.1901L5.47866 22.4485C5.74638 22.707 6.10493 22.8501 6.47711 22.8469C6.84929 22.8436 7.20531 22.6943 7.46849 22.4312C7.73167 22.168 7.88095 21.812 7.88418 21.4398C7.88742 21.0676 7.74434 20.7091 7.48578 20.4413L5.65042 18.606H13.5795C15.0854 18.606 16.5296 18.0078 17.5944 16.943C18.6592 15.8782 19.2574 14.434 19.2574 12.9281V11.5087C19.2574 11.1322 19.1078 10.7712 18.8416 10.505C18.5754 10.2388 18.2144 10.0892 17.8379 10.0892Z" fill="white"/>
</svg>
