<svg width="28" height="29" viewBox="0 0 28 29" fill="none" xmlns="http://www.w3.org/2000/svg">
<path d="M16.0934 6.62837C15.415 6.44243 14.7106 6.34815 14 6.34815C9.64287 6.34815 6.09814 9.89288 6.09814 14.25C6.09814 18.6071 9.64287 22.1519 14 22.1519C18.3571 22.1519 21.9018 18.6071 21.9018 14.25C21.9018 13.5393 21.8075 12.835 21.6216 12.1566C21.4939 11.6906 21.7681 11.2092 22.2342 11.0815C22.6999 10.9538 23.1816 11.228 23.3093 11.694C23.5371 12.5269 23.6523 13.3865 23.6518 14.25C23.6518 19.572 19.322 23.9019 14 23.9019C8.67797 23.9019 4.34814 19.572 4.34814 14.25C4.34814 8.92798 8.67797 4.59815 14 4.59815C14.8669 4.59815 15.7268 4.71338 16.556 4.94066C16.9446 5.04719 17.1999 5.3997 17.1999 5.78416C17.1998 5.86243 17.1893 5.94034 17.1685 6.01581C17.0408 6.48186 16.5595 6.75628 16.0934 6.62837ZM26.3385 9.68031C25.8751 9.81752 25.6106 10.3043 25.7478 10.7677C26.081 11.8932 26.25 13.0648 26.25 14.25C26.25 21.0047 20.7546 26.5 14 26.5C7.24532 26.5 1.75 21.0047 1.75 14.25C1.75 7.49533 7.24532 2 14 2C15.1853 2 16.3568 2.16893 17.4821 2.50209C17.9455 2.63935 18.4323 2.37477 18.5695 1.91146C18.594 1.82861 18.6057 1.7451 18.6057 1.66291C18.6058 1.28529 18.3594 0.936766 17.9789 0.824055C16.6922 0.443102 15.3535 0.25 14 0.25C10.2605 0.25 6.74471 1.70627 4.10046 4.35047C1.45627 6.99477 0 10.5105 0 14.25C0 17.9895 1.45627 21.5053 4.10046 24.1495C6.74466 26.7938 10.2605 28.25 14 28.25C17.7395 28.25 21.2552 26.7937 23.8995 24.1495C26.5437 21.5053 28 17.9895 28 14.25C28 12.8965 27.8068 11.5578 27.4259 10.2709C27.2887 9.80757 26.8018 9.54332 26.3385 9.68031ZM14 10.75C14.1287 10.75 14.2586 10.7571 14.3862 10.7711C14.8668 10.824 15.2988 10.4771 15.3514 9.99679C15.4041 9.51641 15.0575 9.08427 14.5771 9.03161C14.3854 9.01058 14.1928 9.00002 14 9C11.1051 9 8.74999 11.3551 8.74999 14.25C8.74999 17.1449 11.1051 19.5 14 19.5C16.8949 19.5 19.25 17.1449 19.25 14.25C19.25 13.7667 18.8582 13.375 18.375 13.375C17.8917 13.375 17.5 13.7667 17.5 14.25C17.5 16.1799 15.9299 17.75 14 17.75C12.0701 17.75 10.5 16.1799 10.5 14.25C10.5 12.3201 12.0701 10.75 14 10.75ZM18.4676 8.54505L18.9035 4.17295C18.9235 3.97186 19.0125 3.7839 19.1554 3.64101L22.2903 0.506266C22.4085 0.388038 22.5582 0.306167 22.7215 0.270346C22.8848 0.234524 23.055 0.246252 23.2119 0.304141C23.3688 0.36203 23.5058 0.463655 23.6067 0.596987C23.7076 0.730319 23.7682 0.889775 23.7813 1.05648L24.0299 4.22015L27.1935 4.46865C27.3602 4.48174 27.5197 4.54233 27.653 4.64324C27.7864 4.74415 27.888 4.88116 27.9459 5.03805C28.0038 5.19493 28.0155 5.36512 27.9797 5.52847C27.9438 5.69181 27.8619 5.84146 27.7437 5.9597L24.6089 9.09445C24.466 9.23735 24.2781 9.32638 24.077 9.34639L19.705 9.78247L14.6187 14.8687C14.5375 14.9501 14.4411 15.0146 14.3349 15.0586C14.2287 15.1026 14.1149 15.1251 14 15.125C13.8851 15.1252 13.7712 15.1026 13.6651 15.0586C13.5589 15.0146 13.4624 14.9501 13.3813 14.8687C13.0396 14.527 13.0396 13.973 13.3813 13.6313L18.4676 8.54505ZM20.284 7.96608L23.5924 7.63609L25.1638 6.06465L23.1476 5.90627C22.9399 5.88993 22.7448 5.8 22.5974 5.65265C22.4501 5.50531 22.3601 5.31022 22.3438 5.10248L22.1854 3.08609L20.6139 4.65759L20.284 7.96608Z" fill="white"/>
</svg>
