<svg width="29" height="24" viewBox="0 0 29 24" fill="none" xmlns="http://www.w3.org/2000/svg">
<path d="M21.1667 0.75C20.6953 0.750527 20.2435 0.937097 19.9102 1.26878C19.5769 1.60046 19.3894 2.05016 19.3889 2.51923V2.81375C17.4909 4.81304 14.9228 6.18204 13.0766 6.98615C10.8091 7.97366 8.7225 8.49038 7.83333 8.49038H2.5C1.96975 8.49097 1.46138 8.70086 1.08644 9.074C0.711491 9.44714 0.500588 9.95307 0.5 10.4808V14.0192C0.500588 14.5469 0.711491 15.0529 1.08644 15.426C1.46138 15.7991 1.96975 16.009 2.5 16.0096H3.61111V20.6538C3.61111 20.8298 3.68135 20.9986 3.80637 21.123C3.9314 21.2474 4.10097 21.3173 4.27778 21.3173H6.5C6.64868 21.3173 6.79309 21.2679 6.91028 21.1768C7.02747 21.0858 7.11071 20.9583 7.14678 20.8148L8.34406 16.0489C9.39039 16.186 11.1693 16.6835 13.0766 17.5141C14.9228 18.3182 17.4909 19.6872 19.3889 21.6865V21.9808C19.3889 22.45 19.5762 22.9 19.9096 23.2318C20.243 23.5636 20.6952 23.75 21.1667 23.75C21.6382 23.75 22.0903 23.5636 22.4237 23.2318C22.7571 22.9 22.9444 22.45 22.9444 21.9808V2.51923C22.9439 2.05016 22.7564 1.60046 22.4232 1.26878C22.0899 0.937097 21.638 0.750527 21.1667 0.75ZM7.16667 14.6827H4.94444V9.81731H7.16667V14.6827ZM1.83333 14.0192V10.4808C1.83352 10.3049 1.90382 10.1362 2.02881 10.0118C2.15379 9.88746 2.32325 9.8175 2.5 9.81731H3.61111V14.6827H2.5C2.32325 14.6825 2.15379 14.6125 2.02881 14.4882C1.90382 14.3638 1.83352 14.1951 1.83333 14.0192ZM5.9795 19.9904H4.94444V16.0096H6.9795L5.9795 19.9904ZM8.5 14.734V9.766C10.8433 9.45545 15.8853 7.72807 19.3889 4.65408V19.8459C15.8853 16.7719 10.8433 15.0446 8.5 14.734ZM21.6111 21.9808C21.6111 22.0981 21.5643 22.2106 21.4809 22.2935C21.3976 22.3765 21.2845 22.4231 21.1667 22.4231C21.0488 22.4231 20.9357 22.3765 20.8524 22.2935C20.769 22.2106 20.7222 22.0981 20.7222 21.9808V2.51923C20.7222 2.40192 20.769 2.28942 20.8524 2.20647C20.9357 2.12352 21.0488 2.07692 21.1667 2.07692C21.2845 2.07692 21.3976 2.12352 21.4809 2.20647C21.5643 2.28942 21.6111 2.40192 21.6111 2.51923V21.9808ZM27.8333 11.5865H25.6111C25.4343 11.5865 25.2647 11.6564 25.1397 11.7809C25.0147 11.9053 24.9444 12.074 24.9444 12.25C24.9444 12.426 25.0147 12.5947 25.1397 12.7191C25.2647 12.8436 25.4343 12.9135 25.6111 12.9135H27.8333C28.0101 12.9135 28.1797 12.8436 28.3047 12.7191C28.4298 12.5947 28.5 12.426 28.5 12.25C28.5 12.074 28.4298 11.9053 28.3047 11.7809C28.1797 11.6564 28.0101 11.5865 27.8333 11.5865ZM24.5142 8.12194C24.6141 8.12193 24.7127 8.09948 24.8026 8.05626L26.8056 7.09794C26.9649 7.0217 27.0873 6.88557 27.1458 6.71952C27.2043 6.55346 27.1941 6.37108 27.1175 6.2125C27.0409 6.05392 26.9041 5.93212 26.7372 5.8739C26.5704 5.81568 26.3871 5.82581 26.2278 5.90205L24.2251 6.86042C24.0888 6.92555 23.9788 7.03482 23.9132 7.17032C23.8475 7.30582 23.8301 7.45949 23.8637 7.60615C23.8974 7.7528 23.9801 7.88372 24.0983 7.97744C24.2166 8.07116 24.3633 8.12211 24.5144 8.12194H24.5142ZM26.8056 17.4021L24.8028 16.4437C24.6437 16.3689 24.4612 16.3597 24.2953 16.4183C24.1294 16.4768 23.9935 16.5982 23.9172 16.7561C23.8409 16.914 23.8305 17.0955 23.8881 17.261C23.9458 17.4265 24.0669 17.5626 24.2251 17.6396L26.2278 18.5979C26.3871 18.6742 26.5704 18.6843 26.7372 18.6261C26.9041 18.5679 27.0409 18.4461 27.1175 18.2875C27.1941 18.1289 27.2043 17.9465 27.1458 17.7805C27.0873 17.6144 26.9649 17.4783 26.8056 17.4021Z" fill="white"/>
</svg>
