<svg width="34" height="31" viewBox="0 0 34 31" fill="none" xmlns="http://www.w3.org/2000/svg">
<path d="M1.26758 21.9234C0.827886 22.6829 0.569416 23.5329 0.512159 24.4077C0.454902 25.2826 0.600392 26.1588 0.937378 26.9687C1.27436 27.7786 1.79382 28.5005 2.45558 29.0784C3.11733 29.6564 3.90366 30.075 4.75376 30.3019C5.60386 30.5288 6.49495 30.5579 7.35813 30.3869C8.22131 30.2159 9.03345 29.8495 9.73176 29.3159C10.4301 28.7823 10.9958 28.0959 11.3853 27.3097C11.7748 26.5235 11.9775 25.6586 11.9779 24.7819C11.9784 23.523 11.5617 22.2991 10.7926 21.3002C10.0234 20.3013 8.94481 19.5832 7.72412 19.2574C6.50342 18.9317 5.20891 19.0163 4.04147 19.4984C2.87403 19.9804 1.89897 20.8329 1.26758 21.9234Z" fill="#9A9A9A"/>
<path d="M9.88316 7.05924L3.42686 18.2074C4.45079 17.7725 5.56226 17.5809 6.67335 17.6478C7.78444 17.7147 8.86465 18.0383 9.82853 18.5929C10.7924 19.1475 11.6135 19.918 12.2268 20.8433C12.8402 21.7687 13.229 22.8235 13.3624 23.9244L16.1745 19.0649C10.8373 9.87485 10.0625 8.99587 9.88316 7.05924ZM32.7313 21.9234C32.3654 21.3088 21.8775 3.15025 21.6695 2.88584C20.8061 1.68624 19.5105 0.865795 18.0537 0.596192C16.5969 0.32659 15.0919 0.628732 13.8536 1.43938C12.6154 2.25004 11.7398 3.50637 11.4103 4.94545C11.0807 6.38453 11.3227 7.89481 12.0855 9.16023C12.0137 9.16023 11.7268 8.54565 22.7886 27.6404C23.1654 28.2907 23.6671 28.8608 24.2651 29.318C24.8631 29.7752 25.5456 30.1106 26.2737 30.305C27.0018 30.4994 27.7612 30.5491 28.5085 30.4512C29.2559 30.3532 29.9766 30.1096 30.6294 29.7342C31.2823 29.3589 31.8545 28.8591 32.3134 28.2634C32.7724 27.6677 33.1091 26.9878 33.3042 26.2625C33.4994 25.5372 33.5493 24.7807 33.451 24.0362C33.3527 23.2917 33.1081 22.5738 32.7313 21.9234Z" fill="#9A9A9A"/>
</svg>
