<svg width="14" height="9" viewBox="0 0 14 9" fill="none" xmlns="http://www.w3.org/2000/svg">
<path d="M7.03194 8.71147C6.89981 8.71223 6.76883 8.68702 6.64651 8.63728C6.52419 8.58754 6.41293 8.51425 6.31912 8.42162L0.295261 2.4247C0.106209 2.23649 0 1.98123 0 1.71506C0 1.4489 0.106209 1.19363 0.295261 1.00543C0.484314 0.817221 0.740724 0.711487 1.00808 0.711487C1.27545 0.711487 1.53186 0.817221 1.72091 1.00543L7.03194 6.30271L12.343 1.01542C12.535 0.85168 12.7821 0.766118 13.0348 0.775834C13.2874 0.78555 13.5271 0.889829 13.7059 1.06783C13.8847 1.24584 13.9895 1.48445 13.9993 1.736C14.009 1.98755 13.9231 2.2335 13.7586 2.4247L7.73473 8.42162C7.54773 8.60627 7.29533 8.71037 7.03194 8.71147Z" fill="white"/>
</svg>
