<svg width="30" height="30" viewBox="0 0 30 30" fill="none" xmlns="http://www.w3.org/2000/svg">
<path d="M13.1085 7.31016C10.2944 7.96629 8.0291 10.1979 7.33734 12.9956C6.64342 15.8021 7.4376 18.6629 9.46189 20.648C10.1779 21.3502 10.6055 22.4757 10.6055 23.6588V23.8477C10.6055 24.6267 10.9454 25.3277 11.4844 25.8108V27.3633C11.4844 28.8172 12.6672 30 14.1211 30H15.8789C17.3328 30 18.5156 28.8172 18.5156 27.3633V25.8108C19.0546 25.3277 19.3945 24.6268 19.3945 23.8477V23.6554C19.3945 22.4903 19.8449 21.3434 20.5994 20.5873C22.0895 19.0939 22.9102 17.1097 22.9102 15C22.9102 9.95631 18.2362 6.11496 13.1085 7.31016ZM16.7578 27.3633C16.7578 27.8479 16.3635 28.2422 15.8789 28.2422H14.1211C13.6365 28.2422 13.2422 27.8479 13.2422 27.3633V26.4844H16.7578V27.3633ZM19.355 19.3457C18.263 20.44 17.6367 22.0108 17.6367 23.6554V23.8477C17.6367 24.3323 17.2424 24.7266 16.7578 24.7266H13.2422C12.7576 24.7266 12.3633 24.3323 12.3633 23.8477V23.6588C12.3633 21.9889 11.7543 20.4341 10.6926 19.3929C9.11701 17.8478 8.50066 15.6141 9.04371 13.4175C9.57838 11.255 11.3306 9.52963 13.5076 9.02209C17.5314 8.08383 21.1523 11.0876 21.1523 15C21.1523 16.6409 20.514 18.1842 19.355 19.3457ZM8.16369 6.92074L5.67773 4.43484C5.33455 4.0916 4.77803 4.0916 4.43478 4.43484C4.09154 4.77809 4.09154 5.33455 4.43478 5.67779L6.92074 8.16369C7.26393 8.50693 7.82051 8.50693 8.16369 8.16369C8.50693 7.82045 8.50693 7.26398 8.16369 6.92074ZM4.45312 14.1211H0.878906C0.393516 14.1211 0 14.5146 0 15C0 15.4854 0.393516 15.8789 0.878906 15.8789H4.45312C4.93852 15.8789 5.33203 15.4854 5.33203 15C5.33203 14.5146 4.93852 14.1211 4.45312 14.1211ZM29.1211 14.1211H25.5469C25.0615 14.1211 24.668 14.5146 24.668 15C24.668 15.4854 25.0615 15.8789 25.5469 15.8789H29.1211C29.6065 15.8789 30 15.4854 30 15C30 14.5146 29.6065 14.1211 29.1211 14.1211ZM25.5652 4.43484C25.2221 4.0916 24.6656 4.0916 24.3223 4.43484L21.8363 6.92074C21.4931 7.26393 21.4931 7.82045 21.8363 8.16369C22.1795 8.50693 22.736 8.50693 23.0793 8.16369L25.5652 5.67779C25.9085 5.33461 25.9085 4.77809 25.5652 4.43484ZM15 0C14.5146 0 14.1211 0.393516 14.1211 0.878906V4.45312C14.1211 4.93852 14.5146 5.33203 15 5.33203C15.4854 5.33203 15.8789 4.93852 15.8789 4.45312V0.878906C15.8789 0.393516 15.4854 0 15 0Z" fill="white"/>
<path d="M15 10.6055C14.6387 10.6055 14.2707 10.6488 13.9068 10.734C12.3912 11.0878 11.1225 12.3353 10.7498 13.8383C10.6329 14.3094 10.9201 14.786 11.3912 14.9029C11.8624 15.0197 12.339 14.7325 12.4559 14.2614C12.6704 13.3967 13.4313 12.6501 14.307 12.4457C14.5403 12.391 14.7735 12.3633 15 12.3633C15.4854 12.3633 15.8789 11.9698 15.8789 11.4844C15.8789 10.999 15.4854 10.6055 15 10.6055Z" fill="white"/>
</svg>
