<svg width="17" height="15" viewBox="0 0 17 15" fill="none" xmlns="http://www.w3.org/2000/svg">
<path d="M14.0107 7.16367C14.0107 6.87029 13.8476 6.6011 13.588 6.46767C12.9235 6.12591 12.2119 5.81146 11.4145 5.5056C10.0964 4.9953 9.13594 4.0106 8.6368 2.66151C8.33778 1.843 8.03026 1.11423 7.69724 0.433831C7.56666 0.168539 7.29778 0 7.00494 0C6.7121 0 6.44167 0.168539 6.31263 0.434611C5.98039 1.11267 5.67365 1.84144 5.37463 2.65839C4.87549 4.00982 3.9143 4.99452 2.59846 5.50404C1.79644 5.81224 1.08404 6.12669 0.421873 6.46767C0.163031 6.60032 0 6.86951 0 7.16289C0 7.45628 0.163031 7.72547 0.422645 7.8589C1.08868 8.20065 1.8003 8.51588 2.59614 8.82019C3.9143 9.33049 4.87471 10.3152 5.37385 11.6651C5.67442 12.4867 5.98116 13.2139 6.31263 13.892C6.44321 14.158 6.71133 14.3266 7.00494 14.3266C7.29855 14.3266 7.56744 14.158 7.69724 13.892C8.03026 13.2139 8.33701 12.4851 8.63525 11.6674C9.13516 10.316 10.0971 9.33127 11.4114 8.82175C12.2104 8.51588 12.922 8.20144 13.588 7.85968C13.8476 7.72625 14.0107 7.45784 14.0107 7.16367Z" fill="white"/>
<path d="M12.4359 3.24137C12.6329 3.3428 12.8268 3.42629 13.0177 3.49964C13.1776 3.56206 13.2897 3.67754 13.3499 3.83906C13.421 4.03647 13.5021 4.2331 13.6003 4.43441C13.7293 4.70126 13.9982 4.87136 14.2926 4.87136H14.2941C14.5877 4.87136 14.8566 4.70282 14.9864 4.43675C15.0846 4.23622 15.1649 4.03881 15.2368 3.84296C15.2986 3.67754 15.4106 3.56206 15.5675 3.5012C15.7614 3.42707 15.9546 3.34359 16.1516 3.24215C16.4112 3.1095 16.5742 2.83953 16.5742 2.54615C16.5742 2.25277 16.4104 1.98357 16.1508 1.85093C15.9546 1.75105 15.7614 1.66756 15.5698 1.59344C15.4106 1.53179 15.2986 1.41631 15.2375 1.25246C15.1649 1.05505 15.0846 0.85764 14.9857 0.65633C14.8558 0.391038 14.587 0.222499 14.2933 0.222499H14.2918C13.9974 0.222499 13.7293 0.391818 13.5995 0.658671C13.5021 0.859201 13.421 1.05661 13.3507 1.25012C13.2889 1.41553 13.1769 1.53101 13.02 1.59188C12.8253 1.66678 12.6321 1.74949 12.4351 1.85093C12.1755 1.98357 12.0125 2.25277 12.0125 2.54615C12.0125 2.83953 12.1755 3.10872 12.4351 3.24137H12.4359Z" fill="white"/>
<path d="M16.5766 11.5457C16.3316 11.4201 16.0898 11.3156 15.8518 11.225C15.5899 11.1236 15.399 10.927 15.3009 10.6601C15.2105 10.4136 15.1093 10.167 14.9872 9.91731C14.8566 9.65124 14.5878 9.4827 14.2949 9.4827C14.0005 9.4827 13.7316 9.65202 13.6026 9.91887C13.4813 10.1686 13.3801 10.4143 13.292 10.6562C13.1916 10.927 13.0007 11.1236 12.7426 11.2235C12.5016 11.3156 12.259 11.4201 12.0148 11.5465C11.756 11.6799 11.5929 11.9484 11.5929 12.2417C11.5929 12.5351 11.756 12.8035 12.0148 12.937C12.259 13.0626 12.5 13.1664 12.7403 13.2592C13.0007 13.3599 13.1916 13.5557 13.2905 13.8234C13.3801 14.0691 13.4813 14.3157 13.6034 14.5646C13.7332 14.8307 14.0013 14.9992 14.2957 15C14.5893 15 14.8574 14.8322 14.988 14.5662C15.1108 14.3165 15.2121 14.0699 15.3017 13.8257C15.4006 13.5557 15.5914 13.3599 15.8518 13.2592C16.0929 13.1664 16.3332 13.0634 16.5774 12.9377C16.837 12.8043 17 12.5351 17 12.2417C17 11.9484 16.837 11.6792 16.5774 11.5457H16.5766Z" fill="white"/>
</svg>
