<svg width="15" height="14" viewBox="0 0 15 14" fill="none" xmlns="http://www.w3.org/2000/svg">
<path d="M11.8347 0.559863L7.30801 5.1332L2.96801 0.699863C2.78135 0.513197 2.55579 0.412086 2.29135 0.39653C2.0269 0.380975 1.8169 0.435419 1.66135 0.559863L1.00801 1.16653C0.790236 1.32209 0.689125 1.53209 0.704681 1.79653C0.720236 2.06097 0.868014 2.28653 1.14801 2.4732L5.67468 7.04653L1.14801 11.5732C0.930236 11.7288 0.821347 11.9388 0.821347 12.2032C0.821347 12.4676 0.930236 12.7088 1.14801 12.9265L1.75468 13.5332C1.97246 13.751 2.19801 13.8599 2.43135 13.8599C2.66468 13.8599 2.89024 13.751 3.10801 13.5332L7.63468 9.00653L12.208 13.5332C12.3947 13.751 12.6125 13.8599 12.8613 13.8599C13.1102 13.8599 13.328 13.751 13.5147 13.5332L14.168 12.9265C14.3547 12.7088 14.448 12.4832 14.448 12.2499C14.448 12.0165 14.3547 11.791 14.168 11.5732L9.40801 7.04653L13.9813 2.4732C14.168 2.28653 14.2613 2.06875 14.2613 1.81986C14.2613 1.57097 14.168 1.3532 13.9813 1.16653L13.2813 0.559863C13.1258 0.373197 12.9158 0.279863 12.6513 0.279863C12.3869 0.279863 12.1147 0.373197 11.8347 0.559863Z" fill="white"/>
</svg>
