<svg width="17" height="17" viewBox="0 0 17 17" fill="none" xmlns="http://www.w3.org/2000/svg">
<path d="M13.5977 0.0934453H11.5884C9.60884 0.0934453 8.68605 1.01624 8.68605 2.99577V5.74926C8.68605 7.72879 9.60884 8.65158 11.5884 8.65158H13.5977C15.5772 8.65158 16.5 7.72879 16.5 5.74926V2.99577C16.5 1.01624 15.5772 0.0934453 13.5977 0.0934453ZM15.3837 5.74926C15.3837 7.11856 14.967 7.53531 13.5977 7.53531H11.5884C10.2191 7.53531 9.80233 7.11856 9.80233 5.74926V2.99577C9.80233 1.62647 10.2191 1.20972 11.5884 1.20972H13.5977C14.967 1.20972 15.3837 1.62647 15.3837 2.99577V5.74926ZM5.41163 7.53531H3.40233C1.42279 7.53531 0.5 8.4581 0.5 10.4376V13.1911C0.5 15.1707 1.42279 16.0934 3.40233 16.0934H5.41163C7.39116 16.0934 8.31395 15.1707 8.31395 13.1911V10.4376C8.31395 8.4581 7.39116 7.53531 5.41163 7.53531ZM7.19767 13.1911C7.19767 14.5604 6.78093 14.9772 5.41163 14.9772H3.40233C2.03302 14.9772 1.61628 14.5604 1.61628 13.1911V10.4376C1.61628 9.06833 2.03302 8.65158 3.40233 8.65158H5.41163C6.78093 8.65158 7.19767 9.06833 7.19767 10.4376V13.1911ZM16.5 10.326C16.4982 11.8551 15.89 13.321 14.8088 14.4022C13.7276 15.4835 12.2616 16.0917 10.7326 16.0934C10.6337 16.0936 10.5366 16.0674 10.4512 16.0177C10.3657 15.968 10.295 15.8965 10.2463 15.8106C10.1976 15.7246 10.1725 15.6272 10.1737 15.5284C10.175 15.4295 10.2024 15.3328 10.2533 15.248L11.0347 13.9457C11.1109 13.8187 11.2344 13.7272 11.3781 13.6912C11.5218 13.6553 11.6738 13.6779 11.8008 13.7541C11.9278 13.8303 12.0194 13.9538 12.0553 14.0975C12.0913 14.2412 12.0687 14.3932 11.9925 14.5202L11.7915 14.8551C12.8128 14.6148 13.723 14.0369 14.3749 13.215C15.0268 12.393 15.3823 11.3751 15.3837 10.326C15.3837 10.178 15.4425 10.036 15.5472 9.93134C15.6519 9.82667 15.7938 9.76786 15.9419 9.76786C16.0899 9.76786 16.2319 9.82667 16.3365 9.93134C16.4412 10.036 16.5 10.178 16.5 10.326ZM0.5 5.86089C0.501773 4.33181 1.10998 2.86587 2.1912 1.78465C3.27242 0.703427 4.73837 0.0952179 6.26744 0.0934453C6.36628 0.0933191 6.46338 0.119442 6.54882 0.169144C6.63425 0.218846 6.70496 0.290344 6.7537 0.376328C6.80244 0.462313 6.82748 0.559699 6.82625 0.658531C6.82502 0.757363 6.79757 0.854096 6.7467 0.938841L5.9653 2.24117C5.88912 2.36817 5.7656 2.45972 5.62192 2.49565C5.47824 2.53159 5.32617 2.50898 5.19916 2.43279C5.07215 2.35661 4.98061 2.23309 4.94468 2.08941C4.90874 1.94573 4.93135 1.79366 5.00753 1.66665L5.20847 1.33177C4.18725 1.57205 3.27701 2.14995 2.62508 2.97191C1.97316 3.79387 1.61772 4.81178 1.61628 5.86089C1.61628 6.00891 1.55748 6.15088 1.4528 6.25555C1.34813 6.36022 1.20617 6.41903 1.05814 6.41903C0.910112 6.41903 0.768147 6.36022 0.663475 6.25555C0.558804 6.15088 0.5 6.00891 0.5 5.86089Z" fill="white"/>
</svg>
