<svg width="25" height="26" viewBox="0 0 25 26" fill="none" xmlns="http://www.w3.org/2000/svg">
<path d="M24.9485 16.5127C24.8443 16.874 24.615 17.1657 24.2885 17.3533L22.0517 18.6037V21.1601C22.0517 21.9242 21.4265 22.5494 20.6624 22.5494H18.099L16.8556 24.7862C16.668 25.1127 16.3763 25.342 16.015 25.4462C15.6607 25.5434 15.2856 25.5018 14.9591 25.3211L12.5 23.9457L10.0409 25.3211C9.82552 25.4392 9.59628 25.4948 9.36009 25.4948C9.23505 25.4948 9.11001 25.4809 8.98497 25.4462C8.62374 25.342 8.33198 25.1127 8.14442 24.7862L6.90096 22.5494H4.33763C3.5735 22.5494 2.94829 21.9242 2.94829 21.1601V18.6037L0.711458 17.3533C0.384964 17.1657 0.155722 16.874 0.0515219 16.5127C-0.0457318 16.1584 -0.00405141 15.7833 0.176563 15.4568L1.55201 12.9977L0.176563 10.5386C-0.198559 9.86474 0.0445755 9.01725 0.711458 8.64213L2.94829 7.39172V4.83534C2.94829 4.0712 3.5735 3.446 4.33763 3.446H6.90096L8.14442 1.20916C8.33198 0.882669 8.62374 0.653427 8.98497 0.549227C9.33925 0.451973 9.71437 0.493654 10.0409 0.674268L12.5 2.04971L14.9591 0.674268C15.2856 0.493654 15.6607 0.451973 16.015 0.549227C16.3763 0.653427 16.668 0.882669 16.8556 1.20916L18.099 3.446H20.6624C21.4265 3.446 22.0517 4.0712 22.0517 4.83534V7.39172L24.2885 8.64213C24.9554 9.01725 25.1986 9.86474 24.8234 10.5386L23.448 12.9977L24.8234 15.4568C25.0041 15.7833 25.0457 16.1584 24.9485 16.5127Z" fill="#F35252"/>
<path d="M11.1141 17.1656C11.0228 17.1657 10.9325 17.1478 10.8482 17.1128C10.7639 17.0779 10.6873 17.0267 10.6229 16.9621L7.14957 13.4887C7.08323 13.4246 7.03031 13.348 6.9939 13.2632C6.95749 13.1785 6.93833 13.0873 6.93753 12.9951C6.93672 12.9029 6.9543 12.8114 6.98923 12.726C7.02416 12.6406 7.07574 12.5631 7.14096 12.4979C7.20619 12.4326 7.28375 12.3811 7.36912 12.3461C7.4545 12.3112 7.54597 12.2936 7.63821 12.2944C7.73044 12.2952 7.8216 12.3144 7.90635 12.3508C7.9911 12.3872 8.06776 12.4401 8.13184 12.5065L11.1141 15.4887L17.5696 9.03312C17.6337 8.96677 17.7104 8.91385 17.7951 8.87744C17.8799 8.84104 17.971 8.82187 18.0632 8.82107C18.1555 8.82027 18.247 8.83785 18.3323 8.87277C18.4177 8.9077 18.4953 8.95929 18.5605 9.02451C18.6257 9.08973 18.6773 9.1673 18.7122 9.25267C18.7472 9.33804 18.7647 9.42951 18.7639 9.52175C18.7631 9.61399 18.744 9.70514 18.7076 9.7899C18.6712 9.87465 18.6182 9.9513 18.5519 10.0154L11.6052 16.9621C11.5408 17.0267 11.4642 17.0779 11.3799 17.1128C11.2956 17.1478 11.2053 17.1657 11.1141 17.1656Z" fill="white"/>
</svg>
