<svg width="25" height="25" viewBox="0 0 25 25" fill="none" xmlns="http://www.w3.org/2000/svg">
<path d="M12.1487 0.297852C5.53584 0.297852 0.15625 5.67744 0.15625 12.2903C0.15625 18.9031 5.53584 24.2827 12.1487 24.2827C18.7615 24.2827 24.1411 18.9031 24.1411 12.2903C24.1411 5.67744 18.7615 0.297852 12.1487 0.297852ZM12.1487 22.2839C6.63814 22.2839 2.15498 17.8008 2.15498 12.2903C2.15498 6.77975 6.63814 2.29659 12.1487 2.29659C17.6592 2.29659 22.1423 6.77975 22.1423 12.2903C22.1423 17.8008 17.6592 22.2839 12.1487 22.2839Z" fill="#F35252"/>
<path d="M18.2424 8.18778C18.2424 7.77384 17.8763 7.43826 17.4247 7.43826H15.3664C15.022 6.54251 14.1 5.94225 13.0639 5.93921H11.4285C10.3924 5.94225 9.47044 6.54251 9.126 7.43826H7.06766C6.61608 7.43826 6.25 7.77384 6.25 8.18778C6.25 8.60173 6.61608 8.93731 7.06766 8.93731H7.34023V15.1834C7.34023 16.7012 8.68252 17.9316 10.3383 17.9316H14.1541C15.8099 17.9316 17.1522 16.7012 17.1522 15.1834V8.93731H17.4247C17.8763 8.93731 18.2424 8.60173 18.2424 8.18778ZM15.5169 15.1834C15.5169 15.8733 14.9067 16.4326 14.1541 16.4326H10.3383C9.58568 16.4326 8.97555 15.8733 8.97555 15.1834V8.93731H15.5169V15.1834Z" fill="#F35252"/>
<path d="M10.8834 14.9335C11.335 14.9335 11.7011 14.5979 11.7011 14.184V11.1859C11.7011 10.7719 11.335 10.4364 10.8834 10.4364C10.4319 10.4364 10.0658 10.7719 10.0658 11.1859V14.184C10.0658 14.5979 10.4319 14.9335 10.8834 14.9335Z" fill="#F35252"/>
<path d="M13.609 14.9335C14.0605 14.9335 14.4266 14.5979 14.4266 14.184V11.1859C14.4266 10.7719 14.0605 10.4364 13.609 10.4364C13.1574 10.4364 12.7913 10.7719 12.7913 11.1859V14.184C12.7913 14.5979 13.1574 14.9335 13.609 14.9335Z" fill="#F35252"/>
</svg>
