<svg width="18" height="17" viewBox="0 0 18 17" fill="none" xmlns="http://www.w3.org/2000/svg">
<path d="M16.65 14.4092H1.35C1.12457 14.4092 0.908365 14.498 0.748959 14.6559C0.589553 14.8138 0.5 15.028 0.5 15.2513C0.5 15.4747 0.589553 15.6889 0.748959 15.8468C0.908365 16.0047 1.12457 16.0934 1.35 16.0934H16.65C16.8754 16.0934 17.0916 16.0047 17.251 15.8468C17.4104 15.6889 17.5 15.4747 17.5 15.2513C17.5 15.028 17.4104 14.8138 17.251 14.6559C17.0916 14.498 16.8754 14.4092 16.65 14.4092ZM9 0.0934448C8.77457 0.0934448 8.55837 0.182166 8.39896 0.340092C8.23955 0.498017 8.15 0.71221 8.15 0.93555V9.85345L5.3535 7.0745C5.19344 6.91593 4.97636 6.82684 4.75 6.82684C4.52364 6.82684 4.30656 6.91593 4.1465 7.0745C3.98644 7.23307 3.89652 7.44814 3.89652 7.67239C3.89652 7.89665 3.98644 8.11172 4.1465 8.27029L8.3965 12.4808C8.47552 12.5597 8.56953 12.6224 8.67311 12.6651C8.77669 12.7079 8.88779 12.7299 9 12.7299C9.11221 12.7299 9.22331 12.7079 9.32689 12.6651C9.43047 12.6224 9.52448 12.5597 9.6035 12.4808L13.8535 8.27029C13.9328 8.19177 13.9956 8.09856 14.0385 7.99597C14.0814 7.89338 14.1035 7.78343 14.1035 7.67239C14.1035 7.56135 14.0814 7.4514 14.0385 7.34881C13.9956 7.24623 13.9328 7.15301 13.8535 7.0745C13.7742 6.99598 13.6802 6.9337 13.5766 6.8912C13.4731 6.84871 13.3621 6.82684 13.25 6.82684C13.1379 6.82684 13.0269 6.84871 12.9234 6.8912C12.8198 6.9337 12.7258 6.99598 12.6465 7.0745L9.85 9.85345V0.93555C9.85 0.71221 9.76045 0.498017 9.60104 0.340092C9.44163 0.182166 9.22543 0.0934448 9 0.0934448Z" fill="white"/>
</svg>
