<svg width="11" height="15" viewBox="0 0 11 15" fill="none" xmlns="http://www.w3.org/2000/svg">
<path d="M9.77778 4.00494C9.6157 4.00494 9.46026 4.07198 9.34566 4.19132C9.23105 4.31065 9.16667 4.4725 9.16667 4.64127V11.7625C9.14914 12.0842 9.01021 12.3858 8.78014 12.6014C8.55007 12.817 8.2475 12.9292 7.93833 12.9136H3.06167C2.7525 12.9292 2.44993 12.817 2.21986 12.6014C1.9898 12.3858 1.85086 12.0842 1.83333 11.7625V4.64127C1.83333 4.4725 1.76895 4.31065 1.65434 4.19132C1.53974 4.07198 1.3843 4.00494 1.22222 4.00494C1.06015 4.00494 0.904707 4.07198 0.790102 4.19132C0.675496 4.31065 0.611111 4.4725 0.611111 4.64127V11.7625C0.628555 12.4218 0.896245 13.0472 1.35555 13.5014C1.81486 13.9557 2.42836 14.202 3.06167 14.1862H7.93833C8.57164 14.202 9.18514 13.9557 9.64445 13.5014C10.1038 13.0472 10.3714 12.4218 10.3889 11.7625V4.64127C10.3889 4.4725 10.3245 4.31065 10.2099 4.19132C10.0953 4.07198 9.93985 4.00494 9.77778 4.00494ZM10.3889 2.09594H7.94445V0.823282C7.94445 0.654516 7.88006 0.492663 7.76545 0.373328C7.65085 0.253993 7.49541 0.186951 7.33333 0.186951H3.66667C3.50459 0.186951 3.34915 0.253993 3.23455 0.373328C3.11994 0.492663 3.05556 0.654516 3.05556 0.823282V2.09594H0.611111C0.449034 2.09594 0.293596 2.16299 0.17899 2.28232C0.0643847 2.40166 0 2.56351 0 2.73228C0 2.90104 0.0643847 3.06289 0.17899 3.18223C0.293596 3.30157 0.449034 3.36861 0.611111 3.36861H10.3889C10.551 3.36861 10.7064 3.30157 10.821 3.18223C10.9356 3.06289 11 2.90104 11 2.73228C11 2.56351 10.9356 2.40166 10.821 2.28232C10.7064 2.16299 10.551 2.09594 10.3889 2.09594ZM4.27778 2.09594V1.45961H6.72222V2.09594H4.27778Z" fill="white"/>
<path d="M4.88889 10.3683V5.91393C4.88889 5.74517 4.8245 5.58331 4.7099 5.46398C4.59529 5.34464 4.43985 5.2776 4.27778 5.2776C4.1157 5.2776 3.96026 5.34464 3.84566 5.46398C3.73105 5.58331 3.66667 5.74517 3.66667 5.91393V10.3683C3.66667 10.537 3.73105 10.6989 3.84566 10.8182C3.96026 10.9375 4.1157 11.0046 4.27778 11.0046C4.43985 11.0046 4.59529 10.9375 4.7099 10.8182C4.8245 10.6989 4.88889 10.537 4.88889 10.3683ZM7.33333 10.3683V5.91393C7.33333 5.74517 7.26895 5.58331 7.15434 5.46398C7.03974 5.34464 6.8843 5.2776 6.72222 5.2776C6.56015 5.2776 6.40471 5.34464 6.2901 5.46398C6.1755 5.58331 6.11111 5.74517 6.11111 5.91393V10.3683C6.11111 10.537 6.1755 10.6989 6.2901 10.8182C6.40471 10.9375 6.56015 11.0046 6.72222 11.0046C6.8843 11.0046 7.03974 10.9375 7.15434 10.8182C7.26895 10.6989 7.33333 10.537 7.33333 10.3683Z" fill="white"/>
</svg>
