<svg width="25" height="25" viewBox="0 0 25 25" fill="none" xmlns="http://www.w3.org/2000/svg">
<g clip-path="url(#clip0_229_4760)">
<path d="M12.6565 0.297852C6.04366 0.297852 0.664062 5.67744 0.664062 12.2903C0.664062 18.9031 6.04366 24.2827 12.6565 24.2827C19.2693 24.2827 24.6489 18.9031 24.6489 12.2903C24.6489 5.67744 19.2693 0.297852 12.6565 0.297852ZM12.6565 22.2839C7.14596 22.2839 2.6628 17.8008 2.6628 12.2903C2.6628 6.77975 7.14596 2.29659 12.6565 2.29659C18.167 2.29659 22.6501 6.77975 22.6501 12.2903C22.6501 17.8008 18.167 22.2839 12.6565 22.2839ZM14.0346 6.67281L8.12434 12.5831C7.18094 13.5265 6.66026 14.7817 6.66026 16.1158V17.2871C6.66026 17.8397 7.10698 18.2865 7.65963 18.2865H8.83089C10.165 18.2865 11.4202 17.7658 12.3637 16.8224L18.2739 10.9121C19.4432 9.74287 19.4432 7.84207 18.2739 6.67281C17.1047 5.50355 15.2039 5.50355 14.0346 6.67281ZM10.9505 15.4093C10.3919 15.9679 9.61939 16.2877 8.83089 16.2877H8.659V16.1158C8.659 15.3273 8.9788 14.5548 9.53744 13.9962L12.9923 10.5414L14.4054 11.9545L10.9505 15.4093ZM16.8608 9.49902L15.8185 10.5414L14.4054 9.12826L15.4477 8.08592C15.8385 7.69517 16.4701 7.69517 16.8608 8.08592C17.2516 8.47667 17.2506 9.10927 16.8608 9.49902Z" fill="#1F9254"/>
</g>
<defs>
<clipPath id="clip0_229_4760">
<rect width="23.9848" height="23.9848" fill="white" transform="translate(0.664062 0.297852)"/>
</clipPath>
</defs>
</svg>
