<svg width="32" height="32" viewBox="0 0 32 32" fill="none" xmlns="http://www.w3.org/2000/svg">
<rect x="0.5" y="0.5" width="31" height="31" rx="6.45833" fill="#F35252"/>
<path d="M14.7623 13.2099C15.1052 13.2099 15.3833 12.9319 15.3833 12.5889C15.3833 12.246 15.1052 11.9679 14.7623 11.9679C14.4193 11.9679 14.1413 12.246 14.1413 12.5889C14.1413 12.9319 14.4193 13.2099 14.7623 13.2099Z" fill="white"/>
<path d="M11.0364 12.2784C11.3793 12.2784 11.6574 12.0004 11.6574 11.6574C11.6574 11.3145 11.3793 11.0365 11.0364 11.0365C10.6934 11.0365 10.4154 11.3145 10.4154 11.6574C10.4154 12.0004 10.6934 12.2784 11.0364 12.2784Z" fill="white"/>
<path d="M18.1777 13.2099C18.5206 13.2099 18.7987 12.9319 18.7987 12.5889C18.7987 12.246 18.5206 11.9679 18.1777 11.9679C17.8347 11.9679 17.5567 12.246 17.5567 12.5889C17.5567 12.9319 17.8347 13.2099 18.1777 13.2099Z" fill="white"/>
<path d="M14.1413 15.0729H14.7623V17.8674H14.1413V15.0729ZM11.6574 14.1414H12.2783V17.8674H11.6574V14.1414ZM16.6252 16.0044H17.2462V17.8674H16.6252V16.0044Z" fill="white"/>
<path d="M21.9036 14.4519C21.9036 12.9781 21.4665 11.5373 20.6477 10.3119C19.8289 9.08639 18.6651 8.13126 17.3035 7.56725C15.9418 7.00323 14.4435 6.85566 12.998 7.14319C11.5525 7.43072 10.2247 8.14045 9.18258 9.18262C8.14043 10.2248 7.43072 11.5526 7.14319 12.9981C6.85566 14.4436 7.00323 15.942 7.56724 17.3036C8.13124 18.6653 9.08636 19.8291 10.3118 20.6479C11.5372 21.4668 12.978 21.9038 14.4518 21.9038C16.4274 21.9015 18.3215 21.1157 19.7184 19.7187C21.1154 18.3217 21.9013 16.4276 21.9036 14.4519ZM19.7301 18.4884H10.4154V17.8674H11.0364V13.8309C11.0364 13.7486 11.0691 13.6696 11.1273 13.6114C11.1856 13.5531 11.2645 13.5204 11.3469 13.5204H12.5888C12.6712 13.5204 12.7502 13.5531 12.8084 13.6114C12.8666 13.6696 12.8993 13.7486 12.8993 13.8309V17.8674H13.5203V14.7624C13.5203 14.6801 13.553 14.6011 13.6112 14.5429C13.6695 14.4846 13.7485 14.4519 13.8308 14.4519H15.0728C15.1551 14.4519 15.2341 14.4846 15.2923 14.5429C15.3505 14.6011 15.3833 14.6801 15.3833 14.7624V17.8674H16.0042V15.6939C16.0042 15.6115 16.0369 15.5326 16.0952 15.4743C16.1534 15.4161 16.2324 15.3834 16.3147 15.3834H17.5567C17.639 15.3834 17.718 15.4161 17.7762 15.4743C17.8345 15.5326 17.8672 15.6115 17.8672 15.6939V17.8674H19.7301V18.4884ZM9.79442 11.6574C9.7931 11.328 9.92269 11.0116 10.1547 10.7778C10.3867 10.5439 10.702 10.4118 11.0314 10.4105C11.3608 10.4092 11.6772 10.5388 11.9111 10.7707C12.1449 11.0027 12.277 11.3181 12.2783 11.6475L13.6771 11.999C13.7946 11.7798 13.9756 11.6012 14.1964 11.4866C14.4172 11.3721 14.6674 11.327 14.9143 11.3572C15.1612 11.3874 15.3931 11.4916 15.5798 11.656C15.7664 11.8204 15.899 12.0373 15.9601 12.2784H16.9798C17.0554 11.9857 17.2351 11.7307 17.4853 11.561C17.7355 11.3913 18.0389 11.3188 18.3388 11.3568C18.6387 11.3949 18.9144 11.5411 19.1142 11.7679C19.314 11.9947 19.4243 12.2866 19.4243 12.5889C19.4243 12.8912 19.314 13.1831 19.1142 13.41C18.9144 13.6368 18.6387 13.7829 18.3388 13.821C18.0389 13.8591 17.7355 13.7865 17.4853 13.6169C17.2351 13.4472 17.0554 13.1921 16.9798 12.8994H15.9601C15.8861 13.192 15.7078 13.4474 15.4588 13.6178C15.2098 13.7882 14.9072 13.8619 14.6077 13.825C14.3082 13.7881 14.0325 13.6432 13.8323 13.4174C13.6321 13.1917 13.5211 12.9006 13.5203 12.5989L12.1231 12.2474C11.9927 12.491 11.7845 12.684 11.5317 12.7955C11.2788 12.9071 10.996 12.9308 10.7281 12.863C10.4602 12.7951 10.2228 12.6395 10.0536 12.4211C9.88436 12.2026 9.79313 11.9338 9.79442 11.6574ZM14.4518 21.2828C13.1008 21.2828 11.7801 20.8822 10.6568 20.1316C9.53348 19.381 8.65795 18.3142 8.14095 17.066C7.62394 15.8178 7.48867 14.4443 7.75224 13.1193C8.0158 11.7942 8.66637 10.577 9.62168 9.62172C10.577 8.6664 11.7941 8.01582 13.1192 7.75225C14.4442 7.48868 15.8176 7.62395 17.0658 8.14097C18.314 8.65798 19.3808 9.53352 20.1314 10.6569C20.882 11.7802 21.2826 13.1009 21.2826 14.4519H20.6616C20.6616 13.2237 20.2974 12.0231 19.6151 11.0019C18.9327 9.98065 17.9629 9.1847 16.8282 8.71469C15.6935 8.24468 14.4449 8.1217 13.2403 8.36131C12.0357 8.60092 10.9292 9.19236 10.0608 10.0608C9.19232 10.9293 8.60089 12.0358 8.36129 13.2404C8.12168 14.445 8.24465 15.6936 8.71466 16.8283C9.18467 17.9631 9.98059 18.9329 11.0018 19.6153C12.023 20.2976 13.2236 20.6618 14.4518 20.6618V21.2828ZM24.7781 23.6646L21.9036 20.7904L20.7901 21.9038L23.6647 24.7781C23.8131 24.9219 24.0121 25.0016 24.2188 25C24.4255 24.9983 24.6232 24.9155 24.7694 24.7694C24.9155 24.6232 24.9983 24.4255 25 24.2188C25.0016 24.0121 24.9219 23.8131 24.7781 23.6646Z" fill="white"/>
<path d="M21.9036 19.7303C21.9038 19.6726 21.8926 19.6155 21.8705 19.5622C21.8484 19.5089 21.816 19.4605 21.775 19.4198L21.2118 18.8566C20.5976 19.7959 19.7957 20.5978 18.8564 21.212L19.4196 21.7753C19.5032 21.8552 19.6145 21.8998 19.7301 21.8998C19.8458 21.8998 19.957 21.8552 20.0406 21.7753L21.775 20.0408C21.816 20.0002 21.8484 19.9518 21.8705 19.8985C21.8926 19.8452 21.9038 19.788 21.9036 19.7303Z" fill="white"/>
</svg>
