<svg width="11" height="11" viewBox="0 0 11 11" fill="none" xmlns="http://www.w3.org/2000/svg">
<path d="M3.68777 0.134521H1.73672C0.928573 0.134521 0.273438 0.789657 0.273438 1.59781V3.54886C0.273438 4.35701 0.928573 5.01214 1.73672 5.01214H3.68777C4.49592 5.01214 5.15106 4.35701 5.15106 3.54886V1.59781C5.15106 0.789657 4.49592 0.134521 3.68777 0.134521Z" fill="white"/>
<path d="M9.54092 0.134521H7.58987C6.78172 0.134521 6.12658 0.789657 6.12658 1.59781V3.54886C6.12658 4.35701 6.78172 5.01214 7.58987 5.01214H9.54092C10.3491 5.01214 11.0042 4.35701 11.0042 3.54886V1.59781C11.0042 0.789657 10.3491 0.134521 9.54092 0.134521Z" fill="white"/>
<path d="M3.68777 5.98767H1.73672C0.928573 5.98767 0.273438 6.6428 0.273438 7.45095V9.402C0.273438 10.2102 0.928573 10.8653 1.73672 10.8653H3.68777C4.49592 10.8653 5.15106 10.2102 5.15106 9.402V7.45095C5.15106 6.6428 4.49592 5.98767 3.68777 5.98767Z" fill="white"/>
<path d="M9.54092 5.98767H7.58987C6.78172 5.98767 6.12658 6.6428 6.12658 7.45095V9.402C6.12658 10.2102 6.78172 10.8653 7.58987 10.8653H9.54092C10.3491 10.8653 11.0042 10.2102 11.0042 9.402V7.45095C11.0042 6.6428 10.3491 5.98767 9.54092 5.98767Z" fill="white"/>
</svg>
