<svg width="20" height="20" viewBox="0 0 20 20" fill="none" xmlns="http://www.w3.org/2000/svg">
<path d="M8.20177 6.79041H2.26427C1.50034 6.79041 0.878906 6.16898 0.878906 5.4049V1.8424C0.878906 1.07846 1.50034 0.457031 2.26427 0.457031H8.20177C8.96586 0.457031 9.58729 1.07846 9.58729 1.8424V5.4049C9.58729 6.16898 8.96586 6.79041 8.20177 6.79041ZM2.26427 1.64453C2.21181 1.64457 2.1615 1.66543 2.1244 1.70253C2.0873 1.73963 2.06645 1.78993 2.06641 1.8424V5.4049C2.06642 5.45739 2.08726 5.50772 2.12436 5.54485C2.16146 5.58198 2.21179 5.60286 2.26427 5.60291H8.20177C8.25428 5.60289 8.30464 5.58203 8.34177 5.5449C8.3789 5.50776 8.39977 5.45741 8.39979 5.4049V1.8424C8.39974 1.78991 8.37886 1.73959 8.34173 1.70249C8.3046 1.66539 8.25426 1.64454 8.20177 1.64453H2.26427ZM8.20177 19.457H2.26427C1.50034 19.457 0.878906 18.8356 0.878906 18.0717V9.75916C0.878906 8.99508 1.50034 8.37365 2.26427 8.37365H8.20177C8.96586 8.37365 9.58729 8.99508 9.58729 9.75916V18.0717C9.58729 18.8356 8.96586 19.457 8.20177 19.457ZM2.26427 9.56115C2.21179 9.5612 2.16146 9.58208 2.12436 9.61921C2.08726 9.65634 2.06642 9.70668 2.06641 9.75916V18.0717C2.06645 18.1241 2.0873 18.1744 2.1244 18.2115C2.1615 18.2486 2.21181 18.2695 2.26427 18.2695H8.20177C8.25426 18.2695 8.3046 18.2487 8.34173 18.2116C8.37886 18.1745 8.39974 18.1242 8.39979 18.0717V9.75916C8.39977 9.70665 8.3789 9.6563 8.34177 9.61917C8.30464 9.58204 8.25428 9.56117 8.20177 9.56115H2.26427ZM18.4935 19.457H12.556C11.792 19.457 11.1705 18.8356 11.1705 18.0717V14.5092C11.1705 13.7451 11.792 13.1236 12.556 13.1236H18.4935C19.2575 13.1236 19.8789 13.7451 19.8789 14.5092V18.0717C19.8789 18.8356 19.2575 19.457 18.4935 19.457ZM12.556 14.3111C12.5035 14.3112 12.4532 14.332 12.416 14.3692C12.3789 14.4063 12.358 14.4567 12.358 14.5092V18.0717C12.3581 18.1242 12.379 18.1745 12.4161 18.2116C12.4532 18.2487 12.5036 18.2695 12.556 18.2695H18.4935C18.546 18.2695 18.5963 18.2486 18.6334 18.2115C18.6705 18.1744 18.6914 18.1241 18.6914 18.0717V14.5092C18.6914 14.4567 18.6706 14.4063 18.6334 14.3692C18.5963 14.3321 18.546 14.3112 18.4935 14.3111H12.556ZM18.4935 11.5404H12.556C11.792 11.5404 11.1705 10.919 11.1705 10.1549V1.8424C11.1705 1.07846 11.792 0.457031 12.556 0.457031H18.4935C19.2575 0.457031 19.8789 1.07846 19.8789 1.8424V10.1549C19.8789 10.919 19.2575 11.5404 18.4935 11.5404ZM12.556 1.64453C12.5036 1.64454 12.4532 1.66539 12.4161 1.70249C12.379 1.73959 12.3581 1.78991 12.358 1.8424V10.1549C12.358 10.2074 12.3789 10.2578 12.416 10.2949C12.4532 10.332 12.5035 10.3529 12.556 10.3529H18.4935C18.546 10.3529 18.5963 10.332 18.6334 10.2949C18.6706 10.2577 18.6914 10.2074 18.6914 10.1549V1.8424C18.6914 1.78993 18.6705 1.73963 18.6334 1.70253C18.5963 1.66543 18.546 1.64457 18.4935 1.64453H12.556Z" fill="white"/>
</svg>
