<svg width="23" height="22" viewBox="0 0 23 22" fill="none" xmlns="http://www.w3.org/2000/svg">
<path d="M4.02319 7.02246C3.65388 7.02246 3.35449 7.32187 3.35449 7.69119C3.35449 8.06045 3.65388 8.35989 4.02319 8.35989H18.7346C19.104 8.35989 19.4033 8.06045 19.4033 7.69119C19.4033 7.32187 19.104 7.02246 18.7346 7.02246H4.02319Z" fill="#7F7F7F"/>
<path d="M4.0232 13.7095C3.65389 13.7095 3.3545 14.0089 3.35449 14.3782C3.35449 14.7475 3.65387 15.0469 4.02319 15.0469L18.7346 15.0471C19.104 15.0471 19.4033 14.7477 19.4033 14.3784C19.4033 14.0091 19.104 13.7097 18.7346 13.7097L4.0232 13.7095Z" fill="#7F7F7F"/>
</svg>
