<svg width="20" height="20" viewBox="0 0 20 20" fill="none" xmlns="http://www.w3.org/2000/svg">
<path d="M19.4132 0.253906C19.2952 0.256943 19.1831 0.305937 19.1008 0.390436L17.1603 2.33428L16.5757 1.74891C16.2506 1.42465 15.876 1.2446 15.5073 1.23436C15.2855 1.22839 15.0807 1.25996 14.8366 1.29409L11.6706 1.7344C10.5058 1.89653 9.91441 2.39487 9.16346 3.09458L1.3757 10.352C1.37253 10.3548 1.3694 10.3577 1.36631 10.3605C1.02923 10.6933 0.883307 11.1473 0.879041 11.5944C0.87392 12.0416 1.01472 12.5152 1.3902 12.836L1.3646 12.8113L7.32105 18.7691L7.29716 18.7435C7.61802 19.1189 8.09078 19.2589 8.5388 19.2538C8.98596 19.2495 9.4408 19.1036 9.77275 18.7674C9.77565 18.764 9.77849 18.7606 9.78129 18.7571L10.3163 18.1829L12.4463 18.9764C12.6618 19.0588 12.8916 19.0969 13.1221 19.0884C13.3526 19.0799 13.579 19.025 13.7878 18.927C14.1932 18.7367 14.5456 18.415 14.7077 17.9712L17.0459 10.9621C17.7423 10.2155 18.2381 9.62328 18.3994 8.46278L18.8397 5.29699C18.8738 5.05294 18.9054 4.84729 18.8994 4.62628C18.8892 4.25765 18.71 3.8839 18.3849 3.55793L17.7995 2.97341L19.7417 1.03127C19.8071 0.967768 19.8518 0.885979 19.8699 0.796633C19.888 0.707287 19.8787 0.614555 19.8432 0.530598C19.8076 0.446641 19.7476 0.375378 19.6708 0.326154C19.5941 0.276931 19.5043 0.252045 19.4132 0.25476V0.253906ZM15.4826 2.13802C15.6601 2.14229 15.6959 2.14741 15.9357 2.38804L16.5211 2.97256L15.4826 4.0119C15.3011 3.92319 15.1018 3.87681 14.8997 3.87622C14.1556 3.87622 13.542 4.4906 13.542 5.23384C13.542 5.97793 14.1556 6.59061 14.8989 6.59061C15.643 6.59061 16.2566 5.97793 16.2566 5.23384C16.2566 5.02563 16.2071 4.82852 16.1217 4.65103L17.1603 3.61169L17.7448 4.19706C17.9855 4.43685 17.9906 4.47269 17.9949 4.64932C17.9899 4.82437 17.9728 4.99886 17.9437 5.17155L17.5042 8.33734C17.3677 9.31865 17.0732 9.60536 16.3778 10.3529L9.12847 18.1308C9.01156 18.2494 8.77006 18.3458 8.52856 18.3484C8.28706 18.3518 8.08054 18.2656 7.98582 18.1547C7.97791 18.1458 7.96965 18.1373 7.96107 18.1291L2.00462 12.1713C1.99642 12.1627 1.98788 12.1544 1.97902 12.1465C1.86808 12.0527 1.78104 11.8453 1.78446 11.6038C1.78702 11.3632 1.88344 11.1208 2.00206 11.0039L9.78043 3.7559C10.528 3.0596 10.8147 2.76606 11.7961 2.62953L14.962 2.18922C15.2061 2.15509 15.3768 2.13461 15.4826 2.13802ZM14.8997 4.78073C15.1549 4.78073 15.352 4.9787 15.352 5.23384C15.352 5.48898 15.1549 5.6861 14.8997 5.6861C14.6437 5.6861 14.4475 5.48898 14.4475 5.23384C14.4475 4.9787 14.6437 4.78073 14.8997 4.78073ZM7.205 9.75213C7.11496 9.75204 7.02695 9.77882 6.95223 9.82904C6.8775 9.87927 6.81947 9.95065 6.78556 10.034C6.75165 10.1174 6.7434 10.2091 6.76187 10.2972C6.78035 10.3853 6.8247 10.4659 6.88925 10.5286L9.60379 13.2422C10.0305 13.6688 10.6705 13.0289 10.2438 12.6022L7.52927 9.88866C7.48708 9.8454 7.43665 9.81102 7.38095 9.78757C7.32526 9.76412 7.26543 9.75207 7.205 9.75213ZM5.84815 11.108C5.75794 11.1078 5.66971 11.1345 5.5948 11.1848C5.51989 11.235 5.46172 11.3065 5.42777 11.3901C5.39382 11.4737 5.38565 11.5655 5.4043 11.6538C5.42294 11.742 5.46756 11.8227 5.53241 11.8854L8.24695 14.599C8.67363 15.0538 9.34181 14.3848 8.88697 13.959L6.17328 11.2463C6.13114 11.2026 6.08063 11.1679 6.02478 11.1441C5.96892 11.1204 5.90885 11.1081 5.84815 11.108ZM15.5611 12.5544L13.8578 17.6598C13.7998 17.8159 13.6206 18.0054 13.4021 18.1078C13.1836 18.2102 12.9643 18.2076 12.8278 18.1564L10.9828 17.4661L15.5611 12.5544Z" fill="#7F7F7F"/>
</svg>
