<svg width="20" height="20" viewBox="0 0 20 20" fill="none" xmlns="http://www.w3.org/2000/svg">
<path d="M19.0807 1.23963C18.936 1.09453 18.7011 1.09453 18.556 1.23963C18.4112 1.38435 18.4112 1.61926 18.556 1.76435C18.7011 1.90908 18.936 1.90908 19.0807 1.76435C19.2258 1.61926 19.2258 1.38435 19.0807 1.23963ZM19.0807 11.7355C18.936 11.5908 18.7011 11.5908 18.556 11.7355C18.4113 11.8806 18.4113 12.1155 18.556 12.2603C18.7011 12.4054 18.936 12.4054 19.0807 12.2603C19.2258 12.1155 19.2258 11.8806 19.0807 11.7355ZM8.58479 1.23963C8.43969 1.09453 8.20479 1.09453 8.06006 1.23963C7.91496 1.38435 7.91496 1.61926 8.06006 1.76435C8.20479 1.90908 8.43969 1.90908 8.58479 1.76435C8.72951 1.61926 8.72951 1.38435 8.58479 1.23963ZM15.0778 5.76722L14.553 5.2425C14.119 4.8085 13.4128 4.8085 12.9788 5.2425C12.5814 5.64001 1.60289 16.6185 1.20522 17.0161C0.77019 17.4512 0.770078 18.1552 1.20522 18.5904L1.72995 19.1151C2.16502 19.5501 2.86906 19.5502 3.3042 19.1151L15.0778 7.34151C15.5118 6.90748 15.5118 6.20125 15.0778 5.76722ZM2.7794 18.5903C2.74497 18.6247 2.70408 18.6521 2.65907 18.6708C2.61406 18.6894 2.56582 18.699 2.51709 18.699C2.46837 18.699 2.42012 18.6894 2.37512 18.6708C2.33011 18.6521 2.28922 18.6247 2.25479 18.5903L1.73006 18.0655C1.69558 18.0311 1.66822 17.9902 1.64956 17.9452C1.63089 17.9002 1.62128 17.852 1.62128 17.8032C1.62127 17.7545 1.63088 17.7063 1.64954 17.6613C1.6682 17.6162 1.69555 17.5754 1.73002 17.5409L10.6172 8.65373L11.6666 9.70307L2.7794 18.5903ZM14.553 6.81671L12.1914 9.17827L11.1421 8.12893L13.5037 5.7673C13.5381 5.73282 13.579 5.70549 13.624 5.68687C13.669 5.66825 13.7173 5.65871 13.766 5.65879C13.861 5.65879 13.956 5.69497 14.0283 5.7673L14.553 6.29202C14.6977 6.43667 14.6977 6.67206 14.553 6.81671ZM9.85946 6.37886H7.6329C7.42794 6.37886 7.2618 6.545 7.2618 6.74995C7.2618 6.9549 7.42794 7.12104 7.6329 7.12104H9.85946C10.0644 7.12104 10.2306 6.9549 10.2306 6.74995C10.2306 6.545 10.0644 6.37886 9.85946 6.37886ZM19.5078 6.37886H17.2813C17.0763 6.37886 16.9102 6.545 16.9102 6.74995C16.9102 6.9549 17.0763 7.12104 17.2813 7.12104H19.5078C19.7128 7.12104 19.8789 6.9549 19.8789 6.74995C19.8789 6.545 19.7128 6.37886 19.5078 6.37886ZM13.5704 10.0897C13.3654 10.0897 13.1993 10.2559 13.1993 10.4608V12.6874C13.1993 12.8924 13.3654 13.0585 13.5704 13.0585C13.7753 13.0585 13.9415 12.8924 13.9415 12.6874V10.4608C13.9415 10.2559 13.7753 10.0897 13.5704 10.0897ZM13.5704 0.441406C13.3654 0.441406 13.1993 0.607545 13.1993 0.812499V3.03906C13.1993 3.24401 13.3654 3.41015 13.5704 3.41015C13.7753 3.41015 13.9415 3.24401 13.9415 3.03906V0.812499C13.9415 0.607545 13.7753 0.441406 13.5704 0.441406ZM18.0313 10.686L16.4568 9.11147C16.3118 8.96656 16.0769 8.96656 15.9319 9.11147C15.787 9.25639 15.787 9.49136 15.9319 9.63631L17.5065 11.2109C17.5409 11.2454 17.5818 11.2727 17.6269 11.2914C17.6719 11.31 17.7202 11.3196 17.7689 11.3196C17.8176 11.3196 17.8659 11.3101 17.911 11.2914C17.956 11.2727 17.9969 11.2454 18.0313 11.2109C18.1762 11.0659 18.1762 10.831 18.0313 10.686ZM11.2088 3.86351L9.63428 2.28897C9.48937 2.14406 9.25439 2.14406 9.10944 2.28897C8.96453 2.43388 8.96453 2.66885 9.10944 2.8138L10.684 4.38835C10.8289 4.53326 11.0639 4.53326 11.2088 4.38835C11.3537 4.24344 11.3537 4.00846 11.2088 3.86351ZM18.0313 2.289C17.8864 2.14409 17.6515 2.14409 17.5065 2.289L15.932 3.86355C15.787 4.00846 15.787 4.24344 15.932 4.38839C16.0769 4.5333 16.3118 4.53334 16.4568 4.38839L18.0313 2.81384C18.1763 2.66893 18.1763 2.43395 18.0313 2.289Z" fill="#7F7F7F"/>
</svg>
