<svg width="39" height="39" viewBox="0 0 39 39" fill="none" xmlns="http://www.w3.org/2000/svg">
<path d="M20.3831 24.5612C20.3831 25.1151 19.934 25.5642 19.38 25.5642C18.8261 25.5642 18.377 25.1151 18.377 24.5612C18.377 24.0072 18.8261 23.5581 19.38 23.5581C19.934 23.5581 20.3831 24.0072 20.3831 24.5612Z" fill="#7F7F7F"/>
<path d="M17.3735 17.5398C17.3735 16.4319 18.2717 15.5337 19.3796 15.5337C20.4876 15.5337 21.3857 16.4319 21.3857 17.5398V17.6042C21.3857 18.6766 20.5164 19.5459 19.4441 19.5459C19.0392 19.5459 18.7109 19.8742 18.7109 20.2791V21.552C18.7109 21.9213 19.0103 22.2207 19.3796 22.2207C19.749 22.2207 20.0483 21.9213 20.0483 21.552V20.8277C21.5707 20.5442 22.7232 19.2088 22.7232 17.6042V17.5398C22.7232 15.6932 21.2262 14.1963 19.3796 14.1963C17.5331 14.1963 16.0361 15.6932 16.0361 17.5398C16.0361 17.9091 16.3355 18.2085 16.7048 18.2085C17.0742 18.2085 17.3735 17.9091 17.3735 17.5398Z" fill="#7F7F7F"/>
<path fill-rule="evenodd" clip-rule="evenodd" d="M14.1783 11.7618C15.7178 10.7331 17.5278 10.1841 19.3794 10.1841C21.8623 10.1841 24.2435 11.1704 25.9992 12.9261C27.7549 14.6818 28.7412 17.063 28.7412 19.5459C28.7412 21.3975 28.1922 23.2075 27.1635 24.7471C26.1348 26.2866 24.6727 27.4865 22.962 28.1951C21.2514 28.9037 19.369 29.0891 17.553 28.7278C15.737 28.3666 14.0689 27.475 12.7596 26.1657C11.4503 24.8565 10.5587 23.1883 10.1975 21.3723C9.83624 19.5563 10.0216 17.6739 10.7302 15.9633C11.4388 14.2526 12.6387 12.7905 14.1783 11.7618ZM14.9213 26.218C16.2409 27.0997 17.7923 27.5703 19.3794 27.5703C21.5076 27.5703 23.5486 26.7249 25.0535 25.22C26.5584 23.7152 27.4038 21.6741 27.4038 19.5459C27.4038 17.9588 26.9332 16.4074 26.0514 15.0878C25.1698 13.7682 23.9165 12.7397 22.4502 12.1323C20.984 11.525 19.3705 11.3661 17.8139 11.6757C16.2574 11.9853 14.8275 12.7496 13.7053 13.8718C12.583 14.994 11.8188 16.4239 11.5092 17.9804C11.1995 19.537 11.3585 21.1504 11.9658 22.6167C12.5732 24.083 13.6017 25.3363 14.9213 26.218Z" fill="#7F7F7F"/>
</svg>
