<svg width="23" height="23" viewBox="0 0 23 23" fill="none" xmlns="http://www.w3.org/2000/svg">
<path fill-rule="evenodd" clip-rule="evenodd" d="M12.0484 2.83765C12.0484 2.46834 11.749 2.16895 11.3797 2.16895C11.0103 2.16895 10.7109 2.46834 10.7109 2.83765V3.54307C7.70182 3.87573 5.36133 6.42687 5.36133 9.52467V10.7921C5.36133 11.5513 5.10295 12.2879 4.62866 12.8807L3.47565 14.3221C2.96482 14.9605 2.68652 15.7539 2.68652 16.5716C2.68652 17.4808 3.42354 18.2178 4.33269 18.2178H8.70484C8.70484 18.569 8.77403 18.9169 8.90845 19.2414C9.04287 19.5659 9.2399 19.8608 9.48828 20.1092C9.73665 20.3575 10.0315 20.5545 10.356 20.6891C10.6806 20.8235 11.0284 20.8926 11.3797 20.8926C11.7309 20.8926 12.0787 20.8235 12.4033 20.6891C12.7278 20.5545 13.0227 20.3575 13.271 20.1092C13.5194 19.8608 13.7164 19.5659 13.8509 19.2414C13.9853 18.9169 14.0545 18.569 14.0545 18.2178H18.4266C19.3357 18.2178 20.0728 17.4808 20.0728 16.5716C20.0728 15.7539 19.7945 14.9605 19.2837 14.3221L18.1306 12.8807C17.6564 12.2879 17.398 11.5513 17.398 10.7921V9.52467C17.398 6.42687 15.0575 3.87573 12.0484 3.54307V2.83765ZM12.7171 18.2178H10.0422C10.0422 18.3934 10.0768 18.5674 10.144 18.7296C10.2113 18.8918 10.3098 19.0392 10.434 19.1635C10.5581 19.2877 10.7056 19.3862 10.8679 19.4534C11.0301 19.5206 11.204 19.5552 11.3797 19.5552C11.5553 19.5552 11.7292 19.5206 11.8914 19.4534C12.0537 19.3862 12.2012 19.2877 12.3253 19.1635C12.4495 19.0392 12.548 18.8918 12.6153 18.7296C12.6825 18.5674 12.7171 18.3934 12.7171 18.2178ZM4.02393 16.5716C4.02393 16.7421 4.16216 16.8804 4.33269 16.8804H18.4266C18.5971 16.8804 18.7354 16.7421 18.7354 16.5716C18.7354 16.0576 18.5604 15.5589 18.2393 15.1575L17.0864 13.7162C16.4223 12.8862 16.0606 11.855 16.0606 10.7921V9.52467C16.0606 6.93947 13.9649 4.84375 11.3797 4.84375C8.79445 4.84375 6.69874 6.93947 6.69874 9.52467V10.7921C6.69874 11.855 6.33699 12.8862 5.673 13.7162L4.51998 15.1575C4.19887 15.5589 4.02393 16.0576 4.02393 16.5716Z" fill="#7F7F7F"/>
</svg>
