<svg width="20" height="20" viewBox="0 0 20 20" fill="none" xmlns="http://www.w3.org/2000/svg">
<path d="M6.5546 6.44274L7.93293 6.78947C7.93376 7.08714 8.04319 7.37427 8.2407 7.59697C8.4382 7.81968 8.7102 7.96264 9.00563 7.99904C9.30106 8.03543 9.59962 7.96275 9.84527 7.79463C10.0909 7.62652 10.2668 7.37453 10.3398 7.08597H11.3457C11.4202 7.3747 11.5975 7.62633 11.8443 7.79369C12.0911 7.96106 12.3905 8.03266 12.6863 7.99509C12.9822 7.95751 13.2541 7.81334 13.4513 7.58959C13.6484 7.36584 13.7571 7.07787 13.7571 6.77967C13.7571 6.48147 13.6484 6.1935 13.4513 5.96975C13.2541 5.746 12.9822 5.60182 12.6863 5.56425C12.3905 5.52668 12.0911 5.59828 11.8443 5.76564C11.5975 5.93301 11.4202 6.18464 11.3457 6.47337H10.3398C10.2797 6.23544 10.1491 6.02125 9.96503 5.8589C9.781 5.69655 9.55219 5.59363 9.30862 5.56365C9.06505 5.53367 8.81811 5.57803 8.60021 5.69092C8.38231 5.8038 8.20362 5.97992 8.08761 6.19618L6.70775 5.85098C6.70869 5.54895 6.59933 5.25697 6.4002 5.02987C6.20107 4.80278 5.92589 4.6562 5.62632 4.61766C5.32676 4.57913 5.02343 4.65129 4.77331 4.8206C4.5232 4.98991 4.3435 5.24471 4.26797 5.53714C4.19245 5.82958 4.22629 6.13953 4.36314 6.40878C4.5 6.67803 4.73045 6.88805 5.01121 6.99939C5.29197 7.11073 5.60372 7.11574 5.88791 7.01347C6.1721 6.9112 6.40917 6.70868 6.5546 6.44397V6.44274ZM12.5274 6.16708C12.6485 6.16708 12.767 6.20301 12.8677 6.27032C12.9685 6.33763 13.047 6.4333 13.0933 6.54524C13.1397 6.65718 13.1518 6.78035 13.1282 6.89918C13.1046 7.01801 13.0462 7.12716 12.9605 7.21284C12.8749 7.29851 12.7657 7.35685 12.6469 7.38049C12.5281 7.40413 12.4049 7.392 12.2929 7.34563C12.181 7.29927 12.0853 7.22075 12.018 7.12001C11.9507 7.01927 11.9148 6.90083 11.9148 6.77967C11.9148 6.6172 11.9793 6.46138 12.0942 6.3465C12.2091 6.23162 12.3649 6.16708 12.5274 6.16708ZM9.15812 6.16708C9.27928 6.16708 9.39772 6.20301 9.49846 6.27032C9.5992 6.33763 9.67771 6.4333 9.72408 6.54524C9.77044 6.65718 9.78258 6.78035 9.75894 6.89918C9.7353 7.01801 9.67696 7.12716 9.59129 7.21284C9.50561 7.29851 9.39646 7.35685 9.27763 7.38049C9.1588 7.40413 9.03562 7.392 8.92369 7.34563C8.81175 7.29927 8.71608 7.22075 8.64877 7.12001C8.58145 7.01927 8.54553 6.90083 8.54553 6.77967C8.54553 6.6172 8.61007 6.46138 8.72495 6.3465C8.83983 6.23162 8.99565 6.16708 9.15812 6.16708ZM4.86997 5.86078C4.86997 5.73962 4.9059 5.62118 4.97321 5.52044C5.04052 5.4197 5.1362 5.34119 5.24814 5.29482C5.36007 5.24845 5.48324 5.23632 5.60207 5.25996C5.72091 5.2836 5.83006 5.34194 5.91573 5.42761C6.0014 5.51329 6.05975 5.62244 6.08339 5.74127C6.10702 5.8601 6.09489 5.98327 6.04853 6.09521C6.00216 6.20715 5.92364 6.30282 5.8229 6.37013C5.72216 6.43745 5.60372 6.47337 5.48256 6.47337C5.32009 6.47337 5.16428 6.40883 5.0494 6.29395C4.93451 6.17907 4.86997 6.02325 4.86997 5.86078ZM12.2211 9.84263C12.2211 9.7614 12.1888 9.68349 12.1314 9.62605C12.0739 9.5686 11.996 9.53633 11.9148 9.53633H10.6896C10.6084 9.53633 10.5305 9.5686 10.473 9.62605C10.4156 9.68349 10.3833 9.7614 10.3833 9.84263V11.9867H9.77071V8.92374C9.77071 8.84251 9.73844 8.7646 9.681 8.70716C9.62356 8.64972 9.54565 8.61745 9.46441 8.61745H8.23923C8.15799 8.61745 8.08009 8.64972 8.02264 8.70716C7.9652 8.7646 7.93293 8.84251 7.93293 8.92374V11.9867H7.32034V8.00485C7.32034 7.92362 7.28807 7.84571 7.23063 7.78827C7.17319 7.73083 7.09528 7.69856 7.01404 7.69856H5.78886C5.70762 7.69856 5.62972 7.73083 5.57228 7.78827C5.51483 7.84571 5.48256 7.92362 5.48256 8.00485V11.9867H4.86997V12.5993H14.0589V11.9867H12.2211V9.84263ZM10.9959 10.1489H11.6085V11.9867H10.9959V10.1489ZM8.54553 9.23004H9.15812V11.9867H8.54553V9.23004ZM6.09516 8.31115H6.70775V11.9867H6.09516V8.31115Z" fill="#7F7F7F"/>
<path d="M2.7259 8.61745C2.7259 6.99275 3.37131 5.4346 4.52014 4.28576C5.66897 3.13693 7.22713 2.49152 8.85182 2.49152C10.4765 2.49152 12.0347 3.13693 13.1835 4.28576C14.3323 5.4346 14.9777 6.99275 14.9777 8.61745H15.5903C15.5903 7.28469 15.1951 5.98187 14.4547 4.87373C13.7143 3.76558 12.6618 2.90189 11.4305 2.39187C10.1992 1.88185 8.84435 1.7484 7.5372 2.00841C6.23006 2.26842 5.02937 2.9102 4.08697 3.8526C3.14457 4.79499 2.50279 5.99568 2.24278 7.30283C1.98278 8.60997 2.11622 9.96486 2.62624 11.1962C3.13627 12.4275 3.99996 13.4799 5.1081 14.2203C6.21625 14.9608 7.51907 15.356 8.85182 15.356V14.7434C7.2277 14.7415 5.67063 14.0955 4.5222 12.9471C3.37377 11.7986 2.72776 10.2416 2.7259 8.61745Z" fill="#7F7F7F"/>
<path d="M19.4717 17.2725L16.6232 14.4239C16.7653 14.2232 16.8319 13.9787 16.811 13.7337C16.7901 13.4886 16.6832 13.2589 16.5092 13.0851L15.8461 12.422C16.762 10.7391 17.0408 8.78267 16.6316 6.91097C16.2224 5.03928 15.1526 3.37768 13.618 2.23059C12.0835 1.08349 10.187 0.527701 8.27601 0.665041C6.36504 0.802381 4.56752 1.62365 3.21278 2.9784C1.85803 4.33315 1.03676 6.13066 0.899416 8.04164C0.762076 9.95261 1.31786 11.8491 2.46496 13.3836C3.61206 14.9182 5.27365 15.9881 7.14535 16.3973C9.01704 16.8065 10.9735 16.5276 12.6563 15.6117L13.3195 16.2748C13.4932 16.4491 13.7231 16.5561 13.9683 16.577C14.2135 16.598 14.4581 16.5314 14.6589 16.3891L17.5074 19.2377C17.768 19.4982 18.1213 19.6445 18.4897 19.6445C18.8582 19.6445 19.2115 19.4982 19.472 19.2377C19.7325 18.9771 19.8789 18.6238 19.8789 18.2554C19.8789 17.8869 19.7325 17.5336 19.472 17.2731L19.4717 17.2725ZM1.50071 8.61745C1.50071 7.16353 1.93185 5.74227 2.7396 4.53339C3.54735 3.32451 4.69544 2.3823 6.03867 1.82591C7.38191 1.26952 8.85998 1.12394 10.286 1.40759C11.7119 1.69123 13.0218 2.39136 14.0498 3.41943C15.0779 4.4475 15.778 5.75734 16.0617 7.18332C16.3453 8.60929 16.1997 10.0874 15.6434 11.4306C15.087 12.7738 14.1448 13.9219 12.9359 14.7297C11.727 15.5374 10.3057 15.9686 8.85182 15.9686C6.90288 15.9663 5.03442 15.1911 3.65631 13.813C2.2782 12.4348 1.50298 10.5664 1.50071 8.61745ZM13.7526 15.8417L13.1969 15.2861C14.1235 14.6802 14.9146 13.8891 15.5205 12.9626L16.0761 13.5182C16.1573 13.5995 16.2029 13.7096 16.2029 13.8245C16.2029 13.9393 16.1573 14.0495 16.0761 14.1308L14.3652 15.8414C14.2827 15.9203 14.173 15.9644 14.0589 15.9645C13.9448 15.9645 13.8351 15.9206 13.7526 15.8417ZM18.4894 19.0315C18.3874 19.0318 18.2863 19.0118 18.192 18.9727C18.0978 18.9337 18.0122 18.8763 17.9402 18.8039L15.1046 15.9686L16.2029 14.8702L19.0386 17.7056C19.1472 17.8142 19.2212 17.9526 19.2511 18.1032C19.2811 18.2539 19.2657 18.4101 19.2069 18.552C19.1482 18.6939 19.0486 18.8152 18.9209 18.9006C18.7932 18.9859 18.643 19.0315 18.4894 19.0315Z" fill="#7F7F7F"/>
</svg>
