<svg width="27" height="20" viewBox="0 0 27 20" fill="none" xmlns="http://www.w3.org/2000/svg">
<path d="M26.0553 19.2078H24.1727V7.69712C24.1727 7.52064 24.0276 7.37721 23.849 7.37721H20.2387C20.0602 7.37721 19.915 7.52064 19.915 7.69712V19.2078H18.396V12.224C18.396 12.0475 18.2509 11.9041 18.0724 11.9041H14.4621C14.2835 11.9041 14.1384 12.0475 14.1384 12.224V19.2078H12.6194V9.70675C12.6194 9.53026 12.4743 9.38683 12.2958 9.38683H8.68542C8.50687 9.38683 8.36177 9.53026 8.36177 9.70675V19.2078H6.84277V13.6871C6.84277 13.5106 6.69766 13.3672 6.51911 13.3672H2.90878C2.73023 13.3672 2.58513 13.5106 2.58513 13.6871V19.2078H0.702558C0.52401 19.2078 0.378906 19.3512 0.378906 19.5277C0.378906 19.7042 0.52401 19.8477 0.702558 19.8477H26.0553C26.2338 19.8477 26.3789 19.7042 26.3789 19.5277C26.3789 19.3512 26.2338 19.2078 26.0553 19.2078ZM20.5624 8.01704H23.5254V19.2078H20.5624V8.01704ZM14.7857 12.5439H17.7487V19.2078H14.7857V12.5439ZM9.00907 10.0267H11.9721V19.2078H9.00907V10.0267ZM3.23243 14.007H6.19546V19.2078H3.23243V14.007ZM4.71368 11.4231C5.68194 11.4231 6.47003 10.6446 6.47003 9.68702C6.47003 9.35431 6.37455 9.04345 6.21003 8.77899L9.42982 5.89545C9.72488 6.11726 10.0928 6.24949 10.4909 6.24949C11.0119 6.24949 11.4807 6.02395 11.8027 5.66617L14.6217 7.34095C14.5487 7.53435 14.5114 7.73916 14.5117 7.9456C14.5117 8.90269 15.2992 9.68169 16.268 9.68169C17.2368 9.68169 18.0244 8.90269 18.0244 7.9456C18.0244 7.60168 17.9224 7.28123 17.7471 7.01143L21.0084 3.98446C21.3088 4.20265 21.6719 4.32017 22.0447 4.31985C23.0129 4.31985 23.801 3.54138 23.801 2.58375C23.801 1.62613 23.0129 0.847656 22.0447 0.847656C21.0764 0.847656 20.2883 1.62613 20.2883 2.58375C20.2883 2.92766 20.3903 3.24758 20.5656 3.51792L17.3043 6.54488C17.0039 6.3267 16.6408 6.20918 16.268 6.2095C15.747 6.2095 15.2782 6.43504 14.9562 6.79282L12.1372 5.11804C12.2084 4.92982 12.2472 4.72614 12.2472 4.5134C12.2472 3.55631 11.4597 2.7773 10.4909 2.7773C9.52206 2.7773 8.73451 3.55577 8.73451 4.5134C8.73451 4.84611 8.82999 5.15697 8.99451 5.42143L5.77472 8.30497C5.47965 8.08316 5.11231 7.95093 4.71368 7.95093C3.74542 7.95093 2.95733 8.7294 2.95733 9.68702C2.95733 10.6446 3.74542 11.4231 4.71368 11.4231ZM22.0441 1.48749C22.6558 1.48749 23.1532 1.9791 23.1532 2.58375C23.1532 3.1884 22.6558 3.68001 22.0441 3.68001C21.4324 3.68001 20.9351 3.1884 20.9351 2.58375C20.9351 1.9791 21.4324 1.48749 22.0441 1.48749ZM16.2675 6.84881C16.8792 6.84881 17.3765 7.34042 17.3765 7.94506C17.3765 8.54971 16.8792 9.04132 16.2675 9.04132C15.6558 9.04132 15.1584 8.54971 15.1584 7.94506C15.1584 7.34042 15.6558 6.84881 16.2675 6.84881ZM10.4903 3.41714C11.102 3.41714 11.5994 3.90875 11.5994 4.5134C11.5994 5.11804 11.102 5.60965 10.4903 5.60965C9.87862 5.60965 9.38127 5.11804 9.38127 4.5134C9.38127 3.90875 9.87916 3.41714 10.4903 3.41714ZM4.71368 8.59077C5.32538 8.59077 5.82272 9.08238 5.82272 9.68702C5.82272 10.2917 5.32538 10.7833 4.71368 10.7833C4.10198 10.7833 3.60463 10.2917 3.60463 9.68702C3.60463 9.08238 4.10252 8.59077 4.71368 8.59077Z" fill="#7F7F7F"/>
</svg>
