<svg width="22" height="20" viewBox="0 0 22 20" fill="none" xmlns="http://www.w3.org/2000/svg">
<path d="M16.977 7.5418C17.393 7.27996 17.6908 6.87735 17.8188 6.39985C17.9532 5.89782 17.8842 5.37344 17.6244 4.92334C17.1007 4.01628 15.952 3.69057 15.0331 4.17484L13.2857 1.14815C13.0546 0.747838 12.6801 0.46114 12.2312 0.340842C11.7823 0.220543 11.3146 0.281574 10.9144 0.512738C10.5141 0.74386 10.2274 1.11837 10.1071 1.56725C10.0165 1.9055 10.0289 2.25442 10.1393 2.57713C9.30934 4.66883 7.55273 6.80201 5.16778 8.62182C5.13052 8.5967 5.08938 8.57788 5.04601 8.56612C4.99399 8.55218 4.93973 8.54862 4.88633 8.55565C4.83293 8.56268 4.78144 8.58016 4.7348 8.6071L2.50506 9.89453C1.75492 10.3277 1.21756 11.0298 0.991982 11.8717C0.766407 12.7136 0.880671 13.5904 1.31382 14.3406C1.91598 15.3836 3.01211 15.9674 4.13781 15.9674C4.68956 15.9674 5.24846 15.8271 5.75965 15.5319L5.88729 15.4583L8.3463 18.6689C8.51618 18.8907 8.75303 19.0213 9.03143 19.0465C9.06305 19.0494 9.09435 19.0508 9.12535 19.0508C9.36725 19.0508 9.58958 18.9643 9.77304 18.7979L10.4503 18.1833C10.8271 17.8413 10.8788 17.278 10.5706 16.8731L8.25849 13.8351C11.0048 12.6994 13.7053 12.2544 15.9143 12.5791C16.2489 12.962 16.7309 13.1722 17.2239 13.1722C17.5276 13.1723 17.8261 13.0922 18.089 12.94C18.9179 12.4614 19.203 11.3975 18.7243 10.5685L16.977 7.5418ZM16.914 5.33349C17.0643 5.59386 17.1042 5.89717 17.0264 6.18755C16.9552 6.45338 16.7929 6.67896 16.5663 6.8306L15.4437 4.88605C15.9701 4.62733 16.6164 4.81809 16.914 5.33349ZM4.13646 15.1472C3.29457 15.1472 2.47454 14.7105 2.02413 13.9305C1.70057 13.37 1.61539 12.7143 1.78428 12.0841C1.95314 11.4538 2.35474 10.9285 2.91515 10.605L4.78972 9.5226L7.22404 13.7392L5.34947 14.8216C4.98087 15.035 4.56242 15.1474 4.13646 15.1472ZM9.89899 17.5759L9.22182 18.1904C9.18601 18.2228 9.15316 18.2339 9.10521 18.2295C9.05706 18.2251 9.02688 18.2085 8.99747 18.1701L6.60367 15.0446L7.67667 14.4251L9.9179 17.3699C9.94128 17.4003 9.95233 17.4384 9.94882 17.4766C9.94532 17.5148 9.92752 17.5502 9.89899 17.5759ZM7.81919 13.1293L5.61545 9.31215C7.91102 7.57043 9.66374 5.53643 10.6329 3.49719L15.3636 11.6915C13.1131 11.5112 10.4752 12.0121 7.81919 13.1293ZM17.6788 12.2295C17.2414 12.4821 16.6804 12.3316 16.4279 11.8944L10.9893 2.47397C10.7369 2.03667 10.8872 1.47553 11.3245 1.22308C11.4623 1.14321 11.6188 1.10116 11.7781 1.10119C11.8583 1.10119 11.9391 1.11177 12.0189 1.13314C12.2562 1.19671 12.4538 1.34769 12.5753 1.55826L18.0139 10.9786C18.2664 11.4159 18.116 11.9771 17.6788 12.2295ZM18.1248 4.63438C18.0115 4.4382 18.0787 4.18735 18.2749 4.07411L19.9214 3.12349C20.1175 3.01021 20.3684 3.07748 20.4816 3.27361C20.5949 3.46979 20.5277 3.72064 20.3315 3.83388L18.6851 4.7845C18.6384 4.81145 18.5869 4.82895 18.5335 4.83599C18.4801 4.84303 18.4259 4.83948 18.3738 4.82554C18.3218 4.8116 18.273 4.78754 18.2303 4.75474C18.1876 4.72194 18.1517 4.68104 18.1248 4.63438ZM16.2267 1.99278L17.2294 0.25594C17.3426 0.0598038 17.5934 -0.0075026 17.7896 0.105823C17.9858 0.219067 18.053 0.469917 17.9398 0.666094L16.9371 2.40294C16.9101 2.44959 16.8743 2.49049 16.8316 2.52328C16.7888 2.55608 16.7401 2.58013 16.688 2.59407C16.636 2.60802 16.5817 2.61157 16.5283 2.60453C16.4749 2.59749 16.4234 2.58 16.3768 2.55305C16.1806 2.43981 16.1134 2.18896 16.2267 1.99278ZM21.8789 7.18899C21.8789 7.41552 21.6952 7.59914 21.4688 7.59914H19.4634C19.2369 7.59914 19.0532 7.41552 19.0532 7.18899C19.0532 6.96246 19.2369 6.77883 19.4634 6.77883H21.4688C21.6952 6.77883 21.8789 6.96246 21.8789 7.18899Z" fill="#7F7F7F"/>
</svg>
