<svg width="22" height="22" viewBox="0 0 22 22" fill="none" xmlns="http://www.w3.org/2000/svg">
<path d="M6.62476 1.66699C6.25544 1.66699 5.95606 1.96638 5.95606 2.33569V4.40867C4.41804 4.74302 3.28125 6.08043 3.28125 7.68534C3.28125 9.29022 4.41804 10.6276 5.95606 10.962V19.722C5.95606 20.0912 6.25544 20.3907 6.62476 20.3907C6.99407 20.3907 7.29346 20.0912 7.29346 19.722V10.962C8.8315 10.6276 9.9683 9.29022 9.9683 7.68534C9.9683 6.08043 8.8315 4.74302 7.29346 4.40867V2.33569C7.29346 1.96638 6.99407 1.66699 6.62476 1.66699ZM8.63089 7.68534C8.63089 8.82213 7.76158 9.69144 6.62476 9.69144C5.48797 9.69144 4.61865 8.82213 4.61865 7.68534C4.61865 6.54852 5.48797 5.6792 6.62476 5.6792C7.76158 5.6792 8.63089 6.54852 8.63089 7.68534Z" fill="#7F7F7F"/>
<path d="M15.9861 20.3907C16.3553 20.3907 16.6548 20.0912 16.6548 19.722V17.649C18.1928 17.3146 19.3296 15.9772 19.3296 14.3724C19.3296 12.7675 18.1928 11.4301 16.6548 11.0957V2.33569C16.6548 1.96638 16.3553 1.66699 15.9861 1.66699C15.6168 1.66699 15.3174 1.96638 15.3174 2.33569V11.0957C13.7794 11.4301 12.6426 12.7675 12.6426 14.3724C12.6426 15.9772 13.7794 17.3146 15.3174 17.649V19.722C15.3174 20.0912 15.6168 20.3907 15.9861 20.3907ZM13.98 14.3724C13.98 13.2356 14.8493 12.3663 15.9861 12.3663C17.1229 12.3663 17.9922 13.2356 17.9922 14.3724C17.9922 15.5092 17.1229 16.3785 15.9861 16.3785C14.8493 16.3785 13.98 15.5092 13.98 14.3724Z" fill="#7F7F7F"/>
</svg>
