<svg width="59" height="60" viewBox="0 0 59 60" fill="none" xmlns="http://www.w3.org/2000/svg">
<path d="M21.2674 26.2567C17.0963 26.2567 13.7209 22.8814 13.7209 18.7102C13.7209 14.539 17.0963 11.1637 21.2674 11.1637C25.4386 11.1637 28.814 14.539 28.814 18.7102C28.814 22.8814 25.4386 26.2567 21.2674 26.2567ZM21.2674 15.28C20.3577 15.28 19.4852 15.6414 18.8419 16.2847C18.1986 16.928 17.8372 17.8005 17.8372 18.7102C17.8372 19.62 18.1986 20.4925 18.8419 21.1357C19.4852 21.779 20.3577 22.1404 21.2674 22.1404C22.1772 22.1404 23.0497 21.779 23.693 21.1357C24.3363 20.4925 24.6977 19.62 24.6977 18.7102C24.6977 17.8005 24.3363 16.928 23.693 16.2847C23.0497 15.6414 22.1772 15.28 21.2674 15.28Z" fill="white"/>
<path d="M37.7326 59.187H21.2674C6.36651 59.187 0 52.8204 0 37.9195V21.4544C0 6.55346 6.36651 0.186951 21.2674 0.186951H32.2442C33.3693 0.186951 34.3023 1.11997 34.3023 2.24509C34.3023 3.37021 33.3693 4.30323 32.2442 4.30323H21.2674C8.61674 4.30323 4.11628 8.8037 4.11628 21.4544V37.9195C4.11628 50.5702 8.61674 55.0707 21.2674 55.0707H37.7326C50.3833 55.0707 54.8837 50.5702 54.8837 37.9195V24.1986C54.8837 23.0735 55.8167 22.1404 56.9419 22.1404C58.067 22.1404 59 23.0735 59 24.1986V37.9195C59 52.8204 52.6335 59.187 37.7326 59.187Z" fill="white"/>
<path d="M45.9651 20.7683C44.84 20.7683 43.907 19.8353 43.907 18.7102V2.24509C43.907 1.42183 44.4009 0.653462 45.1693 0.351602C45.9377 0.0497411 46.8158 0.214392 47.4195 0.790672L52.9079 6.27904C53.7037 7.07486 53.7037 8.39207 52.9079 9.18788C52.1121 9.9837 50.7949 9.9837 49.9991 9.18788L48.0233 7.21207V18.7102C48.0233 19.8353 47.0902 20.7683 45.9651 20.7683Z" fill="white"/>
<path d="M40.4767 9.7916C39.9553 9.7916 39.434 9.59951 39.0223 9.18788C38.6396 8.80057 38.4249 8.27799 38.4249 7.73346C38.4249 7.18893 38.6396 6.66635 39.0223 6.27904L44.5107 0.790672C45.3065 -0.00514229 46.6237 -0.00514241 47.4195 0.790672C48.2154 1.58649 48.2154 2.90369 47.4195 3.69951L41.9312 9.18788C41.5195 9.59951 40.9981 9.7916 40.4767 9.7916ZM3.89674 50.8172C3.45811 50.8141 3.0319 50.6712 2.6801 50.4092C2.32831 50.1472 2.06928 49.7798 1.94072 49.3604C1.81215 48.941 1.82074 48.4916 1.96525 48.0774C2.10975 47.6633 2.38263 47.306 2.74419 47.0576L16.273 37.9744C19.2367 35.9986 23.3256 36.2181 26.0149 38.4958L26.9205 39.2916C28.2926 40.4716 30.6251 40.4716 31.9698 39.2916L43.3856 29.4949C46.2944 26.9977 50.8772 26.9977 53.8135 29.4949L58.2865 33.3367C59.1372 34.0777 59.247 35.3674 58.506 36.2456C57.7651 37.0963 56.4479 37.206 55.5972 36.4651L51.1242 32.6232C49.7521 31.4432 47.447 31.4432 46.0749 32.6232L34.6591 42.42C31.7502 44.9172 27.1674 44.9172 24.2312 42.42L23.3256 41.6242C22.0633 40.5539 19.9777 40.4442 18.5781 41.4046L5.07674 50.4879C4.69256 50.7074 4.28093 50.8172 3.89674 50.8172Z" fill="white"/>
</svg>
