<svg width="32" height="32" viewBox="0 0 32 32" fill="none" xmlns="http://www.w3.org/2000/svg">
<rect x="0.5" y="0.5" width="31" height="31" rx="6.45833" fill="#F35252"/>
<path fill-rule="evenodd" clip-rule="evenodd" d="M8.78581 15.5484C8.78581 16.2032 9.33104 16.7362 10.0017 16.7362C10.6721 16.7362 11.2177 16.2036 11.2177 15.5484C11.2177 15.3207 11.1516 15.108 11.0373 14.9271L13.2664 12.9538C13.4707 13.1055 13.725 13.196 14.001 13.196C14.3617 13.196 14.6862 13.0413 14.9092 12.7969L16.8608 13.9428C16.8102 14.0751 16.7844 14.2152 16.7846 14.3565C16.7846 15.0113 17.3298 15.5443 18.0005 15.5443C18.6709 15.5443 19.2165 15.0117 19.2165 14.3565C19.2165 14.1212 19.1459 13.9019 19.0249 13.7173L21.2827 11.6462C21.4907 11.7955 21.7421 11.8759 22.0001 11.8757C22.6705 11.8757 23.2161 11.3431 23.2161 10.6879C23.2161 10.033 22.6705 9.5 22.0001 9.5C21.3298 9.5 20.7842 10.0326 20.7842 10.6879C20.7842 10.9232 20.8548 11.1424 20.9758 11.327L18.7179 13.3981C18.51 13.2488 18.2586 13.1684 18.0005 13.1686C17.6398 13.1686 17.3153 13.3233 17.0923 13.5677L15.1407 12.4218C15.19 12.2931 15.2169 12.1537 15.2169 12.0081C15.2169 11.3533 14.6713 10.8203 14.001 10.8203C13.3306 10.8203 12.785 11.3529 12.785 12.0081C12.7847 12.2276 12.8472 12.4428 12.9654 12.6294L10.7363 14.6024C10.532 14.4506 10.2773 14.3601 10.0017 14.3601C9.33141 14.3605 8.78581 14.8935 8.78581 15.5484ZM11.2513 18.0663C11.3749 18.0663 11.4754 18.1645 11.4754 18.2852V22.0626H12.527V15.5619C12.527 15.4411 12.6274 15.343 12.751 15.343H15.2505C15.3745 15.343 15.4746 15.4411 15.4746 15.5619V22.0626H16.5262V17.2842C16.5262 17.1634 16.6266 17.0653 16.7502 17.0653H19.2497C19.3733 17.0653 19.4738 17.1634 19.4738 17.2842V22.0626H20.5254V14.1868C20.5254 14.0657 20.6259 13.968 20.7495 13.968H23.2489C23.3725 13.968 23.473 14.0661 23.473 14.1868V22.0622H24.7759C24.8999 22.0622 25 22.1604 25 22.2811C25 22.4019 24.8999 22.5 24.7759 22.5H7.22407C7.10046 22.5 7 22.4019 7 22.2811C7 22.1604 7.10046 22.0622 7.22407 22.0622H8.52739V18.2852C8.52739 18.1645 8.62784 18.0663 8.75145 18.0663H11.2513Z" fill="white"/>
</svg>
