<svg width="22" height="17" viewBox="0 0 22 17" fill="none" xmlns="http://www.w3.org/2000/svg">
<path d="M21.2555 7.46072C20.9364 6.95507 20.3724 6.65282 19.7469 6.65282H5.81952C5.12915 6.65282 4.50128 7.03523 4.21946 7.62728L0.535684 15.2162C0.674727 15.7719 1.20301 16.187 1.83219 16.187H16.6499C16.9605 16.187 17.2649 16.1019 17.5291 15.9414C17.7932 15.7808 18.0066 15.5511 18.1453 15.278L21.3294 9.00757C21.5808 8.51139 21.5529 7.93316 21.2555 7.46072Z" fill="white"/>
<path d="M3.46961 6.45999C3.75114 5.8681 4.37917 5.48553 5.06971 5.48553H18.1846V3.83737C18.1846 3.15791 17.6013 2.60507 16.8843 2.60507H9.23715C9.22591 2.60507 9.21824 2.60225 9.21533 2.60019L7.84663 0.719781C7.60415 0.386095 7.20376 0.187012 6.776 0.187012H1.8006C1.08337 0.187012 0.5 0.739891 0.5 1.41931V12.5774L3.46961 6.45999Z" fill="white"/>
</svg>
