<svg width="30" height="31" viewBox="0 0 30 31" fill="none" xmlns="http://www.w3.org/2000/svg">
<path d="M15 0.5C6.71701 0.5 0 7.21701 0 15.5C0 23.783 6.71701 30.5 15 30.5C23.283 30.5 30 23.783 30 15.5C30 7.21701 23.283 0.5 15 0.5ZM10.6412 23.1758H6.98801V12.1851H10.6412L10.6412 23.1758ZM8.81467 10.6843H8.79088C7.56498 10.6843 6.77215 9.84043 6.77215 8.78574C6.77215 7.70727 7.58924 6.88672 8.83898 6.88672C10.0887 6.88672 10.8577 7.70727 10.8815 8.78574C10.8815 9.84043 10.0887 10.6844 8.81467 10.6844V10.6843ZM23.8138 23.1758H20.1611V17.296C20.1611 15.8184 19.6322 14.8106 18.3104 14.8106C17.3012 14.8106 16.7002 15.4904 16.4361 16.1466C16.3395 16.3814 16.3159 16.7097 16.3159 17.0381V23.1758H12.6629C12.6629 23.1758 12.7108 13.2162 12.6629 12.1851H16.3159V13.7413C16.8013 12.9924 17.67 11.9272 19.6082 11.9272C22.0117 11.9272 23.8138 13.498 23.8138 16.8737V23.1758Z" fill="#9A9A9A"/>
</svg>
