<svg width="29" height="28" viewBox="0 0 29 28" fill="none" xmlns="http://www.w3.org/2000/svg">
<path d="M28.5 13.9971C28.5 13.0208 27.7813 12.2093 26.8452 12.0635C26.6357 10.7071 26.2016 9.39515 25.5608 8.18148C26.2792 7.50395 26.7289 6.54444 26.7289 5.48134C26.7289 3.43384 25.0632 1.76813 23.0157 1.76813C21.9526 1.76813 20.9931 2.21788 20.3156 2.93628C19.1019 2.29545 17.79 1.86138 16.4336 1.65189C16.2879 0.715756 15.4764 -0.00292969 14.5001 -0.00292969C13.5237 -0.00292969 12.7122 0.715756 12.5665 1.65189C11.2101 1.86136 9.89812 2.29544 8.68447 2.93628C8.00694 2.21788 7.04748 1.76813 5.98439 1.76813C3.93689 1.76813 2.27111 3.4339 2.27111 5.48134C2.27111 6.54444 2.72086 7.50389 3.43927 8.18148C2.79842 9.39516 2.36432 10.7072 2.15482 12.0635C1.21869 12.2093 0.5 13.0209 0.5 13.9971C0.5 14.9734 1.21869 15.7849 2.15477 15.9307C2.36426 17.287 2.79836 18.599 3.43921 19.8127C2.72081 20.4902 2.27106 21.4496 2.27106 22.5127C2.27106 24.5602 3.93683 26.2259 5.98433 26.2259C7.04714 26.2259 8.00637 25.7764 8.6839 25.0583C9.89976 25.7005 11.2007 26.1311 12.5665 26.3426C12.7124 27.2786 13.5238 27.9971 14.5001 27.9971C15.4763 27.9971 16.2877 27.2786 16.4336 26.3426C17.7995 26.1312 19.1004 25.7006 20.3162 25.0584C20.9937 25.7764 21.9529 26.226 23.0157 26.226C25.0632 26.226 26.729 24.5602 26.729 22.5127C26.729 21.4496 26.2792 20.4902 25.5608 19.8127C26.2017 18.599 26.6358 17.287 26.8453 15.9307C27.7813 15.7849 28.5 14.9735 28.5 13.9971ZM27.5968 13.9971C27.5968 14.5782 27.124 15.0509 26.543 15.0509C25.9619 15.0509 25.4892 14.5782 25.4892 13.9971C25.4892 13.4161 25.9619 12.9433 26.543 12.9433C27.124 12.9433 27.5968 13.4161 27.5968 13.9971ZM22.3157 4.64434C22.3157 4.25832 22.6297 3.94434 23.0157 3.94434C23.4017 3.94434 23.7157 4.25832 23.7157 4.64434C23.7157 5.0303 23.4017 5.34428 23.0157 5.34428C22.6297 5.34428 22.3157 5.0303 22.3157 4.64434ZM23.0157 6.24756C23.8755 6.24756 24.6038 6.83918 24.7934 7.6558C24.3087 8.05283 23.6896 8.29145 23.0156 8.29145C22.3417 8.29145 21.7225 8.05277 21.2379 7.6558C21.4275 6.83918 22.1559 6.24756 23.0157 6.24756ZM23.0157 2.67135C24.5652 2.67135 25.8257 3.93192 25.8257 5.48134C25.8261 5.96493 25.7009 6.44033 25.4623 6.86097C25.2039 6.3384 24.7846 5.91256 24.2661 5.64607C24.4947 5.36227 24.6192 5.00875 24.6189 4.64434C24.6189 3.7603 23.8997 3.04111 23.0157 3.04111C22.1316 3.04111 21.4124 3.7603 21.4124 4.64434C21.4124 5.02313 21.5448 5.37143 21.7653 5.64607C21.2468 5.91258 20.8275 6.33842 20.5691 6.86097C20.3305 6.44033 20.2052 5.96493 20.2056 5.48134C20.2057 3.93192 21.4662 2.67135 23.0157 2.67135ZM14.5001 0.900296C15.0811 0.900296 15.5538 1.37302 15.5538 1.95408C15.5538 2.53513 15.0811 3.00786 14.5001 3.00786C13.919 3.00786 13.4463 2.53513 13.4463 1.95408C13.4463 1.37302 13.919 0.900296 14.5001 0.900296ZM12.6379 2.55518C12.8922 3.34104 13.6306 3.91109 14.5001 3.91109C15.3695 3.91109 16.1079 3.34104 16.3622 2.55518C17.5513 2.746 18.7028 3.12323 19.7743 3.67297C19.4644 4.22529 19.3019 4.84809 19.3025 5.4814C19.3025 6.34274 19.598 7.13583 20.092 7.76645L18.9222 8.9363C17.7392 7.90131 16.1917 7.27312 14.5001 7.27312C12.8084 7.27312 11.2609 7.90126 10.0779 8.93624L8.90802 7.76645C9.40197 7.13583 9.6976 6.34268 9.6976 5.48134C9.69815 4.84803 9.53566 4.22524 9.22578 3.67292C10.2973 3.12325 11.4488 2.74603 12.6379 2.55518ZM16.541 10.1266C16.0288 10.2338 15.4928 10.2981 14.9516 10.3214V8.47367C15.5795 8.94008 16.1137 9.49951 16.541 10.1266ZM14.0484 8.47367V10.3214C13.5072 10.2981 12.9711 10.2338 12.459 10.1266C12.8863 9.49951 13.4205 8.94008 14.0484 8.47367ZM14.0484 11.2324V13.5455H11.29C11.3476 12.6262 11.586 11.7461 11.9811 10.9453C12.6335 11.1052 13.3318 11.2032 14.0484 11.2324ZM14.0484 14.4487V16.7618C13.3331 16.791 12.6361 16.8886 11.9847 17.048C11.5907 16.2482 11.3517 15.3685 11.2915 14.4487H14.0484ZM14.0484 17.6728V19.5204C13.4219 19.0544 12.8886 18.4949 12.4618 17.867C12.973 17.7601 13.5081 17.696 14.0484 17.6728ZM14.9516 19.5203V17.6727C15.4918 17.696 16.027 17.7601 16.5382 17.8669C16.1114 18.4949 15.5781 19.0543 14.9516 19.5203ZM14.9516 16.7618V14.4487H17.7085C17.6483 15.3685 17.4093 16.2482 17.0153 17.048C16.3639 16.8886 15.6669 16.791 14.9516 16.7618ZM14.9516 13.5455V11.2324C15.6682 11.2032 16.3665 11.1052 17.0189 10.9454C17.414 11.7461 17.6524 12.6262 17.71 13.5455H14.9516ZM17.4515 9.88113C17.1309 9.36854 16.7522 8.89471 16.3229 8.46905C17.0311 8.70365 17.6876 9.07225 18.2566 9.55478C18.0032 9.6783 17.7337 9.78708 17.4515 9.88113ZM11.5485 9.88113C11.2663 9.78708 10.9968 9.6783 10.7433 9.55478C11.3123 9.07227 11.9688 8.70369 12.677 8.4691C12.2477 8.89475 11.869 9.36856 11.5485 9.88113ZM10.0719 10.2236C10.3916 10.3984 10.7399 10.5529 11.1109 10.6853C10.6887 11.5836 10.4427 12.5545 10.3862 13.5455H8.69666C8.79393 12.2835 9.29567 11.1331 10.0719 10.2236ZM10.3869 14.4487C10.4453 15.4578 10.6934 16.4252 11.1077 17.31C10.7378 17.4421 10.3906 17.5963 10.0718 17.7706C9.29567 16.8611 8.79387 15.7108 8.6966 14.4487H10.3869ZM11.5445 18.1144C11.863 18.6259 12.2402 19.0985 12.6684 19.5224C11.9635 19.2876 11.31 18.92 10.7433 18.4395C10.9956 18.3165 11.2638 18.2082 11.5445 18.1144ZM17.4555 18.1144C17.7362 18.2082 18.0044 18.3165 18.2567 18.4395C17.69 18.9201 17.0364 19.2877 16.3315 19.5224C16.7597 19.0985 17.137 18.626 17.4555 18.1144ZM18.9282 17.7706C18.6094 17.5963 18.2622 17.4421 17.8923 17.31C18.3066 16.4253 18.5547 15.4578 18.6131 14.4487H20.3034C20.2061 15.7108 19.7043 16.8611 18.9282 17.7706ZM18.6138 13.5455C18.5573 12.5545 18.3113 11.5836 17.8891 10.6853C18.2601 10.5529 18.6084 10.3984 18.9281 10.2236C19.7043 11.1331 20.2061 12.2835 20.3033 13.5455H18.6138ZM4.20661 7.65575C4.39618 6.83917 5.12457 6.24751 5.98433 6.24751C6.84409 6.24751 7.57248 6.83912 7.7621 7.65575C7.27741 8.05277 6.65831 8.29139 5.98433 8.29139C5.31041 8.29145 4.69125 8.05277 4.20661 7.65575ZM5.98439 5.34434C5.59843 5.34434 5.28439 5.03035 5.28439 4.64439C5.28439 4.25838 5.59837 3.94439 5.98439 3.94439C6.37035 3.94439 6.68433 4.25838 6.68433 4.64439C6.68433 5.0303 6.37035 5.34434 5.98439 5.34434ZM5.98433 2.67135C7.53381 2.67135 8.79438 3.93192 8.79438 5.48134C8.79477 5.96493 8.66954 6.44033 8.43094 6.86097C8.17249 6.33842 7.75321 5.91259 7.23473 5.64607C7.46332 5.36227 7.58784 5.00875 7.58756 4.64434C7.58756 3.7603 6.86836 3.04111 5.98439 3.04111C5.10041 3.04111 4.38116 3.7603 4.38116 4.64434C4.38116 5.02313 4.51348 5.37138 4.73398 5.64607C4.21549 5.91258 3.79619 6.33844 3.53777 6.86102C3.29919 6.44036 3.17396 5.96495 3.17434 5.48134C3.17428 3.93192 4.43485 2.67135 5.98433 2.67135ZM1.40323 13.9971C1.40323 13.4161 1.87595 12.9433 2.45701 12.9433C3.03806 12.9433 3.51079 13.4161 3.51079 13.9971C3.51079 14.5782 3.03806 15.0509 2.45701 15.0509C1.87595 15.0509 1.40323 14.5782 1.40323 13.9971ZM3.0581 15.8592C3.84397 15.605 4.41402 14.8665 4.41402 13.9971C4.41402 13.1277 3.84397 12.3893 3.0581 12.135C3.24895 10.9459 3.62619 9.79436 4.1759 8.72285C4.72822 9.03273 5.35102 9.19522 5.98433 9.19467C6.84561 9.19467 7.6387 8.89909 8.26932 8.40514L9.43917 9.57493C8.40413 10.7579 7.77599 12.3055 7.77599 13.9971C7.77599 15.6888 8.40413 17.2363 9.43917 18.4193L8.26938 19.5891C7.63876 19.0951 6.84567 18.7995 5.98433 18.7995C5.351 18.7989 4.72819 18.9614 4.17585 19.2713C3.62617 18.1998 3.24896 17.0483 3.0581 15.8592ZM5.98433 19.7027C7.53381 19.7027 8.79438 20.9633 8.79438 22.5127C8.7948 22.9908 8.67244 23.461 8.43902 23.8782L8.41768 23.8652C8.15803 23.3547 7.74411 22.9391 7.23473 22.6774C7.46333 22.3936 7.58784 22.04 7.58756 21.6756C7.58756 20.7916 6.86836 20.0724 5.98439 20.0724C5.10041 20.0724 4.38116 20.7916 4.38116 21.6756C4.38116 22.0544 4.51348 22.4027 4.73398 22.6774C4.21548 22.9439 3.79618 23.3698 3.53772 23.8924C3.29914 23.4717 3.17391 22.9963 3.17428 22.5127C3.17428 20.9633 4.43485 19.7027 5.98433 19.7027ZM5.98439 22.3757C5.59843 22.3757 5.28439 22.0617 5.28439 21.6757C5.28439 21.2897 5.59837 20.9757 5.98439 20.9757C6.37035 20.9757 6.68433 21.2897 6.68433 21.6757C6.68433 22.0616 6.37035 22.3757 5.98439 22.3757ZM4.20661 24.6871C4.39623 23.8705 5.12457 23.2789 5.98433 23.2789C6.84414 23.2789 7.57248 23.8705 7.7621 24.6871C7.27741 25.0841 6.65831 25.3227 5.98433 25.3227C5.31041 25.3227 4.69125 25.0841 4.20661 24.6871ZM14.5001 27.0938C13.919 27.0938 13.4463 26.6211 13.4463 26.0401C13.4463 25.459 13.919 24.9863 14.5001 24.9863C15.0811 24.9863 15.5538 25.459 15.5538 26.0401C15.5538 26.6211 15.0811 27.0938 14.5001 27.0938ZM16.3622 25.439C16.1079 24.6532 15.3695 24.0831 14.5 24.0831C13.6305 24.0831 12.8921 24.6532 12.6378 25.439C11.4409 25.2465 10.2981 24.8721 9.2255 24.3216C9.53554 23.7691 9.69811 23.1462 9.69755 22.5127C9.69755 21.6514 9.40197 20.8583 8.90796 20.2277L10.0777 19.0579C11.2607 20.0929 12.8083 20.7211 14.5 20.7211C16.1916 20.7211 17.7391 20.0929 18.9221 19.058L20.0919 20.2277C19.598 20.8584 19.3024 21.6515 19.3024 22.5127C19.3018 23.1462 19.4644 23.7692 19.7745 24.3216C18.7019 24.8721 17.5592 25.2465 16.3622 25.439ZM21.238 24.6871C21.4276 23.8705 22.1559 23.2789 23.0157 23.2789C23.8755 23.2789 24.6039 23.8705 24.7934 24.6871C24.3088 25.0841 23.6896 25.3227 23.0157 25.3227C22.3417 25.3227 21.7226 25.0841 21.238 24.6871ZM22.3157 21.6757C22.3157 21.2897 22.6297 20.9757 23.0157 20.9757C23.4017 20.9757 23.7157 21.2897 23.7157 21.6757C23.7157 22.0617 23.4017 22.3757 23.0157 22.3757C22.6297 22.3757 22.3157 22.0616 22.3157 21.6757ZM25.8257 22.5127C25.8261 22.9963 25.7009 23.4717 25.4623 23.8924C25.2038 23.3698 24.7846 22.944 24.2661 22.6775C24.4947 22.3936 24.6192 22.0401 24.6189 21.6757C24.6189 20.7917 23.8997 20.0725 23.0157 20.0725C22.1316 20.0725 21.4124 20.7917 21.4124 21.6757C21.4124 22.0545 21.5448 22.4028 21.7653 22.6775C21.2559 22.9392 20.842 23.3548 20.5823 23.8653L20.561 23.8784C20.3275 23.4611 20.2052 22.9909 20.2056 22.5127C20.2056 20.9633 21.4662 19.7027 23.0156 19.7027C24.5652 19.7027 25.8257 20.9633 25.8257 22.5127ZM23.0157 18.7995C22.1543 18.7995 21.3612 19.095 20.7306 19.5891L19.5609 18.4193C20.5959 17.2363 21.2241 15.6888 21.2241 13.9971C21.2241 12.3055 20.5959 10.7579 19.5609 9.57493L20.7307 8.40514C21.3614 8.89909 22.1544 9.19467 23.0157 9.19467C23.6491 9.19523 24.2719 9.03274 24.8242 8.72285C25.3739 9.79438 25.7512 10.9459 25.942 12.135C25.1562 12.3893 24.5862 13.1278 24.5862 13.9972C24.5862 14.8666 25.1562 15.605 25.942 15.8593C25.7512 17.0484 25.3739 18.1999 24.8242 19.2713C24.2719 18.9614 23.649 18.7989 23.0157 18.7995Z" fill="white"/>
</svg>
