<svg width="12" height="11" viewBox="0 0 12 11" fill="none" xmlns="http://www.w3.org/2000/svg">
<path d="M11.3436 10.8468H4.53868C4.24704 10.8468 4.05261 10.6524 4.05261 10.3608V8.41649C4.05261 8.12484 4.24704 7.93042 4.53868 7.93042H11.3436C11.6353 7.93042 11.8297 8.12484 11.8297 8.41649V10.3608C11.8297 10.6524 11.6353 10.8468 11.3436 10.8468ZM2.59441 10.8468H0.650131C0.35849 10.8468 0.164062 10.6524 0.164062 10.3608V8.41649C0.164062 8.12484 0.35849 7.93042 0.650131 7.93042H2.59441C2.88605 7.93042 3.08047 8.12484 3.08047 8.41649V10.3608C3.08047 10.6524 2.88605 10.8468 2.59441 10.8468ZM11.3436 6.95828H4.53868C4.24704 6.95828 4.05261 6.76385 4.05261 6.47221V4.52794C4.05261 4.2363 4.24704 4.04187 4.53868 4.04187H11.3436C11.6353 4.04187 11.8297 4.2363 11.8297 4.52794V6.47221C11.8297 6.76385 11.6353 6.95828 11.3436 6.95828ZM2.59441 6.95828H0.650131C0.35849 6.95828 0.164062 6.76385 0.164062 6.47221V4.52794C0.164062 4.2363 0.35849 4.04187 0.650131 4.04187H2.59441C2.88605 4.04187 3.08047 4.2363 3.08047 4.52794V6.47221C3.08047 6.76385 2.88605 6.95828 2.59441 6.95828ZM11.3436 3.06973H4.53868C4.24704 3.06973 4.05261 2.8753 4.05261 2.58366V0.639389C4.05261 0.347748 4.24704 0.15332 4.53868 0.15332H11.3436C11.6353 0.15332 11.8297 0.347748 11.8297 0.639389V2.58366C11.8297 2.8753 11.6353 3.06973 11.3436 3.06973ZM2.59441 3.06973H0.650131C0.35849 3.06973 0.164062 2.8753 0.164062 2.58366V0.639389C0.164062 0.347748 0.35849 0.15332 0.650131 0.15332H2.59441C2.88605 0.15332 3.08047 0.347748 3.08047 0.639389V2.58366C3.08047 2.8753 2.88605 3.06973 2.59441 3.06973Z" fill="#DDDDDD"/>
</svg>
