<svg width="30" height="19" viewBox="0 0 30 19" fill="none" xmlns="http://www.w3.org/2000/svg">
<path fill-rule="evenodd" clip-rule="evenodd" d="M8.84523 2.81492C7.98299 2.8151 7.14008 3.06644 6.42266 3.53727C5.70524 4.00811 5.14537 4.67738 4.81357 5.46083C4.19452 6.92452 3.3596 10.5486 2.98216 12.2797C2.87637 12.7582 2.83348 13.1706 2.86779 13.5407C2.9793 14.7792 3.36817 15.3703 3.73417 15.6743C4.11589 15.9938 4.69633 16.1852 5.54556 16.1852C6.47913 16.1852 7.34693 15.7109 7.84303 14.9326L10.1948 11.2283L13.3215 6.09838L12.5924 4.90209C12.2041 4.2655 11.6551 3.73869 10.9987 3.37293C10.3423 3.00718 9.59948 2.81494 8.84523 2.81492ZM14.9885 3.3638C14.2881 2.25273 13.2903 1.35312 12.1045 0.76376C10.9188 0.174397 9.59102 -0.0819339 8.26699 0.0229145C6.94296 0.127763 5.67388 0.589736 4.59909 1.35811C3.5243 2.12648 2.68537 3.17154 2.1744 4.37854C1.43098 6.13638 0.540293 10.0616 0.187165 11.6886C0.0236853 12.3771 -0.0331899 13.086 0.0184647 13.7912C0.177158 15.5364 0.790485 16.9072 1.88418 17.8206C2.96072 18.7199 4.29603 19 5.54556 19C6.48994 19.0001 7.41883 18.7638 8.2449 18.3132C9.07097 17.8627 9.76707 17.2127 10.2677 16.4245L12.6267 12.7089L12.641 12.6878L14.9885 8.83436L17.336 12.6878L17.3503 12.7089L19.7093 16.4245C20.2098 17.2125 20.9057 17.8624 21.7315 18.3129C22.5573 18.7634 23.4859 18.9999 24.43 19C25.8354 19 27.2965 18.6059 28.3931 17.4716C29.4796 16.3471 30 14.7131 30 12.6667C30 11.3677 29.4996 9.47754 29.035 7.96459C28.6806 6.81734 28.2921 5.68061 27.8698 4.55587C27.3854 3.3219 26.5612 2.24527 25.4897 1.4469C24.4182 0.648517 23.1418 0.159994 21.8038 0.0361782C20.4659 -0.0876376 19.1194 0.158157 17.9155 0.745964C16.7116 1.33377 15.698 2.24031 14.9885 3.3638ZM16.6555 6.09838L19.7822 11.2283L22.1325 14.9312C22.6272 15.7109 23.4964 16.1852 24.43 16.1852C25.3121 16.1852 25.9212 15.9459 26.3215 15.5308C26.7332 15.1071 27.1407 14.2782 27.1407 12.6667C27.1407 11.8448 26.7761 10.3375 26.2972 8.77666C25.9606 7.68581 25.5916 6.60493 25.1906 5.53542C24.8907 4.78985 24.3849 4.14168 23.7306 3.66409C23.0762 3.1865 22.2992 2.89851 21.4874 2.83265C20.6755 2.76678 19.8612 2.92565 19.1362 3.29133C18.4112 3.65701 17.8045 4.21493 17.3846 4.90209L16.6555 6.09838Z" fill="#9A9A9A"/>
</svg>
