<svg width="17" height="17" viewBox="0 0 17 17" fill="none" xmlns="http://www.w3.org/2000/svg">
<path d="M3.11209 13.1128H3.19395L5.37442 12.9086C5.67953 12.8783 5.96233 12.7421 6.17814 12.5228L14.4088 4.15586C14.7958 3.76248 15.0116 3.24049 15.0116 2.68824C15.0116 2.136 14.7958 1.61401 14.4088 1.22063L13.8805 0.683516C13.1065 -0.103245 11.7595 -0.103245 10.9856 0.683516L2.76233 9.04285C2.54651 9.26224 2.41256 9.54971 2.39023 9.85987L2.1893 12.0764C2.16698 12.3563 2.26372 12.6287 2.45721 12.8329C2.63581 13.0145 2.86651 13.1128 3.11209 13.1128ZM12.4367 1.2055C12.6749 1.2055 12.913 1.29628 13.0916 1.48541L13.62 2.02252C13.7069 2.10941 13.776 2.21302 13.8231 2.32732C13.8703 2.44161 13.8945 2.56431 13.8945 2.68824C13.8945 2.81218 13.8703 2.93487 13.8231 3.04917C13.776 3.16347 13.7069 3.26708 13.62 3.35396L12.9651 4.01969L11.127 2.15113L11.7819 1.48541C11.9605 1.30385 12.1986 1.2055 12.4367 1.2055ZM3.49907 9.96579C3.49907 9.92039 3.5214 9.88257 3.55116 9.85231L10.3307 2.95302L12.1688 4.82158L5.3893 11.7133C5.3893 11.7133 5.31488 11.7663 5.27767 11.7663L3.32046 11.9478L3.49907 9.95822V9.96579ZM16.5 15.5261C16.5 15.8362 16.247 16.0934 15.9419 16.0934H1.05814C0.753023 16.0934 0.5 15.8362 0.5 15.5261C0.5 15.2159 0.753023 14.9587 1.05814 14.9587H15.9419C16.247 14.9587 16.5 15.2159 16.5 15.5261Z" fill="white"/>
</svg>
