<svg width="30" height="31" viewBox="0 0 30 31" fill="none" xmlns="http://www.w3.org/2000/svg">
<path fill-rule="evenodd" clip-rule="evenodd" d="M15.0371 0.5C6.74075 0.5 0 7.19112 0 15.5002C0 23.8089 6.74075 30.5 15.0371 30.5C23.3334 30.5 30.0001 23.8088 30.0001 15.5002C30.0001 7.19112 23.3334 0.5 15.0371 0.5ZM16.2222 19.5442C15.1112 19.4706 14.6667 18.8826 13.7778 18.3678C13.3334 20.8675 12.7408 23.2204 11.0371 24.4705C10.5185 20.7206 11.7778 17.9267 12.3704 14.9118C11.3334 13.2206 12.5185 9.6913 14.6667 10.5735C17.3334 11.603 12.3704 17.0441 15.7037 17.7057C19.2593 18.4411 20.6667 11.603 18.5186 9.39705C15.3333 6.23524 9.33331 9.32344 10.0741 13.8822C10.2963 14.9854 11.4075 15.3529 10.5926 16.8972C8.51854 16.4561 7.92592 14.8381 8.00002 12.7794C8.14814 9.32344 11.1111 6.89687 14.1482 6.52943C17.9259 6.08833 21.4815 7.92641 21.926 11.4557C22.5186 15.5002 20.2223 19.8385 16.2222 19.5442Z" fill="#9A9A9A"/>
</svg>
