<svg width="24" height="25" viewBox="0 0 24 25" fill="none" xmlns="http://www.w3.org/2000/svg">
<path d="M19.7142 20.7153C19.6241 20.8055 19.5172 20.8771 19.3995 20.926C19.2817 20.9749 19.1555 21 19.028 21C18.9005 21 18.7743 20.9749 18.6566 20.926C18.5388 20.8771 18.4319 20.8055 18.3419 20.7153L15.1903 17.5676C14.9612 17.3395 14.8296 17.0314 14.8231 16.7082C14.8166 16.385 14.9357 16.0719 15.1554 15.8348C15.851 15.0749 16.3105 14.129 16.478 13.1125C16.6455 12.096 16.5138 11.0528 16.0988 10.1098C15.6838 9.16689 15.0035 8.365 14.1409 7.80187C13.2782 7.23874 12.2704 6.93868 11.2402 6.93824H11.2208C10.5201 6.93939 9.82668 7.08019 9.18105 7.35241C8.53542 7.62464 7.95053 8.02284 7.46058 8.52373C6.48286 9.52252 5.93725 10.8658 5.9416 12.2635C5.94595 13.6612 6.49991 15.001 7.48384 15.9937C8.17414 16.6897 9.04433 17.18 9.9972 17.41C10.9501 17.64 11.9481 17.6006 12.8799 17.2962C13.124 17.2199 13.3883 17.243 13.6153 17.3607C13.8424 17.4784 14.0137 17.6811 14.0919 17.9246C14.1702 18.168 14.1491 18.4325 14.0331 18.6605C13.9172 18.8884 13.7159 19.0613 13.473 19.1414C12.2003 19.5526 10.8387 19.6036 9.53878 19.2889C8.23887 18.9742 7.05137 18.306 6.10768 17.3582C4.76593 16.0028 4.01072 14.1742 4.00492 12.267C3.99912 10.3598 4.74319 8.52668 6.07667 7.16308C6.74593 6.47906 7.54493 5.93542 8.42689 5.564C9.30885 5.19258 10.256 5.00084 11.213 5H11.244C12.5946 5.00139 13.9179 5.38004 15.0648 6.09326C16.2116 6.80649 17.1364 7.82592 17.7349 9.03662C18.3334 10.2473 18.5818 11.6011 18.4521 12.9454C18.3223 14.2898 17.8196 15.5711 17.0006 16.645L19.7103 19.3508C19.8005 19.4408 19.8721 19.5477 19.921 19.6655C19.9698 19.7832 19.995 19.9094 19.995 20.0369C19.995 20.1644 19.9698 20.2906 19.921 20.4083C19.8721 20.5261 19.8005 20.633 19.7103 20.723L19.7142 20.7153Z" fill="white"/>
</svg>
