<svg width="29" height="30" viewBox="0 0 29 30" fill="none" xmlns="http://www.w3.org/2000/svg">
<path d="M15.1965 17.6813C14.7984 17.6813 14.4757 18.004 14.4757 18.4021C14.4754 20.268 12.9626 21.7802 11.0968 21.7799C9.23095 21.7796 7.71865 20.2669 7.71898 18.401C7.71932 16.5354 9.23173 15.0232 11.0973 15.0232C11.4954 15.0232 11.8181 14.7005 11.8181 14.3024C11.8181 13.9043 11.4954 13.5816 11.0973 13.5816C8.4358 13.5835 6.27865 15.7406 6.27682 18.4021C6.27682 21.0643 8.43491 23.2224 11.0971 23.2224C13.7592 23.2224 15.9173 21.0643 15.9173 18.4021C15.9173 18.004 15.5946 17.6813 15.1965 17.6813Z" fill="white"/>
<path d="M20.923 20.06C20.8542 19.6679 20.4806 19.4057 20.0885 19.4745L18.5798 19.739C18.4447 19.7626 18.3191 19.8244 18.2178 19.9171C18.1165 20.0097 18.0438 20.1293 18.0082 20.2618C17.8473 20.8589 17.6093 21.4324 17.3001 21.9679C17.2311 22.087 17.1977 22.2235 17.2037 22.3611C17.2098 22.4986 17.2552 22.6316 17.3345 22.7441L18.215 23.9989C18.2747 24.0836 18.3025 24.1866 18.2936 24.2898C18.2846 24.3929 18.2395 24.4896 18.1662 24.5628L17.2613 25.4677C17.1883 25.5409 17.0917 25.5861 16.9886 25.5951C16.8856 25.6041 16.7826 25.5765 16.698 25.517L15.4432 24.6365C15.3306 24.5572 15.1977 24.5119 15.0601 24.5058C14.9226 24.4997 14.7861 24.5331 14.667 24.6022C14.1315 24.9114 13.558 25.1494 12.9609 25.3102C12.8284 25.3458 12.7088 25.4186 12.6161 25.5198C12.5235 25.6211 12.4617 25.7467 12.438 25.8819L12.1702 27.3889C12.1525 27.4908 12.0993 27.5832 12.02 27.6497C11.9408 27.7163 11.8406 27.7527 11.7372 27.7526H10.4569C10.3535 27.7527 10.2533 27.7163 10.1741 27.6497C10.0948 27.5832 10.0417 27.4908 10.0239 27.3889L9.75941 25.8807C9.73572 25.7456 9.67393 25.62 9.58131 25.5187C9.48869 25.4174 9.36908 25.3447 9.23655 25.3091C8.63932 25.1482 8.06561 24.9102 7.52991 24.601C7.41076 24.532 7.27433 24.4986 7.13676 24.5047C6.99919 24.5108 6.86625 24.5561 6.75366 24.6354L5.50113 25.5154C5.41647 25.575 5.31346 25.6029 5.21027 25.5939C5.10709 25.585 5.01038 25.5399 4.93724 25.4666L4.03235 24.5617C3.95919 24.4886 3.91413 24.392 3.9051 24.289C3.89608 24.186 3.92366 24.0831 3.983 23.9983L4.86349 22.7436C4.94277 22.631 4.98814 22.4981 4.99423 22.3605C5.00032 22.2229 4.96689 22.0865 4.89787 21.9673C4.58854 21.4319 4.35051 20.8584 4.18982 20.2613C4.15419 20.1287 4.08147 20.0091 3.98021 19.9165C3.87894 19.8239 3.75334 19.7621 3.61817 19.7384L2.11002 19.4739C2.00829 19.4562 1.91605 19.4032 1.84953 19.3242C1.78301 19.2452 1.74646 19.1453 1.7463 19.042V17.7617C1.7462 17.6583 1.78263 17.5581 1.84917 17.4789C1.91572 17.3996 2.0081 17.3465 2.11002 17.3287L3.61817 17.0642C3.75334 17.0405 3.87894 16.9787 3.98021 16.8861C4.08147 16.7935 4.15419 16.6739 4.18982 16.5414C4.35038 15.9437 4.58842 15.3696 4.89787 14.8336C4.96689 14.7145 5.00032 14.578 4.99423 14.4405C4.98814 14.3029 4.94277 14.1699 4.86349 14.0574L3.98356 12.8065C3.92389 12.7218 3.89606 12.6188 3.90499 12.5156C3.91392 12.4124 3.95903 12.3157 4.03235 12.2426L4.93779 11.3372C5.0109 11.264 5.1075 11.219 5.21056 11.21C5.31362 11.2011 5.41652 11.2288 5.50113 11.2884L6.75588 12.1689C6.86846 12.2481 7.00141 12.2935 7.13898 12.2996C7.27654 12.3057 7.41298 12.2723 7.53213 12.2032C8.0678 11.894 8.64152 11.656 9.23877 11.4952C9.3713 11.4596 9.49091 11.3868 9.58353 11.2856C9.67615 11.1843 9.73794 11.0587 9.76163 10.9235L10.0261 9.41539C10.0949 9.02327 9.83271 8.64967 9.4406 8.58092C9.04848 8.51216 8.67488 8.77431 8.60613 9.16643L8.41872 10.2365C8.00763 10.3724 7.60746 10.5392 7.22163 10.7356L6.33171 10.1112C5.58408 9.58516 4.56625 9.67388 3.9209 10.3214L3.01269 11.2235C2.3658 11.8692 2.27736 12.8867 2.8031 13.6343L3.42743 14.5242C3.23097 14.9102 3.06415 15.3106 2.92841 15.7219L1.8583 15.9093C0.959068 16.0672 0.30358 16.8488 0.304689 17.7617V19.042C0.303525 19.9559 0.960232 20.738 1.86052 20.895L2.93063 21.083C3.06638 21.4941 3.2332 21.8943 3.42965 22.2801L2.8031 23.17C2.27753 23.9177 2.36619 24.9352 3.01325 25.5808L3.91869 26.4857C4.56425 27.1328 5.58191 27.2212 6.3295 26.6953L7.21664 26.0709C7.60248 26.2673 8.00265 26.4341 8.41373 26.57L8.60114 27.6401C8.75905 28.5407 9.54251 29.1969 10.4569 29.1942H11.7372C12.6513 29.1953 13.4335 28.5384 13.5902 27.6378L13.7782 26.5677C14.1893 26.4319 14.5894 26.2651 14.9753 26.0687L15.8657 26.693C16.6134 27.2189 17.6311 27.1302 18.2765 26.4829L19.182 25.5775C19.829 24.9319 19.9177 23.9144 19.3921 23.1666L18.7683 22.2795C18.9647 21.8937 19.1315 21.4935 19.2674 21.0824L20.3375 20.8945C20.7296 20.8257 20.9917 20.4521 20.923 20.06Z" fill="white"/>
<path d="M27.3404 7.34834L26.5863 7.21638C26.4921 6.94449 26.381 6.67875 26.2536 6.42072L26.6972 5.79584C27.1542 5.14601 27.0772 4.26159 26.5148 3.70052L25.8006 2.98471C25.2393 2.42115 24.3535 2.34386 23.7031 2.80174L23.076 3.24143C22.818 3.11401 22.5522 3.0029 22.2803 2.90875L22.1506 2.158C22.0141 1.37521 21.3339 0.804391 20.5393 0.805666H19.5307C18.7362 0.804668 18.0562 1.37577 17.92 2.15856L17.7875 2.91263C17.5156 3.00678 17.2498 3.11789 16.9918 3.24531L16.3647 2.80174C15.7149 2.34475 14.8305 2.42176 14.2694 2.98416L13.5564 3.69831C12.9928 4.25964 12.9155 5.1454 13.3734 5.79584L13.8131 6.42294C13.6857 6.68094 13.5746 6.94668 13.4804 7.2186L12.7291 7.34834C11.9466 7.48485 11.3758 8.16468 11.3768 8.95906V9.96763C11.3752 10.7624 11.9462 11.4429 12.7291 11.5795L13.4826 11.7114C13.5768 11.9833 13.6879 12.2491 13.8153 12.5071L13.3751 13.1342C12.918 13.7838 12.9945 14.668 13.5564 15.2295L14.2694 15.9425C14.8306 16.5053 15.7154 16.5823 16.3653 16.125L16.9941 15.6853C17.2521 15.8126 17.5178 15.9237 17.7897 16.0179L17.9222 16.772C18.0587 17.5546 18.7386 18.1253 19.533 18.1244H20.5415C21.3361 18.1244 22.0154 17.5523 22.1506 16.7692L22.2825 16.0157C22.5545 15.9216 22.8202 15.8105 23.0782 15.683L23.7031 16.1255C24.3535 16.5836 25.2394 16.5063 25.8006 15.9425L26.5142 15.2289C27.0763 14.668 27.1535 13.7841 26.6972 13.1342L26.2564 12.5049C26.3837 12.2468 26.4949 11.9811 26.5891 11.7092L27.3431 11.5767C28.124 11.4394 28.6934 10.761 28.6933 9.96819V8.95962C28.6945 8.16485 28.1234 7.48463 27.3404 7.34834ZM27.2516 9.96985C27.2517 10.0154 27.2356 10.0595 27.2063 10.0944C27.177 10.1293 27.1363 10.1528 27.0914 10.1606L25.9026 10.3691C25.7675 10.3928 25.6419 10.4545 25.5406 10.5472C25.4393 10.6398 25.3666 10.7594 25.331 10.8919C25.2077 11.3497 25.0252 11.7894 24.7882 12.1999C24.7191 12.3191 24.6857 12.4555 24.6918 12.5931C24.6979 12.7306 24.7433 12.8636 24.8225 12.9762L25.5162 13.9653C25.5424 14.0026 25.5547 14.048 25.5507 14.0935C25.5467 14.1389 25.5269 14.1815 25.4946 14.2137L24.7815 14.9268C24.7489 14.9581 24.7064 14.977 24.6613 14.9802C24.6163 14.9834 24.5715 14.9708 24.5348 14.9445L23.5439 14.2514C23.4314 14.1721 23.2984 14.1268 23.1609 14.1207C23.0233 14.1146 22.8869 14.148 22.7677 14.217C22.3572 14.4541 21.9175 14.6366 21.4597 14.7599C21.3274 14.7959 21.2082 14.869 21.116 14.9704C21.0238 15.0719 20.9624 15.1975 20.9391 15.3326L20.7306 16.5214C20.7228 16.5663 20.6993 16.607 20.6644 16.6363C20.6296 16.6656 20.5854 16.6817 20.5399 16.6816H19.5307C19.4852 16.6817 19.441 16.6656 19.4062 16.6363C19.3713 16.607 19.3478 16.5663 19.34 16.5214L19.131 15.3326C19.1073 15.1975 19.0455 15.0718 18.9529 14.9706C18.8602 14.8693 18.7406 14.7966 18.6081 14.761C18.1502 14.6377 17.7103 14.4552 17.2996 14.2182C17.1804 14.1491 17.044 14.1157 16.9064 14.1218C16.7688 14.1279 16.6359 14.1732 16.5233 14.2525L15.5369 14.9445C15.4996 14.9708 15.4542 14.983 15.4088 14.979C15.3633 14.9751 15.3207 14.9552 15.2885 14.9229L14.5755 14.2098C14.5432 14.1776 14.5233 14.135 14.5193 14.0896C14.5154 14.0441 14.5276 13.9987 14.5539 13.9614L15.2475 12.9723C15.3268 12.8597 15.3722 12.7267 15.3783 12.5892C15.3844 12.4516 15.3509 12.3152 15.2819 12.196C15.0447 11.7855 14.8623 11.3458 14.7391 10.888C14.7029 10.7559 14.6298 10.6367 14.5284 10.5446C14.4269 10.4525 14.3013 10.3912 14.1663 10.368L12.9775 10.1595C12.9326 10.1516 12.8919 10.1282 12.8626 10.0933C12.8333 10.0584 12.8173 10.0143 12.8173 9.96874L12.8178 8.95962C12.8178 8.91404 12.8339 8.86993 12.8632 8.83503C12.8925 8.80014 12.9332 8.77671 12.9781 8.76888L14.1663 8.55985C14.3015 8.53616 14.4271 8.47437 14.5283 8.38174C14.6296 8.28912 14.7023 8.16952 14.7379 8.03699C14.8612 7.57923 15.0437 7.13952 15.2808 6.72901C15.3498 6.60985 15.3832 6.47342 15.3772 6.33585C15.3711 6.19828 15.3257 6.06534 15.2464 5.95276L14.5544 4.96415C14.5282 4.92684 14.5159 4.88145 14.5199 4.836C14.5238 4.79055 14.5437 4.74796 14.576 4.71575L15.2896 4.00215C15.3219 3.96984 15.3644 3.94996 15.4099 3.946C15.4553 3.94204 15.5007 3.95427 15.538 3.98053L16.5266 4.67416C16.6392 4.75344 16.7722 4.79881 16.9097 4.8049C17.0473 4.81099 17.1837 4.77755 17.3029 4.70854C17.7134 4.47145 18.1531 4.28897 18.6109 4.16572C18.7434 4.13009 18.863 4.05737 18.9556 3.95611C19.0483 3.85484 19.11 3.72924 19.1337 3.59407L19.3422 2.4053C19.3504 2.36118 19.3737 2.3213 19.4081 2.29247C19.4425 2.26365 19.4859 2.24767 19.5307 2.24727H20.5393C20.5849 2.24725 20.629 2.26331 20.6639 2.29262C20.6988 2.32193 20.7222 2.36262 20.73 2.40751L20.9385 3.59628C20.9622 3.73146 21.024 3.85706 21.1166 3.95833C21.2092 4.05959 21.3288 4.13231 21.4614 4.16794C21.9192 4.29113 22.3589 4.47362 22.7694 4.71076C22.8885 4.77978 23.0249 4.81323 23.1625 4.80714C23.3001 4.80105 23.433 4.75567 23.5456 4.67638L24.5348 3.98275C24.5721 3.95649 24.6175 3.94426 24.6629 3.94822C24.7084 3.95217 24.751 3.97206 24.7832 4.00437L25.4968 4.71796C25.5282 4.75031 25.5473 4.79261 25.5509 4.83756C25.5544 4.88251 25.5421 4.92728 25.5162 4.96415L24.8225 5.95497C24.7433 6.06756 24.6979 6.2005 24.6918 6.33807C24.6857 6.47564 24.7191 6.61207 24.7882 6.73122C25.0252 7.14176 25.2077 7.58147 25.331 8.03921C25.3666 8.17174 25.4393 8.29134 25.5406 8.38396C25.6419 8.47658 25.7675 8.53837 25.9026 8.56206L27.0914 8.77054C27.1363 8.77838 27.177 8.8018 27.2063 8.8367C27.2356 8.87159 27.2517 8.91571 27.2516 8.96128V9.96985Z" fill="white"/>
<path d="M20.0347 6.0204C18.1328 6.0204 16.591 7.56226 16.591 9.46418C16.5931 11.3652 18.1337 12.9058 20.0347 12.908C21.9367 12.908 23.4785 11.3661 23.4785 9.46418C23.4785 7.56226 21.9367 6.0204 20.0347 6.0204ZM20.0347 11.4663C18.929 11.4663 18.0326 10.5699 18.0326 9.46418C18.0323 8.35786 18.9284 7.46045 20.0347 7.45924V7.46201C21.1405 7.46201 22.0369 8.35841 22.0369 9.46418C22.0369 10.5699 21.1405 11.4663 20.0347 11.4663Z" fill="white"/>
</svg>
