<svg width="70" height="70" viewBox="0 0 70 70" fill="none" xmlns="http://www.w3.org/2000/svg">
<rect width="70" height="70" rx="35" fill="#F35252" fill-opacity="0.1"/>
<rect x="19.5" y="19.5" width="31" height="31" rx="6.45833" fill="#F35252"/>
<path d="M28.5314 29.5844L26.1819 27.2349C25.8873 26.9403 25.8873 26.4641 26.1819 26.1695C26.4765 25.8748 26.9528 25.8748 27.2474 26.1695L29.5969 28.519L28.5314 29.5844ZM36.9332 39.4014L37.7516 40.2197L40.1869 37.7843L39.3686 36.966L36.9332 39.4014ZM42.9923 40.5302L40.5735 42.9731C39.8893 43.6648 38.9775 44.0476 38.0055 44.0514H37.9904C37.0244 44.0514 36.1141 43.6761 35.4284 42.9934L28.863 36.48C28.2511 35.8734 27.9384 35.0324 28.0069 34.1727L28.5314 29.5852L31.2916 32.3454C31.2584 32.4689 31.2358 32.597 31.2358 32.7312C31.2358 33.5638 31.9102 34.2382 32.7429 34.2382C33.5755 34.2382 34.2499 33.5638 34.2499 32.7312C34.2499 31.8985 33.5755 31.2241 32.7429 31.2241C32.6087 31.2241 32.4814 31.2475 32.3571 31.2799L29.5969 28.519L33.9696 28.0292C34.855 27.9139 35.7622 28.2213 36.3967 28.8505L42.9735 35.3836C44.3939 36.7979 44.4022 39.1075 42.9923 40.5317V40.5302ZM41.7852 37.2508L39.9014 35.367C39.6067 35.0724 39.1305 35.0724 38.8359 35.367L35.335 38.8679C35.0404 39.1625 35.0404 39.6387 35.335 39.9334L37.2188 41.8172C37.3657 41.9641 37.5586 42.038 37.7516 42.038C37.9445 42.038 38.1374 41.9641 38.2843 41.8172L41.7852 38.3163C42.0798 38.0217 42.0798 37.5454 41.7852 37.2508Z" fill="white"/>
</svg>
