<svg width="44" height="44" viewBox="0 0 44 44" fill="none" xmlns="http://www.w3.org/2000/svg">
<rect width="43.75" height="43.75" rx="21.875" fill="#2F2F3C"/>
<path d="M25.9865 16.8788L26.0039 17.0126L25.8041 17.054L25.7766 17.3386H26.0176L26.3368 17.3076L26.501 17.1116L26.3266 17.0437L26.23 16.9332L26.086 16.7001L26.0176 16.3706L25.7462 16.4253L25.6702 16.5419V16.6728L25.8005 16.7619L25.9865 16.8788Z" fill="white"/>
<path d="M25.7564 16.9884L25.7701 16.81L25.6113 16.7415L25.3888 16.7926L25.2241 17.0569V17.2288H25.4163L25.7564 16.9884ZM21.1802 17.7459L21.1314 17.8721H20.8942V17.9939H20.9505C20.9505 17.9939 20.9539 18.0198 20.9586 18.0537L21.1035 18.042L21.1944 17.9862L21.2181 17.8721L21.3355 17.8622L21.3815 17.7662L21.274 17.744L21.1802 17.7459ZM14.2592 18.3849V18.6424C14.3493 18.4322 14.449 18.227 14.5554 18.026L14.2592 18.3849ZM20.202 21.7963L20.1884 21.9406L19.8997 21.9578L20.5307 22.0221L20.47 21.9271L20.202 21.7963ZM19.5218 21.7208L19.0134 21.618L18.8152 21.8466L19.6755 21.9348L19.5218 21.7208Z" fill="white"/>
<path d="M30.8728 21.7822C30.8699 21.5187 30.8568 21.2577 30.8319 21.0005C30.7487 20.1427 30.5435 19.3206 30.2352 18.5499C30.2121 18.4929 30.1911 18.4344 30.1672 18.3776C29.7576 17.4104 29.1816 16.5301 28.4774 15.7697C28.4318 15.7198 28.3848 15.6714 28.3377 15.6231C28.2039 15.4852 28.0674 15.3504 27.926 15.2211C26.3248 13.7641 24.1976 12.875 21.8665 12.875C19.5158 12.875 17.3732 13.78 15.7673 15.2589C15.3933 15.6041 15.0488 15.9799 14.7376 16.3825C13.8642 17.5115 13.2604 18.8548 13.0029 20.3156L12.9951 20.3189L12.9312 20.7006L18.3087 18.5524L18.0241 17.8695L20.8005 18.1538L19.0461 20.3215L18.7623 19.641L12.875 22.1295L12.8813 22.3066C12.8806 22.3066 12.8799 22.3073 12.8792 22.3073C12.8775 22.308 12.8765 22.3088 12.875 22.3095C12.8771 22.3594 12.8835 22.4086 12.8869 22.4584L12.888 22.4953L12.8895 22.4946C12.9354 23.1616 13.0503 23.8094 13.2341 24.429C13.2381 24.4594 13.2504 24.502 13.2671 24.5479C13.2696 24.5559 13.2714 24.5646 13.2741 24.5725C13.2745 24.5725 13.2752 24.5718 13.2759 24.5718C13.3116 24.6651 13.3548 24.7591 13.3548 24.7591C13.3548 24.7591 16.5212 23.4309 18.2805 22.7195L18.454 22.6494L18.1698 21.967L20.9462 22.2517L19.1916 24.42L18.909 23.7411L13.7754 25.8284L13.8565 25.9857C13.8565 25.986 13.8569 25.9864 13.8572 25.9867L13.9459 26.1588L13.9526 26.1563C14.2912 26.7784 14.701 27.3554 15.1707 27.8781L15.1649 27.881L15.4383 28.1796L18.3073 26.9596L18.0242 26.2799L20.8005 26.5644L19.0462 28.7324L18.762 28.0502L16.4399 29.0762L16.7822 29.2981C16.784 29.2974 16.7867 29.296 16.7885 29.2952C18.2362 30.2879 19.9828 30.875 21.8669 30.875C25.361 30.875 28.3943 28.8759 29.8879 25.9636C30.2071 25.3411 30.456 24.677 30.6232 23.9819C30.6658 23.8052 30.703 23.6272 30.7346 23.4483C30.825 22.9371 30.875 22.4122 30.875 21.8748C30.8749 21.8437 30.8731 21.8134 30.8728 21.7822ZM14.6031 19.6622L13.8281 19.9787C13.937 19.5182 14.077 19.0695 14.2595 18.6424V18.3849L14.5557 18.0261C14.6578 17.8329 14.768 17.6441 14.8859 17.4601L14.8987 17.6096L14.5557 18.0261C14.4493 18.2271 14.3496 18.4322 14.2595 18.6424V19.1126L14.6034 19.2776V19.6622H14.6031ZM14.8792 19.55L14.857 19.3806H15.0426L15.0581 19.4771L14.8792 19.55ZM29.1775 18.1849L29.23 18.1264C29.298 18.2596 29.3624 18.3946 29.4232 18.5313L29.3379 18.528L29.1776 18.5499L29.1775 18.1849ZM27.8753 16.6146L27.8771 16.2126C28.0186 16.3624 28.1554 16.5164 28.2853 16.6767L28.1228 16.9177L27.5562 16.9124L27.5207 16.7944L27.8753 16.6146ZM17.4931 16.1667L17.0861 16.1918L17.0086 16.0992L17.2969 16.0166C17.2969 16.0166 17.4776 15.9863 17.4928 15.9863C17.5087 15.9866 17.4931 16.1667 17.4931 16.1667ZM17.5005 15.6669L17.4157 15.7806H17.0086V15.6006H17.189L17.2045 15.5384H17.5002V15.6669L17.5005 15.6669ZM18.1164 17.1702L17.9056 17.2376L17.7721 16.9643L17.9887 16.8614L18.1839 16.9081L18.1164 17.1702ZM18.8489 17.5821L18.3984 17.5359L18.524 17.4838H18.8489V17.5821ZM18.9204 17.5895L18.8507 17.5821H18.9204V17.5895ZM19.0079 17.5982V17.5563L19.06 17.6036L19.0079 17.5982ZM13.9183 24.1322C13.7419 23.5119 13.639 22.8619 13.6131 22.1924L15.9123 21.2326L16.4713 21.371V21.2548L16.7595 21.2955L16.7325 21.5014L16.9588 21.5431L17.3089 21.6386L17.8041 22.2018L17.8685 22.2069L17.9685 22.4469C17.2342 22.744 15.0469 23.6637 13.9183 24.1322ZM17.8233 26.7625L15.8947 27.5734C15.4071 27.0625 14.9865 26.4917 14.6431 25.8747L18.4099 24.3419L18.6078 24.5899L18.6559 24.8574C18.6559 24.8574 18.8822 24.9189 18.9101 24.9189C18.9182 24.9189 18.9681 24.9525 19.0324 24.9977L19.0894 25.135L19.1382 25.0743C19.2739 25.1734 19.4188 25.2825 19.4188 25.2825V26.05L17.4425 25.8483L17.8233 26.7625ZM29.751 19.5897H29.0918L28.6902 19.2906L28.2672 19.3316V19.5894H28.1329L27.9889 19.4864L27.2565 19.3013V18.8275L26.3288 18.8996L26.0411 19.054H25.6732L25.4922 19.0359L25.045 19.2839V19.7512L24.1314 20.4096L24.207 20.6909H24.3926L24.3441 20.9589L24.2135 21.0072L24.2066 21.7074L24.9962 22.6063H25.3403L25.3613 22.5517H25.9796L26.1573 22.3869H26.5083L26.7008 22.5795L27.2226 22.6334L27.1538 23.3267L27.7335 24.3501L27.4281 24.9336L27.4491 25.208L27.69 25.4477V26.1082L28.0052 26.5325V27.0813H28.2777C26.7608 28.9424 24.4505 30.1342 21.8657 30.1342C20.308 30.1342 18.8538 29.6957 17.6087 28.9445C17.9266 28.8085 18.2445 28.6726 18.5625 28.5368L18.9419 29.4477L19.7322 28.4702L20.0891 29.0971L20.5785 29.5236L21.0706 29.5331L21.1184 29.3747L20.7571 29.0707L20.7779 28.92L20.8427 28.7349L20.8564 28.5458L20.6122 28.5389L20.4888 28.3842L20.6923 28.1886L20.7193 28.0415L20.4926 27.976L20.5064 27.8397L20.8289 27.7902L21.3203 27.5541L21.4851 27.2523L22.0006 26.5933L21.8835 26.0781L22.0422 25.8037L22.5158 25.8178L22.8349 25.5655L22.9384 24.5717L23.2923 24.1221L23.3538 23.8336L23.0311 23.7305L22.8183 23.3813L22.0899 23.3737L21.5126 23.1539L21.4851 22.7429L21.2937 22.4078L21.6635 21.951L17.9063 21.5675L17.8855 21.2465L17.4043 21.1644L17.597 20.8005L17.5422 20.5911L16.9097 21.0137L16.5417 20.9688L18.5618 20.1256L18.9416 21.0375L21.5167 17.8547L20.4748 17.7484L20.6404 17.5926L20.7744 17.628L20.8359 17.705L20.9749 17.551L21.0091 17.5358L20.8564 17.5148L20.7022 17.4633V17.3142L20.7842 17.2475H20.965L21.0476 17.2838L21.1191 17.4277L21.2065 17.4148V17.4018L21.2318 17.4103L21.4851 17.3715L21.5211 17.2478L21.6656 17.2841V17.4177L21.5314 17.5102H21.5319L21.5515 17.6568L22.011 17.7987C22.011 17.7987 22.0114 17.8009 22.0117 17.8041L22.1172 17.7953L22.1246 17.5965L21.7608 17.4311L21.74 17.3355L22.0421 17.233L22.0553 16.9443L21.7396 16.7522L21.719 16.2651L21.2862 16.4775H21.1276L21.1692 16.1069L20.5795 15.9678L20.3362 16.1518V16.7134L19.8979 16.8518L19.7222 17.2171L19.5336 17.2475V16.7792L19.1215 16.7226L18.9157 16.5881L18.833 16.285L19.5699 15.8541L19.9308 15.7442L19.9672 15.9863L20.168 15.9756L20.1836 15.8541L20.3929 15.8238L20.3965 15.7816L20.3066 15.7442L20.2858 15.6153L20.5441 15.5936L20.7001 15.4313L20.7082 15.4196L20.7104 15.4203L20.7582 15.3715L21.3011 15.3026L21.5408 15.5065L20.9116 15.8413L21.7123 16.03L21.816 15.7623H22.1662L22.29 15.5287L22.0425 15.4673V15.1723L21.2662 14.8287L20.7305 14.8902L20.4282 15.0487L20.4488 15.4326L20.1327 15.3847L20.0839 15.1723L20.3866 14.8976L19.8371 14.8703L19.679 14.918L19.6111 15.1042L19.817 15.139L19.7759 15.3447L19.4259 15.3655L19.371 15.5025L18.863 15.5163C18.863 15.5163 18.8493 15.2285 18.8281 15.2285C18.8079 15.2285 19.2265 15.2211 19.2265 15.2211L19.5292 14.9261L19.364 14.8435L19.1442 15.0564L18.7796 15.0356L18.5603 14.7336H18.0926L17.6051 15.0972H18.0523L18.0926 15.2282L17.9763 15.3378L18.471 15.3515L18.5466 15.5295L17.9897 15.5093L17.9626 15.3719L17.6125 15.2964L17.4269 15.1935L17.0101 15.1971C18.3751 14.2035 20.0531 13.6154 21.8668 13.6154C23.9577 13.6154 25.8678 14.396 27.3246 15.6788L27.2262 15.8545L26.8455 16.0034L26.6848 16.1781L26.7218 16.3814L26.9179 16.4084L27.0373 16.705L27.376 16.5683L27.4321 16.9644H27.3297L27.0511 16.9233L26.7421 16.9752L26.4428 17.3971L26.0151 17.4645L25.9536 17.83L26.1342 17.8725L26.0821 18.1076L25.6576 18.0227L25.2679 18.1076L25.1855 18.3242L25.2531 18.7786L25.4814 18.8852L25.8642 18.883L26.1233 18.8597L26.2029 18.6538L26.6075 18.1282L26.8734 18.1822L27.1361 17.9456L27.1849 18.1307L27.8305 18.5662L27.7516 18.6718L27.4607 18.6562L27.5725 18.8149L27.7516 18.8538L27.9614 18.7665L27.9571 18.5139L28.0505 18.4677L27.9759 18.3881L27.5453 18.1483L27.4317 17.83H27.7899L27.9036 17.9432L28.2126 18.2087L28.2256 18.5295L28.5447 18.8694L28.6634 18.4037L28.8849 18.283L28.9261 18.664L29.1425 18.9008L29.5731 18.8934C29.6571 19.1083 29.7319 19.3268 29.797 19.5482L29.751 19.5897ZM29.8849 20.0066L29.911 19.9762C29.9218 20.0232 29.9334 20.0698 29.9436 20.1172L29.8849 20.0066Z" fill="white"/>
</svg>
