<svg width="20" height="19" viewBox="0 0 20 19" fill="none" xmlns="http://www.w3.org/2000/svg">
<path d="M0.125 15.2286C0.125 16.0842 0.436111 16.823 1.05833 17.4453C1.68056 18.0675 2.42917 18.3786 3.30417 18.3786C4.17917 18.3786 4.91806 18.0675 5.52083 17.4453C6.12361 16.823 6.425 16.0744 6.425 15.1994C6.425 14.3244 6.12361 13.5855 5.52083 12.9828C4.91806 12.38 4.17917 12.0786 3.30417 12.0786C2.42917 12.0786 1.68056 12.38 1.05833 12.9828C0.436111 13.5855 0.125 14.3342 0.125 15.2286ZM17.5667 17.8536C16.7889 18.2814 15.9722 18.3883 15.1167 18.1744C14.2611 17.9605 13.6194 17.4647 13.1917 16.6869L6.89167 5.72027C6.425 4.98138 6.30833 4.17443 6.54167 3.29943C6.775 2.42443 7.26111 1.77304 8 1.34527C8.77778 0.917488 9.59445 0.820267 10.45 1.0536C11.3056 1.28693 11.9472 1.77304 12.375 2.51193L18.7917 13.4786C19.2194 14.2953 19.3167 15.1217 19.0833 15.9578C18.85 16.7939 18.3444 17.4258 17.5667 17.8536ZM1.11667 12.4869C1.77778 11.9036 2.51667 11.6119 3.33333 11.6119C4.26667 11.6119 5.06389 11.9425 5.725 12.6036C6.38611 13.2647 6.71667 14.0619 6.71667 14.9953C6.71667 15.2675 6.69722 15.4814 6.65833 15.6369L9.28333 10.9119L6.425 5.9536C6.11389 5.37027 5.99722 4.67027 6.075 3.8536L1.11667 12.4869Z" fill="white"/>
</svg>
