<svg width="19" height="19" viewBox="0 0 19 19" fill="none" xmlns="http://www.w3.org/2000/svg">
<path d="M18.0771 9.74528C18.0771 8.15084 17.6785 6.67306 16.8813 5.31195C16.084 3.95084 15.0146 2.86195 13.6729 2.04528C12.3313 1.22862 10.8632 0.810562 9.26875 0.791117C7.67431 0.771673 6.19653 1.16056 4.83542 1.95778C3.47431 2.75501 2.38542 3.83417 1.56875 5.19528C0.752083 6.5564 0.34375 8.03417 0.34375 9.62862C0.34375 11.0675 0.664583 12.4189 1.30625 13.6828C1.94792 14.9467 2.83264 15.9967 3.96042 16.8328C5.08819 17.6689 6.37153 18.2036 7.81042 18.437V12.2536H5.59375V9.74528H7.81042V7.76195C7.81042 6.67306 8.11181 5.83695 8.71458 5.25362C9.31736 4.67028 10.1243 4.37862 11.1354 4.37862C11.6021 4.37862 12.2632 4.41751 13.1187 4.49528V6.65362H12.0104C11.6604 6.61473 11.3493 6.70223 11.0771 6.91612C10.8049 7.13001 10.6493 7.41195 10.6104 7.76195V9.74528H13.0604L12.7104 12.2536H10.6687V18.437C12.0299 18.2036 13.2743 17.6786 14.4021 16.862C15.5299 16.0453 16.4243 15.005 17.0854 13.7411C17.7465 12.4772 18.0771 11.1453 18.0771 9.74528Z" fill="white"/>
</svg>
