<svg width="19" height="19" viewBox="0 0 19 19" fill="none" xmlns="http://www.w3.org/2000/svg">
<path d="M9.57031 2.51195C10.8148 2.51195 11.612 2.51195 11.962 2.51195C12.312 2.51195 12.7009 2.53139 13.1286 2.57028C13.6731 2.57028 14.2175 2.66751 14.762 2.86195C15.112 2.97862 15.4425 3.19251 15.7536 3.50362C16.0648 3.81473 16.2786 4.14528 16.3953 4.49528C16.5898 5.03973 16.687 5.58417 16.687 6.12862V7.06195C16.7259 7.83973 16.7453 8.71473 16.7453 9.68695V12.0203C16.7453 12.4092 16.7259 12.8175 16.687 13.2453C16.687 13.7897 16.5898 14.3342 16.3953 14.8786C16.2786 15.2286 16.0648 15.5592 15.7536 15.8703C15.4425 16.1814 15.112 16.3953 14.762 16.512C14.2175 16.7064 13.6731 16.8036 13.1286 16.8036H12.1953C11.4175 16.8425 10.5425 16.862 9.57031 16.862H7.23698C6.84809 16.862 6.43976 16.8425 6.01198 16.8036C5.46753 16.8036 4.92309 16.7064 4.37865 16.512C4.02865 16.3953 3.69809 16.1814 3.38698 15.8703C3.07587 15.5592 2.86198 15.2286 2.74531 14.8786C2.55087 14.3342 2.45365 13.7897 2.45365 13.2453V12.312C2.41476 11.5342 2.39531 10.6592 2.39531 9.68695V7.35362C2.39531 6.96473 2.41476 6.5564 2.45365 6.12862C2.45365 5.58417 2.55087 5.03973 2.74531 4.49528C2.86198 4.14528 3.07587 3.81473 3.38698 3.50362C3.69809 3.19251 4.02865 2.97862 4.37865 2.86195C4.92309 2.66751 5.46753 2.57028 6.01198 2.57028C6.43976 2.53139 6.84809 2.51195 7.23698 2.51195H9.57031ZM9.57031 0.936951C8.32587 0.936951 7.52865 0.936951 7.17865 0.936951C6.82865 0.936951 6.42031 0.97584 5.95365 1.05362C5.09809 1.05362 4.37865 1.17028 3.79531 1.40362C3.21198 1.63695 2.70642 1.96751 2.27865 2.39528C1.85087 2.82306 1.52031 3.32862 1.28698 3.91195C1.05365 4.49528 0.936979 5.19528 0.936979 6.01195C0.859201 6.47862 0.820312 6.90639 0.820312 7.29528V12.0203C0.820312 12.4092 0.839757 12.8661 0.878646 13.3911C0.917535 13.9161 1.05365 14.587 1.28698 15.4036C1.52031 15.987 1.86059 16.512 2.30781 16.9786C2.75503 17.4453 3.26059 17.7856 3.82448 17.9995C4.38837 18.2133 5.09809 18.3203 5.95365 18.3203L6.82865 18.3786C7.64531 18.4175 8.5592 18.437 9.57031 18.437H11.962C12.312 18.437 12.7495 18.4175 13.2745 18.3786C13.7995 18.3397 14.4703 18.2036 15.287 17.9703C15.9092 17.737 16.4342 17.4064 16.862 16.9786C17.2898 16.5508 17.6203 16.0453 17.8536 15.462C18.087 14.8786 18.2036 14.1592 18.2036 13.3036L18.262 12.4286C18.3009 11.612 18.3203 10.6981 18.3203 9.68695V7.29528C18.3203 6.94528 18.3009 6.50778 18.262 5.98278C18.2231 5.45778 18.087 4.78695 17.8536 3.97028C17.6592 3.38695 17.3286 2.87167 16.862 2.42445C16.3953 1.97723 15.88 1.63695 15.3161 1.40362C14.7523 1.17028 14.062 1.05362 13.2453 1.05362C12.7398 0.97584 12.2925 0.936951 11.9036 0.936951H9.57031ZM9.57031 5.19528C8.75365 5.19528 8.00503 5.39945 7.32448 5.80778C6.64392 6.21612 6.09948 6.76056 5.69115 7.44112C5.28281 8.12167 5.07865 8.87028 5.07865 9.68695C5.07865 10.5036 5.28281 11.2522 5.69115 11.9328C6.09948 12.6133 6.64392 13.1578 7.32448 13.5661C8.00503 13.9745 8.75365 14.1786 9.57031 14.1786C10.387 14.1786 11.1356 13.9745 11.8161 13.5661C12.4967 13.1578 13.0411 12.6133 13.4495 11.9328C13.8578 11.2522 14.062 10.5036 14.062 9.68695C14.062 8.87028 13.8578 8.12167 13.4495 7.44112C13.0411 6.76056 12.4967 6.21612 11.8161 5.80778C11.1356 5.39945 10.387 5.19528 9.57031 5.19528ZM9.57031 12.6036C8.75365 12.6036 8.06337 12.3217 7.49948 11.7578C6.93559 11.1939 6.65365 10.5036 6.65365 9.68695C6.65365 8.87028 6.93559 8.18001 7.49948 7.61612C8.06337 7.05223 8.75365 6.77028 9.57031 6.77028C10.387 6.77028 11.0773 7.05223 11.6411 7.61612C12.205 8.18001 12.487 8.87028 12.487 9.68695C12.487 10.5036 12.1953 11.1939 11.612 11.7578C11.0286 12.3217 10.3481 12.6036 9.57031 12.6036ZM13.2453 5.02028C13.2453 5.29251 13.3425 5.52584 13.537 5.72028C13.7314 5.91473 13.9648 6.01195 14.237 6.01195C14.5092 6.01195 14.7425 5.91473 14.937 5.72028C15.1314 5.52584 15.2286 5.29251 15.2286 5.02028C15.2286 4.74806 15.1314 4.51473 14.937 4.32028C14.7425 4.12584 14.5092 4.02862 14.237 4.02862C13.9648 4.02862 13.7314 4.12584 13.537 4.32028C13.3425 4.51473 13.2453 4.74806 13.2453 5.02028Z" fill="white"/>
</svg>
