<svg width="18" height="19" viewBox="0 0 18 19" fill="none" xmlns="http://www.w3.org/2000/svg">
<path d="M13.6153 18.4361H4.27743C3.57709 18.4361 2.92538 18.2611 2.32231 17.9111C1.71924 17.5612 1.24261 17.0848 0.892443 16.4821C0.542273 15.8794 0.367188 15.2281 0.367188 14.5281V4.84576C0.367188 4.14582 0.542273 3.4945 0.892443 2.89178C1.24261 2.28906 1.71924 1.81272 2.32231 1.46275C2.92538 1.11279 3.57709 0.937803 4.27743 0.937803H13.6153C14.3157 0.937803 14.9674 1.11279 15.5704 1.46275C16.1735 1.81272 16.6501 2.28906 17.0003 2.89178C17.3505 3.4945 17.5255 4.14582 17.5255 4.84576V14.4115C17.5255 15.1503 17.3505 15.8211 17.0003 16.4238C16.6501 17.0265 16.1735 17.5126 15.5704 17.882C14.9674 18.2514 14.3157 18.4361 13.6153 18.4361ZM10.7556 9.57029C11.0279 9.57029 11.3003 9.66751 11.5726 9.86193C11.9228 10.2897 12.0395 10.8146 11.9228 11.4368V14.5865C11.9228 14.7031 11.9617 14.8003 12.0395 14.8781C12.1174 14.9559 12.2146 14.9948 12.3314 14.9948H13.9655C14.0822 14.9948 14.1697 14.9559 14.2281 14.8781C14.2865 14.8003 14.3157 14.7031 14.3157 14.5865V11.4368C14.3935 10.7368 14.2767 9.90082 13.9655 8.92869C13.7709 8.50095 13.4597 8.16071 13.0317 7.90796C12.6037 7.6552 12.1563 7.54827 11.6894 7.58716C11.2614 7.54827 10.8529 7.61632 10.4638 7.7913C10.0747 7.96628 9.74398 8.22876 9.47162 8.57872V8.05378C9.47162 7.97601 9.43272 7.89824 9.3549 7.82047C9.27708 7.74269 9.19927 7.70381 9.12145 7.70381H7.54569C7.42896 7.70381 7.35115 7.72325 7.31224 7.76214L7.19551 8.05378V14.5865C7.19551 14.7031 7.2247 14.8003 7.28306 14.8781C7.34142 14.9559 7.42896 14.9948 7.54569 14.9948H9.23818C9.31599 14.9948 9.39381 14.9559 9.47162 14.8781C9.54944 14.8003 9.58835 14.7031 9.58835 14.5865V11.0285C9.58835 10.7563 9.66616 10.4841 9.82179 10.2119C10.0163 9.78416 10.3276 9.57029 10.7556 9.57029ZM4.27743 7.76214C4.19961 7.76214 4.12179 7.80102 4.04398 7.87879C3.96616 7.95656 3.92726 8.03433 3.92726 8.1121V14.5865C3.92726 14.7031 3.96616 14.8003 4.04398 14.8781C4.12179 14.9559 4.19961 14.9948 4.27743 14.9948H5.85319C5.96992 14.9948 6.05746 14.9559 6.11582 14.8781C6.17418 14.8003 6.20336 14.7031 6.20336 14.5865V8.1121C6.20336 8.03433 6.16446 7.95656 6.08664 7.87879C6.00883 7.80102 5.93101 7.76214 5.85319 7.76214H4.27743ZM5.09449 4.20415C4.70541 4.20415 4.36497 4.34997 4.07316 4.64161C3.78135 4.93325 3.63545 5.28321 3.63545 5.69151C3.63545 6.0998 3.78135 6.44004 4.07316 6.71224C4.36497 6.98444 4.71514 7.12053 5.12367 7.12053C5.5322 7.12053 5.87265 6.98444 6.145 6.71224C6.41736 6.44004 6.55354 6.09008 6.55354 5.66234C6.55354 5.27349 6.40763 4.93325 6.11582 4.64161C5.82401 4.34997 5.48357 4.20415 5.09449 4.20415Z" fill="white"/>
</svg>
