<svg width="18" height="19" viewBox="0 0 18 19" fill="none" xmlns="http://www.w3.org/2000/svg">
<path d="M8.8125 18.437C7.21806 18.437 5.75 18.0481 4.40833 17.2703C3.06667 16.4925 2.00694 15.4328 1.22917 14.0911C0.451389 12.7495 0.0625 11.2814 0.0625 9.68695C0.0625 7.93695 0.548611 6.33278 1.52083 4.87445C2.49306 3.41612 3.77639 2.33695 5.37083 1.63695C6.80972 1.05362 8.29722 0.868895 9.83333 1.08278C11.3694 1.29667 12.7597 1.87028 14.0042 2.80362C15.2486 3.73695 16.1625 4.93278 16.7458 6.39112C17.3292 7.84945 17.5236 9.33695 17.3292 10.8536C17.1347 12.3703 16.5806 13.7411 15.6667 14.9661C14.7528 16.1911 13.5958 17.0953 12.1958 17.6786C11.0292 18.1842 9.90139 18.437 8.8125 18.437ZM8.17083 7.12028C7.97639 7.12028 7.80139 7.17862 7.64583 7.29528C7.49028 7.41195 7.35417 7.56751 7.2375 7.76195C7.08194 8.07306 6.99444 8.42306 6.975 8.81195C6.95556 9.20084 7.02361 9.55084 7.17917 9.86195C7.0625 10.4842 6.94583 10.9703 6.82917 11.3203C6.32361 12.7981 6.16806 14.2564 6.3625 15.6953C6.79028 15.3842 7.15972 14.8786 7.47083 14.1786C7.66528 13.6731 7.84028 12.9731 7.99583 12.0786L8.34583 12.312C8.50139 12.4675 8.67639 12.5842 8.87083 12.662C9.06528 12.7397 9.25972 12.7786 9.45417 12.7786H9.74583C10.1347 12.7786 10.5236 12.6911 10.9125 12.5161C11.3014 12.3411 11.6319 12.0981 11.9042 11.787C12.3319 11.2425 12.6333 10.6397 12.8083 9.97862C12.9833 9.31751 13.0125 8.63695 12.8958 7.93695C12.8569 7.50917 12.7208 7.10084 12.4875 6.71195C12.2542 6.32306 11.9431 5.97306 11.5542 5.66195C10.7375 5.11751 9.8625 4.84528 8.92917 4.84528H8.2875C7.82083 4.88417 7.36389 5.00084 6.91667 5.19528C6.46944 5.38973 6.09028 5.64251 5.77917 5.95362C5.42917 6.34251 5.14722 6.75084 4.93333 7.17862C4.71944 7.60639 4.6125 8.05362 4.6125 8.52028C4.53472 9.14251 4.64167 9.69667 4.93333 10.1828C5.225 10.6689 5.64306 10.9508 6.1875 11.0286C6.30417 10.8731 6.3625 10.6786 6.3625 10.4453C6.3625 10.212 6.30417 10.0078 6.1875 9.83278C6.07083 9.65778 5.93472 9.45362 5.77917 9.22028C5.70139 8.28695 5.95417 7.52862 6.5375 6.94528C6.84861 6.59528 7.22778 6.31334 7.675 6.09945C8.12222 5.88556 8.55972 5.77862 8.9875 5.77862C9.72639 5.77862 10.3681 6.05084 10.9125 6.59528C11.3403 7.13973 11.5542 7.68417 11.5542 8.22862C11.5542 9.0064 11.4375 9.66751 11.2042 10.212C11.0875 10.6008 10.8833 10.9217 10.5917 11.1745C10.3 11.4272 9.95972 11.5731 9.57083 11.612H9.27917C9.1625 11.612 9.04583 11.5731 8.92917 11.4953L8.6375 11.262C8.52083 11.0675 8.48195 10.8536 8.52083 10.6203C8.55972 10.4647 8.61806 10.1925 8.69583 9.80362L8.8125 9.39528C9.00694 8.81195 9.10417 8.38417 9.10417 8.11195C9.10417 7.68417 8.94861 7.41195 8.6375 7.29528C8.55972 7.21751 8.48195 7.17862 8.40417 7.17862L8.17083 7.12028Z" fill="white"/>
</svg>
