<svg width="22" height="19" viewBox="0 0 22 19" fill="none" xmlns="http://www.w3.org/2000/svg">
<path d="M21.7901 3.03692C21.1679 3.30914 20.3123 3.54248 19.2234 3.73692C19.6901 3.4647 20.0887 3.1147 20.4193 2.68692C20.7498 2.25914 20.9929 1.79248 21.1484 1.28692C20.3318 1.83137 19.379 2.20081 18.2901 2.39526C17.7845 1.81192 17.1623 1.40359 16.4234 1.17026C15.6845 0.936922 14.9359 0.898033 14.1776 1.05359C13.4193 1.20914 12.729 1.55914 12.1068 2.10359C11.679 2.53137 11.3484 3.01748 11.1151 3.56192C10.8818 4.10637 10.7651 4.6897 10.7651 5.31192C10.7651 5.7397 10.7845 6.07026 10.8234 6.30359C9.03455 6.22581 7.3526 5.78831 5.7776 4.99109C4.2026 4.19387 2.85122 3.07581 1.72344 1.63692C1.17899 2.72581 1.03316 3.83414 1.28594 4.96192C1.53872 6.0897 2.13177 6.9647 3.0651 7.58692C2.3651 7.58692 1.70399 7.41192 1.08177 7.06192V7.12026C1.08177 8.17026 1.41233 9.10359 2.07344 9.92026C2.73455 10.7369 3.5901 11.2619 4.6401 11.4953C4.17344 11.6119 3.7651 11.6703 3.4151 11.6703C3.0651 11.6703 2.81233 11.6508 2.65677 11.6119C2.92899 12.5064 3.43455 13.2355 4.17344 13.7994C4.91233 14.3633 5.76788 14.6647 6.7401 14.7036C5.96233 15.3258 5.09705 15.8022 4.14427 16.1328C3.19149 16.4633 2.22899 16.6286 1.25677 16.6286C0.790104 16.6286 0.42066 16.5897 0.148438 16.5119C1.15955 17.173 2.24844 17.6786 3.4151 18.0286C4.58177 18.3786 5.74844 18.5536 6.9151 18.5536C9.17066 18.5536 11.2512 18.0091 13.1568 16.9203C15.0623 15.8314 16.5887 14.3244 17.7359 12.3994C18.8832 10.4744 19.4762 8.38414 19.5151 6.12859V5.42859C20.254 4.80637 21.0123 4.00914 21.7901 3.03692Z" fill="white"/>
</svg>
