<svg width="49" height="50" viewBox="0 0 49 50" fill="none" xmlns="http://www.w3.org/2000/svg">
<path d="M11.2755 38.637C10.9489 38.637 10.7856 38.4736 10.7856 38.147L10.9489 37.8203L37.5668 11.197C37.6756 11.0881 37.8389 11.1153 38.0567 11.2786C38.2744 11.442 38.2744 11.6325 38.0567 11.8503L11.4388 38.4736C11.4388 38.5825 11.3844 38.637 11.2755 38.637ZM13.8883 30.9603V21.1603H9.6425V16.587H13.8883V12.9936C13.7794 11.3603 14.3238 9.8903 15.5213 8.58364C16.7188 7.27697 18.1885 6.67808 19.9304 6.78697C21.2368 6.78697 22.4343 6.89586 23.523 7.11364V11.0336H21.4001C20.638 11.0336 20.012 11.3059 19.5221 11.8503C19.0322 12.3947 18.7873 12.9936 18.7873 13.647V16.587H23.1964L22.5432 21.1603H18.7873V25.897L32.0146 12.667C31.1436 9.07364 29.2385 6.13364 26.2991 3.84697C23.3597 1.5603 20.0393 0.416969 16.3378 0.416969C13.3984 0.416969 10.7039 1.12475 8.25445 2.5403C5.80496 3.95586 3.84536 5.91586 2.37566 8.4203C0.905961 10.9247 0.116679 13.5925 0.0078125 16.4236C0.0078125 20.2347 1.17813 23.6103 3.51876 26.5503C5.85939 29.4903 8.88043 31.3959 12.5819 32.267L13.8883 30.9603ZM26.6257 48.927C25.4281 48.927 24.1762 48.7092 22.8698 48.2736C21.89 47.8381 20.9918 47.2392 20.1753 46.477C19.3588 45.7147 18.7329 44.8436 18.2974 43.8636C17.8619 42.557 17.6442 41.2503 17.6442 39.9436C17.6442 39.1814 17.6442 38.0381 17.6442 36.5136L20.257 33.737C20.257 36.7859 20.2842 38.8275 20.3386 39.862C20.3931 40.8964 20.5836 41.8492 20.9102 42.7203C21.4545 44.1359 22.4343 45.1159 23.8496 45.6603C24.8294 45.987 25.8092 46.1775 26.789 46.232C27.7688 46.2864 29.81 46.3136 32.9127 46.3136C36.0154 46.3136 38.1111 46.2864 39.1998 46.232C40.2884 46.1775 41.2138 45.987 41.9759 45.6603C43.3911 45.1159 44.3709 44.1359 44.9153 42.7203C45.2419 41.8492 45.4324 40.8964 45.4868 39.862C45.5412 38.8275 45.5685 36.7586 45.5685 33.6553C45.5685 30.552 45.5412 28.4831 45.4868 27.4486C45.4324 26.4142 45.2419 25.4614 44.9153 24.5903C44.3709 23.1747 43.3911 22.1947 41.9759 21.6503C41.1049 21.3236 40.1523 21.1331 39.1181 21.0786C38.0839 21.0242 36.0426 20.997 32.9944 20.997L35.7705 18.3836C37.2946 18.3836 38.4921 18.3836 39.3631 18.3836C40.5606 18.3836 41.8126 18.6014 43.119 19.037C44.0988 19.4725 44.9969 20.0714 45.8134 20.8336C46.6299 21.5959 47.2559 22.5214 47.6913 23.6103C48.1268 24.8081 48.3445 26.0059 48.3445 27.2036C48.3445 28.4014 48.3445 30.552 48.3445 33.6553C48.3445 36.7586 48.3445 38.9092 48.3445 40.107C48.3445 41.3047 48.1268 42.557 47.6913 43.8636C47.2559 44.8436 46.6299 45.7147 45.8134 46.477C44.9969 47.2392 44.0171 47.8381 42.874 48.2736C41.7309 48.7092 40.5878 48.9542 39.4447 49.0086C38.3016 49.0631 36.1515 49.0903 32.9944 49.0903C29.8372 49.0903 27.7143 49.0359 26.6257 48.927ZM25.156 33.5736C25.156 31.3959 25.918 29.5447 27.4422 28.0203C28.9663 26.4959 30.817 25.7336 32.9944 25.7336C35.1717 25.7336 37.0496 26.4959 38.6282 28.0203C40.2068 29.5447 40.9961 31.3959 40.9961 33.5736C40.9961 35.7514 40.2068 37.6025 38.6282 39.127C37.0496 40.6514 35.1717 41.4136 32.9944 41.4136C30.817 41.5225 28.9663 40.7875 27.4422 39.2086C25.918 37.6297 25.156 35.7514 25.156 33.5736ZM27.9321 33.5736C27.9321 34.9892 28.422 36.2142 29.4018 37.2486C30.3816 38.2831 31.5791 38.8003 32.9944 38.8003C34.4096 38.8003 35.6344 38.2831 36.6686 37.2486C37.7028 36.2142 38.22 34.9892 38.22 33.5736C38.22 32.1581 37.7028 30.9331 36.6686 29.8986C35.6344 28.8642 34.4096 28.347 32.9944 28.347C31.5791 28.347 30.3816 28.8642 29.4018 29.8986C28.422 30.9331 27.9321 32.1581 27.9321 33.5736ZM39.5264 25.407C39.5264 24.8625 39.6897 24.427 40.0163 24.1003C40.3429 23.7736 40.7783 23.6103 41.3227 23.6103C41.867 23.6103 42.3297 23.7736 42.7107 24.1003C43.0917 24.427 43.2823 24.8625 43.2823 25.407C43.2823 25.9514 43.0917 26.4142 42.7107 26.7953C42.3297 27.1764 41.867 27.3397 41.3227 27.2853C40.7783 27.2309 40.3429 27.0403 40.0163 26.7136C39.6897 26.387 39.5264 25.9514 39.5264 25.407Z" fill="white"/>
</svg>
