<svg width="44" height="45" viewBox="0 0 44 45" fill="none" xmlns="http://www.w3.org/2000/svg">
<path d="M33.7308 44.917H10.2642C8.50417 44.917 6.86639 44.477 5.35083 43.597C3.83528 42.717 2.6375 41.5192 1.7575 40.0036C0.8775 38.4881 0.4375 36.8503 0.4375 35.0903V10.7436C0.4375 8.98363 0.8775 7.34585 1.7575 5.8303C2.6375 4.31474 3.83528 3.11696 5.35083 2.23697C6.86639 1.35696 8.50417 0.916962 10.2642 0.916962H33.7308C35.4908 0.916962 37.1286 1.35696 38.6442 2.23697C40.1597 3.11696 41.3575 4.31474 42.2375 5.8303C43.1175 7.34585 43.5575 8.98363 43.5575 10.7436V34.797C43.5575 36.6547 43.1175 38.3414 42.2375 39.857C41.3575 41.3725 40.1597 42.5947 38.6442 43.5236C37.1286 44.4525 35.4908 44.917 33.7308 44.917ZM26.5442 22.6236C27.2286 22.6236 27.9131 22.8681 28.5975 23.357C29.4775 24.4325 29.7708 25.7525 29.4775 27.317V35.237C29.4775 35.5303 29.5753 35.7747 29.7708 35.9703C29.9664 36.1659 30.2108 36.2636 30.5042 36.2636H34.6108C34.9042 36.2636 35.1242 36.1659 35.2708 35.9703C35.4175 35.7747 35.4908 35.5303 35.4908 35.237V27.317C35.6864 25.557 35.3931 23.4547 34.6108 21.0103C34.1219 19.9347 33.3397 19.0792 32.2642 18.4436C31.1886 17.8081 30.0642 17.5392 28.8908 17.637C27.8153 17.5392 26.7886 17.7103 25.8108 18.1503C24.8331 18.5903 24.0019 19.2503 23.3175 20.1303V18.8103C23.3175 18.6147 23.2197 18.4192 23.0242 18.2236C22.8286 18.0281 22.6331 17.9303 22.4375 17.9303H18.4775C18.1842 17.9303 17.9886 17.9792 17.8908 18.077L17.5975 18.8103V35.237C17.5975 35.5303 17.6708 35.7747 17.8175 35.9703C17.9642 36.1659 18.1842 36.2636 18.4775 36.2636H22.7308C22.9264 36.2636 23.1219 36.1659 23.3175 35.9703C23.5131 35.7747 23.6108 35.5303 23.6108 35.237V26.2903C23.6108 25.6059 23.8064 24.9214 24.1975 24.237C24.6864 23.1614 25.4686 22.6236 26.5442 22.6236ZM10.2642 18.077C10.0686 18.077 9.87306 18.1747 9.6775 18.3703C9.48194 18.5659 9.38417 18.7614 9.38417 18.957V35.237C9.38417 35.5303 9.48194 35.7747 9.6775 35.9703C9.87306 36.1659 10.0686 36.2636 10.2642 36.2636H14.2242C14.5175 36.2636 14.7375 36.1659 14.8842 35.9703C15.0308 35.7747 15.1042 35.5303 15.1042 35.237V18.957C15.1042 18.7614 15.0064 18.5659 14.8108 18.3703C14.6153 18.1747 14.4197 18.077 14.2242 18.077H10.2642ZM12.3175 9.13029C11.3397 9.13029 10.4842 9.49696 9.75083 10.2303C9.0175 10.9636 8.65083 11.8436 8.65083 12.8703C8.65083 13.897 9.0175 14.7525 9.75083 15.437C10.4842 16.1214 11.3642 16.4636 12.3908 16.4636C13.4175 16.4636 14.2731 16.1214 14.9575 15.437C15.6419 14.7525 15.9842 13.8725 15.9842 12.797C15.9842 11.8192 15.6175 10.9636 14.8842 10.2303C14.1508 9.49696 13.2953 9.13029 12.3175 9.13029Z" fill="white"/>
</svg>
