<svg width="56" height="37" viewBox="0 0 56 37" fill="none" xmlns="http://www.w3.org/2000/svg">
<path d="M39.8331 0.916962C37.7531 0.916962 35.7531 1.63696 33.8331 3.07696C32.2331 4.27696 30.5131 6.11696 28.6731 8.59696C26.5931 5.79696 24.5931 3.81696 22.6731 2.65696C20.7531 1.49696 18.7131 0.916962 16.5531 0.916962C13.6731 0.916962 10.9931 2.07696 8.51312 4.39696C6.19312 6.55696 4.35312 9.43696 2.99312 13.037C1.63313 16.637 0.953125 20.477 0.953125 24.557C0.953125 28.397 1.83312 31.417 3.59312 33.617C5.35313 35.817 7.75312 36.917 10.7931 36.917C12.3931 36.917 13.7931 36.597 14.9931 35.957C16.3531 35.317 17.7331 34.137 19.1331 32.417C20.5331 30.697 22.1931 28.197 24.1131 24.917L28.0731 17.837C28.6331 18.717 29.1931 19.717 29.7531 20.837L32.5131 25.277C34.2731 28.317 35.7931 30.597 37.0731 32.117C38.4331 33.877 39.7931 35.117 41.1531 35.837C42.5131 36.557 44.0731 36.917 45.8331 36.917C48.7931 36.917 51.0731 35.797 52.6731 33.557C54.2731 31.317 55.0731 28.237 55.0731 24.317C55.1531 20.157 54.4931 16.277 53.0931 12.677C51.6931 9.07696 49.8131 6.21696 47.4531 4.09696C45.0931 1.97696 42.5531 0.916962 39.8331 0.916962ZM19.7931 22.277C18.1931 24.757 16.9331 26.597 16.0131 27.797C15.0931 28.997 14.2531 29.837 13.4931 30.317C12.7331 30.797 11.9131 31.037 11.0331 31.037C9.75313 31.037 8.75312 30.497 8.03312 29.417C7.31312 28.337 6.95312 26.757 6.95312 24.677C6.95312 21.717 7.39313 18.857 8.27312 16.097C9.15312 13.337 10.3331 11.097 11.8131 9.37696C13.2931 7.65696 14.8731 6.79696 16.5531 6.79696C17.9931 6.79696 19.3731 7.29696 20.6931 8.29696C22.0131 9.29696 23.5531 11.077 25.3131 13.637L19.7931 22.277ZM45.9531 31.037C45.0731 31.037 44.2931 30.797 43.6131 30.317C42.9331 29.837 42.0731 28.877 41.0331 27.437C40.2331 26.237 38.9531 24.197 37.1931 21.317L32.9931 14.597L31.5531 12.197C32.9931 9.95696 34.3531 8.29696 35.6331 7.21696C36.9131 6.13696 38.1931 5.59696 39.4731 5.59696C41.3931 5.59696 43.1731 6.45696 44.8131 8.17696C46.4531 9.89696 47.7331 12.217 48.6531 15.137C49.5731 18.057 50.0331 21.237 50.0331 24.677C50.0331 26.757 49.6931 28.337 49.0131 29.417C48.3331 30.497 47.3131 31.037 45.9531 31.037Z" fill="white"/>
</svg>
