<svg width="45" height="45" viewBox="0 0 45 45" fill="none" xmlns="http://www.w3.org/2000/svg">
<path d="M22.6406 44.917C18.6317 44.917 14.9406 43.9392 11.5673 41.9836C8.19396 40.0281 5.52951 37.3636 3.57396 33.9903C1.6184 30.617 0.640625 26.9259 0.640625 22.917C0.640625 18.517 1.86285 14.4836 4.30729 10.817C6.75174 7.1503 9.9784 4.43696 13.9873 2.67696C17.6051 1.2103 21.3451 0.745853 25.2073 1.28363C29.0695 1.82141 32.5651 3.26363 35.694 5.6103C38.8228 7.95696 41.1206 10.9636 42.5873 14.6303C44.054 18.297 44.5428 22.037 44.054 25.8503C43.5651 29.6636 42.1717 33.1103 39.874 36.1903C37.5762 39.2703 34.6673 41.5436 31.1473 43.0103C28.214 44.2814 25.3784 44.917 22.6406 44.917ZM21.0273 16.4636C20.5384 16.4636 20.0984 16.6103 19.7073 16.9036C19.3162 17.197 18.974 17.5881 18.6806 18.077C18.2895 18.8592 18.0695 19.7392 18.0206 20.717C17.9717 21.6947 18.1428 22.5747 18.534 23.357C18.2406 24.9214 17.9473 26.1436 17.654 27.0236C16.3828 30.7392 15.9917 34.4059 16.4806 38.0236C17.5562 37.2414 18.4851 35.9703 19.2673 34.2103C19.7562 32.9392 20.1962 31.1792 20.5873 28.9303L21.4673 29.517C21.8584 29.9081 22.2984 30.2014 22.7873 30.397C23.2762 30.5925 23.7651 30.6903 24.254 30.6903H24.9873C25.9651 30.6903 26.9428 30.4703 27.9206 30.0303C28.8984 29.5903 29.7295 28.9792 30.414 28.197C31.4895 26.8281 32.2473 25.3125 32.6873 23.6503C33.1273 21.9881 33.2006 20.277 32.9073 18.517C32.8095 17.4414 32.4673 16.4147 31.8806 15.437C31.294 14.4592 30.5117 13.5792 29.534 12.797C27.4806 11.4281 25.2806 10.7436 22.934 10.7436H21.3206C20.1473 10.8414 18.9984 11.1347 17.874 11.6236C16.7495 12.1125 15.7962 12.7481 15.014 13.5303C14.134 14.5081 13.4251 15.5347 12.8873 16.6103C12.3495 17.6859 12.0806 18.8103 12.0806 19.9836C11.8851 21.5481 12.154 22.9414 12.8873 24.1636C13.6206 25.3859 14.6717 26.0947 16.0406 26.2903C16.334 25.8992 16.4806 25.4103 16.4806 24.8236C16.4806 24.237 16.334 23.7236 16.0406 23.2836C15.7473 22.8436 15.4051 22.3303 15.014 21.7436C14.8184 19.397 15.454 17.4903 16.9206 16.0236C17.7028 15.1436 18.6562 14.4347 19.7806 13.897C20.9051 13.3592 22.0051 13.0903 23.0806 13.0903C24.9384 13.0903 26.5517 13.7747 27.9206 15.1436C28.9962 16.5125 29.534 17.8814 29.534 19.2503C29.534 21.2059 29.2406 22.8681 28.654 24.237C28.3606 25.2147 27.8473 26.0214 27.114 26.657C26.3806 27.2925 25.5251 27.6592 24.5473 27.757H23.814C23.5206 27.757 23.2273 27.6592 22.934 27.4636L22.2006 26.877C21.9073 26.3881 21.8095 25.8503 21.9073 25.2636C22.0051 24.8725 22.1517 24.1881 22.3473 23.2103L22.6406 22.1836C23.1295 20.717 23.374 19.6414 23.374 18.957C23.374 17.8814 22.9828 17.197 22.2006 16.9036C22.0051 16.7081 21.8095 16.6103 21.614 16.6103L21.0273 16.4636Z" fill="white"/>
</svg>
