<svg width="37" height="55" viewBox="0 0 37 55" fill="none" xmlns="http://www.w3.org/2000/svg">
<path d="M5.77469 1.44701C4.69469 1.32701 3.79469 1.62701 3.07469 2.34701C2.35469 3.06701 1.93469 3.90701 1.81469 4.86701V49.327C1.81469 50.407 2.20469 51.277 2.98469 51.937C3.76469 52.597 4.63469 52.927 5.59469 52.927H31.5147C32.5947 52.927 33.4947 52.597 34.2147 51.937C34.9347 51.277 35.3547 50.407 35.4747 49.327V4.86701C35.3547 3.90701 34.9347 3.06701 34.2147 2.34701C33.4947 1.62701 32.5947 1.32701 31.5147 1.44701H5.77469ZM5.77469 0.187008H31.6947C33.0147 0.187008 34.1847 0.637009 35.2047 1.53701C36.2247 2.43701 36.7947 3.54701 36.9147 4.86701V49.327C36.7947 50.767 36.2247 51.937 35.2047 52.837C34.1847 53.737 33.0147 54.187 31.6947 54.187H5.77469C4.33469 54.187 3.13469 53.737 2.17469 52.837C1.21469 51.937 0.674688 50.767 0.554688 49.327V4.86701C0.674688 3.54701 1.21469 2.43701 2.17469 1.53701C3.13469 0.637009 4.33469 0.187008 5.77469 0.187008ZM8.29469 50.947H30.4347C31.1547 50.947 31.7547 51.217 32.2347 51.757C32.7147 52.297 32.9547 52.927 32.9547 53.647H5.77469C5.77469 52.807 6.01469 52.147 6.49469 51.667C6.97469 51.187 7.57469 50.947 8.29469 50.947ZM27.7347 41.227H9.19469C9.07469 41.227 8.95469 41.167 8.83469 41.047C8.71469 40.927 8.65469 40.777 8.65469 40.597C8.65469 40.417 8.71469 40.267 8.83469 40.147C8.95469 40.027 9.07469 39.967 9.19469 39.967H27.7347C27.9747 39.967 28.1547 40.027 28.2747 40.147C28.3947 40.267 28.4547 40.417 28.4547 40.597C28.4547 40.777 28.3947 40.927 28.2747 41.047C28.1547 41.167 27.9747 41.227 27.7347 41.227ZM27.7347 37.627H9.19469C9.07469 37.627 8.95469 37.567 8.83469 37.447C8.71469 37.327 8.65469 37.177 8.65469 36.997C8.65469 36.817 8.71469 36.667 8.83469 36.547C8.95469 36.427 9.07469 36.367 9.19469 36.367H27.7347C27.9747 36.367 28.1547 36.427 28.2747 36.547C28.3947 36.667 28.4547 36.817 28.4547 36.997C28.4547 37.177 28.3947 37.327 28.2747 37.447C28.1547 37.567 27.9747 37.627 27.7347 37.627ZM21.2547 44.827H9.19469C9.07469 44.827 8.95469 44.767 8.83469 44.647C8.71469 44.527 8.65469 44.377 8.65469 44.197C8.65469 44.017 8.71469 43.867 8.83469 43.747C8.95469 43.627 9.07469 43.567 9.19469 43.567H21.2547C21.3747 43.567 21.4947 43.627 21.6147 43.747C21.7347 43.867 21.7947 44.017 21.7947 44.197C21.7947 44.377 21.7347 44.527 21.6147 44.647C21.4947 44.767 21.3747 44.827 21.2547 44.827ZM26.1147 9.72701H10.9947C10.2747 9.72701 9.64469 9.99701 9.10469 10.537C8.56469 11.077 8.29469 11.707 8.29469 12.427V27.547C8.29469 28.267 8.56469 28.897 9.10469 29.437C9.64469 29.977 10.2747 30.247 10.9947 30.247H26.1147C26.8347 30.247 27.4647 29.977 28.0047 29.437C28.5447 28.897 28.8147 28.267 28.8147 27.547V12.427C28.6947 11.707 28.3947 11.077 27.9147 10.537C27.4347 9.99701 26.8347 9.72701 26.1147 9.72701ZM27.5547 27.547C27.5547 27.907 27.4047 28.237 27.1047 28.537C26.8047 28.837 26.4747 28.987 26.1147 28.987H10.9947C10.5147 28.987 10.1547 28.837 9.91469 28.537C9.67469 28.237 9.55469 27.907 9.55469 27.547V25.387L13.5147 21.967C13.5147 21.847 13.5747 21.787 13.6947 21.787C13.8147 21.787 13.8747 21.847 13.8747 21.967L16.3947 23.947C16.6347 24.187 16.8747 24.187 17.1147 23.947L23.0547 18.007C23.2947 17.887 23.4447 17.857 23.5047 17.917C23.5647 17.977 23.5947 18.007 23.5947 18.007L27.3747 22.687L27.5547 27.547ZM27.5547 20.887L24.6747 17.287C24.4347 16.927 24.0747 16.747 23.5947 16.747C23.1147 16.747 22.7547 16.867 22.5147 17.107L16.7547 22.687L14.7747 21.067C14.0547 20.587 13.3347 20.587 12.6147 21.067L9.55469 23.767V12.427C9.55469 12.067 9.67469 11.737 9.91469 11.437C10.1547 11.137 10.5147 10.987 10.9947 10.987H26.1147C26.4747 10.987 26.8047 11.137 27.1047 11.437C27.4047 11.737 27.5547 12.067 27.5547 12.427V20.887ZM14.7747 12.247C13.9347 12.247 13.2447 12.517 12.7047 13.057C12.1647 13.597 11.8947 14.257 11.8947 15.037C11.8947 15.817 12.1647 16.477 12.7047 17.017C13.2447 17.557 13.9047 17.827 14.6847 17.827C15.4647 17.827 16.1247 17.557 16.6647 17.017C17.2047 16.477 17.4747 15.817 17.4747 15.037C17.4747 14.257 17.2047 13.597 16.6647 13.057C16.1247 12.517 15.4947 12.247 14.7747 12.247ZM14.7747 16.747C14.2947 16.747 13.9047 16.567 13.6047 16.207C13.3047 15.847 13.1547 15.457 13.1547 15.037C13.1547 14.617 13.3047 14.227 13.6047 13.867C13.9047 13.507 14.2947 13.327 14.7747 13.327C15.2547 13.327 15.6447 13.507 15.9447 13.867C16.2447 14.227 16.3947 14.647 16.3947 15.127C16.3947 15.607 16.2447 15.997 15.9447 16.297C15.6447 16.597 15.2547 16.747 14.7747 16.747Z" fill="white"/>
</svg>
