<svg width="32" height="32" viewBox="0 0 32 32" fill="none" xmlns="http://www.w3.org/2000/svg">
<rect x="0.5" y="0.5" width="31" height="31" rx="6.45833" fill="#F35252"/>
<path d="M8.60323 13.365C8.60323 13.0738 8.36712 12.8377 8.07589 12.8377H7.52734C7.23611 12.8377 7 13.0738 7 13.365C7 13.6563 7.23611 13.8924 7.52734 13.8924H8.07589C8.36712 13.8924 8.60323 13.6563 8.60323 13.365ZM8.87805 9.13194C9.35266 9.13194 9.58912 8.54655 9.2378 8.21893L8.83663 7.8448C8.62362 7.6462 8.28992 7.65787 8.09132 7.87082C7.89269 8.08383 7.90436 8.4175 8.11734 8.61613C8.44148 8.88071 8.55626 9.13194 8.87805 9.13194ZM8.5185 17.666L8.11734 18.0401C7.90432 18.2387 7.89269 18.5725 8.09129 18.7854C8.28999 18.9985 8.62362 19.0101 8.83663 18.8115L9.2378 18.4374C9.45081 18.2387 9.46245 17.905 9.26385 17.6921C9.06518 17.4791 8.73152 17.4674 8.5185 17.666ZM24.4727 12.7639H23.9241C23.6329 12.7639 23.3968 13 23.3968 13.2912C23.3968 13.5825 23.6329 13.8186 23.9241 13.8186H24.4727C24.7639 13.8186 25 13.5825 25 13.2912C25 13 24.7639 12.7639 24.4727 12.7639ZM23.4815 17.666C23.2685 17.4675 22.9348 17.4791 22.7361 17.6921C22.5375 17.9051 22.5492 18.2387 22.7622 18.4374L23.1634 18.8115C23.3768 19.0105 23.7105 18.998 23.9087 18.7854C24.1073 18.5724 24.0957 18.2387 23.8827 18.0401L23.4815 17.666ZM23.4815 8.99026L23.8827 8.61616C24.0957 8.41753 24.1073 8.08383 23.9087 7.87085C23.71 7.65787 23.3763 7.64617 23.1634 7.84484L22.7622 8.21893C22.5492 8.41757 22.5376 8.75127 22.7362 8.96425C22.9349 9.17726 23.2686 9.18886 23.4815 8.99026ZM13.0117 21.291C13.0117 21.947 13.4134 22.5107 13.9836 22.75H18.0164C18.5866 22.5107 18.9883 21.947 18.9883 21.291V20.5352H13.0117V21.291ZM14.0664 24.4727C14.0664 24.7638 14.3027 25 14.5938 25H17.4062C17.6973 25 17.9336 24.7638 17.9336 24.4727V23.8047H14.0664V24.4727ZM22.1013 13.3281C23.6018 11.7964 22.7348 9.21298 20.635 8.87853C20.1079 7.12596 17.9899 6.42832 16.5273 7.52864V19.6738H18.1094C19.2997 19.6738 20.3154 18.892 20.6403 17.7769C22.7286 17.44 23.6046 14.8627 22.1013 13.3281ZM17.582 10.1992C17.582 9.90798 17.8181 9.67187 18.1094 9.67187C18.4006 9.67187 18.6367 9.90798 18.6367 10.1992C18.6367 10.7393 18.8414 10.8382 19.2492 11.0352C19.6353 11.2218 20.2188 11.5037 20.2188 12.3086C20.2188 12.5998 19.9826 12.8359 19.6914 12.8359C19.4002 12.8359 19.1641 12.5998 19.1641 12.3086C19.1641 12.1929 19.1641 12.1654 18.7904 11.9849C18.3385 11.7665 17.582 11.401 17.582 10.1992ZM20.7099 15.1744C20.1028 16.0157 19.1649 16.3648 18.8979 16.3648C18.6684 16.3648 18.4574 16.2139 18.3911 15.9823C18.311 15.7023 18.4731 15.4104 18.7532 15.3303C19.1891 15.2056 19.5831 14.9335 19.8547 14.5572C20.0251 14.321 20.3547 14.2677 20.5909 14.4381C20.8271 14.6086 20.8804 14.9382 20.7099 15.1744ZM15.4727 19.6738V7.52864C14.0102 6.42835 11.8921 7.12589 11.365 8.87853C9.26403 9.21319 8.39887 11.7971 9.89874 13.3281C8.39489 14.8632 9.27239 17.4402 11.3598 17.7769C11.6857 18.8956 12.7035 19.6738 13.8907 19.6738H15.4727ZM12.7508 11.0352C13.1586 10.8382 13.3633 10.7393 13.3633 10.1992C13.3633 9.90798 13.5994 9.67187 13.8906 9.67187C14.1819 9.67187 14.418 9.90798 14.418 10.1992C14.418 11.401 13.6615 11.7665 13.2096 11.9849C12.8359 12.1654 12.8359 12.1929 12.8359 12.3086C12.8359 12.5998 12.5998 12.8359 12.3086 12.8359C12.0174 12.8359 11.7812 12.5998 11.7812 12.3086C11.7812 11.5037 12.3647 11.2218 12.7508 11.0352ZM13.6089 15.9823C13.5427 16.2139 13.3316 16.3648 13.1021 16.3648C12.827 16.3648 11.9504 16.0184 11.3666 15.276C11.1866 15.047 11.2263 14.7155 11.4552 14.5355C11.6842 14.3554 12.0157 14.3951 12.1957 14.6241C12.4584 14.9581 12.8284 15.2106 13.2468 15.3303C13.5269 15.4104 13.689 15.7023 13.6089 15.9823Z" fill="white"/>
</svg>
