<svg width="49" height="40" viewBox="0 0 49 40" fill="none" xmlns="http://www.w3.org/2000/svg">
<path d="M48.4019 5.09697C47.0152 5.70364 45.1085 6.22364 42.6819 6.65697C43.7219 6.0503 44.6102 5.27031 45.3469 4.31697C46.0835 3.36364 46.6252 2.32364 46.9719 1.19697C45.1519 2.41031 43.0285 3.23364 40.6019 3.66697C39.4752 2.36697 38.0885 1.45697 36.4419 0.936974C34.7952 0.416973 33.1269 0.330307 31.4369 0.676971C29.7469 1.02364 28.2085 1.80364 26.8219 3.01697C25.8685 3.97031 25.1319 5.05364 24.6119 6.26697C24.0919 7.4803 23.8319 8.78031 23.8319 10.167C23.8319 11.1203 23.8752 11.857 23.9619 12.377C19.9752 12.2036 16.2269 11.2286 12.7169 9.45197C9.20687 7.6753 6.19521 5.18364 3.68187 1.97697C2.46854 4.40364 2.14354 6.87364 2.70687 9.38697C3.27021 11.9003 4.59188 13.8503 6.67188 15.237C5.11187 15.237 3.63854 14.847 2.25187 14.067V14.197C2.25187 16.537 2.98854 18.617 4.46187 20.437C5.93521 22.257 7.84187 23.427 10.1819 23.947C9.14187 24.207 8.23187 24.337 7.45187 24.337C6.67188 24.337 6.10854 24.2936 5.76187 24.207C6.36854 26.2003 7.49521 27.8253 9.14187 29.082C10.7885 30.3386 12.6952 31.0103 14.8619 31.097C13.1285 32.4836 11.2002 33.5453 9.07687 34.282C6.95354 35.0186 4.80854 35.387 2.64187 35.387C1.60187 35.387 0.778542 35.3003 0.171875 35.127C2.42521 36.6003 4.85187 37.727 7.45187 38.507C10.0519 39.287 12.6519 39.677 15.2519 39.677C20.2785 39.677 24.9152 38.4636 29.1619 36.037C33.4085 33.6103 36.8102 30.252 39.3669 25.962C41.9235 21.672 43.2452 17.0136 43.3319 11.987V10.427C44.9785 9.04031 46.6685 7.26364 48.4019 5.09697Z" fill="#212121"/>
</svg>
