<svg width="54" height="54" viewBox="0 0 54 54" fill="none" xmlns="http://www.w3.org/2000/svg">
<path d="M27 0L46.0919 7.90812L54 27L46.0919 46.0919L27 54L7.90812 46.0919L0 27L7.90812 7.90812L27 0Z" fill="#F35252"/>
<path d="M37.8347 14H16.1669C14.4203 14 13 15.4064 13 17.1386V36.8649C13 38.595 14.4203 40 16.1669 40H37.8346C39.5812 40 41 38.595 41 36.8649V17.1386C41.0001 15.4064 39.5813 14 37.8347 14ZM31.1063 18.6677C32.7953 18.6677 34.1651 20.0246 34.1651 21.6977C34.1651 23.3707 32.7952 24.7276 31.1063 24.7276C29.4168 24.7276 28.0475 23.3707 28.0475 21.6977C28.0475 20.0246 29.4168 18.6677 31.1063 18.6677ZM36.8416 37.1002H17.5964C16.7517 37.1002 16.3754 36.4948 16.7562 35.7478L22.0057 25.4483C22.3861 24.7014 23.111 24.6348 23.6243 25.2993L28.9029 32.1324C29.4162 32.797 30.3135 32.8536 30.9074 32.2581L32.1987 30.9628C32.7921 30.3674 33.6664 30.4411 34.1507 31.1264L37.4946 35.8578C37.9779 36.5441 37.6863 37.1002 36.8416 37.1002Z" fill="white"/>
</svg>
