<svg width="54" height="54" viewBox="0 0 54 54" fill="none" xmlns="http://www.w3.org/2000/svg">
<path d="M27 0L46.0919 7.90812L54 27L46.0919 46.0919L27 54L7.90812 46.0919L0 27L7.90812 7.90812L27 0Z" fill="#2F2F3C"/>
<path d="M38.3403 16.1133H15.6597V31.7849H38.3403V16.1133ZM25.9519 21.3967C25.8677 21.3063 25.8217 21.1864 25.8236 21.0624C25.8255 20.9384 25.8752 20.8201 25.9621 20.7323C26.0491 20.6446 26.1665 20.5944 26.2894 20.5924C26.4124 20.5904 26.5314 20.6367 26.6211 20.7216L27.1217 21.2263L27.6223 20.7216C27.7117 20.6346 27.8313 20.5864 27.9555 20.5875C28.0797 20.5886 28.1984 20.6388 28.2863 20.7274C28.3741 20.8159 28.4239 20.9357 28.425 21.0609C28.426 21.186 28.3783 21.3067 28.292 21.3967L27.7914 21.9019L28.292 22.4066C28.3373 22.4506 28.3733 22.5033 28.3982 22.5616C28.423 22.6198 28.4361 22.6825 28.4366 22.7459C28.4371 22.8093 28.4252 22.8722 28.4013 22.9309C28.3775 22.9895 28.3424 23.0428 28.2979 23.0877C28.2534 23.1325 28.2005 23.168 28.1423 23.192C28.0841 23.216 28.0218 23.2281 27.9589 23.2275C27.896 23.227 27.8338 23.2138 27.7761 23.1888C27.7183 23.1637 27.666 23.1274 27.6223 23.0818L27.1217 22.5771L26.6211 23.0818C26.5318 23.1687 26.4121 23.2169 26.288 23.2158C26.1638 23.2147 26.045 23.1645 25.9572 23.0759C25.8694 22.9874 25.8196 22.8677 25.8185 22.7425C25.8174 22.6173 25.8651 22.4967 25.9514 22.4066L26.452 21.9019L25.9519 21.3967ZM19.6722 20.001C19.627 19.957 19.5909 19.9043 19.566 19.846C19.5412 19.7878 19.5282 19.7251 19.5276 19.6617C19.5271 19.5983 19.5391 19.5355 19.5629 19.4768C19.5867 19.4181 19.6218 19.3648 19.6663 19.3199C19.7108 19.2751 19.7637 19.2397 19.8219 19.2157C19.8801 19.1916 19.9424 19.1796 20.0053 19.1801C20.0682 19.1807 20.1304 19.1938 20.1881 19.2189C20.2459 19.2439 20.2982 19.2803 20.3419 19.3259L20.843 19.831L21.3441 19.3259C21.3877 19.2803 21.44 19.2439 21.4978 19.2189C21.5556 19.1938 21.6177 19.1807 21.6806 19.1801C21.7435 19.1796 21.8059 19.1916 21.8641 19.2157C21.9223 19.2397 21.9752 19.2751 22.0196 19.3199C22.0641 19.3648 22.0993 19.4181 22.1231 19.4768C22.1469 19.5355 22.1589 19.5983 22.1583 19.6617C22.1578 19.7251 22.1447 19.7878 22.1199 19.846C22.0951 19.9043 22.059 19.957 22.0138 20.001L21.5127 20.5062L22.0138 21.0114C22.059 21.0554 22.0951 21.1081 22.1199 21.1664C22.1447 21.2246 22.1578 21.2873 22.1583 21.3507C22.1589 21.4141 22.1469 21.477 22.1231 21.5356C22.0993 21.5943 22.0641 21.6476 22.0196 21.6925C21.9752 21.7373 21.9223 21.7728 21.8641 21.7968C21.8059 21.8208 21.7435 21.8329 21.6806 21.8323C21.6177 21.8318 21.5556 21.8186 21.4978 21.7936C21.44 21.7685 21.3877 21.7322 21.3441 21.6865L20.843 21.1814L20.3419 21.6865C20.2526 21.7735 20.1329 21.8217 20.0087 21.8206C19.8846 21.8195 19.7658 21.7693 19.678 21.6807C19.5901 21.5922 19.5403 21.4724 19.5393 21.3472C19.5382 21.2221 19.5859 21.1014 19.6722 21.0114L20.1733 20.5062L19.6722 20.001ZM31.2417 29.6152C31.287 29.6592 31.323 29.7119 31.3479 29.7702C31.3727 29.8284 31.3857 29.8911 31.3863 29.9545C31.3868 30.0179 31.3749 30.0808 31.351 30.1394C31.3272 30.1981 31.2921 30.2514 31.2476 30.2963C31.2031 30.3411 31.1502 30.3766 31.092 30.4006C31.0338 30.4246 30.9715 30.4366 30.9086 30.4361C30.8457 30.4355 30.7835 30.4224 30.7258 30.3974C30.668 30.3723 30.6157 30.3359 30.572 30.2903L30.0709 29.7852L29.5698 30.2903C29.4805 30.3773 29.3609 30.4255 29.2367 30.4244C29.1125 30.4233 28.9937 30.3731 28.9059 30.2845C28.8181 30.196 28.7683 30.0762 28.7672 29.951C28.7661 29.8259 28.8139 29.7052 28.9002 29.6152L29.4012 29.11L28.9002 28.6053C28.8139 28.5152 28.7661 28.3946 28.7672 28.2694C28.7683 28.1442 28.8181 28.0245 28.9059 27.936C28.9937 27.8474 29.1125 27.7972 29.2367 27.7961C29.3609 27.795 29.4805 27.8432 29.5698 27.9301L30.0709 28.4348L30.572 27.9301C30.6613 27.8432 30.781 27.795 30.9052 27.7961C31.0293 27.7972 31.1481 27.8474 31.2359 27.936C31.3238 28.0245 31.3736 28.1442 31.3747 28.2694C31.3757 28.3946 31.328 28.5152 31.2417 28.6053L30.7416 29.11L31.2417 29.6152ZM17.8483 29.7393C17.7227 29.7442 17.6003 29.6986 17.508 29.6125C17.4158 29.5264 17.3613 29.4069 17.3564 29.2802C17.3516 29.1536 17.3969 29.0302 17.4823 28.9372C17.5677 28.8442 17.6862 28.7892 17.8118 28.7844C17.9416 28.7743 30.4333 27.7005 33.1731 20.9823H32.3206C32.2375 20.9823 32.1558 20.9602 32.0838 20.9183C32.0118 20.8764 31.952 20.8161 31.9105 20.7435C31.8689 20.6709 31.847 20.5886 31.847 20.5048C31.847 20.421 31.8689 20.3386 31.9105 20.266L33.5103 17.4727C33.5553 17.4046 33.6163 17.3487 33.6878 17.31C33.7594 17.2714 33.8393 17.2511 33.9205 17.2511C34.0017 17.2511 34.0816 17.2714 34.1532 17.31C34.2247 17.3487 34.2857 17.4046 34.3307 17.4727L35.9305 20.266C35.9721 20.3386 35.994 20.421 35.994 20.5048C35.994 20.5886 35.9721 20.6709 35.9305 20.7435C35.889 20.8161 35.8292 20.8764 35.7572 20.9183C35.6852 20.9602 35.6035 20.9823 35.5204 20.9823H34.181C31.5126 28.5681 18.4503 29.6944 17.8866 29.7393H17.8483ZM37.0156 26.0417C37.0608 26.0857 37.0969 26.1384 37.1217 26.1967C37.1466 26.2549 37.1596 26.3176 37.1602 26.381C37.1607 26.4444 37.1487 26.5073 37.1249 26.5659C37.1011 26.6246 37.0659 26.6779 37.0215 26.7228C36.977 26.7676 36.9241 26.8031 36.8659 26.8271C36.8077 26.8511 36.7453 26.8632 36.6825 26.8626C36.6196 26.8621 36.5574 26.8489 36.4996 26.8239C36.4418 26.7988 36.3896 26.7625 36.3459 26.7169L35.8458 26.2121L35.3451 26.7169C35.3015 26.7625 35.2492 26.7988 35.1914 26.8239C35.1336 26.8489 35.0715 26.8621 35.0086 26.8626C34.9457 26.8632 34.8833 26.8511 34.8251 26.8271C34.7669 26.8031 34.714 26.7676 34.6696 26.7228C34.6251 26.6779 34.5899 26.6246 34.5661 26.5659C34.5423 26.5073 34.5303 26.4444 34.5309 26.381C34.5314 26.3176 34.5445 26.2549 34.5693 26.1967C34.5941 26.1384 34.6302 26.0857 34.6754 26.0417L35.1765 25.537L34.6754 25.0318C34.6302 24.9878 34.5941 24.9351 34.5693 24.8768C34.5445 24.8186 34.5314 24.7559 34.5309 24.6925C34.5303 24.6291 34.5423 24.5662 34.5661 24.5076C34.5899 24.4489 34.6251 24.3956 34.6696 24.3507C34.714 24.3059 34.7669 24.2704 34.8251 24.2464C34.8833 24.2224 34.9457 24.2103 35.0086 24.2109C35.0715 24.2114 35.1336 24.2246 35.1914 24.2496C35.2492 24.2747 35.3015 24.311 35.3451 24.3566L35.8458 24.8613L36.3468 24.3566C36.4362 24.2697 36.5558 24.2215 36.68 24.2226C36.8042 24.2237 36.923 24.2739 37.0108 24.3625C37.0986 24.451 37.1484 24.5707 37.1495 24.6959C37.1505 24.8211 37.1028 24.9418 37.0165 25.0318L36.5155 25.537L37.0156 26.0417ZM33.0429 32.7398H34.2066V37.8886H33.0429V32.7398ZM31.4638 38.8435V40H35.7856V38.8435H31.4638Z" fill="#919191"/>
<path d="M33.1414 20.0302H34.7006L33.921 18.6693L33.1414 20.0302ZM19.7934 32.7398H20.9571V37.8886H19.7934V32.7398ZM13.5 15.1565H40.5V14H13.5V15.1565ZM18.2144 38.8435V40H22.5362V38.8435H18.2144Z" fill="#919191"/>
</svg>
