<svg width="27" height="29" viewBox="0 0 27 29" fill="none" xmlns="http://www.w3.org/2000/svg">
<path d="M23.1378 4.44693L22.6947 0.527098L17.4902 4.79743L16.223 10.123L21.7965 9.82419L27 5.55474L23.1378 4.44693ZM9.26386 12.6321C8.20341 13.5037 8.06454 15.0595 8.95471 16.0992C9.84426 17.1397 11.4328 17.2752 12.4932 16.4027C13.3278 15.7162 13.5818 14.609 13.2222 13.6605L11.4164 15.1451L10.3407 13.8891L12.1429 12.4071C11.1626 11.8453 10.0442 11.9912 9.26386 12.6321Z" fill="white"/>
<path d="M15.4777 11.8062L14.5583 12.562C15.4875 14.2396 15.1182 16.3861 13.5691 17.6589V17.6597C11.7936 19.1196 9.14899 18.8782 7.67212 17.1534C6.18805 15.4207 6.41962 12.8284 8.18795 11.3753C9.73414 10.1002 11.9573 10.1167 13.4826 11.3057L14.4026 10.5492L14.5278 10.0242C12.4295 8.384 9.31688 8.30601 7.11114 10.1184C4.63376 12.1561 4.31178 15.7798 6.38931 18.2085C8.46199 20.6278 12.1583 20.9589 14.6459 18.9158C16.8543 17.0994 17.3084 14.0811 16.028 11.7768L15.4777 11.8062Z" fill="white"/>
<path d="M2.54172 21.3721C6.38557 25.8617 13.2641 26.4772 17.8746 22.6858C21.2665 19.8972 22.477 15.4709 21.2749 11.4956L17.7994 11.6817C19.1428 14.8271 18.1555 18.1724 15.7219 20.1719C12.5264 22.8012 7.76935 22.3733 5.10734 19.2627C2.435 16.1443 2.84774 11.4813 6.03523 8.86224C8.46813 6.85958 11.9946 6.48399 14.9305 8.33144L15.7208 5.01C11.9337 3.15855 7.27401 3.55782 3.88252 6.34836C-0.7147 10.128 -1.31547 16.8676 2.54172 21.3721ZM13.3901 0.51709H8.36694V2.48436C9.17037 2.32626 9.9901 2.23636 10.8188 2.23636C11.6824 2.23636 12.5438 2.33928 13.3901 2.51209V0.51709ZM3.34375 28.5171H8.36694V26.5593C6.54168 26.1956 4.82783 25.4458 3.34375 24.3542V28.5171ZM18.4133 24.3463C16.927 25.4397 15.2112 26.1956 13.3901 26.5595V28.5171H18.4133V24.3463Z" fill="white"/>
</svg>
