<svg width="20" height="20" viewBox="0 0 20 20" fill="none" xmlns="http://www.w3.org/2000/svg">
<path d="M15.7792 3.98539L14.4702 18.2545H5.30649L4.06285 3.98539L2.42648 4.18175L3.73558 18.6473C3.73558 18.9527 3.86649 19.2254 4.12831 19.4654C4.39012 19.7054 4.69558 19.8254 5.04467 19.8254H14.732C15.0811 19.8254 15.3865 19.7163 15.6483 19.4982C15.9102 19.28 16.0629 18.9963 16.1065 18.6473L17.3502 4.18175L15.7792 3.98539ZM12.8338 0.189014H7.00831C6.61559 0.189014 6.28831 0.319923 6.02649 0.581743C5.76467 0.843561 5.63376 1.17084 5.63376 1.56356V4.05084H7.27013V1.75993H12.572V4.05084H14.1429V1.56356C14.1429 1.17084 14.012 0.843561 13.7502 0.581743C13.4883 0.319923 13.1829 0.189014 12.8338 0.189014ZM18.3974 3.19993H1.37921C1.16102 3.19993 0.975569 3.2872 0.822842 3.46175C0.670114 3.6363 0.59375 3.84357 0.59375 4.08357C0.59375 4.32357 0.670114 4.50903 0.822842 4.63994C0.975569 4.77085 1.16102 4.8363 1.37921 4.8363H18.3974C18.6156 4.8363 18.7902 4.75994 18.9211 4.60721C19.052 4.45448 19.1174 4.26903 19.1174 4.05084C19.1174 3.83266 19.052 3.65812 18.9211 3.52721C18.7902 3.3963 18.6156 3.33084 18.3974 3.33084V3.19993Z" fill="white"/>
</svg>
