<svg width="29" height="27" viewBox="0 0 29 27" fill="none" xmlns="http://www.w3.org/2000/svg">
<path d="M5.38218 14.4491L13.2522 19.3478L13.5145 19.5227C13.806 19.756 14.1412 19.8726 14.5202 19.8726C14.8991 19.8726 15.2634 19.756 15.6132 19.5227L27.6806 11.9998C28.147 11.4166 28.3802 10.7459 28.3802 9.9878C28.3802 9.40462 28.249 8.86518 27.9867 8.36948C27.7243 7.87379 27.36 7.48014 26.8936 7.18855L16.5751 0.802782C15.9338 0.394558 15.2489 0.190447 14.5202 0.190447C13.7914 0.190447 13.1356 0.394558 12.5526 0.802782L2.23416 7.18855C1.76779 7.48014 1.38886 7.87379 1.09738 8.36948C0.805898 8.86518 0.660156 9.40462 0.660156 9.9878C0.660156 10.7459 0.922491 11.4166 1.44716 11.9998L3.10861 13.0495L5.38218 14.4491ZM15.176 14.9739C14.7679 15.2072 14.3598 15.2072 13.9518 14.9739L7.5683 10.95C7.16022 10.7168 6.97076 10.3814 6.9999 9.94406C7.02905 9.50668 7.21852 9.17135 7.5683 8.93808C7.91807 8.70481 8.297 8.70481 8.70508 8.93808L14.5639 12.5246L20.3352 8.93808C20.7433 8.70481 21.1368 8.70481 21.5157 8.93808C21.8947 9.17135 22.0987 9.50668 22.1279 9.94406C22.157 10.3814 21.9675 10.7168 21.5595 10.95L18.2366 13.0495L15.176 14.9739ZM5.20729 20.9223L13.5145 26.1709C13.806 26.3459 14.1412 26.4333 14.5202 26.4333C14.8991 26.4333 15.2634 26.3459 15.6132 26.1709L27.0685 18.9104C27.4766 18.6188 27.7972 18.2543 28.0304 17.8169C28.2636 17.3795 28.3802 16.8693 28.3802 16.2861C28.3802 15.7029 28.2053 15.1489 27.8555 14.624L16.8374 21.6222C16.1379 22.0304 15.38 22.2345 14.5639 22.2345C13.7477 22.2345 12.9607 22.0304 12.2029 21.6222L1.18483 14.624C0.835046 15.1489 0.660156 15.7029 0.660156 16.2861C0.660156 16.8693 0.776749 17.3795 1.00994 17.8169C1.24312 18.2543 1.56375 18.6188 1.97183 18.9104L3.02117 19.5227L5.20729 20.9223Z" fill="white"/>
</svg>
