<svg width="54" height="54" viewBox="0 0 54 54" fill="none" xmlns="http://www.w3.org/2000/svg">
<path d="M27 0L46.0919 7.90812L54 27L46.0919 46.0919L27 54L7.90812 46.0919L0 27L7.90812 7.90812L27 0Z" fill="#2F2F3C"/>
<path d="M39.3023 21.0909H32.9045V14.6973L39.3023 21.0909ZM40 23.4545V34.0909C40 34.8669 39.8471 35.6353 39.5499 36.3522C39.2528 37.0691 38.8172 37.7206 38.2682 38.2693C37.7191 38.818 37.0673 39.2532 36.3499 39.5502C35.6325 39.8472 34.8636 40 34.0871 40H23.4439C21.3644 39.9963 19.344 39.308 17.6952 38.0416C16.0465 36.7751 14.8612 35.001 14.3227 32.9937C13.7842 30.9864 13.9225 28.8578 14.7162 26.9369C15.5099 25.016 16.9148 23.41 18.7136 22.3673V19.9091C18.7136 18.3419 19.3365 16.8389 20.4454 15.7307C21.5543 14.6226 23.0583 14 24.6265 14H30.5394V21.0909C30.5394 21.7178 30.7886 22.319 31.2321 22.7623C31.6757 23.2055 32.2772 23.4545 32.9045 23.4545H40ZM23.4439 37.6364C24.8472 37.6364 26.2191 37.2205 27.3859 36.4413C28.5528 35.6622 29.4622 34.5547 29.9993 33.259C30.5363 31.9633 30.6768 30.5376 30.403 29.1621C30.1293 27.7866 29.4535 26.5231 28.4612 25.5314C27.4688 24.5397 26.2045 23.8644 24.8282 23.5908C23.4518 23.3172 22.0251 23.4576 20.7286 23.9943C19.432 24.531 18.3239 25.4399 17.5442 26.606C16.7646 27.7721 16.3484 29.143 16.3484 30.5455C16.3484 32.4261 17.096 34.2297 18.4266 35.5595C19.7573 36.8893 21.5621 37.6364 23.4439 37.6364ZM25.2178 27.5909C25.2178 27.2403 25.1137 26.8976 24.9188 26.606C24.7239 26.3145 24.4469 26.0873 24.1227 25.9531C23.7986 25.8189 23.4419 25.7838 23.0978 25.8522C22.7537 25.9206 22.4377 26.0895 22.1896 26.3374C21.9415 26.5853 21.7726 26.9012 21.7041 27.2451C21.6357 27.5889 21.6708 27.9454 21.8051 28.2693C21.9393 28.5932 22.1667 28.8701 22.4584 29.0649C22.7501 29.2597 23.0931 29.3636 23.4439 29.3636C23.9144 29.3636 24.3655 29.1769 24.6982 28.8444C25.0309 28.512 25.2178 28.0611 25.2178 27.5909ZM24.6265 34.0909V31.7273C24.6265 31.4138 24.5019 31.1132 24.2801 30.8916C24.0583 30.67 23.7575 30.5455 23.4439 30.5455C23.1303 30.5455 22.8295 30.67 22.6077 30.8916C22.3859 31.1132 22.2613 31.4138 22.2613 31.7273V34.0909C22.2613 34.4043 22.3859 34.7049 22.6077 34.9266C22.8295 35.1482 23.1303 35.2727 23.4439 35.2727C23.7575 35.2727 24.0583 35.1482 24.2801 34.9266C24.5019 34.7049 24.6265 34.4043 24.6265 34.0909Z" fill="#919191"/>
</svg>
