<svg width="18" height="19" viewBox="0 0 18 19" fill="none" xmlns="http://www.w3.org/2000/svg">
<path d="M6.48837 8.1405C5.21581 8.1405 4.18605 7.11073 4.18605 5.83817C4.18605 4.56562 5.21581 3.53585 6.48837 3.53585C7.76093 3.53585 8.7907 4.56562 8.7907 5.83817C8.7907 7.11073 7.76093 8.1405 6.48837 8.1405ZM6.48837 4.79166C6.21082 4.79166 5.94464 4.90192 5.74838 5.09818C5.55212 5.29444 5.44186 5.56062 5.44186 5.83817C5.44186 6.11573 5.55212 6.38191 5.74838 6.57817C5.94464 6.77443 6.21082 6.88469 6.48837 6.88469C6.76592 6.88469 7.03211 6.77443 7.22837 6.57817C7.42463 6.38191 7.53488 6.11573 7.53488 5.83817C7.53488 5.56062 7.42463 5.29444 7.22837 5.09818C7.03211 4.90192 6.76592 4.79166 6.48837 4.79166Z" fill="white"/>
<path d="M11.5116 18.187H6.48837C1.94233 18.187 0 16.2447 0 11.6986V6.67538C0 2.12934 1.94233 0.187012 6.48837 0.187012H9.83721C10.1805 0.187012 10.4651 0.471663 10.4651 0.814919C10.4651 1.15817 10.1805 1.44283 9.83721 1.44283H6.48837C2.62884 1.44283 1.25581 2.81585 1.25581 6.67538V11.6986C1.25581 15.5582 2.62884 16.9312 6.48837 16.9312H11.5116C15.3712 16.9312 16.7442 15.5582 16.7442 11.6986V7.51259C16.7442 7.16934 17.0288 6.88469 17.3721 6.88469C17.7153 6.88469 18 7.16934 18 7.51259V11.6986C18 16.2447 16.0577 18.187 11.5116 18.187Z" fill="white"/>
<path d="M14.0233 6.46608C13.68 6.46608 13.3953 6.18143 13.3953 5.83817V0.814919C13.3953 0.563756 13.546 0.329337 13.7805 0.237244C14.0149 0.145151 14.2828 0.195384 14.467 0.371198L16.1414 2.04562C16.3842 2.28841 16.3842 2.69027 16.1414 2.93306C15.8986 3.17585 15.4967 3.17585 15.254 2.93306L14.6512 2.33027V5.83817C14.6512 6.18143 14.3665 6.46608 14.0233 6.46608Z" fill="white"/>
<path d="M12.3488 3.11724C12.1898 3.11724 12.0307 3.05864 11.9051 2.93306C11.7883 2.8149 11.7229 2.65547 11.7229 2.48934C11.7229 2.32321 11.7883 2.16378 11.9051 2.04562L13.5795 0.371198C13.8223 0.128407 14.2242 0.128407 14.467 0.371198C14.7098 0.613988 14.7098 1.01585 14.467 1.25864L12.7926 2.93306C12.667 3.05864 12.5079 3.11724 12.3488 3.11724ZM1.18884 15.6335C1.05502 15.6326 0.924986 15.589 0.817658 15.5091C0.710331 15.4291 0.631307 15.317 0.592083 15.1891C0.552859 15.0611 0.555481 14.924 0.599567 14.7977C0.643654 14.6713 0.726905 14.5623 0.837209 14.4865L4.96465 11.7154C5.86884 11.1126 7.11628 11.1796 7.93674 11.8745L8.21302 12.1172C8.63163 12.4772 9.34326 12.4772 9.75349 12.1172L13.2363 9.12841C14.1237 8.36655 15.5219 8.36655 16.4177 9.12841L17.7823 10.3005C18.0419 10.5265 18.0753 10.92 17.8493 11.1879C17.6233 11.4475 17.2214 11.481 16.9619 11.2549L15.5972 10.0828C15.1786 9.72283 14.4753 9.72283 14.0567 10.0828L10.574 13.0717C9.68651 13.8335 8.28837 13.8335 7.39256 13.0717L7.11628 12.8289C6.73116 12.5024 6.09488 12.4689 5.66791 12.7619L1.54884 15.5331C1.43163 15.6 1.30605 15.6335 1.18884 15.6335Z" fill="white"/>
</svg>
