<svg width="79" height="79" viewBox="0 0 79 79" fill="none" xmlns="http://www.w3.org/2000/svg">
<path d="M39.5 0L67.4307 11.5693L79 39.5L67.4307 67.4307L39.5 79L11.5693 67.4307L0 39.5L11.5693 11.5693L39.5 0Z" fill="#F35252"/>
<path d="M49.4167 22.5H29.5833C27.7054 22.5022 25.905 23.2492 24.5771 24.5771C23.2492 25.905 22.5022 27.7054 22.5 29.5833L22.5 49.4167C22.5022 51.2946 23.2492 53.095 24.5771 54.4229C25.905 55.7508 27.7054 56.4977 29.5833 56.5H49.4167C51.2946 56.4977 53.095 55.7508 54.4229 54.4229C55.7508 53.095 56.4977 51.2946 56.5 49.4167V29.5833C56.4977 27.7054 55.7508 25.905 54.4229 24.5771C53.095 23.2492 51.2946 22.5022 49.4167 22.5ZM46.5833 36.6667C46.2076 36.6667 45.8473 36.5174 45.5816 36.2517C45.3159 35.9861 45.1667 35.6257 45.1667 35.25C45.1667 34.8743 45.0174 34.5139 44.7517 34.2483C44.4861 33.9826 44.1257 33.8333 43.75 33.8333H40.9167V45.1667H42.3333C42.7091 45.1667 43.0694 45.3159 43.3351 45.5816C43.6007 45.8473 43.75 46.2076 43.75 46.5833C43.75 46.9591 43.6007 47.3194 43.3351 47.5851C43.0694 47.8507 42.7091 48 42.3333 48H36.6667C36.2909 48 35.9306 47.8507 35.6649 47.5851C35.3993 47.3194 35.25 46.9591 35.25 46.5833C35.25 46.2076 35.3993 45.8473 35.6649 45.5816C35.9306 45.3159 36.2909 45.1667 36.6667 45.1667H38.0833V33.8333H35.25C34.8743 33.8333 34.5139 33.9826 34.2483 34.2483C33.9826 34.5139 33.8333 34.8743 33.8333 35.25C33.8333 35.6257 33.6841 35.9861 33.4184 36.2517C33.1527 36.5174 32.7924 36.6667 32.4167 36.6667C32.0409 36.6667 31.6806 36.5174 31.4149 36.2517C31.1493 35.9861 31 35.6257 31 35.25C31 34.1228 31.4478 33.0418 32.2448 32.2448C33.0418 31.4478 34.1228 31 35.25 31H43.75C44.8772 31 45.9582 31.4478 46.7552 32.2448C47.5522 33.0418 48 34.1228 48 35.25C48 35.6257 47.8507 35.9861 47.5851 36.2517C47.3194 36.5174 46.9591 36.6667 46.5833 36.6667Z" fill="white"/>
</svg>
