<svg width="32" height="32" viewBox="0 0 32 32" fill="none" xmlns="http://www.w3.org/2000/svg">
<rect x="0.5" y="0.5" width="31" height="31" rx="6.45833" fill="#F35252"/>
<path fill-rule="evenodd" clip-rule="evenodd" d="M20.3966 7C20.5295 7.00002 20.6585 7.04626 20.7623 7.13113C20.8662 7.216 20.9388 7.33446 20.9682 7.4671L21.2927 8.9269C21.3662 9.25775 21.5296 9.56059 21.764 9.80051C21.9984 10.0404 22.2943 10.2077 22.6175 10.2829L24.044 10.615C24.1736 10.6452 24.2892 10.7195 24.372 10.8258C24.4549 10.9321 24.5 11.064 24.5 11.2C24.5 11.336 24.4549 11.4679 24.372 11.5742C24.2892 11.6805 24.1736 11.7548 24.044 11.785L22.6175 12.1171C22.2943 12.1923 21.9984 12.3596 21.764 12.5995C21.5296 12.8394 21.3662 13.1423 21.2927 13.4731L20.9682 14.9329C20.9387 15.0655 20.8661 15.1838 20.7622 15.2686C20.6584 15.3534 20.5295 15.3996 20.3966 15.3996C20.2638 15.3996 20.1349 15.3534 20.0311 15.2686C19.9272 15.1838 19.8546 15.0655 19.8251 14.9329L19.5006 13.4731C19.4271 13.1423 19.2637 12.8394 19.0293 12.5995C18.7949 12.3596 18.499 12.1923 18.1758 12.1171L16.7492 11.785C16.6197 11.7548 16.5041 11.6805 16.4212 11.5742C16.3384 11.4679 16.2933 11.336 16.2933 11.2C16.2933 11.064 16.3384 10.9321 16.4212 10.8258C16.5041 10.7195 16.6197 10.6452 16.7492 10.615L18.1758 10.2829C18.499 10.2077 18.7949 10.0404 19.0293 9.80051C19.2637 9.56059 19.4271 9.25775 19.5006 8.9269L19.8251 7.4671C19.8545 7.33446 19.9271 7.216 20.031 7.13113C20.1348 7.04626 20.2638 7.00002 20.3966 7ZM16.9345 13.3C16.5069 13.3 16.0969 13.4738 15.7946 13.7833C15.4922 14.0927 15.3224 14.5124 15.3224 14.95C15.3224 15.3876 15.4922 15.8073 15.7946 16.1167C16.0969 16.4262 16.5069 16.6 16.9345 16.6C17.362 16.6 17.7721 16.4262 18.0744 16.1167C18.3767 15.8073 18.5466 15.3876 18.5466 14.95C18.5466 14.5124 18.3767 14.0927 18.0744 13.7833C17.7721 13.4738 17.362 13.3 16.9345 13.3Z" fill="white"/>
<path fill-rule="evenodd" clip-rule="evenodd" d="M9.84484 10.6H15.5361C15.4569 10.7848 15.4138 10.9882 15.4138 11.2C15.4138 11.4118 15.4572 11.6152 15.5361 11.8H9.84484C9.5339 11.8 9.23569 11.9264 9.01582 12.1515C8.79594 12.3765 8.67242 12.6817 8.67242 13V18.1066C11.2526 17.4385 13.8551 18.1498 15.741 19.798C16.9867 18.982 18.4557 18.7792 19.8104 19.1215V16.1749C19.991 16.2559 20.1897 16.3 20.3966 16.3C20.6036 16.3 20.8023 16.2556 20.9829 16.1749V22.6C20.9829 23.2365 20.7358 23.847 20.2961 24.2971C19.8563 24.7471 19.2599 25 18.638 25H9.84484C9.22295 25 8.62653 24.7471 8.18679 24.2971C7.74705 23.847 7.5 23.2365 7.5 22.6V13C7.5 12.3635 7.74705 11.753 8.18679 11.3029C8.62653 10.8529 9.22295 10.6 9.84484 10.6Z" fill="white"/>
</svg>
