<svg width="21" height="21" viewBox="0 0 21 21" fill="none" xmlns="http://www.w3.org/2000/svg">
<path d="M16.2761 4.42816C16.1015 3.33681 15.5995 2.43098 14.77 1.71069C13.9406 0.990398 12.9584 0.630253 11.8234 0.630253H4.8824C4.09663 0.630253 3.36542 0.83761 2.68879 1.25232C2.01215 1.66704 1.46647 2.21271 1.05176 2.88935C0.637044 3.56599 0.429688 4.29719 0.429688 5.08297V12.024C0.429688 13.159 0.789834 14.1412 1.51013 14.9706C2.23042 15.8 3.13624 16.3021 4.22759 16.4767C4.40221 17.568 4.90423 18.4739 5.73366 19.1941C6.56308 19.9144 7.5453 20.2746 8.68031 20.2746H15.6213C16.4507 20.2746 17.2038 20.0781 17.8804 19.6853C18.557 19.2924 19.0918 18.7467 19.4847 18.0482C19.8776 17.3498 20.074 16.6076 20.074 15.8219V8.88087C20.074 7.74587 19.7139 6.76365 18.9936 5.93422C18.2733 5.10479 17.3675 4.60277 16.2761 4.42816ZM4.8824 2.13632H11.8234C12.6528 2.13632 13.3513 2.42007 13.9188 2.98757C14.4863 3.55507 14.77 4.25354 14.77 5.08297V12.024C14.77 12.8534 14.4863 13.5519 13.9188 14.1194C13.3513 14.6869 12.6528 14.9706 11.8234 14.9706H4.8824C4.05297 14.9706 3.35451 14.6869 2.78701 14.1194C2.2195 13.5519 1.93575 12.8534 1.93575 12.024V5.08297C1.93575 4.25354 2.2195 3.55507 2.78701 2.98757C3.35451 2.42007 4.05297 2.13632 4.8824 2.13632ZM11.9544 16.5422C12.7401 16.5422 13.4713 16.3457 14.148 15.9528C14.8246 15.5599 15.3594 15.0252 15.7523 14.3485C16.1452 13.6719 16.3416 12.9407 16.3416 12.1549V5.9997C16.9964 6.17432 17.5312 6.52355 17.9459 7.0474C18.3606 7.57125 18.568 8.18241 18.568 8.88087V15.8219C18.568 16.6513 18.2842 17.3498 17.7167 17.9173C17.1492 18.4848 16.4507 18.7685 15.6213 18.7685H8.68031C7.98184 18.7685 7.37068 18.5612 6.84684 18.1464C6.32299 17.7317 5.97375 17.197 5.79914 16.5422H11.9544Z" fill="white"/>
</svg>
