<svg width="21" height="13" viewBox="0 0 21 13" fill="none" xmlns="http://www.w3.org/2000/svg">
<path d="M0.80893 0.93766H5.6175V12.1959H0.80893V0.93766Z" fill="white"/>
<path d="M5.6175 12.1962H20.0508L20.0508 0.93766H5.6175V12.1962ZM13.7569 4.03942L14.2976 4.65132L15.0422 4.32489L14.6313 5.02962L15.173 5.64085L14.3776 5.46475L13.9671 6.17081L13.8857 5.35704L13.0926 5.18292L13.8386 4.85418L13.7569 4.03942ZM11.5121 3.34955C11.4554 3.3935 11.3984 3.43645 11.344 3.48502C10.0719 4.62158 9.9572 6.57984 11.086 7.85517C12.2175 9.13314 14.1648 9.2501 15.4369 8.11387C15.4897 8.06662 15.5378 8.01607 15.5862 7.96618C15.0574 9.13248 13.8906 9.94427 12.5308 9.94427C10.6742 9.94427 9.16972 8.43303 9.16972 6.56663C9.16972 5.0587 10.1539 3.7827 11.5121 3.34955Z" fill="#2E6934"/>
<path d="M12.5308 9.94361C13.8906 9.94361 15.0574 9.13182 15.5862 7.96552C15.5378 8.01541 15.4897 8.06596 15.4369 8.11321C14.1648 9.24944 12.2175 9.13248 11.086 7.85451C9.9572 6.57918 10.0719 4.62092 11.344 3.48436C11.3984 3.43612 11.4554 3.39284 11.5121 3.34889C10.8319 3.56663 10.2384 3.99558 9.81738 4.57375C9.39633 5.15193 9.16952 5.84938 9.16972 6.5653C9.16972 8.43237 10.6742 9.94361 12.5308 9.94361Z" fill="white"/>
<path d="M13.885 5.35671L13.9664 6.17081L14.377 5.46475L15.1727 5.64085L14.631 5.02962L15.0419 4.32455L14.2972 4.65132L13.7569 4.03942L13.8379 4.85418L13.092 5.18292L13.885 5.35671Z" fill="white"/>
</svg>
