<svg width="79" height="79" viewBox="0 0 79 79" fill="none" xmlns="http://www.w3.org/2000/svg">
<path d="M39.5 0L67.4307 11.5693L79 39.5L67.4307 67.4307L39.5 79L11.5693 67.4307L0 39.5L11.5693 11.5693L39.5 0Z" fill="#F35252"/>
<path d="M43.0201 28.8323H32.5314C32.0526 28.8323 31.5935 28.643 31.255 28.306C30.9165 27.969 30.7263 27.5119 30.7263 27.0352V24.2971C30.7263 23.3051 31.5349 22.5 32.5314 22.5H43.0201C44.0166 22.5 44.8252 23.3051 44.8252 24.2971V27.0352C44.8252 27.2712 44.7785 27.5049 44.6878 27.723C44.5971 27.941 44.4641 28.1391 44.2965 28.306C44.1289 28.4729 43.9299 28.6052 43.7109 28.6955C43.4919 28.7859 43.2572 28.8323 43.0201 28.8323ZM55.1493 41.9159C54.0273 40.7988 52.1978 40.7988 51.0758 41.9159L49.7439 43.2492L53.8199 47.306L55.1493 45.9825C56.2836 44.8544 56.2836 43.0452 55.1493 41.9159ZM48.4536 44.5387L41.3432 51.6057C41.1968 51.7635 41.0992 51.9578 41.0626 52.1642L40.526 55.3092C40.404 56.0013 41.0139 56.5963 41.709 56.487L44.8679 55.9527C45.0752 55.9163 45.2704 55.8191 45.4167 55.6734L52.5271 48.5943L48.4536 44.5387Z" fill="white"/>
<path d="M48.1731 25.6692H46.6546V27.0352C46.6533 27.9945 46.27 28.9142 45.5887 29.5925C44.9074 30.2708 43.9837 30.6524 43.0201 30.6537H32.5314C31.5677 30.6528 30.6439 30.2712 29.9625 29.5928C29.2811 28.9144 28.8979 27.9946 28.8969 27.0352V25.6692H27.3541C24.9514 25.6692 23 27.612 23 30.0041V52.1642C23 54.5563 24.9514 56.4991 27.3541 56.4991H38.8881C38.6959 56.0225 38.639 55.5025 38.7234 54.9959L39.2588 51.8595C39.3539 51.3033 39.6101 50.7897 39.9955 50.3708L47.7584 42.653L49.7769 40.6325C50.518 39.8981 51.486 39.4335 52.5247 39.3138V30.0162C52.5281 29.4457 52.4179 28.8801 52.2006 28.3521C51.9833 27.8241 51.6631 27.3442 51.2586 26.9401C50.854 26.5359 50.373 26.2156 49.8435 25.9974C49.3139 25.7793 48.7462 25.6678 48.1731 25.6692ZM35.8768 43.6802H30.5848C30.2937 43.6802 30.0145 43.5651 29.8087 43.3602C29.6028 43.1552 29.4872 42.8772 29.4872 42.5874C29.4872 42.2976 29.6028 42.0196 29.8087 41.8147C30.0145 41.6097 30.2937 41.4946 30.5848 41.4946H35.8768C36.1679 41.4946 36.4471 41.6097 36.653 41.8147C36.8588 42.0196 36.9745 42.2976 36.9745 42.5874C36.9745 42.8772 36.8588 43.1552 36.653 43.3602C36.4471 43.5651 36.1679 43.6802 35.8768 43.6802ZM42.3554 37.4778H30.5861C30.2949 37.4778 30.0158 37.3627 29.8099 37.1577C29.6041 36.9528 29.4884 36.6748 29.4884 36.385C29.4884 36.0952 29.6041 35.8172 29.8099 35.6123C30.0158 35.4073 30.2949 35.2922 30.5861 35.2922H42.3554C42.6466 35.2922 42.9258 35.4073 43.1316 35.6123C43.3375 35.8172 43.4531 36.0952 43.4531 36.385C43.4531 36.6748 43.3375 36.9528 43.1316 37.1577C42.9258 37.3627 42.6466 37.4778 42.3554 37.4778Z" fill="white"/>
</svg>
