<svg width="84" height="55" viewBox="0 0 84 55" fill="none" xmlns="http://www.w3.org/2000/svg">
<g id="Icon">
<path id="Vector" d="M81.3057 8.38694C81.3057 6.82694 80.7957 5.47694 79.7756 4.33694C78.7554 3.19694 77.4653 2.62694 75.9051 2.62694H8.03681C6.47662 2.62694 5.15646 3.19694 4.07633 4.33694C2.9962 5.47694 2.51614 6.82694 2.63616 8.38694V46.9069C2.51614 48.4669 2.9962 49.8169 4.07633 50.9569C5.15646 52.0969 6.47662 52.6669 8.03681 52.6669H75.9051C77.3453 52.6669 78.6054 52.0969 79.6855 50.9569C80.7657 49.8169 81.3057 48.4669 81.3057 46.9069V8.38694ZM83.106 8.38694V46.9069C83.106 48.9469 82.4159 50.7469 81.0357 52.3069C79.6555 53.8669 77.9453 54.6469 75.9051 54.6469H8.03681C5.99657 54.6469 4.28636 53.8669 2.90619 52.3069C1.52602 50.7469 0.835938 48.9469 0.835938 46.9069V8.38694C0.835938 6.34694 1.52602 4.54694 2.90619 2.98694C4.28636 1.42694 5.99657 0.646938 8.03681 0.646938H75.9051C77.9453 0.646938 79.6555 1.42694 81.0357 2.98694C82.4159 4.54694 83.106 6.34694 83.106 8.38694ZM16.8579 49.4269H68.8842C69.9644 49.4269 70.8945 49.7869 71.6746 50.5069C72.4547 51.2269 72.8447 52.1869 72.8447 53.3869H12.8974C12.8974 52.1869 13.2875 51.2269 14.0675 50.5069C14.8476 49.7869 15.7778 49.4269 16.8579 49.4269ZM72.4847 26.2069H46.7415C46.2615 26.2069 46.0214 25.9669 46.0214 25.4869C46.0214 25.0069 46.2615 24.7669 46.7415 24.7669H72.4847C72.9647 24.7669 73.2048 25.0069 73.2048 25.4869C73.2048 25.7269 73.1147 25.9069 72.9347 26.0269C72.7547 26.1469 72.6047 26.2069 72.4847 26.2069ZM72.4847 21.3469H46.7415C46.2615 21.3469 46.0214 21.1069 46.0214 20.6269C46.0214 20.0269 46.2615 19.7269 46.7415 19.7269H72.4847C72.9647 19.7269 73.2048 20.0269 73.2048 20.6269C73.2048 20.7469 73.1147 20.8969 72.9347 21.0769C72.7547 21.2569 72.6047 21.3469 72.4847 21.3469ZM63.3035 31.2469H46.7415C46.2615 31.2469 46.0214 31.0069 46.0214 30.5269C46.0214 29.9269 46.2615 29.6269 46.7415 29.6269H63.3035C63.9036 29.6269 64.2037 29.8969 64.2037 30.4369C64.2037 30.9769 63.9036 31.2469 63.3035 31.2469ZM37.0203 11.4469H15.9578C14.9977 11.4469 14.1876 11.7769 13.5275 12.4369C12.8674 13.0969 12.5374 13.9669 12.5374 15.0469V35.9269C12.5374 36.8869 12.8674 37.7269 13.5275 38.4469C14.1876 39.1669 14.9977 39.5269 15.9578 39.5269H37.0203C37.9805 39.5269 38.7906 39.1669 39.4506 38.4469C40.1107 37.7269 40.4408 36.8869 40.4408 35.9269V15.0469C40.4408 13.9669 40.1107 13.0969 39.4506 12.4369C38.7906 11.7769 37.9805 11.4469 37.0203 11.4469ZM39.0006 35.9269C39.0006 36.5269 38.8206 37.0069 38.4605 37.3669C38.1005 37.7269 37.6204 37.9069 37.0203 37.9069H15.9578C15.4777 37.9069 15.0577 37.7269 14.6976 37.3669C14.3376 37.0069 14.1576 36.5269 14.1576 35.9269V33.0469L19.5582 28.1869C19.7982 28.0669 20.0383 28.0669 20.2783 28.1869L23.6987 31.0669C24.0588 31.3069 24.4788 31.3069 24.9589 31.0669L33.0599 22.9669C33.2999 22.6069 33.5399 22.6069 33.7799 22.9669L39.0006 29.4469V35.9269ZM39.0006 26.7469L34.8601 21.8869C34.5 21.4069 34.02 21.1369 33.4199 21.0769C32.8198 21.0169 32.2798 21.1669 31.7997 21.5269L24.0588 29.2669L21.1784 26.9269C20.8184 26.5669 20.3683 26.3869 19.8283 26.3869C19.2882 26.3869 18.8381 26.5669 18.4781 26.9269L13.9775 30.5269V15.0469C13.9775 14.4469 14.1876 13.9669 14.6076 13.6069C15.0277 13.2469 15.4777 13.0669 15.9578 13.0669H36.8403C37.4404 13.0669 37.9205 13.2469 38.2805 13.6069C38.6405 13.9669 38.8206 14.4469 38.8206 15.0469V26.7469H39.0006ZM21.3584 14.8669C20.2783 14.8669 19.3482 15.2569 18.5681 16.0369C17.788 16.8169 17.398 17.7169 17.398 18.7369C17.398 19.7569 17.788 20.6569 18.5681 21.4369C19.3482 22.2169 20.2783 22.6069 21.3584 22.6069C22.4386 22.6069 23.3387 22.2169 24.0588 21.4369C24.7789 20.6569 25.1389 19.7869 25.1389 18.8269C25.1389 17.7469 24.7789 16.8169 24.0588 16.0369C23.3387 15.2569 22.4386 14.8669 21.3584 14.8669ZM21.3584 21.1669C20.6383 21.1669 20.0683 20.9269 19.6482 20.4469C19.2282 19.9669 19.0182 19.3969 19.0182 18.7369C19.0182 18.0769 19.2282 17.5369 19.6482 17.1169C20.0683 16.6969 20.6083 16.4869 21.2684 16.4869C21.9285 16.4869 22.4986 16.6969 22.9786 17.1169C23.4587 17.5369 23.6987 18.1069 23.6987 18.8269C23.5787 19.4269 23.3087 19.9669 22.8886 20.4469C22.4686 20.9269 21.9585 21.1669 21.3584 21.1669Z" fill="white"/>
</g>
</svg>
