<svg width="590" height="590" viewBox="0 0 590 590" fill="none" xmlns="http://www.w3.org/2000/svg">
<rect width="590" height="590" rx="295" fill="white" fill-opacity="0.1"/>
<path d="M295 39C153.56 39 39 153.56 39 295C39 436.44 153.56 551 295 551C436.44 551 551 436.44 551 295C551 153.56 436.44 39 295 39ZM266.84 359C266.84 375 254.04 387.16 238.68 387.16C222.68 387.16 210.52 374.36 210.52 359V231C209.88 215.64 222.68 202.84 238.04 202.84C254.04 202.84 266.84 215.64 266.84 231V359ZM380.12 359C380.12 375 367.32 387.16 351.96 387.16C335.96 387.16 323.8 374.36 323.8 359V231C323.16 215.64 335.96 202.84 351.32 202.84C367.32 202.84 380.12 215.64 380.12 231V359Z" fill="white"/>
</svg>
