<svg width="32" height="32" viewBox="0 0 32 32" fill="none" xmlns="http://www.w3.org/2000/svg">
<rect x="0.5" y="0.5" width="31" height="31" rx="6.45833" fill="#F35252"/>
<path d="M6 21.4H26V10.6H6V21.4ZM13.0703 12.4C13.0703 12.1726 13.1962 11.9653 13.3941 11.8633C13.5922 11.7625 13.8313 11.7836 14.0075 11.9202L18.695 15.5202C18.7679 15.576 18.827 15.6484 18.8677 15.7317C18.9085 15.815 18.9297 15.9068 18.9297 16C18.9297 16.0932 18.9085 16.185 18.8677 16.2683C18.827 16.3516 18.7679 16.424 18.695 16.4798L14.0075 20.0798C13.9063 20.158 13.783 20.2002 13.6562 20.2C13.567 20.2 13.4765 20.1789 13.3941 20.1367C13.1962 20.0347 13.0703 19.8274 13.0703 19.6V12.4ZM16.5859 22.6H20.1016V25H16.5859V22.6ZM11.8984 22.6H15.4141V25H11.8984V22.6ZM24.2422 7H21.2734V9.4H26V8.8C26 7.80748 25.2114 7 24.2422 7Z" fill="white"/>
<path d="M14.2422 13.6V18.4L17.3677 16L14.2422 13.6ZM11.8984 7H15.4141V9.4H11.8984V7ZM6 23.2C6 24.1925 6.78859 25 7.75781 25H10.7266V22.6H6V23.2ZM16.5859 7H20.1016V9.4H16.5859V7ZM21.2734 25H24.2422C25.2114 25 26 24.1925 26 23.2V22.6H21.2734V25ZM10.7266 7H7.75781C6.78855 7 6 7.80752 6 8.8V9.4H10.7266V7Z" fill="white"/>
</svg>
