<svg width="44" height="55" viewBox="0 0 44 55" fill="none" xmlns="http://www.w3.org/2000/svg">
<path d="M7.00281 2.08694C5.68281 2.08694 4.60281 2.53694 3.76281 3.43694C2.92281 4.33694 2.50281 5.38694 2.50281 6.58694V48.5269C2.50281 49.8469 2.92281 50.9269 3.76281 51.7669C4.60281 52.6069 5.68281 53.0269 7.00281 53.0269H37.2428C38.5628 53.0269 39.6428 52.6069 40.4828 51.7669C41.3228 50.9269 41.7428 49.8469 41.7428 48.5269V6.76694C41.7428 5.44694 41.3228 4.36694 40.4828 3.52694C39.6428 2.68694 38.5628 2.26694 37.2428 2.26694H7.00281V2.08694ZM7.00281 0.646938H37.2428C38.9228 0.646938 40.3628 1.24694 41.5628 2.44694C42.7628 3.64694 43.3628 5.08694 43.3628 6.76694V48.5269C43.3628 50.2069 42.7628 51.6469 41.5628 52.8469C40.3628 54.0469 38.9228 54.6469 37.2428 54.6469H7.00281C5.32281 54.6469 3.88281 54.0469 2.68281 52.8469C1.48281 51.6469 0.882812 50.2069 0.882812 48.5269V6.76694C0.882812 5.08694 1.48281 3.64694 2.68281 2.44694C3.88281 1.24694 5.32281 0.646938 7.00281 0.646938ZM11.5028 50.6869H34.1828C35.0228 50.6869 35.7428 50.9869 36.3428 51.5869C36.9428 52.1869 37.2428 52.9069 37.2428 53.7469H8.44281C8.44281 52.9069 8.74281 52.1869 9.34281 51.5869C9.94281 50.9869 10.6628 50.6869 11.5028 50.6869ZM32.7428 40.2469H10.9628C10.8428 40.2469 10.6928 40.1869 10.5128 40.0669C10.3328 39.9469 10.2428 39.7669 10.2428 39.5269C10.2428 39.2869 10.3028 39.1069 10.4228 38.9869C10.5428 38.8669 10.7228 38.8069 10.9628 38.8069H32.7428C32.9828 38.8069 33.1628 38.8669 33.2828 38.9869C33.4028 39.1069 33.4628 39.2869 33.4628 39.5269C33.4628 39.7669 33.4028 39.9469 33.2828 40.0669C33.1628 40.1869 32.9828 40.2469 32.7428 40.2469ZM25.0028 44.3869H10.9628C10.8428 44.3869 10.6928 44.3269 10.5128 44.2069C10.3328 44.0869 10.2428 43.9069 10.2428 43.6669C10.2428 43.4269 10.3028 43.2469 10.4228 43.1269C10.5428 43.0069 10.7228 42.9469 10.9628 42.9469H25.0028C25.2428 42.9469 25.4228 43.0069 25.5428 43.1269C25.6628 43.2469 25.7228 43.4269 25.7228 43.6669C25.7228 44.1469 25.4828 44.3869 25.0028 44.3869ZM30.7628 10.3669H12.9428C12.1028 10.3669 11.3828 10.6669 10.7828 11.2669C10.1828 11.8669 9.88281 12.5869 9.88281 13.4269V31.2469C9.88281 32.0869 10.1828 32.8069 10.7828 33.4069C11.3828 34.0069 12.1028 34.3069 12.9428 34.3069H30.7628C31.6028 34.3069 32.3228 34.0069 32.9228 33.4069C33.5228 32.8069 33.8228 32.0869 33.8228 31.2469V13.4269C33.8228 12.5869 33.5228 11.8969 32.9228 11.3569C32.3228 10.8169 31.6028 10.4869 30.7628 10.3669ZM32.3828 31.2469C32.3828 31.7269 32.2328 32.1169 31.9328 32.4169C31.6328 32.7169 31.2428 32.8669 30.7628 32.8669H12.9428C12.4628 32.8669 12.0728 32.7169 11.7728 32.4169C11.4728 32.1169 11.3228 31.7269 11.3228 31.2469V28.7269L15.8228 24.7669C15.9428 24.6469 16.0628 24.5869 16.1828 24.5869C16.3028 24.5869 16.4228 24.6469 16.5428 24.7669L19.2428 27.1069C19.4828 27.3469 19.8428 27.3469 20.3228 27.1069L27.1628 20.2669C27.4028 20.0269 27.5828 20.0269 27.7028 20.2669L32.2028 25.6669L32.3828 31.2469ZM32.3828 23.5069L29.1428 19.3669C28.7828 19.0069 28.3328 18.7969 27.7928 18.7369C27.2528 18.6769 26.8028 18.7669 26.4428 19.0069L19.7828 25.6669L17.4428 23.6869C17.0828 23.4469 16.6928 23.3269 16.2728 23.3269C15.8528 23.3269 15.4628 23.4469 15.1028 23.6869L11.3228 26.7469V13.4269C11.3228 12.9469 11.5028 12.5569 11.8628 12.2569C12.2228 11.9569 12.6428 11.8069 13.1228 11.8069H30.7628C31.2428 11.8069 31.6628 11.9569 32.0228 12.2569C32.3828 12.5569 32.5628 12.9469 32.5628 13.4269V23.5069H32.3828ZM17.4428 13.4269C16.4828 13.4269 15.7028 13.7269 15.1028 14.3269C14.5028 14.9269 14.2028 15.7069 14.2028 16.6669C14.2028 17.6269 14.5028 18.4369 15.1028 19.0969C15.7028 19.7569 16.4828 20.0869 17.4428 20.0869C18.4028 20.0869 19.2128 19.7569 19.8728 19.0969C20.5328 18.4369 20.8628 17.6269 20.8628 16.6669C20.8628 15.7069 20.5328 14.9269 19.8728 14.3269C19.2128 13.7269 18.4028 13.4269 17.4428 13.4269ZM17.4428 18.6469C16.9628 18.6469 16.5128 18.4369 16.0928 18.0169C15.6728 17.5969 15.4628 17.1469 15.4628 16.6669C15.4628 16.1869 15.6728 15.7369 16.0928 15.3169C16.5128 14.8969 16.9928 14.6869 17.5328 14.6869C18.0728 14.6869 18.5228 14.8669 18.8828 15.2269C19.2428 15.5869 19.4228 16.0669 19.4228 16.6669C19.4228 17.2669 19.2428 17.7469 18.8828 18.1069C18.5228 18.4669 18.0428 18.6469 17.4428 18.6469Z" fill="white"/>
</svg>
