<svg width="55" height="53" viewBox="0 0 55 53" fill="none" xmlns="http://www.w3.org/2000/svg">
<path d="M9.16875 49.187H40.6688C41.3687 49.187 41.9521 49.4495 42.4188 49.9745C42.8854 50.4995 43.1187 51.112 43.1187 51.812H6.71875C6.71875 51.112 6.95208 50.4995 7.41875 49.9745C7.88542 49.4495 8.46875 49.187 9.16875 49.187ZM30.6938 39.562H19.8438C19.2604 39.562 18.7937 39.387 18.4438 39.037C18.0938 38.687 17.9187 38.2203 17.9187 37.637L18.4438 28.362L17.0437 28.712C16.4604 28.712 15.9937 28.537 15.6438 28.187C15.2937 27.837 15.1187 27.4286 15.1187 26.962L14.5938 22.412C14.5938 21.9453 14.7104 21.537 14.9437 21.187C15.1771 20.837 15.5271 20.5453 15.9937 20.312L22.1187 18.212C22.5854 18.0953 22.9937 18.0953 23.3438 18.212C23.6938 18.3286 23.9854 18.562 24.2188 18.912C24.5688 19.1453 24.9187 19.262 25.2687 19.262C25.6187 19.262 25.9104 19.1453 26.1437 18.912H26.3188C26.5521 18.562 26.8729 18.3286 27.2812 18.212C27.6896 18.0953 28.0688 18.0953 28.4187 18.212L34.5438 20.312C35.0104 20.5453 35.3604 20.837 35.5938 21.187C35.8271 21.537 35.9437 21.9453 35.9437 22.412L35.4188 26.962C35.4188 27.4286 35.2437 27.837 34.8937 28.187C34.5438 28.537 34.0771 28.712 33.4937 28.712L32.0938 28.362L32.6187 37.637C32.6187 38.2203 32.4146 38.687 32.0063 39.037C31.5979 39.387 31.1604 39.562 30.6938 39.562ZM6.89375 17.337L7.41875 17.162L14.0687 10.337C14.1854 10.2203 14.2437 10.0745 14.2437 9.89945C14.2437 9.72445 14.1854 9.57862 14.0687 9.46195C13.9521 9.34528 13.8062 9.28695 13.6312 9.28695C13.4563 9.28695 13.3104 9.34528 13.1937 9.46195L6.36875 16.287C6.25208 16.4036 6.19375 16.5494 6.19375 16.7245C6.19375 16.8995 6.25208 17.0453 6.36875 17.162L6.89375 17.337ZM6.89375 24.512C7.01042 24.512 7.18542 24.512 7.41875 24.512L21.4187 10.512C21.6521 10.2786 21.6521 9.98695 21.4187 9.63695C21.1854 9.28695 20.8937 9.22862 20.5437 9.46195H20.3687L6.36875 23.462C6.25208 23.5786 6.19375 23.7536 6.19375 23.987C6.19375 24.2203 6.25208 24.3953 6.36875 24.512H6.89375ZM42.4188 31.337L28.4187 45.337C28.0688 45.687 28.0396 46.0078 28.3312 46.2995C28.6229 46.5911 28.9438 46.562 29.2937 46.212L43.2938 32.212C43.5271 31.9786 43.4979 31.687 43.2062 31.337C42.9146 30.987 42.6521 30.987 42.4188 31.337ZM42.4188 38.512L35.5938 45.337C35.4771 45.4536 35.4188 45.5995 35.4188 45.7745C35.4188 45.9495 35.4771 46.0953 35.5938 46.212C35.7104 46.3286 35.8563 46.387 36.0312 46.387C36.2062 46.387 36.3521 46.3286 36.4688 46.212L43.1187 39.562C43.2354 39.4453 43.2938 39.2703 43.2938 39.037C43.2938 38.8036 43.2354 38.6286 43.1187 38.512C43.0021 38.3953 42.8854 38.337 42.7687 38.337C42.6521 38.337 42.5354 38.3953 42.4188 38.512ZM28.7687 16.812L29.2937 16.9869L33.3187 13.312C33.5521 12.962 33.5229 12.6411 33.2313 12.3495C32.9396 12.0578 32.6187 12.087 32.2687 12.437L27.8937 16.637L28.7687 16.812ZM34.8937 19.087L36.2938 17.8619C36.6437 17.6286 36.6729 17.337 36.3812 16.9869C36.0896 16.637 35.7687 16.637 35.4188 16.9869L33.6688 18.562L34.8937 19.087ZM21.5938 16.812C21.9438 16.6953 22.1771 16.637 22.2937 16.637L28.5938 10.337C28.9438 10.1036 29.0021 9.81195 28.7687 9.46195C28.5354 9.11195 28.2437 9.05362 27.8937 9.28695L27.7188 9.46195L19.6687 17.337L21.5938 16.812ZM37.3438 23.637L39.6187 21.362C39.9688 21.012 39.9688 20.7203 39.6187 20.4869C39.5021 20.3703 39.3563 20.2828 39.1812 20.2245C39.0062 20.1661 38.8604 20.1953 38.7437 20.312L37.3438 21.712C37.4604 21.9453 37.4604 22.237 37.3438 22.587V23.637ZM6.89375 31.862C7.01042 31.862 7.18542 31.8036 7.41875 31.687L13.3687 25.737L13.1937 24.162L6.36875 30.812C6.25208 30.9286 6.19375 31.0745 6.19375 31.2495C6.19375 31.4245 6.28125 31.5703 6.45625 31.687C6.63125 31.8036 6.77708 31.862 6.89375 31.862ZM25.2687 41.137L21.0688 45.337C20.7188 45.687 20.7188 46.0078 21.0688 46.2995C21.4187 46.5911 21.7104 46.562 21.9438 46.212L27.1938 41.137H25.2687ZM18.4438 40.787L13.8938 45.337C13.5437 45.687 13.5146 46.0078 13.8062 46.2995C14.0979 46.5911 14.3604 46.6203 14.5938 46.387L19.6687 41.312L18.4438 40.787ZM6.71875 39.212C6.83542 39.212 6.95208 39.1536 7.06875 39.037L16.1687 30.287C15.8187 30.1703 15.4104 29.937 14.9437 29.587L6.19375 38.162C6.07708 38.2786 6.01875 38.4245 6.01875 38.5995C6.01875 38.7745 6.07708 38.9203 6.19375 39.037L6.71875 39.212ZM6.71875 46.387C6.83542 46.387 6.95208 46.3286 7.06875 46.212L16.5188 37.112L16.8687 34.837L6.19375 45.337C6.07708 45.4536 6.01875 45.5995 6.01875 45.7745C6.01875 45.9495 6.07708 46.0953 6.19375 46.212L6.71875 46.387ZM42.4188 23.987L33.8438 32.562L34.0187 34.312L43.2938 24.862C43.4104 24.7453 43.4979 24.5995 43.5562 24.4245C43.6146 24.2495 43.5854 24.1036 43.4688 23.987C43.0021 23.7536 42.6521 23.7536 42.4188 23.987ZM47.6688 21.012V46.387C47.6688 47.787 47.2021 48.9536 46.2687 49.887C45.3354 50.8203 44.1688 51.287 42.7687 51.287H6.89375C5.49375 51.287 4.32708 50.8203 3.39375 49.887C2.46042 48.9536 1.99375 47.787 1.99375 46.387V10.512C1.99375 9.22862 2.46042 8.09112 3.39375 7.09945C4.32708 6.10778 5.49375 5.61195 6.89375 5.61195H33.3187L34.1937 4.38695H6.89375C5.14375 4.38695 3.65625 4.97028 2.43125 6.13695C1.20625 7.30362 0.59375 8.76195 0.59375 10.512V46.562C0.59375 48.1953 1.20625 49.6245 2.43125 50.8495C3.65625 52.0745 5.14375 52.687 6.89375 52.687H42.7687C44.5187 52.687 46.0062 52.0745 47.2313 50.8495C48.4562 49.6245 49.0687 48.1953 49.0687 46.562V20.312L47.6688 21.012ZM54.3187 9.63695C54.3187 12.3203 53.3854 14.5661 51.5187 16.3745C49.6521 18.1828 47.4062 19.087 44.7812 19.087C42.1562 19.087 39.9396 18.1828 38.1312 16.3745C36.3229 14.5661 35.4188 12.3495 35.4188 9.72445C35.4188 7.09945 36.3229 4.85362 38.1312 2.98695C39.9396 1.12029 42.1562 0.186951 44.7812 0.186951C47.4062 0.186951 49.6521 1.12029 51.5187 2.98695C53.3854 4.85362 54.3187 7.07029 54.3187 9.63695ZM42.2437 5.61195C41.8937 5.72862 41.7188 5.96195 41.7188 6.31195V12.962C41.7188 13.1953 41.8062 13.3995 41.9813 13.5745C42.1562 13.7495 42.4188 13.837 42.7687 13.837L43.1187 13.662L48.5438 10.512C48.6604 10.3953 48.7479 10.2203 48.8062 9.98695C48.8646 9.75362 48.8646 9.52029 48.8062 9.28695C48.7479 9.05362 48.6604 8.93695 48.5438 8.93695L43.1187 5.61195C42.8854 5.49529 42.5938 5.49529 42.2437 5.61195Z" fill="white"/>
</svg>
