<svg width="55" height="53" viewBox="0 0 55 53" fill="none" xmlns="http://www.w3.org/2000/svg">
<path d="M8.99375 49.187H40.4937C41.1937 49.187 41.7771 49.4495 42.2437 49.9745C42.7104 50.4995 42.9437 51.112 42.9437 51.812H6.54375C6.54375 51.112 6.80625 50.4995 7.33125 49.9745C7.85625 49.4495 8.41042 49.187 8.99375 49.187ZM34.0187 39.037H15.2937C15.1771 39.037 15.0604 38.9495 14.9437 38.7745C14.8271 38.5995 14.7688 38.4536 14.7688 38.337C14.7688 38.2203 14.8271 38.1036 14.9437 37.987C15.0604 37.8703 15.1771 37.812 15.2937 37.812H34.0187C34.1354 37.812 34.2812 37.8703 34.4562 37.987C34.6312 38.1036 34.7188 38.2203 34.7188 38.337C34.7188 38.4536 34.6312 38.5995 34.4562 38.7745C34.2812 38.9495 34.1354 39.037 34.0187 39.037ZM27.3687 42.537H15.2937C15.1771 42.537 15.0604 42.4786 14.9437 42.362C14.8271 42.2453 14.7688 42.0995 14.7688 41.9245C14.7688 41.7495 14.8271 41.6036 14.9437 41.487C15.0604 41.3703 15.1771 41.312 15.2937 41.312H27.3687C27.6021 41.312 27.7771 41.3703 27.8937 41.487C28.0104 41.6036 28.0688 41.7495 28.0688 41.9245C28.0688 42.0995 28.0104 42.2453 27.8937 42.362C27.7771 42.4786 27.6021 42.537 27.3687 42.537ZM16.6938 14.712C16.4604 14.712 16.2271 14.8286 15.9937 15.062C15.7604 15.2953 15.6438 15.5286 15.6438 15.762V31.162C15.6438 31.512 15.7604 31.8036 15.9937 32.037C16.2271 32.2703 16.4604 32.387 16.6938 32.387H32.0938C32.4438 32.387 32.7354 32.2703 32.9688 32.037C33.2021 31.8036 33.3187 31.512 33.3187 31.162V15.762C33.3187 15.5286 33.2021 15.2953 32.9688 15.062C32.7354 14.8286 32.4438 14.712 32.0938 14.712H16.6938ZM16.6938 13.4869H32.0938C32.7938 13.4869 33.3479 13.7203 33.7562 14.187C34.1646 14.6536 34.3687 15.1786 34.3687 15.762V31.162C34.3687 31.862 34.1646 32.4161 33.7562 32.8245C33.3479 33.2328 32.7938 33.437 32.0938 33.437H16.6938C16.1104 33.437 15.5854 33.2328 15.1187 32.8245C14.6521 32.4161 14.4187 31.862 14.4187 31.162V15.762C14.4187 15.1786 14.6521 14.6536 15.1187 14.187C15.5854 13.7203 16.1104 13.4869 16.6938 13.4869ZM27.3687 29.062H21.7687C21.5354 29.062 21.3312 28.9745 21.1562 28.7995C20.9812 28.6245 20.8937 28.4203 20.8937 28.187L21.0688 23.462H20.1938C19.6104 23.462 19.3188 23.1703 19.3188 22.587L18.9688 20.312C18.9688 20.0786 19.0271 19.8453 19.1437 19.6119C19.2604 19.3786 19.4354 19.262 19.6687 19.262L22.9937 18.212C23.1104 18.0953 23.2854 18.0661 23.5187 18.1245C23.7521 18.1828 23.9271 18.2703 24.0437 18.387C24.1604 18.6203 24.3062 18.7369 24.4812 18.7369C24.6562 18.7369 24.8604 18.6203 25.0938 18.387C25.2104 18.2703 25.3562 18.1828 25.5312 18.1245C25.7062 18.0661 25.9104 18.0953 26.1437 18.212L29.2937 19.262C29.7604 19.3786 29.9937 19.7286 29.9937 20.312L29.8188 22.587C29.8188 22.8203 29.7312 23.0245 29.5562 23.1995C29.3813 23.3745 29.1187 23.462 28.7687 23.462L28.0688 23.287L28.4187 28.012C28.4187 28.362 28.3021 28.6245 28.0688 28.7995C27.8354 28.9745 27.6021 29.062 27.3687 29.062ZM47.6688 21.012V46.387C47.6688 47.787 47.2021 48.9536 46.2687 49.887C45.3354 50.8203 44.1688 51.287 42.7687 51.287H6.89375C5.49375 51.287 4.32708 50.8203 3.39375 49.887C2.46042 48.9536 1.99375 47.787 1.99375 46.387V10.512C1.99375 9.22862 2.46042 8.09112 3.39375 7.09945C4.32708 6.10778 5.49375 5.61195 6.89375 5.61195H33.3187L34.1937 4.38695H6.89375C5.14375 4.38695 3.65625 4.97028 2.43125 6.13695C1.20625 7.30362 0.59375 8.76195 0.59375 10.512V46.562C0.59375 48.1953 1.20625 49.6245 2.43125 50.8495C3.65625 52.0745 5.14375 52.687 6.89375 52.687H42.7687C44.5187 52.687 46.0062 52.0745 47.2313 50.8495C48.4562 49.6245 49.0687 48.1953 49.0687 46.562V20.312L47.6688 21.012ZM54.3187 9.63695C54.3187 12.3203 53.3854 14.5661 51.5187 16.3745C49.6521 18.1828 47.4062 19.087 44.7812 19.087C42.1562 19.087 39.9396 18.1828 38.1312 16.3745C36.3229 14.5661 35.4188 12.3495 35.4188 9.72445C35.4188 7.09945 36.3229 4.85362 38.1312 2.98695C39.9396 1.12029 42.1562 0.186951 44.7812 0.186951C47.4062 0.186951 49.6521 1.12029 51.5187 2.98695C53.3854 4.85362 54.3187 7.07029 54.3187 9.63695ZM42.2437 5.61195C41.8937 5.72862 41.7188 5.96195 41.7188 6.31195V12.962C41.7188 13.1953 41.8062 13.3995 41.9813 13.5745C42.1562 13.7495 42.4188 13.837 42.7687 13.837L43.1187 13.662L48.5438 10.512C48.6604 10.3953 48.7479 10.2203 48.8062 9.98695C48.8646 9.75362 48.8646 9.52029 48.8062 9.28695C48.7479 9.05362 48.6604 8.93695 48.5438 8.93695L43.1187 5.61195C42.8854 5.49529 42.5938 5.49529 42.2437 5.61195Z" fill="#212121"/>
</svg>
