<svg width="54" height="54" viewBox="0 0 54 54" fill="none" xmlns="http://www.w3.org/2000/svg">
<path d="M27 0L46.0919 7.90812L54 27L46.0919 46.0919L27 54L7.90812 46.0919L0 27L7.90812 7.90812L27 0Z" fill="#2F2F3C"/>
<path d="M32.3237 15H21.6763C21.0992 15.0003 20.5459 15.2231 20.1378 15.6192C19.7297 16.0154 19.5004 16.5526 19.5 17.1129V36.8871C19.5005 37.4474 19.7299 37.9845 20.1379 38.3807C20.546 38.7768 21.0992 38.9995 21.6763 39H32.3237C32.9008 38.9995 33.454 38.7768 33.8621 38.3807C34.2701 37.9845 34.4995 37.4474 34.5 36.8871V17.1129C34.4996 16.5526 34.2702 16.0154 33.8622 15.6192C33.4541 15.2231 32.9008 15.0003 32.3237 15ZM21.407 31.8729V28.5643C21.407 28.4506 21.4535 28.3416 21.5363 28.2612C21.6191 28.1809 21.7314 28.1357 21.8484 28.1357C21.9655 28.1357 22.0778 28.1809 22.1606 28.2612C22.2434 28.3416 22.2899 28.4506 22.2899 28.5643V31.4443H25.2519C25.369 31.4443 25.4813 31.4894 25.5641 31.5698C25.6468 31.6502 25.6933 31.7592 25.6933 31.8729C25.6933 31.9865 25.6468 32.0955 25.5641 32.1759C25.4813 32.2563 25.369 32.3014 25.2519 32.3014H21.8484C21.7315 32.3011 21.6194 32.2558 21.5367 32.1755C21.454 32.0952 21.4074 31.9864 21.407 31.8729ZM30.324 17.67C30.3242 17.7263 30.3129 17.7821 30.2908 17.8342C30.2686 17.8863 30.2361 17.9336 30.1951 17.9734C30.1541 18.0133 30.1053 18.0448 30.0517 18.0663C29.9981 18.0878 29.9406 18.0987 29.8826 18.0986H24.113C23.9959 18.0986 23.8836 18.0534 23.8009 17.973C23.7181 17.8927 23.6716 17.7837 23.6716 17.67C23.6716 17.5563 23.7181 17.4473 23.8009 17.367C23.8836 17.2866 23.9959 17.2414 24.113 17.2414H29.8826C29.9407 17.2409 29.9984 17.2515 30.0522 17.2729C30.106 17.2942 30.1549 17.3258 30.196 17.3657C30.2371 17.4056 30.2696 17.4531 30.2916 17.5053C30.3136 17.5576 30.3246 17.6136 30.324 17.67ZM25.2519 21.4371C25.369 21.4371 25.4813 21.4823 25.5641 21.5627C25.6468 21.643 25.6933 21.7521 25.6933 21.8657C25.6933 21.9794 25.6468 22.0884 25.5641 22.1688C25.4813 22.2491 25.369 22.2943 25.2519 22.2943H22.2899V25.1743C22.2899 25.2879 22.2434 25.397 22.1606 25.4773C22.0778 25.5577 21.9655 25.6029 21.8484 25.6029C21.7314 25.6029 21.6191 25.5577 21.5363 25.4773C21.4535 25.397 21.407 25.2879 21.407 25.1743V21.8657C21.4074 21.7522 21.454 21.6433 21.5367 21.563C21.6194 21.4827 21.7315 21.4375 21.8484 21.4371H25.2519ZM29.4235 23.2329C29.7746 23.2331 30.1113 23.3686 30.3597 23.6097C30.608 23.8508 30.7476 24.1776 30.7478 24.5186V29.22C30.7476 29.5609 30.608 29.8878 30.3597 30.1289C30.1113 30.37 29.7746 30.5055 29.4235 30.5057H24.5765C24.2254 30.5055 23.8887 30.37 23.6403 30.1289C23.392 29.8878 23.2524 29.5609 23.2522 29.22V24.5186C23.2524 24.1776 23.392 23.8508 23.6403 23.6097C23.8887 23.3686 24.2254 23.2331 24.5765 23.2329H29.4235ZM28.7481 32.3014C28.631 32.3014 28.5187 32.2563 28.4359 32.1759C28.3532 32.0955 28.3066 31.9865 28.3066 31.8729C28.3066 31.7592 28.3532 31.6502 28.4359 31.5698C28.5187 31.4894 28.631 31.4443 28.7481 31.4443H31.7101V28.5643C31.7101 28.4506 31.7566 28.3416 31.8394 28.2612C31.9222 28.1809 32.0345 28.1357 32.1516 28.1357C32.2686 28.1357 32.3809 28.1809 32.4637 28.2612C32.5465 28.3416 32.593 28.4506 32.593 28.5643V31.8729C32.5926 31.9864 32.546 32.0952 32.4633 32.1755C32.3806 32.2558 32.2685 32.3011 32.1516 32.3014H28.7481ZM32.593 25.1743C32.593 25.2879 32.5465 25.397 32.4637 25.4773C32.3809 25.5577 32.2686 25.6029 32.1516 25.6029C32.0345 25.6029 31.9222 25.5577 31.8394 25.4773C31.7566 25.397 31.7101 25.2879 31.7101 25.1743V22.2943H28.7481C28.631 22.2943 28.5187 22.2491 28.4359 22.1688C28.3532 22.0884 28.3066 21.9794 28.3066 21.8657C28.3066 21.7521 28.3532 21.643 28.4359 21.5627C28.5187 21.4823 28.631 21.4371 28.7481 21.4371H32.1516C32.2685 21.4375 32.3806 21.4827 32.4633 21.563C32.546 21.6433 32.5926 21.7522 32.593 21.8657V25.1743Z" fill="#919191"/>
<path d="M24.5765 24.09C24.5185 24.0898 24.461 24.1008 24.4074 24.1223C24.3537 24.1438 24.305 24.1753 24.264 24.2151C24.223 24.255 24.1904 24.3023 24.1683 24.3544C24.1462 24.4064 24.1349 24.4622 24.1351 24.5186V29.22C24.1349 29.2763 24.1462 29.3321 24.1683 29.3842C24.1904 29.4363 24.223 29.4836 24.264 29.5234C24.305 29.5633 24.3537 29.5948 24.4074 29.6163C24.461 29.6378 24.5185 29.6487 24.5765 29.6486H29.4235C29.4815 29.6487 29.539 29.6378 29.5926 29.6163C29.6463 29.5948 29.695 29.5633 29.736 29.5234C29.777 29.4836 29.8096 29.4363 29.8317 29.3842C29.8538 29.3321 29.8651 29.2763 29.8649 29.22V24.5186C29.8651 24.4622 29.8538 24.4064 29.8317 24.3544C29.8096 24.3023 29.777 24.255 29.736 24.2151C29.695 24.1753 29.6463 24.1438 29.5926 24.1223C29.539 24.1008 29.4815 24.0898 29.4235 24.09H28.5185V25.4229C28.5178 25.65 28.4246 25.8676 28.2592 26.0282C28.0938 26.1888 27.8696 26.2793 27.6357 26.28H26.3643C26.1304 26.2793 25.9062 26.1888 25.7408 26.0282C25.5754 25.8676 25.4822 25.65 25.4815 25.4229V24.09H24.5765Z" fill="#919191"/>
<path d="M26.3643 24.09H27.6357V25.4229H26.3643V24.09Z" fill="#919191"/>
</svg>
