<svg width="79" height="79" viewBox="0 0 79 79" fill="none" xmlns="http://www.w3.org/2000/svg">
<path d="M39.5 0L67.4307 11.5693L79 39.5L67.4307 67.4307L39.5 79L11.5693 67.4307L0 39.5L11.5693 11.5693L39.5 0Z" fill="#F35252"/>
<path d="M27.6579 22.5C25.9218 22.5 24.5 23.8917 24.5 25.5909V53.4091C24.5 55.1083 25.9218 56.5 27.6579 56.5H51.3421C53.0782 56.5 54.5 55.1083 54.5 53.4091V31H48.1842C46.4482 31 45.0263 29.6083 45.0263 27.9091V22.5H27.6579ZM46.6053 22.5V27.9091C46.6053 28.7784 47.2961 29.4545 48.1842 29.4545H54.0374L47.1634 22.7264C47.0154 22.5815 46.8146 22.5 46.6053 22.5ZM39.5 32.5455C44.7232 32.5455 48.9737 36.7058 48.9737 41.8182C48.9737 46.9305 44.7232 51.0909 39.5 51.0909C34.2768 51.0909 30.0263 46.9305 30.0263 41.8182C30.0263 36.7058 34.2768 32.5455 39.5 32.5455ZM39.5 34.0909C35.1303 34.0909 31.6053 37.5411 31.6053 41.8182C31.6053 46.0952 35.1303 49.5455 39.5 49.5455C43.8697 49.5455 47.3947 46.0952 47.3947 41.8182C47.3947 37.5411 43.8697 34.0909 39.5 34.0909ZM38.3126 38.055L43.0495 40.7055C43.1629 40.7687 43.2585 40.8585 43.3277 40.9668C43.397 41.075 43.4378 41.1984 43.4464 41.3259C43.455 41.4534 43.4312 41.5809 43.377 41.6972C43.3229 41.8134 43.2402 41.9147 43.1363 41.992L38.3995 45.5234C38.2825 45.6107 38.1429 45.6642 37.9965 45.6779C37.8501 45.6917 37.7026 45.6651 37.5708 45.6013C37.439 45.5374 37.328 45.4387 37.2504 45.3164C37.1728 45.1941 37.1316 45.0531 37.1316 44.9091V38.7273C37.1316 37.9723 37.7742 37.7513 38.3126 38.055ZM38.7105 40.061V43.3505L41.2313 41.4705L38.7105 40.061Z" fill="white"/>
</svg>
