<svg width="16" height="17" viewBox="0 0 16 17" fill="none" xmlns="http://www.w3.org/2000/svg">
<path d="M12.8385 2.80426C12.4307 2.80426 12.099 3.13683 12.099 3.54564V12.6461C12.1363 13.6299 13.5437 13.6264 13.5808 12.6461V3.54564C13.5808 3.13686 13.2478 2.80426 12.8385 2.80426ZM8 2.80426C7.59069 2.80426 7.25772 3.13683 7.25772 3.54564V12.6461C7.29513 13.6285 8.70525 13.6278 8.74231 12.6461V3.54564C8.74231 3.13686 8.40931 2.80426 8 2.80426ZM10.4192 5.51508C10.0115 5.51508 9.67981 5.84765 9.67981 6.25646V9.93529C9.71712 10.9192 11.1245 10.9155 11.1615 9.93529V6.25646C11.1615 5.84765 10.8285 5.51508 10.4192 5.51508ZM15.2577 6.87052C14.85 6.87052 14.5183 7.20309 14.5183 7.6119V8.57988C14.5556 9.56374 15.9629 9.56015 16 8.57988V7.6119C16 7.20309 15.667 6.87052 15.2577 6.87052ZM0.742312 6.87052C0.333 6.87052 0 7.20309 0 7.61187V8.57985C0.0374375 9.56083 1.44478 9.56299 1.48172 8.57985V7.61187C1.48172 7.20309 1.15003 6.87052 0.742312 6.87052ZM3.16153 4.15967C2.75222 4.15967 2.41922 4.49224 2.41922 4.90105V11.2907C2.45666 12.2717 3.86403 12.2738 3.901 11.2907V4.90105C3.901 4.49224 3.56928 4.15967 3.16153 4.15967ZM5.58078 0.0934448C5.17147 0.0934448 4.8385 0.426014 4.8385 0.834825V15.3569C4.87591 16.3379 6.28325 16.34 6.32022 15.3569V0.834825C6.32022 0.426014 5.9885 0.0934448 5.58078 0.0934448Z" fill="white"/>
</svg>
