<svg width="55" height="55" viewBox="0 0 55 55" fill="none" xmlns="http://www.w3.org/2000/svg">
<path d="M7.465 0.646946H47.605C49.525 0.646946 51.145 1.30695 52.465 2.62695C53.785 3.94695 54.445 5.56695 54.445 7.48695V47.6269C54.445 49.5469 53.785 51.1669 52.465 52.4869C51.145 53.8069 49.525 54.4669 47.605 54.4669H7.465C5.545 54.4669 3.925 53.8069 2.605 52.4869C1.285 51.1669 0.625 49.5469 0.625 47.6269V7.48695C0.625 5.56695 1.285 3.94695 2.605 2.62695C3.925 1.30695 5.545 0.646946 7.465 0.646946ZM47.605 53.0269C49.165 53.0269 50.455 52.5169 51.475 51.4969C52.495 50.4769 53.005 49.1869 53.005 47.6269V7.48695C53.005 6.04695 52.495 4.78695 51.475 3.70695C50.455 2.62695 49.165 2.08695 47.605 2.08695H7.465C6.025 2.08695 4.765 2.62695 3.685 3.70695C2.605 4.78695 2.065 6.04695 2.065 7.48695V47.6269C2.065 49.1869 2.605 50.4769 3.685 51.4969C4.765 52.5169 6.025 53.0269 7.465 53.0269H47.605ZM9.985 50.8669H45.265C45.985 50.8669 46.615 51.1369 47.155 51.6769C47.695 52.2169 47.965 52.8469 47.965 53.5669H7.285C7.285 52.8469 7.555 52.2169 8.095 51.6769C8.635 51.1369 9.265 50.8669 9.985 50.8669ZM37.885 39.3469H17.005C16.885 39.3469 16.765 39.2569 16.645 39.0769C16.525 38.8969 16.465 38.7469 16.465 38.6269C16.465 38.3869 16.525 38.2069 16.645 38.0869C16.765 37.9669 16.885 37.9069 17.005 37.9069H37.885C38.125 37.9069 38.305 37.9669 38.425 38.0869C38.545 38.2069 38.605 38.3569 38.605 38.5369C38.605 38.7169 38.545 38.8969 38.425 39.0769C38.305 39.2569 38.125 39.3469 37.885 39.3469ZM30.505 43.3069H17.005C16.885 43.3069 16.765 43.2469 16.645 43.1269C16.525 43.0069 16.465 42.8269 16.465 42.5869C16.465 42.4669 16.525 42.3469 16.645 42.2269C16.765 42.1069 16.885 42.0469 17.005 42.0469H30.505C30.625 42.0469 30.745 42.1069 30.865 42.2269C30.985 42.3469 31.045 42.4669 31.045 42.5869C31.165 42.8269 31.165 43.0069 31.045 43.1269C30.925 43.2469 30.745 43.3069 30.505 43.3069ZM35.905 10.7269H18.985C18.145 10.7269 17.455 10.9969 16.915 11.5369C16.375 12.0769 16.105 12.7669 16.105 13.6069V30.5269C16.105 31.3669 16.375 32.0569 16.915 32.5969C17.455 33.1369 18.145 33.4069 18.985 33.4069H35.905C36.745 33.4069 37.435 33.1369 37.975 32.5969C38.515 32.0569 38.785 31.3669 38.785 30.5269V13.6069C38.905 12.7669 38.665 12.0769 38.065 11.5369C37.465 10.9969 36.745 10.7269 35.905 10.7269ZM37.525 30.7069C37.525 31.0669 37.375 31.4269 37.075 31.7869C36.775 32.1469 36.385 32.3269 35.905 32.3269H18.985C18.625 32.3269 18.265 32.1469 17.905 31.7869C17.545 31.4269 17.365 31.0669 17.365 30.7069V28.1869L21.865 24.5869C21.985 24.4669 22.165 24.4669 22.405 24.5869L25.105 26.9269C25.465 27.0469 25.765 27.0469 26.005 26.9269L32.665 20.2669C32.905 20.0269 33.145 20.0269 33.385 20.2669L37.705 25.4869L37.525 30.7069ZM37.525 23.1469L34.465 19.3669C34.105 19.0069 33.685 18.7969 33.205 18.7369C32.725 18.6769 32.305 18.7669 31.945 19.0069C31.825 19.0069 31.765 19.0669 31.765 19.1869L25.645 25.3069L23.305 23.3269C22.945 23.0869 22.555 22.9669 22.135 22.9669C21.715 22.9669 21.325 23.0869 20.965 23.3269L17.365 26.3869V13.6069C17.365 13.2469 17.545 12.8869 17.905 12.5269C18.265 12.1669 18.625 11.9869 18.985 11.9869H35.905C36.385 11.9869 36.775 12.1669 37.075 12.5269C37.375 12.8869 37.525 13.2469 37.525 13.6069V23.1469ZM23.305 13.6069C22.465 13.6069 21.715 13.9069 21.055 14.5069C20.395 15.1069 20.065 15.8569 20.065 16.7569C20.065 17.6569 20.395 18.4069 21.055 19.0069C21.715 19.6069 22.465 19.9069 23.305 19.9069C24.145 19.9069 24.895 19.6069 25.555 19.0069C26.215 18.4069 26.545 17.6569 26.545 16.7569C26.545 15.8569 26.215 15.1069 25.555 14.5069C24.895 13.9069 24.145 13.6069 23.305 13.6069ZM23.305 18.4669C22.825 18.4669 22.405 18.2869 22.045 17.9269C21.685 17.5669 21.505 17.1469 21.505 16.6669C21.505 16.1869 21.685 15.7669 22.045 15.4069C22.405 15.0469 22.825 14.8669 23.305 14.8669C23.785 14.8669 24.205 15.0469 24.565 15.4069C24.925 15.7669 25.105 16.1869 25.105 16.6669C25.105 17.1469 24.925 17.5669 24.565 17.9269C24.205 18.2869 23.785 18.4669 23.305 18.4669Z" fill="#212121"/>
</svg>
