<svg width="33" height="55" viewBox="0 0 33 55" fill="none" xmlns="http://www.w3.org/2000/svg">
<path d="M5.21237 1.72694C4.25207 1.60694 3.44181 1.84694 2.7816 2.44694C2.12139 3.04694 1.79128 3.82694 1.79128 4.78694V50.5069C1.79128 51.3469 2.12139 52.0969 2.7816 52.7569C3.44181 53.4169 4.25207 53.6869 5.21237 53.5669H27.7196C28.5598 53.6869 29.3101 53.4169 29.9703 52.7569C30.6305 52.0969 31.0206 51.3469 31.1406 50.5069V4.78694C31.0206 3.82694 30.6305 3.04694 29.9703 2.44694C29.3101 1.84694 28.5598 1.54694 27.7196 1.54694L5.21237 1.72694ZM5.21237 0.646938H27.7196C28.9199 0.646938 29.9403 1.03694 30.7805 1.81694C31.6208 2.59694 32.101 3.58694 32.221 4.78694V50.5069C32.101 51.7069 31.6208 52.6969 30.7805 53.4769C29.9403 54.2569 28.9199 54.6469 27.7196 54.6469H5.21237C4.01199 54.6469 2.99167 54.2569 2.1514 53.4769C1.31113 52.6969 0.830976 51.7069 0.710938 50.5069V4.78694C0.830976 3.58694 1.31113 2.59694 2.1514 1.81694C2.99167 1.03694 4.01199 0.646938 5.21237 0.646938ZM7.37306 51.9469H26.4592C27.0593 51.9469 27.5995 52.1569 28.0797 52.5769C28.5598 52.9969 28.7999 53.5069 28.7999 54.1069H5.21237C5.21237 53.5069 5.42244 52.9969 5.84258 52.5769C6.26271 52.1569 6.77287 51.9469 7.37306 51.9469ZM24.2985 40.2469H8.27335C7.91324 40.2469 7.73318 40.0669 7.73318 39.7069C7.73318 39.3469 7.91324 39.1669 8.27335 39.1669H24.2985C24.6586 39.1669 24.8386 39.3469 24.8386 39.7069C24.8386 40.0669 24.6586 40.2469 24.2985 40.2469ZM24.2985 37.1869H8.27335C7.91324 37.1869 7.73318 37.0069 7.73318 36.6469C7.73318 36.2869 7.91324 36.1069 8.27335 36.1069H24.2985C24.6586 36.1069 24.8386 36.2869 24.8386 36.6469C24.8386 37.0069 24.6586 37.1869 24.2985 37.1869ZM18.5366 43.4869H8.27335C7.91324 43.4869 7.73318 43.3069 7.73318 42.9469C7.73318 42.5869 7.91324 42.4069 8.27335 42.4069H18.5366C19.0168 42.4069 19.2268 42.5869 19.1668 42.9469C19.1068 43.3069 18.8967 43.4869 18.5366 43.4869ZM22.858 10.5469H9.71381C9.11362 10.5469 8.57345 10.7569 8.09329 11.1769C7.61314 11.5969 7.37306 12.1669 7.37306 12.8869V26.0269C7.37306 26.6269 7.61314 27.1369 8.09329 27.5569C8.57345 27.9769 9.11362 28.1869 9.71381 28.1869H22.858C23.4582 28.1869 23.9984 27.9769 24.4785 27.5569C24.9587 27.1369 25.1988 26.6269 25.1988 26.0269V12.8869C25.1988 12.1669 24.9587 11.5969 24.4785 11.1769C23.9984 10.7569 23.4582 10.5469 22.858 10.5469ZM24.1184 25.8469C24.1184 26.2069 23.9984 26.5069 23.7583 26.7469C23.5182 26.9869 23.2181 27.1069 22.858 27.1069H9.71381C9.3537 27.1069 9.0536 26.9869 8.81352 26.7469C8.57345 26.5069 8.45341 26.2069 8.45341 25.8469V24.0469L11.8745 21.1669C11.9945 21.0469 12.1146 21.0469 12.2346 21.1669L14.3953 22.9669C14.6354 23.0869 14.8755 23.0869 15.1155 22.9669L20.1571 17.7469C20.3972 17.6269 20.5773 17.6269 20.6973 17.7469L23.9384 21.8869L24.1184 25.8469ZM24.1184 20.0869L21.5976 17.0269C21.3575 16.7869 21.0574 16.6369 20.6973 16.5769C20.3372 16.5169 19.9771 16.6069 19.617 16.8469L14.7554 21.7069L12.9548 20.2669C12.7148 20.0269 12.4147 19.9069 12.0546 19.9069C11.6944 19.9069 11.3943 20.0269 11.1543 20.2669L8.45341 22.6069V12.7069C8.45341 12.3469 8.57345 12.0469 8.81352 11.8069C9.0536 11.5669 9.3537 11.4469 9.71381 11.4469H22.858C23.0981 11.4469 23.3382 11.5669 23.5782 11.8069C23.8183 12.0469 23.9384 12.3469 23.9384 12.7069V20.0869H24.1184ZM12.9548 12.5269C12.3547 12.5269 11.8145 12.7969 11.3343 13.3369C10.8542 13.8769 10.6141 14.4769 10.6141 15.1369C10.6141 15.7969 10.8542 16.3669 11.3343 16.8469C11.8145 17.3269 12.3847 17.5669 13.0449 17.5669C13.7051 17.5669 14.2753 17.3269 14.7554 16.8469C15.2356 16.3669 15.4756 15.7969 15.4756 15.1369C15.4756 14.4769 15.2356 13.8769 14.7554 13.3369C14.2753 12.7969 13.6751 12.5269 12.9548 12.5269ZM12.9548 16.4869C12.5947 16.4869 12.2646 16.3669 11.9645 16.1269C11.6644 15.8869 11.5144 15.5569 11.5144 15.1369C11.5144 14.7169 11.6644 14.3569 11.9645 14.0569C12.2646 13.7569 12.6247 13.6069 13.0449 13.6069C13.465 13.6069 13.7951 13.7569 14.0352 14.0569C14.2753 14.3569 14.3953 14.6869 14.3953 15.0469C14.3953 15.5269 14.2753 15.8869 14.0352 16.1269C13.7951 16.3669 13.435 16.4869 12.9548 16.4869Z" fill="white"/>
</svg>
