<svg width="54" height="54" viewBox="0 0 54 54" fill="none" xmlns="http://www.w3.org/2000/svg">
<path d="M27 0L46.0919 7.90812L54 27L46.0919 46.0919L27 54L7.90812 46.0919L0 27L7.90812 7.90812L27 0Z" fill="#2F2F3C"/>
<path fill-rule="evenodd" clip-rule="evenodd" d="M29.8383 15.625H16.6369C16.2031 15.625 15.7857 15.7962 15.4802 16.1009C15.3278 16.2516 15.207 16.4307 15.1246 16.6279C15.0422 16.8251 14.9999 17.0365 15 17.25V38.375C15 39.2725 15.7339 40 16.6369 40H33.0056C33.9086 40 34.6425 39.2725 34.6425 38.375V25.6572L35.2127 27.188C35.2513 27.2917 35.3211 27.3813 35.4125 27.4445C35.504 27.5077 35.6128 27.5416 35.7242 27.5416C35.8357 27.5416 35.9444 27.5077 36.0359 27.4445C36.1274 27.3813 36.1971 27.2917 36.2357 27.188L36.885 25.4446L38.642 24.7997C38.7469 24.7617 38.8376 24.6926 38.9016 24.6017C38.9656 24.5108 39 24.4026 39 24.2917C39 24.1807 38.9656 24.0725 38.9016 23.9816C38.8376 23.8907 38.7469 23.8216 38.642 23.7836L36.885 23.1387L36.2357 21.3954C36.1971 21.2916 36.1274 21.2021 36.0359 21.1388C35.9444 21.0756 35.8357 21.0417 35.7242 21.0417C35.6128 21.0417 35.504 21.0756 35.4125 21.1388C35.3211 21.2021 35.2513 21.2916 35.2127 21.3954L34.6425 22.9261V20.7662L36.1948 20.1956C36.2998 20.1576 36.3904 20.0884 36.4545 19.9975C36.5185 19.9067 36.5529 19.7984 36.5529 19.6875C36.5529 19.5766 36.5185 19.4683 36.4545 19.3775C36.3904 19.2866 36.2998 19.2174 36.1948 19.1794L32.6483 17.8762L31.336 14.3537C31.2569 14.1411 31.0523 14 30.8231 14C30.594 14 30.3894 14.1411 30.3103 14.3537L29.8383 15.625ZM19.2286 34.0417H30.4139C30.714 34.0417 30.9595 33.799 30.9595 33.5C30.9595 33.201 30.714 32.9583 30.4139 32.9583H19.2286C18.9285 32.9583 18.683 33.201 18.683 33.5C18.683 33.799 18.9285 34.0417 19.2286 34.0417ZM19.2286 31.0625H30.4139C30.714 31.0625 30.9595 30.8198 30.9595 30.5208C30.9595 30.2218 30.714 29.9792 30.4139 29.9792H19.2286C18.9285 29.9792 18.683 30.2218 18.683 30.5208C18.683 30.8198 18.9285 31.0625 19.2286 31.0625ZM24.2756 21.8542H19.365C19.0649 21.8542 18.8194 22.0968 18.8194 22.3958C18.8194 22.6948 19.0649 22.9375 19.365 22.9375H21.2747V28.3542C21.2747 28.6532 21.5202 28.8958 21.8203 28.8958C22.1204 28.8958 22.3659 28.6532 22.3659 28.3542V22.9375H24.2756C24.5757 22.9375 24.8213 22.6948 24.8213 22.3958C24.8213 22.0968 24.5757 21.8542 24.2756 21.8542ZM24.9577 28.3542H30.4139C30.714 28.3542 30.9595 28.1115 30.9595 27.8125C30.9595 27.5135 30.714 27.2708 30.4139 27.2708H24.9577C24.6576 27.2708 24.412 27.5135 24.412 27.8125C24.412 28.1115 24.6576 28.3542 24.9577 28.3542ZM26.4581 25.6458H28.6406C28.9407 25.6458 29.1863 25.4032 29.1863 25.1042C29.1863 24.8052 28.9407 24.5625 28.6406 24.5625H26.4581C26.158 24.5625 25.9125 24.8052 25.9125 25.1042C25.9125 25.4032 26.158 25.6458 26.4581 25.6458ZM35.7256 23.1441L35.9493 23.7481C36.0039 23.8965 36.1239 24.0132 36.2712 24.0682L36.8796 24.2917L36.2712 24.5151C36.1976 24.5424 36.1307 24.5852 36.0752 24.6404C36.0196 24.6956 35.9767 24.7621 35.9493 24.8352L35.7256 25.4392L35.4991 24.8352C35.4446 24.6868 35.3273 24.5701 35.1772 24.5151L34.5689 24.2917L35.1772 24.0682C35.3273 24.0132 35.4446 23.8965 35.4991 23.7481L35.7256 23.1441ZM30.8231 16.1025L31.7125 18.4855C31.7671 18.634 31.8844 18.7507 32.0344 18.8057L34.4352 19.6875L32.0344 20.5693C31.8844 20.6243 31.7671 20.741 31.7125 20.8895L30.8231 23.2725L29.9338 20.8895C29.8792 20.741 29.7619 20.6243 29.6119 20.5693L27.2111 19.6875L29.6119 18.8057C29.7619 18.7507 29.8792 18.634 29.9338 18.4855L30.8231 16.1025ZM26.4581 22.9375H27.5494C27.8495 22.9375 28.095 22.6948 28.095 22.3958C28.095 22.0968 27.8495 21.8542 27.5494 21.8542H26.4581C26.158 21.8542 25.9125 22.0968 25.9125 22.3958C25.9125 22.6948 26.158 22.9375 26.4581 22.9375Z" fill="#919191"/>
</svg>
