<svg width="28" height="55" viewBox="0 0 28 55" fill="none" xmlns="http://www.w3.org/2000/svg">
<path d="M5.52437 1.44695C4.56437 1.44695 3.69438 1.80695 2.91438 2.52695C2.13438 3.24695 1.74437 4.14695 1.74437 5.22695V49.147C1.74437 50.107 2.13438 50.977 2.91438 51.757C3.69438 52.537 4.56437 52.927 5.52437 52.927H22.6244C23.7044 52.927 24.6044 52.537 25.3244 51.757C26.0444 50.977 26.4044 50.107 26.4044 49.147V5.22695C26.4044 4.26695 26.0444 3.39695 25.3244 2.61695C24.6044 1.83695 23.7044 1.44695 22.6244 1.44695H5.52437ZM5.52437 0.186947H22.6244C24.0644 0.186947 25.2644 0.696949 26.2244 1.71695C27.1844 2.73695 27.6644 3.90695 27.6644 5.22695V49.147C27.6644 50.467 27.1844 51.637 26.2244 52.657C25.2644 53.677 24.0644 54.187 22.6244 54.187H5.52437C4.20438 54.187 3.03438 53.677 2.01438 52.657C0.994375 51.637 0.484375 50.467 0.484375 49.147V5.22695C0.484375 3.78695 0.964375 2.58695 1.92438 1.62695C2.88438 0.66695 4.08438 0.186947 5.52437 0.186947ZM5.52437 50.947H22.9844C23.4644 50.947 23.8844 51.127 24.2444 51.487C24.6044 51.847 24.7844 52.267 24.7844 52.747C24.7844 52.987 24.7244 53.167 24.6044 53.287C24.4844 53.407 24.3044 53.467 24.0644 53.467H4.44438C4.20438 53.467 4.02438 53.407 3.90438 53.287C3.78438 53.167 3.72438 52.987 3.72438 52.747C3.60438 52.267 3.72438 51.847 4.08438 51.487C4.44438 51.127 4.92438 50.947 5.52437 50.947ZM21.9044 39.0669H6.60438C6.48438 39.0669 6.36438 38.9769 6.24438 38.797C6.12438 38.617 6.06438 38.4069 6.06438 38.167C6.06438 37.927 6.24438 37.8069 6.60438 37.8069H21.9044C22.1444 37.8069 22.2944 37.8669 22.3544 37.9869C22.4144 38.107 22.4744 38.287 22.5344 38.5269C22.5944 38.7669 22.3844 38.9469 21.9044 39.0669ZM21.9044 35.4669H6.60438C6.48438 35.4669 6.36438 35.4069 6.24438 35.2869C6.12438 35.167 6.06438 34.9869 6.06438 34.747C6.06438 34.507 6.24438 34.327 6.60438 34.2069H21.9044C22.1444 34.2069 22.2944 34.267 22.3544 34.3869C22.4144 34.507 22.4444 34.6569 22.4444 34.837C22.4444 35.017 22.4144 35.167 22.3544 35.2869C22.2944 35.4069 22.1444 35.4669 21.9044 35.4669ZM19.2044 42.4869H8.76438C8.52437 42.4869 8.37438 42.427 8.31438 42.307C8.25438 42.1869 8.22438 42.007 8.22438 41.767C8.22438 41.5269 8.40438 41.347 8.76438 41.2269H19.2044C19.4444 41.2269 19.5944 41.287 19.6544 41.4069C19.7144 41.5269 19.7444 41.7369 19.7444 42.037C19.7444 42.337 19.5644 42.4869 19.2044 42.4869ZM21.9044 5.22695H6.96438C6.24438 5.22695 5.64438 5.49695 5.16438 6.03695C4.68438 6.57695 4.44438 7.20695 4.44438 7.92695V22.8669C4.44438 23.587 4.68438 24.1869 5.16438 24.667C5.64438 25.1469 6.24438 25.3869 6.96438 25.3869H21.9044C22.6244 25.3869 23.2244 25.1469 23.7044 24.667C24.1844 24.1869 24.4244 23.587 24.4244 22.8669V7.92695C24.4244 7.20695 24.1844 6.60695 23.7044 6.12695C23.2244 5.64695 22.6244 5.34695 21.9044 5.22695ZM23.1644 22.8669C23.1644 23.2269 23.0444 23.5569 22.8044 23.8569C22.5644 24.1569 22.2644 24.3069 21.9044 24.3069H6.78438C6.42438 24.3069 6.12438 24.1569 5.88438 23.8569C5.64438 23.5569 5.52437 23.2269 5.52437 22.8669V20.707L9.30438 17.2869C9.42438 17.2869 9.51438 17.2869 9.57438 17.2869C9.63438 17.2869 9.72438 17.2869 9.84438 17.2869L12.1844 19.2669C12.4244 19.507 12.6644 19.507 12.9044 19.2669L18.8444 13.507C18.9644 13.3869 19.1444 13.3869 19.3844 13.507L22.9844 18.187L23.1644 22.8669ZM23.1644 16.3869L20.4644 12.7869C20.2244 12.4269 19.8644 12.2469 19.3844 12.2469C18.9044 12.2469 18.5444 12.3669 18.3044 12.6069L12.7244 18.187L10.5644 16.3869C9.96438 15.9069 9.30438 15.9069 8.58438 16.3869L5.52437 19.0869V7.92695C5.52437 7.44695 5.67438 7.08695 5.97438 6.84695C6.27438 6.60695 6.60438 6.48695 6.96438 6.48695H21.9044C22.2644 6.48695 22.5944 6.60695 22.8944 6.84695C23.1944 7.08695 23.3444 7.44695 23.3444 7.92695V16.3869H23.1644ZM10.5644 7.74695C9.84438 7.74695 9.21438 8.01695 8.67438 8.55695C8.13438 9.09695 7.86438 9.75695 7.86438 10.5369C7.86438 11.3169 8.13438 11.9769 8.67438 12.5169C9.21438 13.0569 9.87438 13.327 10.6544 13.327C11.4344 13.327 12.0944 13.0569 12.6344 12.5169C13.1744 11.9769 13.4444 11.3169 13.4444 10.5369C13.4444 9.75695 13.1744 9.09695 12.6344 8.55695C12.0944 8.01695 11.4044 7.74695 10.5644 7.74695ZM10.5644 12.2469C10.2044 12.2469 9.84438 12.0669 9.48438 11.7069C9.12438 11.347 8.94438 10.9569 8.94438 10.5369C8.94438 10.1169 9.12438 9.75695 9.48438 9.45695C9.84438 9.15695 10.2344 9.00695 10.6544 9.00695C11.0744 9.00695 11.4644 9.15695 11.8244 9.45695C12.1844 9.75695 12.3644 10.1469 12.3644 10.6269C12.3644 11.1069 12.1844 11.4969 11.8244 11.7969C11.4644 12.097 11.0444 12.2469 10.5644 12.2469Z" fill="#FBFBFB"/>
</svg>
