<svg width="125" height="21" viewBox="0 0 125 21" fill="none" xmlns="http://www.w3.org/2000/svg">
<path d="M119.304 0.186949H5.97996C4.46897 0.231394 3.2024 0.809172 2.18026 1.92028C1.15812 3.03139 0.669274 4.34251 0.713715 5.85362V14.5203C0.669274 16.0314 1.15812 17.3425 2.18026 18.4536C3.2024 19.5647 4.46897 20.1425 5.97996 20.187H119.304C120.815 20.1425 122.082 19.5647 123.104 18.4536C124.126 17.3425 124.615 16.0314 124.57 14.5203V5.85362C124.615 4.34251 124.126 3.04251 123.104 1.95362C122.082 0.864727 120.815 0.275839 119.304 0.186949ZM119.304 18.787H5.97996C4.82449 18.7425 3.86902 18.3092 3.11352 17.487C2.35803 16.6647 2.0025 15.6758 2.04694 14.5203V5.85362C2.0025 4.69806 2.35803 3.70917 3.11352 2.88695C3.86902 2.06473 4.82449 1.63139 5.97996 1.58695H119.304C120.015 1.63139 120.671 1.83139 121.271 2.18695C121.871 2.54251 122.371 3.03139 122.771 3.65362C122.193 3.83139 121.726 4.17584 121.371 4.68695C121.015 5.19806 120.837 5.76473 120.837 6.38695V13.4536C120.837 14.0758 121.037 14.6425 121.437 15.1536C121.837 15.6647 122.371 16.0092 123.037 16.187C122.726 16.8981 122.237 17.4981 121.571 17.987C120.904 18.4758 120.149 18.7425 119.304 18.787ZM78.9074 12.187H35.3776C35.1998 12.187 35.0554 12.2425 34.9443 12.3536C34.8332 12.4647 34.7776 12.6092 34.7776 12.787C34.7776 12.9647 34.8332 13.1092 34.9443 13.2203C35.0554 13.3314 35.1998 13.387 35.3776 13.387H78.9074C79.0852 13.387 79.2296 13.3203 79.3407 13.187C79.4518 13.0536 79.4962 12.9092 79.474 12.7536C79.4518 12.5981 79.3963 12.4647 79.3074 12.3536C79.2185 12.2425 79.0852 12.187 78.9074 12.187ZM105.239 7.92028H35.3776C35.1998 7.92028 35.0554 7.97584 34.9443 8.08695C34.8332 8.19806 34.7776 8.33139 34.7776 8.48695C34.7776 8.64251 34.8332 8.77584 34.9443 8.88695C35.0554 8.99806 35.1998 9.05362 35.3776 9.05362H105.239C105.416 9.05362 105.561 8.99806 105.672 8.88695C105.783 8.77584 105.839 8.64251 105.839 8.48695C105.839 8.33139 105.783 8.19806 105.672 8.08695C105.561 7.97584 105.416 7.92028 105.239 7.92028ZM25.845 3.92028H7.64649C7.06876 3.92028 6.5688 4.13139 6.14661 4.55362C5.72442 4.97584 5.51333 5.47584 5.51333 6.05362V14.4536C5.51333 15.0314 5.72442 15.5314 6.14661 15.9536C6.5688 16.3758 7.06876 16.587 7.64649 16.587H25.9117C26.4894 16.587 26.9894 16.3758 27.4116 15.9536C27.8337 15.5314 28.0448 15.0314 28.0448 14.4536V6.05362C28.0004 5.43139 27.7671 4.92028 27.3449 4.52028C26.9227 4.12028 26.4228 3.92028 25.845 3.92028ZM25.845 15.587H7.64649C7.29096 15.587 7.0021 15.4758 6.77989 15.2536C6.55769 15.0314 6.44659 14.7647 6.44659 14.4536V13.9203L10.9796 11.187C11.024 11.187 11.1018 11.187 11.2129 11.187C11.324 11.187 11.3795 11.187 11.3795 11.187L14.7126 12.8536C14.8015 12.9425 14.9126 12.987 15.0459 12.987C15.1792 12.987 15.2903 12.9425 15.3792 12.8536L22.112 8.12028C22.1564 8.03139 22.2231 7.98695 22.312 7.98695C22.4009 7.98695 22.4675 8.03139 22.512 8.12028L26.9116 11.8536L26.9783 14.4536C26.9783 14.7647 26.8672 15.0314 26.645 15.2536C26.4228 15.4758 26.1561 15.587 25.845 15.587ZM27.0449 10.587L23.3786 7.52028C23.1563 7.20917 22.8675 7.04251 22.512 7.02028C22.1564 6.99806 21.8231 7.09806 21.512 7.32028L21.4454 7.45362L15.0459 11.8536L12.0461 10.4536C11.8239 10.2758 11.5573 10.1869 11.2462 10.1869C10.9351 10.1869 10.6685 10.2758 10.4463 10.4536L6.44659 12.8536V6.05362C6.44659 5.69806 6.55769 5.40917 6.77989 5.18695C7.0021 4.96473 7.29096 4.85362 7.64649 4.85362H25.9117C26.2228 4.85362 26.4894 4.96473 26.7116 5.18695C26.9338 5.40917 27.0449 5.69806 27.0449 6.05362V10.587ZM10.6462 5.58695C10.113 5.58695 9.66855 5.77584 9.31302 6.15362C8.95749 6.53139 8.77973 6.98695 8.77973 7.52028C8.77973 8.05362 8.95749 8.49806 9.31302 8.85362C9.66855 9.20917 10.113 9.38695 10.6462 9.38695C11.1795 9.38695 11.6351 9.20917 12.0128 8.85362C12.3906 8.49806 12.5794 8.06473 12.5794 7.55362C12.5794 7.04251 12.3906 6.58695 12.0128 6.18695C11.6351 5.78695 11.1795 5.58695 10.6462 5.58695ZM10.6462 8.65362C10.3796 8.65362 10.1352 8.55362 9.91297 8.35362C9.69077 8.15362 9.57967 7.90917 9.57967 7.62028C9.57967 7.33139 9.69077 7.06473 9.91297 6.82028C10.1352 6.57584 10.3907 6.45362 10.6796 6.45362C10.9684 6.45362 11.2129 6.56473 11.4129 6.78695C11.6128 7.00917 11.7128 7.27584 11.7128 7.58695C11.7128 7.89806 11.6128 8.15362 11.4129 8.35362C11.2129 8.55362 10.9573 8.65362 10.6462 8.65362Z" fill="#FBFBFB"/>
</svg>
