<svg width="72" height="71" viewBox="0 0 72 71" fill="none" xmlns="http://www.w3.org/2000/svg">
<path d="M69.5088 18.7803C69.5088 17.4514 69.0743 16.3014 68.2054 15.3303C67.3365 14.3592 66.2376 13.8736 64.9088 13.8736H7.10208C5.77319 13.8736 4.64875 14.3592 3.72875 15.3303C2.80875 16.3014 2.39986 17.4514 2.50208 18.7803V51.5936C2.39986 52.9225 2.80875 54.0725 3.72875 55.0436C4.64875 56.0147 5.77319 56.5003 7.10208 56.5003H64.9088C66.1354 56.5003 67.2087 56.0147 68.1288 55.0436C69.0488 54.0725 69.5088 52.9225 69.5088 51.5936V18.7803ZM71.0421 18.7803V51.5936C71.0421 53.3314 70.4543 54.8647 69.2787 56.1936C68.1032 57.5225 66.6465 58.187 64.9088 58.187H7.10208C5.36431 58.187 3.90764 57.5225 2.73208 56.1936C1.55653 54.8647 0.96875 53.3314 0.96875 51.5936V18.7803C0.96875 17.0425 1.55653 15.5092 2.73208 14.1803C3.90764 12.8514 5.36431 12.187 7.10208 12.187H64.9088C66.6465 12.187 68.1032 12.8514 69.2787 14.1803C70.4543 15.5092 71.0421 17.0425 71.0421 18.7803ZM14.6154 53.7403H58.9288C59.8488 53.7403 60.641 54.047 61.3054 54.6603C61.9699 55.2736 62.3021 56.0914 62.3021 57.1136H11.2421C11.2421 56.0914 11.5743 55.2736 12.2388 54.6603C12.9032 54.047 13.6954 53.7403 14.6154 53.7403ZM61.9954 33.9603H40.0688C39.6599 33.9603 39.4554 33.7558 39.4554 33.347C39.4554 32.9381 39.6599 32.7336 40.0688 32.7336H61.9954C62.4043 32.7336 62.6087 32.9381 62.6087 33.347C62.6087 33.5514 62.5321 33.7047 62.3787 33.8069C62.2254 33.9092 62.0976 33.9603 61.9954 33.9603ZM61.9954 29.8203H40.0688C39.6599 29.8203 39.4554 29.6158 39.4554 29.2069C39.4554 28.6958 39.6599 28.4403 40.0688 28.4403H61.9954C62.4043 28.4403 62.6087 28.6958 62.6087 29.2069C62.6087 29.3092 62.5321 29.437 62.3787 29.5903C62.2254 29.7436 62.0976 29.8203 61.9954 29.8203ZM54.1754 38.2536H40.0688C39.6599 38.2536 39.4554 38.0492 39.4554 37.6403C39.4554 37.1292 39.6599 36.8736 40.0688 36.8736H54.1754C54.6865 36.8736 54.9421 37.1036 54.9421 37.5636C54.9421 38.0236 54.6865 38.2536 54.1754 38.2536ZM31.7887 21.387H13.8488C13.031 21.387 12.341 21.6681 11.7788 22.2303C11.2165 22.7925 10.9354 23.5336 10.9354 24.4536V42.2403C10.9354 43.0581 11.2165 43.7736 11.7788 44.387C12.341 45.0003 13.031 45.307 13.8488 45.307H31.7887C32.6065 45.307 33.2965 45.0003 33.8587 44.387C34.421 43.7736 34.7021 43.0581 34.7021 42.2403V24.4536C34.7021 23.5336 34.421 22.7925 33.8587 22.2303C33.2965 21.6681 32.6065 21.387 31.7887 21.387ZM33.4754 42.2403C33.4754 42.7514 33.3221 43.1603 33.0154 43.467C32.7087 43.7736 32.2999 43.927 31.7887 43.927H13.8488C13.4399 43.927 13.0821 43.7736 12.7754 43.467C12.4688 43.1603 12.3154 42.7514 12.3154 42.2403V39.787L16.9154 35.6469C17.1199 35.5447 17.3243 35.5447 17.5287 35.6469L20.4421 38.1003C20.7488 38.3047 21.1065 38.3047 21.5154 38.1003L28.4154 31.2003C28.6199 30.8936 28.8243 30.8936 29.0288 31.2003L33.4754 36.7203V42.2403ZM33.4754 34.4203L29.9488 30.2803C29.6421 29.8714 29.2332 29.6414 28.7221 29.5903C28.211 29.5392 27.751 29.667 27.3421 29.9736L20.7488 36.5669L18.2954 34.5736C17.9888 34.267 17.6054 34.1136 17.1454 34.1136C16.6854 34.1136 16.3021 34.267 15.9954 34.5736L12.1621 37.6403V24.4536C12.1621 23.9425 12.341 23.5336 12.6988 23.227C13.0565 22.9203 13.4399 22.7669 13.8488 22.7669H31.6354C32.1465 22.7669 32.5554 22.9203 32.8621 23.227C33.1688 23.5336 33.3221 23.9425 33.3221 24.4536V34.4203H33.4754ZM18.4487 24.3003C17.5287 24.3003 16.7365 24.6325 16.0721 25.297C15.4076 25.9614 15.0754 26.7281 15.0754 27.597C15.0754 28.4658 15.4076 29.2325 16.0721 29.8969C16.7365 30.5614 17.5287 30.8936 18.4487 30.8936C19.3687 30.8936 20.1354 30.5614 20.7488 29.8969C21.3621 29.2325 21.6688 28.4914 21.6688 27.6736C21.6688 26.7536 21.3621 25.9614 20.7488 25.297C20.1354 24.6325 19.3687 24.3003 18.4487 24.3003ZM18.4487 29.667C17.8354 29.667 17.3499 29.4625 16.9921 29.0536C16.6343 28.6447 16.4554 28.1592 16.4554 27.597C16.4554 27.0347 16.6343 26.5747 16.9921 26.2169C17.3499 25.8592 17.8099 25.6803 18.3721 25.6803C18.9343 25.6803 19.4199 25.8592 19.8288 26.2169C20.2376 26.5747 20.4421 27.0603 20.4421 27.6736C20.3399 28.1847 20.1099 28.6447 19.7521 29.0536C19.3943 29.4625 18.9599 29.667 18.4487 29.667Z" fill="white"/>
</svg>
