<svg width="116" height="21" viewBox="0 0 116 21" fill="none" xmlns="http://www.w3.org/2000/svg">
<path d="M110.322 0.186949H5.58838C4.2106 0.231394 3.04394 0.764727 2.08838 1.78695C1.13282 2.80917 0.677269 4.03139 0.721713 5.45362V14.9203C0.677269 16.3425 1.13282 17.5647 2.08838 18.587C3.04394 19.6092 4.2106 20.1425 5.58838 20.187H110.322C111.699 20.1425 112.866 19.6092 113.822 18.587C114.777 17.5647 115.233 16.3425 115.188 14.9203V5.45362C115.233 4.03139 114.777 2.82028 113.822 1.82028C112.866 0.820284 111.699 0.275839 110.322 0.186949ZM110.322 18.9203H5.58838C4.52171 18.8758 3.63282 18.4647 2.92171 17.687C2.2106 16.9092 1.87727 15.987 1.92171 14.9203V5.45362C1.87727 4.38695 2.2106 3.46473 2.92171 2.68695C3.63282 1.90917 4.52171 1.49806 5.58838 1.45362H110.322C111.077 1.49806 111.755 1.73139 112.355 2.15362C112.955 2.57584 113.388 3.14251 113.655 3.85362C113.077 3.98695 112.611 4.28695 112.255 4.75362C111.899 5.22028 111.722 5.74251 111.722 6.32028V12.8536C111.722 13.5203 111.944 14.0981 112.388 14.587C112.833 15.0758 113.344 15.3647 113.922 15.4536C113.833 16.387 113.444 17.187 112.755 17.8536C112.066 18.5203 111.255 18.8758 110.322 18.9203ZM73.7217 13.8536H33.5217C33.3439 13.8536 33.2106 13.9092 33.1217 14.0203C33.0328 14.1314 32.9884 14.2647 32.9884 14.4203C32.9884 14.5758 33.0328 14.6981 33.1217 14.787C33.2106 14.8758 33.3439 14.9203 33.5217 14.9203H73.7217C73.855 14.9203 73.9884 14.8647 74.1217 14.7536C74.2551 14.6425 74.3106 14.5203 74.2884 14.387C74.2662 14.2536 74.1995 14.1314 74.0884 14.0203C73.9773 13.9092 73.855 13.8536 73.7217 13.8536ZM90.455 5.92028H33.5217C33.3439 5.92028 33.2106 5.96473 33.1217 6.05362C33.0328 6.14251 32.9884 6.26473 32.9884 6.42028C32.9884 6.57584 33.0328 6.70917 33.1217 6.82028C33.2106 6.93139 33.3439 6.98695 33.5217 6.98695H90.455C90.5884 6.98695 90.7217 6.92028 90.855 6.78695C90.9884 6.65362 91.0439 6.52028 91.0217 6.38695C90.9995 6.25362 90.9328 6.14251 90.8217 6.05362C90.7106 5.96473 90.5884 5.92028 90.455 5.92028ZM90.455 9.92028H33.5217C33.3439 9.92028 33.2106 9.97584 33.1217 10.087C33.0328 10.1981 32.9884 10.3203 32.9884 10.4536C32.9884 10.587 33.0328 10.7092 33.1217 10.8203C33.2106 10.9314 33.3439 10.9869 33.5217 10.9869H90.455C90.5884 10.9869 90.7217 10.9314 90.855 10.8203C90.9884 10.7092 91.0439 10.587 91.0217 10.4536C90.9995 10.3203 90.9328 10.1981 90.8217 10.087C90.7106 9.97584 90.5884 9.92028 90.455 9.92028ZM25.1884 3.98695H7.32171C6.74394 3.98695 6.25505 4.18695 5.85505 4.58695C5.45505 4.98695 5.25505 5.47584 5.25505 6.05362V14.2536C5.25505 14.8314 5.45505 15.3203 5.85505 15.7203C6.25505 16.1203 6.74394 16.3203 7.32171 16.3203H25.255C25.8328 16.3203 26.3217 16.1203 26.7217 15.7203C27.1217 15.3203 27.3217 14.8314 27.3217 14.2536V6.05362C27.3217 5.47584 27.1217 4.98695 26.7217 4.58695C26.3217 4.18695 25.8106 3.98695 25.1884 3.98695ZM26.3217 14.3203C26.3217 14.6314 26.2106 14.8981 25.9884 15.1203C25.7662 15.3425 25.4995 15.4536 25.1884 15.4536H7.32171C7.0106 15.4536 6.74394 15.3425 6.52171 15.1203C6.29949 14.8981 6.18838 14.6314 6.18838 14.3203V13.8536L10.655 11.187C10.8328 11.0981 10.9662 11.0981 11.055 11.187L14.3217 12.8536C14.5884 13.0314 14.7884 13.0314 14.9217 12.8536L21.5884 8.18695C21.7217 8.00917 21.855 8.00917 21.9884 8.18695L26.3217 11.9203V14.3203ZM26.5217 10.3203H26.3217L22.7884 7.52028C22.5662 7.20917 22.2884 7.04251 21.955 7.02028C21.6217 6.99806 21.3217 7.09806 21.055 7.32028L14.655 11.8536L11.655 10.4536C11.4328 10.2758 11.1662 10.1869 10.855 10.1869C10.5439 10.1869 10.2773 10.2758 10.055 10.4536L6.25505 12.587V6.05362C6.25505 5.74251 6.37727 5.47584 6.62171 5.25362C6.86616 5.03139 7.12171 4.92028 7.38838 4.92028H25.3884C25.655 4.92028 25.9106 5.03139 26.155 5.25362C26.3995 5.47584 26.5217 5.74251 26.5217 6.05362V10.3203ZM10.3217 5.72028C9.78838 5.72028 9.33282 5.90917 8.95505 6.28695C8.57727 6.66473 8.38838 7.12028 8.38838 7.65362C8.38838 8.18695 8.57727 8.63139 8.95505 8.98695C9.33282 9.34251 9.78838 9.52028 10.3217 9.52028C10.855 9.52028 11.2995 9.34251 11.655 8.98695C12.0106 8.63139 12.1884 8.18695 12.1884 7.65362C12.1884 7.12028 12.0106 6.66473 11.655 6.28695C11.2995 5.90917 10.855 5.72028 10.3217 5.72028ZM10.3217 8.72028C10.0106 8.72028 9.75505 8.62028 9.55505 8.42028C9.35505 8.22028 9.25505 7.96473 9.25505 7.65362C9.25505 7.34251 9.35505 7.08695 9.55505 6.88695C9.75505 6.68695 10.0106 6.58695 10.3217 6.58695C10.6328 6.58695 10.8884 6.68695 11.0884 6.88695C11.2884 7.08695 11.3995 7.33139 11.4217 7.62028C11.4439 7.90917 11.3439 8.16473 11.1217 8.38695C10.8995 8.60917 10.6328 8.72028 10.3217 8.72028Z" fill="#FBFBFB"/>
</svg>
