<svg width="45" height="45" viewBox="0 0 45 45" fill="none" xmlns="http://www.w3.org/2000/svg">
<path d="M5.9249 0.186951H38.6316C40.196 0.186951 41.516 0.724728 42.5916 1.80029C43.6671 2.87584 44.2049 4.19584 44.2049 5.76028V38.4669C44.2049 40.0314 43.6671 41.3514 42.5916 42.4269C41.516 43.5025 40.196 44.0403 38.6316 44.0403H5.9249C4.36045 44.0403 3.04045 43.5025 1.9649 42.4269C0.88934 41.3514 0.351562 40.0314 0.351562 38.4669V5.76028C0.351562 4.19584 0.88934 2.87584 1.9649 1.80029C3.04045 0.724728 4.36045 0.186951 5.9249 0.186951ZM38.6316 42.8669C39.9027 42.8669 40.9538 42.4514 41.7849 41.6203C42.616 40.7892 43.0316 39.7381 43.0316 38.4669V5.76028C43.0316 4.58695 42.616 3.56028 41.7849 2.68029C40.9538 1.80029 39.9027 1.36029 38.6316 1.36029H5.9249C4.75156 1.36029 3.7249 1.80029 2.8449 2.68029C1.9649 3.56028 1.5249 4.58695 1.5249 5.76028V38.4669C1.5249 39.7381 1.9649 40.7892 2.8449 41.6203C3.7249 42.4514 4.75156 42.8669 5.9249 42.8669H38.6316ZM7.97823 41.107H36.7249C37.3116 41.107 37.8249 41.327 38.2649 41.7669C38.7049 42.2069 38.9249 42.7203 38.9249 43.3069H5.77823C5.77823 42.7203 5.99823 42.2069 6.43823 41.7669C6.87823 41.327 7.39156 41.107 7.97823 41.107ZM30.7116 31.7203H13.6982C13.6005 31.7203 13.5027 31.647 13.4049 31.5003C13.3071 31.3536 13.2582 31.2314 13.2582 31.1336C13.2582 30.9381 13.3071 30.7914 13.4049 30.6936C13.5027 30.5958 13.6005 30.547 13.6982 30.547H30.7116C30.9071 30.547 31.0538 30.5958 31.1516 30.6936C31.2493 30.7914 31.2982 30.9136 31.2982 31.0603C31.2982 31.207 31.2493 31.3536 31.1516 31.5003C31.0538 31.647 30.9071 31.7203 30.7116 31.7203ZM24.6982 34.9469H13.6982C13.6005 34.9469 13.5027 34.8981 13.4049 34.8003C13.3071 34.7025 13.2582 34.5558 13.2582 34.3603C13.2582 34.2625 13.3071 34.1647 13.4049 34.0669C13.5027 33.9692 13.6005 33.9203 13.6982 33.9203H24.6982C24.796 33.9203 24.8938 33.9692 24.9916 34.0669C25.0893 34.1647 25.1382 34.2625 25.1382 34.3603C25.236 34.5558 25.236 34.7025 25.1382 34.8003C25.0405 34.8981 24.8938 34.9469 24.6982 34.9469ZM29.0982 8.40028H15.3116C14.6271 8.40028 14.0649 8.62029 13.6249 9.06028C13.1849 9.50029 12.9649 10.0625 12.9649 10.747V24.5336C12.9649 25.2181 13.1849 25.7803 13.6249 26.2203C14.0649 26.6603 14.6271 26.8803 15.3116 26.8803H29.0982C29.7827 26.8803 30.3449 26.6603 30.7849 26.2203C31.2249 25.7803 31.4449 25.2181 31.4449 24.5336V10.747C31.5427 10.0625 31.3471 9.50029 30.8582 9.06028C30.3693 8.62029 29.7827 8.40028 29.0982 8.40028ZM30.4182 24.6803C30.4182 24.9736 30.296 25.267 30.0516 25.5603C29.8071 25.8536 29.4893 26.0003 29.0982 26.0003H15.3116C15.0182 26.0003 14.7249 25.8536 14.4316 25.5603C14.1382 25.267 13.9916 24.9736 13.9916 24.6803V22.627L17.6582 19.6936C17.756 19.5958 17.9027 19.5958 18.0982 19.6936L20.2982 21.6003C20.5916 21.6981 20.836 21.6981 21.0316 21.6003L26.4582 16.1736C26.6538 15.9781 26.8493 15.9781 27.0449 16.1736L30.5649 20.427L30.4182 24.6803ZM30.4182 18.5203L27.9249 15.4403C27.6316 15.147 27.2893 14.9758 26.8982 14.927C26.5071 14.8781 26.1649 14.9514 25.8716 15.147C25.7738 15.147 25.7249 15.1958 25.7249 15.2936L20.7382 20.2803L18.8316 18.667C18.5382 18.4714 18.2205 18.3736 17.8782 18.3736C17.536 18.3736 17.2182 18.4714 16.9249 18.667L13.9916 21.1603V10.747C13.9916 10.4536 14.1382 10.1603 14.4316 9.86695C14.7249 9.57362 15.0182 9.42695 15.3116 9.42695H29.0982C29.4893 9.42695 29.8071 9.57362 30.0516 9.86695C30.296 10.1603 30.4182 10.4536 30.4182 10.747V18.5203ZM18.8316 10.747C18.1471 10.747 17.536 10.9914 16.9982 11.4803C16.4605 11.9692 16.1916 12.5803 16.1916 13.3136C16.1916 14.047 16.4605 14.6581 16.9982 15.147C17.536 15.6358 18.1471 15.8803 18.8316 15.8803C19.516 15.8803 20.1271 15.6358 20.6649 15.147C21.2027 14.6581 21.4716 14.047 21.4716 13.3136C21.4716 12.5803 21.2027 11.9692 20.6649 11.4803C20.1271 10.9914 19.516 10.747 18.8316 10.747ZM18.8316 14.707C18.4405 14.707 18.0982 14.5603 17.8049 14.267C17.5116 13.9736 17.3649 13.6314 17.3649 13.2403C17.3649 12.8492 17.5116 12.507 17.8049 12.2136C18.0982 11.9203 18.4405 11.7736 18.8316 11.7736C19.2227 11.7736 19.5649 11.9203 19.8582 12.2136C20.1516 12.507 20.2982 12.8492 20.2982 13.2403C20.2982 13.6314 20.1516 13.9736 19.8582 14.267C19.5649 14.5603 19.2227 14.707 18.8316 14.707Z" fill="#FBFBFB"/>
</svg>
