<svg width="37" height="55" viewBox="0 0 37 55" fill="none" xmlns="http://www.w3.org/2000/svg">
<path d="M5.77469 1.44695C4.69469 1.32695 3.79469 1.62695 3.07469 2.34695C2.35469 3.06695 1.93469 3.90695 1.81469 4.86695V49.327C1.81469 50.407 2.20469 51.277 2.98469 51.937C3.76469 52.597 4.63469 52.927 5.59469 52.927H31.5147C32.5947 52.927 33.4947 52.597 34.2147 51.937C34.9347 51.277 35.3547 50.407 35.4747 49.327V4.86695C35.3547 3.90695 34.9347 3.06695 34.2147 2.34695C33.4947 1.62695 32.5947 1.32695 31.5147 1.44695H5.77469ZM5.77469 0.186947H31.6947C33.0147 0.186947 34.1847 0.636948 35.2047 1.53695C36.2247 2.43695 36.7947 3.54695 36.9147 4.86695V49.327C36.7947 50.767 36.2247 51.937 35.2047 52.837C34.1847 53.737 33.0147 54.187 31.6947 54.187H5.77469C4.33469 54.187 3.13469 53.737 2.17469 52.837C1.21469 51.937 0.674688 50.767 0.554688 49.327V4.86695C0.674688 3.54695 1.21469 2.43695 2.17469 1.53695C3.13469 0.636948 4.33469 0.186947 5.77469 0.186947ZM8.29469 50.947H30.4347C31.1547 50.947 31.7547 51.217 32.2347 51.757C32.7147 52.297 32.9547 52.927 32.9547 53.647H5.77469C5.77469 52.807 6.01469 52.147 6.49469 51.667C6.97469 51.187 7.57469 50.947 8.29469 50.947ZM27.7347 41.2269H9.19469C9.07469 41.2269 8.95469 41.167 8.83469 41.047C8.71469 40.927 8.65469 40.7769 8.65469 40.597C8.65469 40.417 8.71469 40.267 8.83469 40.1469C8.95469 40.0269 9.07469 39.967 9.19469 39.967H27.7347C27.9747 39.967 28.1547 40.0269 28.2747 40.1469C28.3947 40.267 28.4547 40.417 28.4547 40.597C28.4547 40.7769 28.3947 40.927 28.2747 41.047C28.1547 41.167 27.9747 41.2269 27.7347 41.2269ZM27.7347 37.6269H9.19469C9.07469 37.6269 8.95469 37.5669 8.83469 37.447C8.71469 37.327 8.65469 37.177 8.65469 36.997C8.65469 36.8169 8.71469 36.667 8.83469 36.5469C8.95469 36.427 9.07469 36.3669 9.19469 36.3669H27.7347C27.9747 36.3669 28.1547 36.427 28.2747 36.5469C28.3947 36.667 28.4547 36.8169 28.4547 36.997C28.4547 37.177 28.3947 37.327 28.2747 37.447C28.1547 37.5669 27.9747 37.6269 27.7347 37.6269ZM21.2547 44.827H9.19469C9.07469 44.827 8.95469 44.767 8.83469 44.647C8.71469 44.5269 8.65469 44.377 8.65469 44.1969C8.65469 44.017 8.71469 43.867 8.83469 43.747C8.95469 43.627 9.07469 43.5669 9.19469 43.5669H21.2547C21.3747 43.5669 21.4947 43.627 21.6147 43.747C21.7347 43.867 21.7947 44.017 21.7947 44.1969C21.7947 44.377 21.7347 44.5269 21.6147 44.647C21.4947 44.767 21.3747 44.827 21.2547 44.827ZM26.1147 9.72695H10.9947C10.2747 9.72695 9.64469 9.99695 9.10469 10.5369C8.56469 11.077 8.29469 11.7069 8.29469 12.4269V27.5469C8.29469 28.2669 8.56469 28.8969 9.10469 29.4369C9.64469 29.9769 10.2747 30.247 10.9947 30.247H26.1147C26.8347 30.247 27.4647 29.9769 28.0047 29.4369C28.5447 28.8969 28.8147 28.2669 28.8147 27.5469V12.4269C28.6947 11.7069 28.3947 11.077 27.9147 10.5369C27.4347 9.99695 26.8347 9.72695 26.1147 9.72695ZM27.5547 27.5469C27.5547 27.9069 27.4047 28.2369 27.1047 28.5369C26.8047 28.837 26.4747 28.9869 26.1147 28.9869H10.9947C10.5147 28.9869 10.1547 28.837 9.91469 28.5369C9.67469 28.2369 9.55469 27.9069 9.55469 27.5469V25.3869L13.5147 21.9669C13.5147 21.847 13.5747 21.7869 13.6947 21.7869C13.8147 21.7869 13.8747 21.847 13.8747 21.9669L16.3947 23.9469C16.6347 24.1869 16.8747 24.1869 17.1147 23.9469L23.0547 18.007C23.2947 17.8869 23.4447 17.8569 23.5047 17.917C23.5647 17.9769 23.5947 18.007 23.5947 18.007L27.3747 22.6869L27.5547 27.5469ZM27.5547 20.8869L24.6747 17.2869C24.4347 16.9269 24.0747 16.7469 23.5947 16.7469C23.1147 16.7469 22.7547 16.867 22.5147 17.1069L16.7547 22.6869L14.7747 21.0669C14.0547 20.5869 13.3347 20.5869 12.6147 21.0669L9.55469 23.7669V12.4269C9.55469 12.0669 9.67469 11.7369 9.91469 11.437C10.1547 11.1369 10.5147 10.9869 10.9947 10.9869H26.1147C26.4747 10.9869 26.8047 11.1369 27.1047 11.437C27.4047 11.7369 27.5547 12.0669 27.5547 12.4269V20.8869ZM14.7747 12.2469C13.9347 12.2469 13.2447 12.5169 12.7047 13.0569C12.1647 13.597 11.8947 14.257 11.8947 15.0369C11.8947 15.8169 12.1647 16.4769 12.7047 17.0169C13.2447 17.5569 13.9047 17.827 14.6847 17.827C15.4647 17.827 16.1247 17.5569 16.6647 17.0169C17.2047 16.4769 17.4747 15.8169 17.4747 15.0369C17.4747 14.257 17.2047 13.597 16.6647 13.0569C16.1247 12.5169 15.4947 12.2469 14.7747 12.2469ZM14.7747 16.7469C14.2947 16.7469 13.9047 16.5669 13.6047 16.2069C13.3047 15.847 13.1547 15.4569 13.1547 15.0369C13.1547 14.617 13.3047 14.2269 13.6047 13.867C13.9047 13.507 14.2947 13.327 14.7747 13.327C15.2547 13.327 15.6447 13.507 15.9447 13.867C16.2447 14.2269 16.3947 14.6469 16.3947 15.1269C16.3947 15.6069 16.2447 15.9969 15.9447 16.2969C15.6447 16.597 15.2547 16.7469 14.7747 16.7469Z" fill="white"/>
</svg>
