<svg width="44" height="71" viewBox="0 0 44 71" fill="none" xmlns="http://www.w3.org/2000/svg">
<path d="M6.95594 9.62695C5.63594 9.62695 4.55594 10.077 3.71594 10.9769C2.87594 11.8769 2.45594 12.9269 2.45594 14.1269V56.067C2.45594 57.387 2.87594 58.467 3.71594 59.307C4.55594 60.147 5.63594 60.567 6.95594 60.567H37.1959C38.5159 60.567 39.5959 60.147 40.4359 59.307C41.2759 58.467 41.6959 57.387 41.6959 56.067V14.3069C41.6959 12.9869 41.2759 11.9069 40.4359 11.0669C39.5959 10.2269 38.5159 9.80695 37.1959 9.80695H6.95594V9.62695ZM6.95594 8.18695H37.1959C38.8759 8.18695 40.3159 8.78695 41.5159 9.98695C42.7159 11.1869 43.3159 12.6269 43.3159 14.3069V56.067C43.3159 57.747 42.7159 59.187 41.5159 60.387C40.3159 61.587 38.8759 62.187 37.1959 62.187H6.95594C5.27594 62.187 3.83594 61.587 2.63594 60.387C1.43594 59.187 0.835938 57.747 0.835938 56.067V14.3069C0.835938 12.6269 1.43594 11.1869 2.63594 9.98695C3.83594 8.78695 5.27594 8.18695 6.95594 8.18695ZM11.4559 58.227H34.1359C34.9759 58.227 35.6959 58.527 36.2959 59.127C36.8959 59.727 37.1959 60.447 37.1959 61.287H8.39594C8.39594 60.447 8.69594 59.727 9.29594 59.127C9.89594 58.527 10.6159 58.227 11.4559 58.227ZM32.6959 47.787H10.9159C10.7959 47.787 10.6459 47.7269 10.4659 47.6069C10.2859 47.4869 10.1959 47.307 10.1959 47.0669C10.1959 46.827 10.2559 46.6469 10.3759 46.5269C10.4959 46.4069 10.6759 46.347 10.9159 46.347H32.6959C32.9359 46.347 33.1159 46.4069 33.2359 46.5269C33.3559 46.6469 33.4159 46.827 33.4159 47.0669C33.4159 47.307 33.3559 47.4869 33.2359 47.6069C33.1159 47.7269 32.9359 47.787 32.6959 47.787ZM24.9559 51.927H10.9159C10.7959 51.927 10.6459 51.867 10.4659 51.747C10.2859 51.627 10.1959 51.4469 10.1959 51.207C10.1959 50.967 10.2559 50.787 10.3759 50.667C10.4959 50.547 10.6759 50.4869 10.9159 50.4869H24.9559C25.1959 50.4869 25.3759 50.547 25.4959 50.667C25.6159 50.787 25.6759 50.967 25.6759 51.207C25.6759 51.687 25.4359 51.927 24.9559 51.927ZM30.7159 17.9069H12.8959C12.0559 17.9069 11.3359 18.2069 10.7359 18.8069C10.1359 19.4069 9.83594 20.1269 9.83594 20.9669V38.7869C9.83594 39.6269 10.1359 40.347 10.7359 40.9469C11.3359 41.5469 12.0559 41.847 12.8959 41.847H30.7159C31.5559 41.847 32.2759 41.5469 32.8759 40.9469C33.4759 40.347 33.7759 39.6269 33.7759 38.7869V20.9669C33.7759 20.1269 33.4759 19.437 32.8759 18.8969C32.2759 18.3569 31.5559 18.027 30.7159 17.9069ZM32.3359 38.7869C32.3359 39.267 32.1859 39.6569 31.8859 39.9569C31.5859 40.257 31.1959 40.4069 30.7159 40.4069H12.8959C12.4159 40.4069 12.0259 40.257 11.7259 39.9569C11.4259 39.6569 11.2759 39.267 11.2759 38.7869V36.2669L15.7759 32.3069C15.8959 32.1869 16.0159 32.1269 16.1359 32.1269C16.2559 32.1269 16.3759 32.1869 16.4959 32.3069L19.1959 34.6469C19.4359 34.8869 19.7959 34.8869 20.2759 34.6469L27.1159 27.8069C27.3559 27.5669 27.5359 27.5669 27.6559 27.8069L32.1559 33.2069L32.3359 38.7869ZM32.3359 31.0469L29.0959 26.9069C28.7359 26.5469 28.2859 26.3369 27.7459 26.277C27.2059 26.2169 26.7559 26.3069 26.3959 26.5469L19.7359 33.2069L17.3959 31.2269C17.0359 30.9869 16.6459 30.8669 16.2259 30.8669C15.8059 30.8669 15.4159 30.9869 15.0559 31.2269L11.2759 34.2869V20.9669C11.2759 20.4869 11.4559 20.097 11.8159 19.7969C12.1759 19.4969 12.5959 19.347 13.0759 19.347H30.7159C31.1959 19.347 31.6159 19.4969 31.9759 19.7969C32.3359 20.097 32.5159 20.4869 32.5159 20.9669V31.0469H32.3359ZM17.3959 20.9669C16.4359 20.9669 15.6559 21.2669 15.0559 21.867C14.4559 22.4669 14.1559 23.2469 14.1559 24.2069C14.1559 25.167 14.4559 25.9769 15.0559 26.6369C15.6559 27.2969 16.4359 27.6269 17.3959 27.6269C18.3559 27.6269 19.1659 27.2969 19.8259 26.6369C20.4859 25.9769 20.8159 25.167 20.8159 24.2069C20.8159 23.2469 20.4859 22.4669 19.8259 21.867C19.1659 21.2669 18.3559 20.9669 17.3959 20.9669ZM17.3959 26.187C16.9159 26.187 16.4659 25.9769 16.0459 25.5569C15.6259 25.1369 15.4159 24.687 15.4159 24.2069C15.4159 23.7269 15.6259 23.277 16.0459 22.8569C16.4659 22.437 16.9459 22.2269 17.4859 22.2269C18.0259 22.2269 18.4759 22.4069 18.8359 22.7669C19.1959 23.1269 19.3759 23.6069 19.3759 24.2069C19.3759 24.8069 19.1959 25.2869 18.8359 25.6469C18.4759 26.007 17.9959 26.187 17.3959 26.187Z" fill="white"/>
</svg>
