<svg width="55" height="55" viewBox="0 0 55 55" fill="none" xmlns="http://www.w3.org/2000/svg">
<path d="M7.19156 0.186954H47.3316C49.2516 0.186954 50.8716 0.846954 52.1916 2.16695C53.5116 3.48696 54.1716 5.10696 54.1716 7.02695V47.167C54.1716 49.087 53.5116 50.707 52.1916 52.027C50.8716 53.347 49.2516 54.007 47.3316 54.007H7.19156C5.27156 54.007 3.65156 53.347 2.33156 52.027C1.01156 50.707 0.351562 49.087 0.351562 47.167V7.02695C0.351562 5.10696 1.01156 3.48696 2.33156 2.16695C3.65156 0.846954 5.27156 0.186954 7.19156 0.186954ZM47.3316 52.567C48.8916 52.567 50.1816 52.057 51.2016 51.037C52.2216 50.017 52.7316 48.727 52.7316 47.167V7.02695C52.7316 5.58696 52.2216 4.32696 51.2016 3.24696C50.1816 2.16695 48.8916 1.62696 47.3316 1.62696H7.19156C5.75156 1.62696 4.49156 2.16695 3.41156 3.24696C2.33156 4.32696 1.79156 5.58696 1.79156 7.02695V47.167C1.79156 48.727 2.33156 50.017 3.41156 51.037C4.49156 52.057 5.75156 52.567 7.19156 52.567H47.3316ZM9.71156 50.407H44.9916C45.7116 50.407 46.3416 50.677 46.8816 51.217C47.4216 51.757 47.6916 52.387 47.6916 53.107H7.01156C7.01156 52.387 7.28156 51.757 7.82156 51.217C8.36156 50.677 8.99156 50.407 9.71156 50.407ZM37.6116 38.887H16.7316C16.6116 38.887 16.4916 38.797 16.3716 38.617C16.2516 38.437 16.1916 38.287 16.1916 38.167C16.1916 37.927 16.2516 37.747 16.3716 37.627C16.4916 37.507 16.6116 37.447 16.7316 37.447H37.6116C37.8516 37.447 38.0316 37.507 38.1516 37.627C38.2716 37.747 38.3316 37.897 38.3316 38.077C38.3316 38.257 38.2716 38.437 38.1516 38.617C38.0316 38.797 37.8516 38.887 37.6116 38.887ZM30.2316 42.847H16.7316C16.6116 42.847 16.4916 42.787 16.3716 42.667C16.2516 42.547 16.1916 42.367 16.1916 42.127C16.1916 42.007 16.2516 41.887 16.3716 41.767C16.4916 41.647 16.6116 41.587 16.7316 41.587H30.2316C30.3516 41.587 30.4716 41.647 30.5916 41.767C30.7116 41.887 30.7716 42.007 30.7716 42.127C30.8916 42.367 30.8916 42.547 30.7716 42.667C30.6516 42.787 30.4716 42.847 30.2316 42.847ZM35.6316 10.267H18.7116C17.8716 10.267 17.1816 10.537 16.6416 11.077C16.1016 11.617 15.8316 12.307 15.8316 13.147V30.067C15.8316 30.907 16.1016 31.597 16.6416 32.137C17.1816 32.677 17.8716 32.947 18.7116 32.947H35.6316C36.4716 32.947 37.1616 32.677 37.7016 32.137C38.2416 31.597 38.5116 30.907 38.5116 30.067V13.147C38.6316 12.307 38.3916 11.617 37.7916 11.077C37.1916 10.537 36.4716 10.267 35.6316 10.267ZM37.2516 30.247C37.2516 30.607 37.1016 30.967 36.8016 31.327C36.5016 31.687 36.1116 31.867 35.6316 31.867H18.7116C18.3516 31.867 17.9916 31.687 17.6316 31.327C17.2716 30.967 17.0916 30.607 17.0916 30.247V27.727L21.5916 24.127C21.7116 24.007 21.8916 24.007 22.1316 24.127L24.8316 26.467C25.1916 26.587 25.4916 26.587 25.7316 26.467L32.3916 19.807C32.6316 19.567 32.8716 19.567 33.1116 19.807L37.4316 25.027L37.2516 30.247ZM37.2516 22.687L34.1916 18.907C33.8316 18.547 33.4116 18.337 32.9316 18.277C32.4516 18.217 32.0316 18.307 31.6716 18.547C31.5516 18.547 31.4916 18.607 31.4916 18.727L25.3716 24.847L23.0316 22.867C22.6716 22.627 22.2816 22.507 21.8616 22.507C21.4416 22.507 21.0516 22.627 20.6916 22.867L17.0916 25.927V13.147C17.0916 12.787 17.2716 12.427 17.6316 12.067C17.9916 11.707 18.3516 11.527 18.7116 11.527H35.6316C36.1116 11.527 36.5016 11.707 36.8016 12.067C37.1016 12.427 37.2516 12.787 37.2516 13.147V22.687ZM23.0316 13.147C22.1916 13.147 21.4416 13.447 20.7816 14.047C20.1216 14.647 19.7916 15.397 19.7916 16.297C19.7916 17.197 20.1216 17.947 20.7816 18.547C21.4416 19.147 22.1916 19.447 23.0316 19.447C23.8716 19.447 24.6216 19.147 25.2816 18.547C25.9416 17.947 26.2716 17.197 26.2716 16.297C26.2716 15.397 25.9416 14.647 25.2816 14.047C24.6216 13.447 23.8716 13.147 23.0316 13.147ZM23.0316 18.007C22.5516 18.007 22.1316 17.827 21.7716 17.467C21.4116 17.107 21.2316 16.687 21.2316 16.207C21.2316 15.727 21.4116 15.307 21.7716 14.947C22.1316 14.587 22.5516 14.407 23.0316 14.407C23.5116 14.407 23.9316 14.587 24.2916 14.947C24.6516 15.307 24.8316 15.727 24.8316 16.207C24.8316 16.687 24.6516 17.107 24.2916 17.467C23.9316 17.827 23.5116 18.007 23.0316 18.007Z" fill="#212121"/>
</svg>
