<svg width="39" height="65" viewBox="0 0 39 65" fill="none" xmlns="http://www.w3.org/2000/svg">
<path d="M6.27865 1.46695C5.14087 1.32473 4.18087 1.60917 3.39865 2.32028C2.61642 3.03139 2.22531 3.95584 2.22531 5.09362V59.2803C2.22531 60.2758 2.61642 61.1647 3.39865 61.947C4.18087 62.7292 5.14087 63.0492 6.27865 62.907H32.9453C33.9409 63.0492 34.8298 62.7292 35.612 61.947C36.3942 61.1647 36.8564 60.2758 36.9986 59.2803V5.09362C36.8564 3.95584 36.3942 3.03139 35.612 2.32028C34.8298 1.60917 33.9409 1.25362 32.9453 1.25362L6.27865 1.46695ZM6.27865 0.186951H32.9453C34.3675 0.186951 35.5764 0.64917 36.572 1.57362C37.5675 2.49806 38.1364 3.67139 38.2786 5.09362V59.2803C38.1364 60.7025 37.5675 61.8758 36.572 62.8003C35.5764 63.7247 34.3675 64.187 32.9453 64.187H6.27865C4.85642 64.187 3.64753 63.7247 2.65198 62.8003C1.65642 61.8758 1.08753 60.7025 0.945312 59.2803V5.09362C1.08753 3.67139 1.65642 2.49806 2.65198 1.57362C3.64753 0.64917 4.85642 0.186951 6.27865 0.186951ZM8.83865 60.987H31.452C32.1631 60.987 32.8031 61.2358 33.372 61.7336C33.9409 62.2314 34.2253 62.8358 34.2253 63.547H6.27865C6.27865 62.8358 6.52754 62.2314 7.02531 61.7336C7.52309 61.2358 8.12754 60.987 8.83865 60.987ZM28.892 47.1203H9.90531C9.47865 47.1203 9.26531 46.9069 9.26531 46.4803C9.26531 46.0536 9.47865 45.8403 9.90531 45.8403H28.892C29.3186 45.8403 29.532 46.0536 29.532 46.4803C29.532 46.9069 29.3186 47.1203 28.892 47.1203ZM28.892 43.4936H9.90531C9.47865 43.4936 9.26531 43.2803 9.26531 42.8536C9.26531 42.427 9.47865 42.2136 9.90531 42.2136H28.892C29.3186 42.2136 29.532 42.427 29.532 42.8536C29.532 43.2803 29.3186 43.4936 28.892 43.4936ZM22.0653 50.9603H9.90531C9.47865 50.9603 9.26531 50.747 9.26531 50.3203C9.26531 49.8936 9.47865 49.6803 9.90531 49.6803H22.0653C22.6342 49.6803 22.8831 49.8936 22.812 50.3203C22.7409 50.747 22.492 50.9603 22.0653 50.9603ZM27.1853 11.9203H11.612C10.9009 11.9203 10.2609 12.1692 9.69198 12.667C9.12309 13.1647 8.83865 13.8403 8.83865 14.6936V30.2669C8.83865 30.9781 9.12309 31.5825 9.69198 32.0803C10.2609 32.5781 10.9009 32.827 11.612 32.827H27.1853C27.8964 32.827 28.5364 32.5781 29.1053 32.0803C29.6742 31.5825 29.9586 30.9781 29.9586 30.2669V14.6936C29.9586 13.8403 29.6742 13.1647 29.1053 12.667C28.5364 12.1692 27.8964 11.9203 27.1853 11.9203ZM28.6786 30.0536C28.6786 30.4803 28.5364 30.8358 28.252 31.1203C27.9675 31.4047 27.612 31.547 27.1853 31.547H11.612C11.1853 31.547 10.8298 31.4047 10.5453 31.1203C10.2609 30.8358 10.1186 30.4803 10.1186 30.0536V27.9203L14.172 24.507C14.3142 24.3647 14.4564 24.3647 14.5986 24.507L17.1586 26.6403C17.4431 26.7825 17.7275 26.7825 18.012 26.6403L23.9853 20.4536C24.2698 20.3114 24.4831 20.3114 24.6253 20.4536L28.4653 25.3603L28.6786 30.0536ZM28.6786 23.227L25.692 19.6003C25.4075 19.3158 25.052 19.1381 24.6253 19.0669C24.1986 18.9958 23.772 19.1025 23.3453 19.387L17.5853 25.1469L15.452 23.4403C15.1675 23.1558 14.812 23.0136 14.3853 23.0136C13.9586 23.0136 13.6031 23.1558 13.3186 23.4403L10.1186 26.2136V14.4803C10.1186 14.0536 10.2609 13.6981 10.5453 13.4136C10.8298 13.1292 11.1853 12.9869 11.612 12.9869H27.1853C27.4698 12.9869 27.7542 13.1292 28.0386 13.4136C28.3231 13.6981 28.4653 14.0536 28.4653 14.4803V23.227H28.6786ZM15.452 14.2669C14.7409 14.2669 14.1009 14.5869 13.532 15.2269C12.9631 15.867 12.6786 16.5781 12.6786 17.3603C12.6786 18.1425 12.9631 18.8181 13.532 19.387C14.1009 19.9558 14.7764 20.2403 15.5586 20.2403C16.3409 20.2403 17.0164 19.9558 17.5853 19.387C18.1542 18.8181 18.4386 18.1425 18.4386 17.3603C18.4386 16.5781 18.1542 15.867 17.5853 15.2269C17.0164 14.5869 16.3053 14.2669 15.452 14.2669ZM15.452 18.9603C15.0253 18.9603 14.6342 18.8181 14.2786 18.5336C13.9231 18.2492 13.7453 17.8581 13.7453 17.3603C13.7453 16.8625 13.9231 16.4358 14.2786 16.0803C14.6342 15.7247 15.0609 15.547 15.5586 15.547C16.0564 15.547 16.4475 15.7247 16.732 16.0803C17.0164 16.4358 17.1586 16.827 17.1586 17.2536C17.1586 17.8225 17.0164 18.2492 16.732 18.5336C16.4475 18.8181 16.0209 18.9603 15.452 18.9603Z" fill="white"/>
</svg>
