<svg width="20" height="71" viewBox="0 0 20 71" fill="none" xmlns="http://www.w3.org/2000/svg">
<path d="M4.55469 9.26695C3.71469 9.14695 2.96469 9.41695 2.30469 10.077C1.64469 10.7369 1.25469 11.4869 1.13469 12.327V58.047C1.13469 59.007 1.46469 59.787 2.12469 60.387C2.78469 60.987 3.59469 61.287 4.55469 61.287H14.6347C15.4747 61.287 16.2247 60.987 16.8847 60.387C17.5447 59.787 17.8747 59.007 17.8747 58.047V12.327C17.8747 11.3669 17.5447 10.5869 16.8847 9.98695C16.2247 9.38695 15.4747 9.08695 14.6347 9.08695L4.55469 9.26695ZM4.55469 8.18695H14.6347C15.7147 8.18695 16.7047 8.57695 17.6047 9.35695C18.5047 10.1369 19.0147 11.1269 19.1347 12.327V58.047C19.0147 59.247 18.5047 60.237 17.6047 61.017C16.7047 61.797 15.7147 62.187 14.6347 62.187H4.55469C3.35469 62.187 2.33469 61.797 1.49469 61.017C0.654688 60.237 0.174687 59.247 0.0546875 58.047V12.327C0.174687 11.1269 0.654688 10.1369 1.49469 9.35695C2.33469 8.57695 3.35469 8.18695 4.55469 8.18695ZM4.01469 59.487H15.3547C15.8347 59.487 16.2247 59.637 16.5247 59.937C16.8247 60.237 16.9747 60.567 16.9747 60.927C16.9747 61.167 16.9147 61.347 16.7947 61.467C16.6747 61.587 16.5547 61.647 16.4347 61.647H3.11469C2.87469 61.647 2.69469 61.587 2.57469 61.467C2.45469 61.347 2.39469 61.167 2.39469 60.927C2.39469 60.567 2.57469 60.237 2.93469 59.937C3.29469 59.637 3.65469 59.487 4.01469 59.487ZM14.6347 48.507H4.73469C4.61469 48.507 4.49469 48.4469 4.37469 48.327C4.25469 48.207 4.19469 48.057 4.19469 47.877C4.19469 47.6969 4.37469 47.547 4.73469 47.427H14.6347C14.7547 47.427 14.8747 47.4869 14.9947 47.6069C15.1147 47.7269 15.1447 47.9069 15.0847 48.1469C15.0247 48.387 14.8747 48.507 14.6347 48.507ZM14.6347 45.447H4.73469C4.61469 45.447 4.49469 45.3869 4.37469 45.267C4.25469 45.1469 4.19469 44.997 4.19469 44.8169C4.19469 44.6369 4.37469 44.4869 4.73469 44.3669H14.6347C14.7547 44.3669 14.8747 44.427 14.9947 44.5469C15.1147 44.667 15.1447 44.847 15.0847 45.087C15.0247 45.327 14.8747 45.447 14.6347 45.447ZM14.6347 42.747H4.73469C4.61469 42.747 4.49469 42.687 4.37469 42.5669C4.25469 42.4469 4.19469 42.267 4.19469 42.027C4.19469 41.7869 4.37469 41.667 4.73469 41.667H14.6347C14.7547 41.667 14.8747 41.6969 14.9947 41.757C15.1147 41.8169 15.1447 41.997 15.0847 42.2969C15.0247 42.597 14.8747 42.747 14.6347 42.747ZM10.8547 51.747H4.73469C4.61469 51.747 4.49469 51.687 4.37469 51.5669C4.25469 51.4469 4.19469 51.267 4.19469 51.0269C4.19469 50.787 4.37469 50.6069 4.73469 50.4869H10.8547C10.9747 50.4869 11.0647 50.547 11.1247 50.667C11.1847 50.787 11.2147 50.937 11.2147 51.117C11.2147 51.297 11.1847 51.4469 11.1247 51.5669C11.0647 51.687 10.9747 51.747 10.8547 51.747ZM13.7347 12.507H5.45469C4.97469 12.507 4.52469 12.7169 4.10469 13.1369C3.68469 13.5569 3.47469 14.007 3.47469 14.4869V30.327C3.47469 30.9269 3.68469 31.4069 4.10469 31.7669C4.52469 32.1269 4.97469 32.3069 5.45469 32.3069H13.7347C14.3347 32.3069 14.8147 32.1269 15.1747 31.7669C15.5347 31.4069 15.7147 30.9269 15.7147 30.327V14.4869C15.7147 14.007 15.5347 13.5569 15.1747 13.1369C14.8147 12.7169 14.3347 12.507 13.7347 12.507ZM14.8147 30.327C14.8147 30.6869 14.7247 30.9569 14.5447 31.1369C14.3647 31.3169 14.0947 31.4069 13.7347 31.4069H5.45469C5.21469 31.4069 4.97469 31.3169 4.73469 31.1369C4.49469 30.9569 4.37469 30.6869 4.37469 30.327V27.4469L6.71469 24.7469C6.83469 24.6269 7.01469 24.6269 7.25469 24.7469L8.33469 26.367C8.57469 26.4869 8.87469 26.4869 9.23469 26.367L11.9347 21.867C12.0547 21.7469 12.1747 21.7469 12.2947 21.867L14.9947 25.2869L14.8147 30.327ZM14.8147 23.847L13.0147 21.327C12.7747 21.0869 12.5047 20.937 12.2047 20.8769C11.9047 20.8169 11.5747 20.9069 11.2147 21.1469L8.69469 25.1069L7.61469 23.847C7.37469 23.7269 7.13469 23.667 6.89469 23.667C6.65469 23.667 6.41469 23.7869 6.17469 24.027L4.37469 26.007V14.4869C4.37469 14.2469 4.49469 14.007 4.73469 13.7669C4.97469 13.5269 5.21469 13.4069 5.45469 13.4069H13.7347C14.0947 13.4069 14.3647 13.5269 14.5447 13.7669C14.7247 14.007 14.8147 14.2469 14.8147 14.4869V23.847ZM7.43469 14.4869C6.95469 14.4869 6.50469 14.667 6.08469 15.0269C5.66469 15.3869 5.45469 15.8369 5.45469 16.3769C5.45469 16.917 5.66469 17.3969 6.08469 17.8169C6.50469 18.2369 6.98469 18.4469 7.52469 18.4469C8.06469 18.4469 8.54469 18.2369 8.96469 17.8169C9.38469 17.3969 9.59469 16.917 9.59469 16.3769C9.59469 15.8369 9.38469 15.3869 8.96469 15.0269C8.54469 14.667 8.03469 14.4869 7.43469 14.4869ZM7.43469 17.5469C7.19469 17.5469 6.95469 17.4269 6.71469 17.187C6.47469 16.9469 6.35469 16.6769 6.35469 16.3769C6.35469 16.077 6.47469 15.8069 6.71469 15.5669C6.95469 15.327 7.22469 15.2069 7.52469 15.2069C7.82469 15.2069 8.09469 15.327 8.33469 15.5669C8.57469 15.8069 8.69469 16.1069 8.69469 16.4669C8.69469 16.7069 8.57469 16.9469 8.33469 17.187C8.09469 17.4269 7.79469 17.5469 7.43469 17.5469Z" fill="#FBFBFB"/>
</svg>
