<svg width="54" height="54" viewBox="0 0 54 54" fill="none" xmlns="http://www.w3.org/2000/svg">
<path d="M27 0L46.0919 7.90812L54 27L46.0919 46.0919L27 54L7.90812 46.0919L0 27L7.90812 7.90812L27 0Z" fill="#F35252"/>
<path fill-rule="evenodd" clip-rule="evenodd" d="M25.2266 17.1155V35.5212H32.8575V37.6688C32.8575 38.0219 32.72 38.36 32.4755 38.61C32.2306 38.8595 31.8987 38.9997 31.5526 38.9998H16.3052C15.6044 39.0135 14.9862 38.3843 15.0002 37.6688V18.4469C15.0003 18.0938 15.1377 17.7552 15.3822 17.5053C15.6271 17.2557 15.9591 17.1155 16.3052 17.1155H25.2266ZM39 27.534H32.8575V33.8016H39V27.534ZM31.9196 21.267H25.7766V27.534H31.9196V21.267ZM39 15H32.8575V21.267H39V15Z" fill="white"/>
</svg>
