<svg width="54" height="54" viewBox="0 0 54 54" fill="none" xmlns="http://www.w3.org/2000/svg">
<path d="M27 0L46.0919 7.90812L54 27L46.0919 46.0919L27 54L7.90812 46.0919L0 27L7.90812 7.90812L27 0Z" fill="#2F2F3C"/>
<path d="M26.3438 24.2344V28.4531C26.3438 28.8414 26.6586 29.1562 27.0469 29.1562H35.4844C35.8727 29.1562 36.1875 28.8414 36.1875 28.4531V24.2344C36.1875 23.8461 35.8727 23.5312 35.4844 23.5312H27.0469C26.6586 23.5312 26.3438 23.8461 26.3438 24.2344ZM32.6719 34.7812H29.8594C29.4711 34.7812 29.1562 35.0961 29.1562 35.4844V38.2969C29.1562 38.6852 29.4711 39 29.8594 39H32.6719C33.0602 39 33.375 38.6852 33.375 38.2969V35.4844C33.375 35.0961 33.0602 34.7812 32.6719 34.7812ZM29.4219 15.7031C29.4219 15.3148 29.1071 15 28.7188 15H26.6094V17.8125H29.4219V15.7031ZM25.2031 15H15.7031C15.3148 15 15 15.3148 15 15.7031V17.8125H25.2031V15Z" fill="#919191"/>
<path d="M29.4219 31.2656V30.5625H27.0469C25.8838 30.5625 24.9375 29.6163 24.9375 28.4531V24.2344C24.9375 23.0712 25.8838 22.125 27.0469 22.125H29.4219V19.2188H15V31.2656C15 31.6539 15.3148 31.9688 15.7031 31.9688H28.7188C29.1071 31.9688 29.4219 31.6539 29.4219 31.2656ZM22.1235 29.1094H17.8125C17.4242 29.1094 17.1094 28.7946 17.1094 28.4062C17.1094 28.0179 17.4242 27.7031 17.8125 27.7031H22.1235C22.5119 27.7031 22.8267 28.0179 22.8267 28.4062C22.8267 28.7946 22.5119 29.1094 22.1235 29.1094ZM22.1235 26.2969H17.8125C17.4242 26.2969 17.1094 25.9821 17.1094 25.5938C17.1094 25.2054 17.4242 24.8906 17.8125 24.8906H22.1235C22.5119 24.8906 22.8267 25.2054 22.8267 25.5938C22.8267 25.9821 22.5119 26.2969 22.1235 26.2969ZM22.1235 23.4844H17.8125C17.4242 23.4844 17.1094 23.1696 17.1094 22.7812C17.1094 22.3929 17.4242 22.0781 17.8125 22.0781H22.1235C22.5119 22.0781 22.8267 22.3929 22.8267 22.7812C22.8267 23.1696 22.5119 23.4844 22.1235 23.4844ZM37.5938 25.7616V29.8594C37.5938 30.2471 37.2784 30.5625 36.8906 30.5625H32.6719C31.5087 30.5625 30.5625 31.5087 30.5625 32.6719V33.375H31.9688V32.6719C31.9688 32.2841 32.2841 31.9688 32.6719 31.9688H36.8906C38.0538 31.9688 39 31.0225 39 29.8594V27.75C39 26.8334 38.4121 26.0519 37.5938 25.7616Z" fill="#919191"/>
</svg>
