<svg width="20" height="21" viewBox="0 0 20 21" fill="none" xmlns="http://www.w3.org/2000/svg">
<path fill-rule="evenodd" clip-rule="evenodd" d="M10 0.186951C12.6687 0.235176 15.2117 1.32915 17.0819 3.23347C18.9521 5.13778 20 7.70019 20 10.3693C20 13.0384 18.9521 15.6008 17.0819 17.5051C15.2117 19.4094 12.6687 20.5034 10 20.5516C7.33134 20.5034 4.78827 19.4094 2.91806 17.5051C1.04785 15.6008 0 13.0384 0 10.3693C0 7.70019 1.04785 5.13778 2.91806 3.23347C4.78827 1.32915 7.33134 0.235176 10 0.186951ZM7.8854 13.677L5.39176 11.1811C5.18765 10.9763 5.07303 10.6989 5.07303 10.4097C5.07303 10.1206 5.18765 9.8432 5.39176 9.63838C5.59692 9.43446 5.87442 9.32001 6.16368 9.32001C6.45294 9.32001 6.73045 9.43446 6.9356 9.63838L8.69223 11.3972L13.0644 7.02505C13.2692 6.82093 13.5466 6.70632 13.8358 6.70632C14.1249 6.70632 14.4023 6.82093 14.6071 7.02505C14.811 7.23002 14.9254 7.50734 14.9254 7.79641C14.9254 8.08549 14.811 8.36281 14.6071 8.56778L9.46248 13.7124C9.35805 13.8163 9.2337 13.8981 9.0969 13.9527C8.9601 14.0074 8.81367 14.0339 8.66639 14.0306C8.51911 14.0272 8.37401 13.9942 8.23981 13.9335C8.1056 13.8727 7.98506 13.7855 7.8854 13.677Z" fill="#58E22F"/>
</svg>
