<svg width="54" height="54" viewBox="0 0 54 54" fill="none" xmlns="http://www.w3.org/2000/svg">
<path d="M27 0L46.0919 7.90812L54 27L46.0919 46.0919L27 54L7.90812 46.0919L0 27L7.90812 7.90812L27 0Z" fill="#F35252"/>
<path d="M36.745 14.9284H39.5301C39.6532 14.9284 39.7713 14.8795 39.8583 14.7924C39.9454 14.7054 39.9943 14.5873 39.9943 14.4642C39.9943 14.3411 39.9454 14.223 39.8583 14.136C39.7713 14.0489 39.6532 14 39.5301 14H36.745C36.6219 14 36.5038 14.0489 36.4168 14.136C36.3297 14.223 36.2808 14.3411 36.2808 14.4642C36.2808 14.5873 36.3297 14.7054 36.4168 14.7924C36.5038 14.8795 36.6219 14.9284 36.745 14.9284ZM39.2019 18.5058C39.2449 18.5491 39.2961 18.5834 39.3524 18.6068C39.4087 18.6303 39.4691 18.6423 39.5301 18.6423C39.5911 18.6423 39.6515 18.6303 39.7078 18.6068C39.7641 18.5834 39.8153 18.5491 39.8583 18.5058C39.9453 18.4188 39.9942 18.3007 39.9942 18.1777C39.9942 18.0546 39.9453 17.9365 39.8583 17.8495L38.4657 16.4569C38.4008 16.392 38.318 16.3479 38.228 16.33C38.1379 16.3122 38.0446 16.3215 37.9598 16.3567C37.9036 16.3799 37.8525 16.414 37.8094 16.4569L36.4168 17.8495C36.3725 17.8923 36.3371 17.9435 36.3128 18.0001C36.2885 18.0568 36.2757 18.1177 36.2751 18.1793C36.2746 18.241 36.2863 18.3021 36.3097 18.3591C36.333 18.4162 36.3675 18.468 36.4111 18.5116C36.4547 18.5552 36.5065 18.5896 36.5635 18.613C36.6206 18.6363 36.6817 18.6481 36.7433 18.6475C36.805 18.647 36.8659 18.6342 36.9225 18.6099C36.9791 18.5855 37.0304 18.5502 37.0732 18.5058L37.6734 17.9056V30.5184L37.0732 29.9183C37.0304 29.8739 36.9791 29.8386 36.9225 29.8142C36.8659 29.7899 36.805 29.7771 36.7433 29.7766C36.6817 29.776 36.6206 29.7878 36.5635 29.8111C36.5065 29.8345 36.4547 29.8689 36.4111 29.9125C36.3675 29.9561 36.333 30.0079 36.3097 30.065C36.2863 30.122 36.2746 30.1831 36.2751 30.2448C36.2757 30.3064 36.2885 30.3673 36.3128 30.4239C36.3371 30.4806 36.3725 30.5318 36.4168 30.5746L37.8094 31.9672C37.8743 32.032 37.9571 32.0762 38.0472 32.094C38.1372 32.1119 38.2305 32.1026 38.3153 32.0674C38.3716 32.0442 38.4227 32.0101 38.4657 31.9672L39.8583 30.5746C39.9026 30.5318 39.938 30.4806 39.9623 30.4239C39.9866 30.3673 39.9994 30.3064 40 30.2448C40.0005 30.1831 39.9888 30.122 39.9654 30.065C39.9421 30.0079 39.9076 29.9561 39.864 29.9125C39.8205 29.8689 39.7686 29.8345 39.7116 29.8111C39.6545 29.7878 39.5934 29.776 39.5318 29.7766C39.4701 29.7771 39.4092 29.7899 39.3526 29.8142C39.296 29.8386 39.2448 29.8739 39.2019 29.9183L38.6017 30.5184V17.9056L39.2019 18.5058ZM39.5301 33.4957H36.745C36.6219 33.4957 36.5038 33.5446 36.4168 33.6317C36.3297 33.7187 36.2808 33.8368 36.2808 33.9599C36.2808 34.083 36.3297 34.2011 36.4168 34.2881C36.5038 34.3752 36.6219 34.4241 36.745 34.4241H39.5301C39.6532 34.4241 39.7713 34.3752 39.8583 34.2881C39.9454 34.2011 39.9943 34.083 39.9943 33.9599C39.9943 33.8368 39.9454 33.7187 39.8583 33.6317C39.7713 33.5446 39.6532 33.4957 39.5301 33.4957ZM33.9599 36.2808C33.8368 36.2808 33.7187 36.3297 33.6317 36.4168C33.5446 36.5038 33.4957 36.6219 33.4957 36.745V39.5301C33.4957 39.6532 33.5446 39.7713 33.6317 39.8583C33.7187 39.9454 33.8368 39.9943 33.9599 39.9943C34.083 39.9943 34.2011 39.9454 34.2881 39.8583C34.3752 39.7713 34.4241 39.6532 34.4241 39.5301V36.745C34.4241 36.6219 34.3752 36.5038 34.2881 36.4168C34.2011 36.3297 34.083 36.2808 33.9599 36.2808ZM31.9672 37.8094L30.5746 36.4168C30.5318 36.3725 30.4806 36.3371 30.4239 36.3128C30.3673 36.2885 30.3064 36.2757 30.2448 36.2751C30.1831 36.2746 30.122 36.2863 30.065 36.3097C30.0079 36.333 29.9561 36.3675 29.9125 36.4111C29.8689 36.4547 29.8345 36.5065 29.8111 36.5635C29.7878 36.6206 29.776 36.6817 29.7766 36.7433C29.7771 36.805 29.7899 36.8659 29.8142 36.9225C29.8386 36.9791 29.8739 37.0304 29.9183 37.0732L30.5184 37.6734H17.9056L18.5058 37.0732C18.5502 37.0304 18.5855 36.9791 18.6099 36.9225C18.6342 36.8659 18.647 36.805 18.6475 36.7433C18.6481 36.6817 18.6363 36.6206 18.613 36.5635C18.5896 36.5065 18.5552 36.4547 18.5116 36.4111C18.468 36.3675 18.4162 36.333 18.3591 36.3097C18.3021 36.2863 18.241 36.2746 18.1793 36.2751C18.1177 36.2757 18.0568 36.2885 18.0001 36.3128C17.9435 36.3371 17.8923 36.3725 17.8495 36.4168L16.4569 37.8094C16.392 37.8743 16.3479 37.9571 16.33 38.0472C16.3122 38.1372 16.3215 38.2305 16.3567 38.3153C16.3799 38.3716 16.414 38.4227 16.4569 38.4657L17.8495 39.8583C17.8925 39.9015 17.9436 39.9359 17.9999 39.9593C18.0563 39.9827 18.1167 39.9948 18.1777 39.9948C18.2387 39.9948 18.299 39.9827 18.3554 39.9593C18.4117 39.9359 18.4628 39.9015 18.5058 39.8583C18.5929 39.7712 18.6417 39.6532 18.6417 39.5301C18.6417 39.407 18.5929 39.289 18.5058 39.2019L17.9056 38.6017H30.5184L29.9183 39.2019C29.8739 39.2448 29.8386 39.296 29.8142 39.3526C29.7899 39.4092 29.7771 39.4701 29.7766 39.5318C29.776 39.5934 29.7878 39.6545 29.8111 39.7116C29.8345 39.7686 29.8689 39.8205 29.9125 39.864C29.9561 39.9076 30.0079 39.9421 30.065 39.9654C30.122 39.9888 30.1831 40.0005 30.2448 40C30.3064 39.9994 30.3673 39.9866 30.4239 39.9623C30.4806 39.938 30.5318 39.9026 30.5746 39.8583L31.9672 38.4657C32.032 38.4008 32.0762 38.318 32.094 38.228C32.1119 38.1379 32.1026 38.0446 32.0674 37.9598C32.0442 37.9036 32.0101 37.8525 31.9672 37.8094ZM14.4642 36.2808C14.3411 36.2808 14.223 36.3297 14.136 36.4168C14.0489 36.5038 14 36.6219 14 36.745V39.5301C14 39.6532 14.0489 39.7713 14.136 39.8583C14.223 39.9454 14.3411 39.9943 14.4642 39.9943C14.5873 39.9943 14.7054 39.9454 14.7924 39.8583C14.8795 39.7713 14.9284 39.6532 14.9284 39.5301V36.745C14.9284 36.6219 14.8795 36.5038 14.7924 36.4168C14.7054 36.3297 14.5873 36.2808 14.4642 36.2808ZM30.9826 16.7851H17.4415L24.212 23.5557L30.9826 16.7851Z" fill="white"/>
<path d="M33.0315 14H15.3926C14.6248 14 14 14.6248 14 15.3926V33.0315C14 33.7993 14.6248 34.4241 15.3926 34.4241H33.0315C33.7993 34.4241 34.4241 33.7993 34.4241 33.0315V15.3926C34.4241 14.6248 33.7993 14 33.0315 14ZM32.5674 32.1032C32.5672 32.1949 32.5399 32.2846 32.4889 32.3609C32.4378 32.4371 32.3653 32.4966 32.2805 32.5316C32.2243 32.555 32.164 32.5672 32.1032 32.5674H16.3209C16.2291 32.5672 16.1395 32.5399 16.0632 32.4889C15.9869 32.4378 15.9275 32.3653 15.8925 32.2805C15.8691 32.2243 15.8569 32.164 15.8567 32.1032V16.3209C15.8568 16.2291 15.8842 16.1395 15.9352 16.0632C15.9863 15.9869 16.0588 15.9275 16.1436 15.8925C16.1998 15.8691 16.26 15.8569 16.3209 15.8567H32.1032C32.1949 15.8568 32.2846 15.8842 32.3609 15.9352C32.4371 15.9863 32.4966 16.0588 32.5316 16.1436C32.555 16.1998 32.5672 16.26 32.5674 16.3209V32.1032Z" fill="white"/>
<path d="M16.7851 17.4415V30.9826L23.5557 24.212L16.7851 17.4415ZM31.639 30.9826V17.4415L24.8684 24.212L31.639 30.9826ZM17.4415 31.639H30.9826L24.212 24.8684L17.4415 31.639Z" fill="white"/>
</svg>
