<svg width="16" height="23" viewBox="0 0 16 23" fill="none" xmlns="http://www.w3.org/2000/svg">
<path d="M13.6 9.05641H10.4V0.90826C10.4 0.692157 10.3157 0.484906 10.1657 0.332099C10.0157 0.179291 9.81217 0.0934448 9.6 0.0934448H6.4C6.18783 0.0934448 5.98434 0.179291 5.83431 0.332099C5.68429 0.484906 5.6 0.692157 5.6 0.90826V9.05641H2.4C1.76348 9.05641 1.15303 9.31395 0.702944 9.77237C0.252856 10.2308 0 10.8525 0 11.5009V13.1305H16V11.5009C16 10.8525 15.7471 10.2308 15.2971 9.77237C14.847 9.31395 14.2365 9.05641 13.6 9.05641ZM0 21.2786C0 21.4947 0.0842856 21.702 0.234315 21.8548C0.384344 22.0076 0.587827 22.0934 0.8 22.0934H3.2V18.8342C3.2 18.6181 3.28429 18.4108 3.43431 18.258C3.58434 18.1052 3.78783 18.0194 4 18.0194C4.21217 18.0194 4.41566 18.1052 4.56569 18.258C4.71571 18.4108 4.8 18.6181 4.8 18.8342V22.0934H6.4V19.649C6.4 19.4329 6.48429 19.2256 6.63432 19.0728C6.78434 18.92 6.98783 18.8342 7.2 18.8342C7.41217 18.8342 7.61566 18.92 7.76569 19.0728C7.91571 19.2256 8 19.4329 8 19.649V22.0934H15.2C15.4122 22.0934 15.6157 22.0076 15.7657 21.8548C15.9157 21.702 16 21.4947 16 21.2786V14.7601H0V21.2786Z" fill="white"/>
</svg>
