<svg width="32" height="32" viewBox="0 0 32 32" fill="none" xmlns="http://www.w3.org/2000/svg">
<rect x="0.5" y="0.5" width="31" height="31" rx="6.45833" fill="#F35252"/>
<path d="M21.5897 8.95245L16.8983 12.3626L24.759 18.0766C24.9194 17.3975 25.0003 16.7021 25 16.0043C25 13.1508 23.6661 10.6033 21.5897 8.95245ZM20.6752 8.3129C19.3118 7.48025 17.7109 7 16 7C14.1613 7 12.4499 7.55496 11.0235 8.50565L12.8163 14.0256L20.6752 8.3129ZM10.1339 9.18108C8.21623 10.8336 7 13.2794 7 16.0043C7 16.8416 7.11524 17.6524 7.32994 18.422H13.1353L10.1339 9.18108ZM7.69669 19.4773C9.01157 22.6122 12.0503 24.8508 15.6197 25L17.4132 19.4773H7.69669ZM16.7356 24.9783C20.2741 24.6906 23.2399 22.3464 24.4347 19.1451L19.7387 15.7315L16.7356 24.9783Z" fill="white"/>
</svg>
