<svg width="16" height="17" viewBox="0 0 16 17" fill="none" xmlns="http://www.w3.org/2000/svg">
<path d="M6.76913 0.0934448H0.615435C0.452212 0.0934448 0.295673 0.158285 0.180257 0.273702C0.0648403 0.389118 0 0.545656 0 0.70888V6.86257C0 7.20251 0.275499 7.47801 0.615435 7.47801H6.76913C6.93235 7.47801 7.08889 7.41317 7.20431 7.29775C7.31972 7.18234 7.38456 7.0258 7.38456 6.86257V0.70888C7.38456 0.545656 7.31972 0.389118 7.20431 0.273702C7.08889 0.158285 6.93235 0.0934448 6.76913 0.0934448ZM15.3846 0.0934448H9.23087C9.06765 0.0934448 8.91111 0.158285 8.79569 0.273702C8.68027 0.389118 8.61543 0.545656 8.61543 0.70888V6.86257C8.61543 7.20251 8.89093 7.47801 9.23087 7.47801H15.3846C15.5478 7.47801 15.7043 7.41317 15.8197 7.29775C15.9352 7.18234 16 7.0258 16 6.86257V0.70888C16 0.545656 15.9352 0.389118 15.8197 0.273702C15.7043 0.158285 15.5478 0.0934448 15.3846 0.0934448ZM14.7691 6.24714H9.84631V1.32432H14.7691V6.24714ZM6.76913 8.70888H0.615435C0.452212 8.70888 0.295673 8.77372 0.180257 8.88914C0.0648403 9.00455 0 9.16109 0 9.32432V15.478C0 15.8179 0.275499 16.0934 0.615435 16.0934H6.76913C6.93235 16.0934 7.08889 16.0286 7.20431 15.9132C7.31972 15.7978 7.38456 15.6412 7.38456 15.478V9.32432C7.38465 9.24347 7.36879 9.1634 7.33789 9.0887C7.307 9.01399 7.26167 8.94611 7.2045 8.88894C7.14734 8.83178 7.07946 8.78645 7.00475 8.75555C6.93004 8.72465 6.84997 8.70879 6.76913 8.70888ZM2.90622 14.8626C3.01701 14.6763 3.07603 14.4639 3.07718 14.2471C3.07718 14.0855 3.04534 13.9254 2.98348 13.7761C2.92162 13.6268 2.83096 13.4911 2.71666 13.3768C2.60237 13.2625 2.46668 13.1718 2.31734 13.11C2.168 13.0481 2.00795 13.0163 1.84631 13.0163C1.62078 13.0163 1.41234 13.0814 1.23087 13.1872V11.6151C1.41234 11.721 1.62078 11.7861 1.84631 11.7861C2.00795 11.7861 2.168 11.7542 2.31734 11.6924C2.46668 11.6305 2.60237 11.5398 2.71666 11.4255C2.83096 11.3112 2.92162 11.1756 2.98348 11.0262C3.04534 10.8769 3.07718 10.7168 3.07718 10.5552C3.07718 10.3297 3.01208 10.1212 2.90622 9.93975H4.47834C4.36755 10.126 4.30853 10.3385 4.30739 10.5552C4.30739 11.2351 4.85839 11.7861 5.53826 11.7861C5.76379 11.7861 5.97222 11.721 6.15369 11.6151V13.1872C5.96744 13.0764 5.75497 13.0174 5.53826 13.0163C5.21181 13.0163 4.89874 13.1459 4.6679 13.3768C4.43707 13.6076 4.30739 13.9207 4.30739 14.2471C4.30739 14.4727 4.37248 14.6811 4.47834 14.8626H2.90622ZM15.3846 8.70888H9.23087C9.06765 8.70888 8.91111 8.77372 8.79569 8.88914C8.68027 9.00455 8.61543 9.16109 8.61543 9.32432V15.4774C8.61543 15.8173 8.89093 16.0928 9.23087 16.0928H15.3839C15.5471 16.0928 15.7037 16.0279 15.8191 15.9125C15.9345 15.7971 15.9993 15.6406 15.9993 15.4774V9.32366C15.9994 9.2429 15.9836 9.16292 15.9527 9.08829C15.9219 9.01366 15.8766 8.94586 15.8195 8.88875C15.7624 8.83165 15.6946 8.78637 15.6199 8.7555C15.5453 8.72464 15.4653 8.70879 15.3846 8.70888ZM9.84631 12.656L12.5625 9.93975H13.8992L9.84631 13.9927V12.656ZM9.84631 9.93975H10.8221L9.84631 10.9155V9.93975ZM14.7691 10.8096V12.1457L12.0529 14.8626H10.7162L14.7691 10.8096ZM14.7691 14.8626H13.7927L14.7691 13.8862V14.8626Z" fill="white"/>
<path d="M3.69261 13.6317C4.3724 13.6317 4.92348 13.0806 4.92348 12.4008C4.92348 11.721 4.3724 11.17 3.69261 11.17C3.01282 11.17 2.46174 11.721 2.46174 12.4008C2.46174 13.0806 3.01282 13.6317 3.69261 13.6317Z" fill="white"/>
</svg>
