<svg width="52" height="54" viewBox="0 0 52 54" fill="none" xmlns="http://www.w3.org/2000/svg">
<circle cx="26" cy="26.9439" r="26" fill="white" fill-opacity="0.2"/>
<path d="M24.4014 16.5439H16.4016C16.1894 16.5439 15.9859 16.6282 15.8359 16.7783C15.6859 16.9283 15.6016 17.1318 15.6016 17.344V25.3438C15.6016 25.7857 15.9597 26.1439 16.4016 26.1439H24.4014C24.6136 26.1439 24.8171 26.0596 24.9672 25.9095C25.1172 25.7595 25.2015 25.556 25.2015 25.3438V17.344C25.2015 17.1318 25.1172 16.9283 24.9672 16.7783C24.8171 16.6282 24.6136 16.5439 24.4014 16.5439ZM35.6015 16.5439H27.6017C27.3895 16.5439 27.186 16.6282 27.036 16.7783C26.8859 16.9283 26.8016 17.1318 26.8016 17.344V25.3438C26.8016 25.7857 27.1598 26.1439 27.6017 26.1439H35.6015C35.8137 26.1439 36.0172 26.0596 36.1672 25.9095C36.3173 25.7595 36.4016 25.556 36.4016 25.3438V17.344C36.4016 17.1318 36.3173 16.9283 36.1672 16.7783C36.0172 16.6282 35.8137 16.5439 35.6015 16.5439ZM34.8014 24.5437H28.4018V18.1441H34.8014V24.5437ZM24.4014 27.744H16.4016C16.1894 27.744 15.9859 27.8283 15.8359 27.9783C15.6859 28.1284 15.6016 28.3319 15.6016 28.5441V36.5439C15.6016 36.9858 15.9597 37.3439 16.4016 37.3439H24.4014C24.6136 37.3439 24.8171 37.2597 24.9672 37.1096C25.1172 36.9596 25.2015 36.7561 25.2015 36.5439V28.5441C25.2016 28.439 25.181 28.3349 25.1408 28.2378C25.1007 28.1407 25.0417 28.0524 24.9674 27.9781C24.8931 27.9038 24.8049 27.8449 24.7077 27.8047C24.6106 27.7645 24.5065 27.7439 24.4014 27.744ZM19.3797 35.7438C19.5237 35.5017 19.6004 35.2255 19.6019 34.9437C19.6019 34.7336 19.5605 34.5255 19.4801 34.3314C19.3997 34.1373 19.2818 33.9609 19.1332 33.8123C18.9846 33.6637 18.8082 33.5458 18.6141 33.4654C18.42 33.385 18.2119 33.3436 18.0018 33.3436C17.7086 33.3436 17.4376 33.4282 17.2017 33.5659V31.5221C17.4376 31.6597 17.7086 31.7443 18.0018 31.7443C18.2119 31.7443 18.42 31.703 18.6141 31.6225C18.8082 31.5421 18.9846 31.4243 19.1332 31.2757C19.2818 31.1271 19.3997 30.9507 19.4801 30.7566C19.5605 30.5624 19.6019 30.3543 19.6019 30.1442C19.6019 29.851 19.5173 29.5801 19.3797 29.3441H21.4234C21.2794 29.5863 21.2027 29.8625 21.2012 30.1442C21.2012 31.028 21.9175 31.7443 22.8013 31.7443C23.0945 31.7443 23.3654 31.6597 23.6014 31.5221V33.5659C23.3592 33.4218 23.083 33.3451 22.8013 33.3436C22.3769 33.3436 21.9699 33.5122 21.6698 33.8123C21.3698 34.1124 21.2012 34.5194 21.2012 34.9437C21.2012 35.2369 21.2858 35.5079 21.4234 35.7438H19.3797ZM35.6015 27.744H27.6017C27.3895 27.744 27.186 27.8283 27.036 27.9783C26.8859 28.1284 26.8016 28.3319 26.8016 28.5441V36.543C26.8016 36.9849 27.1598 37.3431 27.6017 37.3431H35.6006C35.8128 37.3431 36.0163 37.2588 36.1664 37.1088C36.3164 36.9587 36.4007 36.7552 36.4007 36.543V28.5432C36.4008 28.4382 36.3802 28.3343 36.3401 28.2372C36.3 28.1402 36.2411 28.0521 36.1669 27.9778C36.0926 27.9036 36.0045 27.8447 35.9075 27.8046C35.8105 27.7645 35.7065 27.7439 35.6015 27.744ZM28.4018 32.8752L31.9328 29.3441H33.6706L28.4018 34.613V32.8752ZM28.4018 29.3441H29.6702L28.4018 30.6126V29.3441ZM34.8014 30.475V32.2119L31.2704 35.7438H29.5326L34.8014 30.475ZM34.8014 35.7438H33.5321L34.8014 34.4745V35.7438Z" fill="white"/>
<path d="M20.402 34.1437C21.2857 34.1437 22.0021 33.4273 22.0021 32.5436C22.0021 31.6598 21.2857 30.9434 20.402 30.9434C19.5182 30.9434 18.8018 31.6598 18.8018 32.5436C18.8018 33.4273 19.5182 34.1437 20.402 34.1437Z" fill="white"/>
</svg>
