<svg width="20" height="28" viewBox="0 0 20 28" fill="none" xmlns="http://www.w3.org/2000/svg">
<path d="M2.85714 9.49795V6.87445C2.85714 5.0137 4.39543 3.49945 6.28571 3.49945C8.176 3.49945 9.71429 5.0137 9.71429 6.87445V9.12445C9.83314 9.12445 9.94514 9.15145 10.0617 9.1627C10.9379 8.23512 11.4261 7.01609 11.4286 5.74945C11.4286 4.40679 10.8867 3.11913 9.92226 2.16972C8.95779 1.22032 7.64968 0.686951 6.28571 0.686951C4.92174 0.686951 3.61364 1.22032 2.64917 2.16972C1.68469 3.11913 1.14286 4.40679 1.14286 5.74945C1.14286 7.24345 1.81257 8.57095 2.85714 9.49795Z" fill="white"/>
<path d="M18.2857 13.062C17.8311 13.062 17.395 13.2397 17.0735 13.5562C16.752 13.8727 16.5714 14.3019 16.5714 14.7495V15.0307C16.5714 15.1053 16.5413 15.1768 16.4877 15.2296C16.4342 15.2823 16.3615 15.312 16.2857 15.312C16.2099 15.312 16.1373 15.2823 16.0837 15.2296C16.0301 15.1768 16 15.1053 16 15.0307V13.6245C16 13.1769 15.8194 12.7477 15.4979 12.4312C15.1764 12.1147 14.7404 11.937 14.2857 11.937C13.8311 11.937 13.395 12.1147 13.0735 12.4312C12.752 12.7477 12.5714 13.1769 12.5714 13.6245V15.0307C12.5714 15.1053 12.5413 15.1768 12.4877 15.2296C12.4342 15.2823 12.3615 15.312 12.2857 15.312C12.2099 15.312 12.1373 15.2823 12.0837 15.2296C12.0301 15.1768 12 15.1053 12 15.0307V12.4995C12 12.0519 11.8194 11.6227 11.4979 11.3062C11.1764 10.9897 10.7404 10.812 10.2857 10.812C9.83106 10.812 9.39502 10.9897 9.07353 11.3062C8.75204 11.6227 8.57143 12.0519 8.57143 12.4995V15.0307C8.57143 15.1053 8.54133 15.1768 8.48775 15.2296C8.43416 15.2823 8.36149 15.312 8.28572 15.312C8.20994 15.312 8.13727 15.2823 8.08368 15.2296C8.0301 15.1768 8 15.1053 8 15.0307V6.87445C8 6.4269 7.81939 5.99768 7.4979 5.68121C7.17641 5.36474 6.74037 5.18695 6.28571 5.18695C5.83106 5.18695 5.39502 5.36474 5.07353 5.68121C4.75204 5.99768 4.57143 6.4269 4.57143 6.87445V16.9995C4.41988 16.9995 4.27453 16.9402 4.16737 16.8347C4.0602 16.7292 4 16.5861 4 16.437V14.187H3.43543C1.55543 14.187 -0.00114223 15.681 6.28926e-07 17.5316C0.00571491 23.4727 4.39886 27.687 7.10057 27.687H14.2857C15.0361 27.687 15.7792 27.5415 16.4725 27.2588C17.1658 26.9761 17.7957 26.5618 18.3263 26.0394C18.8569 25.5171 19.2779 24.897 19.565 24.2145C19.8522 23.5321 20 22.8006 20 22.062V14.7495C20 14.3019 19.8194 13.8727 19.4979 13.5562C19.1764 13.2397 18.7404 13.062 18.2857 13.062Z" fill="white"/>
</svg>
