<svg width="16" height="15" viewBox="0 0 16 15" fill="none" xmlns="http://www.w3.org/2000/svg">
<path d="M14.0089 10.1711L16 8.22094L14.0089 6.27058L14.3297 5.95633C14.8848 5.41264 14.8848 4.52806 14.3298 3.98436C14.0609 3.72109 13.7034 3.57602 13.3231 3.57602C12.943 3.57602 12.5854 3.72109 12.3167 3.98436L11.9958 4.29861L10.0047 2.34828L9.41724 2.9239V3.83361C10.4565 4.07619 11.2318 4.99343 11.2318 6.08465C11.2318 7.17597 10.4565 8.0932 9.41724 8.3357V11.1565H7.69359L7.34999 11.4931L10.0048 14.0934L11.9959 12.1431L12.2724 12.414C12.8274 12.9577 13.7305 12.9577 14.2856 12.414C14.8406 11.8703 14.8406 10.9858 14.2856 10.4421L14.0089 10.1711Z" fill="white"/>
<path d="M8.47863 10.2373V7.47907H8.86963C9.65467 7.47907 10.2932 6.85362 10.2932 6.08466C10.2932 5.31579 9.65467 4.69033 8.86963 4.69033H8.47863V1.9322H5.66285V1.48789C5.66282 0.718934 5.02429 0.0934448 4.23925 0.0934448C3.45435 0.0934448 2.81582 0.718934 2.81582 1.48789V1.9322H0V4.69036H0.391125C1.07984 4.69036 1.65575 5.17186 1.78663 5.80929C1.84555 5.88953 1.87725 5.98589 1.87725 6.08473C1.87725 6.18358 1.84555 6.27993 1.78663 6.36018C1.65575 6.99748 1.07984 7.4791 0.391125 7.4791H0V10.2373H2.81578V9.79281C2.81578 9.02397 3.45435 8.39851 4.23925 8.39851C5.02429 8.39851 5.66285 9.02397 5.66285 9.79281V10.2373H8.47863Z" fill="white"/>
</svg>
