<svg width="20" height="21" viewBox="0 0 20 21" fill="none" xmlns="http://www.w3.org/2000/svg">
<path fill-rule="evenodd" clip-rule="evenodd" d="M10 0.186951C15.5229 0.18696 20 4.66413 20 10.187C20 15.7098 15.5229 20.1869 10 20.187C4.47718 20.187 9.30847e-06 15.7098 0 10.187C0 4.66412 4.47717 0.186951 10 0.186951ZM12.8878 6.41046C12.771 6.41046 12.6554 6.43346 12.5476 6.47815C12.4397 6.52285 12.3417 6.58838 12.2591 6.67096L10 8.93007L7.74138 6.67096C7.65883 6.58838 7.56081 6.52285 7.45295 6.47815C7.34509 6.43346 7.22947 6.41046 7.11272 6.41046C6.99596 6.41046 6.88031 6.43346 6.77245 6.47815C6.66458 6.52285 6.56656 6.58838 6.48401 6.67096C6.40144 6.7535 6.33593 6.8515 6.29124 6.95935C6.24655 7.06722 6.22355 7.18287 6.22355 7.29963C6.22355 7.41638 6.24655 7.53199 6.29124 7.63985C6.33594 7.74772 6.40144 7.84574 6.48401 7.92829L8.74316 10.187L6.48401 12.4456C6.40144 12.5282 6.33594 12.6262 6.29124 12.734C6.24655 12.8419 6.22356 12.9575 6.22355 13.0743C6.22355 13.191 6.24655 13.3067 6.29124 13.4145C6.33593 13.5224 6.40144 13.6204 6.48401 13.7029C6.56656 13.7855 6.66458 13.8511 6.77245 13.8957C6.88031 13.9404 6.99596 13.9634 7.11272 13.9634C7.22947 13.9634 7.34509 13.9404 7.45295 13.8957C7.56081 13.8511 7.65883 13.7855 7.74138 13.7029L10 11.4438L12.2587 13.7029C12.3412 13.7855 12.4393 13.8511 12.5471 13.8957C12.655 13.9404 12.7706 13.9634 12.8874 13.9634C13.0041 13.9634 13.1197 13.9404 13.2276 13.8957C13.3355 13.8511 13.4335 13.7855 13.516 13.7029C13.5986 13.6204 13.6641 13.5224 13.7088 13.4145C13.7535 13.3067 13.7765 13.191 13.7765 13.0743C13.7765 12.9575 13.7535 12.8419 13.7088 12.734C13.6641 12.6262 13.5982 12.5282 13.5156 12.4456L11.2573 10.187L13.5165 7.92829C13.5991 7.84574 13.6646 7.74772 13.7093 7.63985C13.754 7.53199 13.777 7.41638 13.777 7.29963C13.777 7.18287 13.754 7.06722 13.7093 6.95935C13.6646 6.8515 13.5991 6.7535 13.5165 6.67096C13.4339 6.58838 13.3359 6.52285 13.2281 6.47815C13.1202 6.43346 13.0045 6.41046 12.8878 6.41046Z" fill="#F35252"/>
</svg>
