<svg width="54" height="70" viewBox="0 0 54 70" fill="none" xmlns="http://www.w3.org/2000/svg">
<path d="M43.3612 17.7793H10.639C10.1623 17.7793 9.77223 18.1693 9.77223 18.646V51.354C9.77223 51.8307 10.1623 52.2207 10.639 52.2207H43.3612C43.8379 52.2207 44.228 51.8307 44.228 51.354V18.646C44.228 18.1693 43.8379 17.7793 43.3612 17.7793ZM42.4944 50.4873H11.5059V19.5127H42.4944V50.4873Z" fill="white"/>
<path d="M52.1332 19.9113H47.6778V15.1967C47.6778 14.7113 47.2877 14.33 46.811 14.33H42.0955V9.86667C42.0955 9.39 41.7054 9 41.2287 9H37.5621C37.0767 9 36.6953 9.39 36.6953 9.86667V14.33H29.7001V9.86667C29.7001 9.39 29.3101 9 28.8333 9H25.1667C24.6899 9 24.2999 9.39 24.2999 9.86667V14.33H17.3047V9.86667C17.3047 9.39 16.9233 9 16.4379 9H12.7713C12.2945 9 11.9045 9.39 11.9045 9.86667V14.33H7.18903C6.71228 14.33 6.32222 14.7113 6.32222 15.1967V19.9113H1.86681C1.39006 19.9113 1 20.3013 1 20.778V24.444C1 24.9207 1.39006 25.3107 1.86681 25.3107H6.32222V32.3047H1.86681C1.39006 32.3047 1 32.686 1 33.1713V36.8287C1 37.314 1.39006 37.6953 1.86681 37.6953H6.32222V44.6893H1.86681C1.39006 44.6893 1 45.0793 1 45.556V49.222C1 49.6987 1.39006 50.0887 1.86681 50.0887H6.32222V54.8033C6.32222 55.2887 6.71228 55.67 7.18903 55.67H11.9045V60.1333C11.9045 60.61 12.2945 61 12.7713 61H16.4379C16.9233 61 17.3047 60.61 17.3047 60.1333V55.67H24.2999V60.1333C24.2999 60.61 24.6899 61 25.1667 61H28.8333C29.3101 61 29.7001 60.61 29.7001 60.1333V55.67H36.6953V60.1333C36.6953 60.61 37.0767 61 37.5621 61H41.2287C41.7054 61 42.0955 60.61 42.0955 60.1333V55.67H46.811C47.2877 55.67 47.6778 55.2887 47.6778 54.8033V50.0887H52.1332C52.6099 50.0887 53 49.6987 53 49.222V45.556C53 45.0793 52.6099 44.6893 52.1332 44.6893H47.6778V37.6953H52.1332C52.6099 37.6953 53 37.314 53 36.8287V33.1713C53 32.686 52.6099 32.3047 52.1332 32.3047H47.6778V25.3107H52.1332C52.6099 25.3107 53 24.9207 53 24.444V20.778C53 20.3013 52.6099 19.9113 52.1332 19.9113ZM45.9442 53.9367H8.05584V16.0633H45.9442V53.9367Z" fill="white"/>
<path d="M15.6577 37.652C15.6577 38.1373 16.0477 38.5187 16.5245 38.5187H18.7175L17.1659 40.07C17.0856 40.1502 17.0218 40.2454 16.9783 40.3503C16.9348 40.4551 16.9124 40.5675 16.9124 40.681C16.9124 40.7945 16.9348 40.9069 16.9783 41.0117C17.0218 41.1166 17.0856 41.2118 17.1659 41.292L20.7892 44.9147C20.9539 45.0793 21.1793 45.1747 21.4046 45.1747C21.5193 45.1742 21.6328 45.151 21.7384 45.1063C21.8441 45.0617 21.9398 44.9966 22.0201 44.9147L23.563 43.372V45.556C23.563 46.0327 23.9531 46.4227 24.4298 46.4227H29.5613C30.0381 46.4227 30.4281 46.0327 30.4281 45.556V43.372L31.9711 44.9147C32.3005 45.244 32.8725 45.244 33.2019 44.9147L36.8252 41.292C36.9056 41.2118 36.9693 41.1166 37.0128 41.0117C37.0563 40.9069 37.0787 40.7945 37.0787 40.681C37.0787 40.5675 37.0563 40.4551 37.0128 40.3503C36.9693 40.2454 36.9056 40.1502 36.8252 40.07L35.2736 38.5187H37.4666C37.9434 38.5187 38.3335 38.1373 38.3335 37.652V32.53C38.3335 32.0533 37.9434 31.6633 37.4666 31.6633H35.2736L36.8252 30.1207C37.1633 29.774 37.1633 29.228 36.8252 28.89L33.2019 25.2673C33.0372 25.1027 32.8119 25.016 32.5865 25.016C32.3525 25.016 32.1358 25.1027 31.9711 25.2673L30.4281 26.81V24.626C30.4281 24.1493 30.0381 23.7593 29.5613 23.7593H24.4298C23.9531 23.7593 23.563 24.1493 23.563 24.626V26.81L22.0201 25.2673C21.6907 24.938 21.1186 24.938 20.7892 25.2673L17.1659 28.89C16.8279 29.228 16.8279 29.774 17.1659 30.1207L18.7175 31.6633H16.5245C16.0477 31.6633 15.6577 32.0533 15.6577 32.53V37.652ZM31.529 35C31.529 37.496 29.492 39.5327 26.9956 39.5327C24.4992 39.5327 22.4621 37.496 22.4621 35C22.4621 32.504 24.4992 30.4673 26.9956 30.4673C29.492 30.4673 31.529 32.504 31.529 35ZM39.4083 23.4768C39.6382 23.4768 39.8587 23.3855 40.0212 23.223C40.1838 23.0604 40.2751 22.84 40.2751 22.6101C40.2751 22.3803 40.1838 22.1598 40.0212 21.9973C39.8587 21.8348 39.6382 21.7435 39.4083 21.7435H39.3996C38.9212 21.7435 38.5372 22.1317 38.5372 22.6101C38.5372 23.0885 38.9298 23.4768 39.4083 23.4768ZM39.4083 48.2565C39.6382 48.2565 39.8587 48.1652 40.0212 48.0027C40.1838 47.8402 40.2751 47.6197 40.2751 47.3899C40.2751 47.16 40.1838 46.9396 40.0212 46.777C39.8587 46.6145 39.6382 46.5232 39.4083 46.5232H39.3996C38.9212 46.5232 38.5372 46.9115 38.5372 47.3899C38.5372 47.8683 38.9298 48.2565 39.4083 48.2565ZM14.6244 48.2565C14.8543 48.2565 15.0748 48.1652 15.2374 48.0027C15.3999 47.8402 15.4913 47.6197 15.4913 47.3899C15.4913 47.16 15.3999 46.9396 15.2374 46.777C15.0748 46.6145 14.8543 46.5232 14.6244 46.5232H14.6158C14.1373 46.5232 13.7533 46.9115 13.7533 47.3899C13.7533 47.8683 14.146 48.2565 14.6244 48.2565ZM14.9885 23.4768C15.2184 23.4768 15.4389 23.3855 15.6014 23.223C15.764 23.0604 15.8553 22.84 15.8553 22.6101C15.8553 22.3803 15.764 22.1598 15.6014 21.9973C15.4389 21.8348 15.2184 21.7435 14.9885 21.7435H14.9798C14.5014 21.7435 14.1174 22.1317 14.1174 22.6101C14.1174 23.0885 14.51 23.4768 14.9885 23.4768Z" fill="white"/>
</svg>
