<svg width="55" height="70" viewBox="0 0 55 70" fill="none" xmlns="http://www.w3.org/2000/svg">
<path d="M37.8964 22.3631H18.1035C17.377 22.3638 16.6805 22.6526 16.1668 23.1662C15.653 23.6798 15.364 24.3762 15.3631 25.1027V44.8965C15.364 45.6229 15.653 46.3193 16.1668 46.8329C16.6805 47.3465 17.377 47.6353 18.1035 47.636H37.8964C38.6229 47.6353 39.3194 47.3465 39.8331 46.8329C40.3469 46.3193 40.6359 45.6229 40.6368 44.8965V30.6528C40.6368 30.4229 40.5455 30.2025 40.383 30.04C40.2204 29.8774 40 29.7861 39.7702 29.7861C39.5403 29.7861 39.3199 29.8774 39.1573 30.04C38.9948 30.2025 38.9035 30.4229 38.9035 30.6528V44.8973C38.9035 45.452 38.452 45.9035 37.8964 45.9035H18.1035C17.8366 45.9033 17.5807 45.7972 17.3919 45.6086C17.2032 45.42 17.0969 45.1642 17.0964 44.8973V25.1035C17.0964 24.5489 17.548 24.0973 18.1035 24.0973H37.8964C38.452 24.0973 38.9035 24.5489 38.9035 25.1035C38.9035 25.3334 38.9948 25.5538 39.1573 25.7164C39.3199 25.8789 39.5403 25.9702 39.7702 25.9702C40 25.9702 40.2204 25.8789 40.383 25.7164C40.5455 25.5538 40.6368 25.3334 40.6368 25.1035C40.6359 24.3771 40.3469 23.6807 39.8331 23.1671C39.3194 22.6535 38.6229 22.3638 37.8964 22.3631Z" fill="#212121"/>
<path d="M53.1333 28.812C53.61 28.812 54 28.422 54 27.9453V24.1233C54 23.6467 53.61 23.2567 53.1333 23.2567H45.732V22.1387C45.732 19.452 43.548 17.268 40.8613 17.268H39.7433V9.86667C39.7433 9.39 39.3533 9 38.8767 9H35.0547C34.578 9 34.188 9.39 34.188 9.86667V17.268H30.782V9.86667C30.782 9.39 30.392 9 29.9153 9H26.0847C25.608 9 25.218 9.39 25.218 9.86667V17.268H21.812V9.86667C21.812 9.39 21.422 9 20.9453 9H17.1233C16.6467 9 16.2567 9.39 16.2567 9.86667V17.268H15.1387C12.452 17.268 10.268 19.452 10.268 22.1387V23.2567H2.86667C2.39 23.2567 2 23.6467 2 24.1233V27.9453C2 28.422 2.39 28.812 2.86667 28.812H10.268V32.218H2.86667C2.39 32.218 2 32.608 2 33.0847V36.9153C2 37.392 2.39 37.782 2.86667 37.782H10.268V41.188H2.86667C2.39 41.188 2 41.578 2 42.0547V45.8767C2 46.3533 2.39 46.7433 2.86667 46.7433H10.268V47.8613C10.268 50.548 12.452 52.732 15.1387 52.732H16.2567V60.1333C16.2567 60.61 16.6467 61 17.1233 61H20.9453C21.422 61 21.812 60.61 21.812 60.1333V52.732H25.218V60.1333C25.218 60.61 25.608 61 26.0847 61H29.9153C30.392 61 30.782 60.61 30.782 60.1333V52.732H34.188V60.1333C34.188 60.61 34.578 61 35.0547 61H38.8767C39.3533 61 39.7433 60.61 39.7433 60.1333V52.732H40.8613C43.548 52.732 45.732 50.548 45.732 47.8613V46.7433H53.1333C53.61 46.7433 54 46.3533 54 45.8767V42.0547C54 41.578 53.61 41.188 53.1333 41.188H45.732V37.782H53.1333C53.61 37.782 54 37.392 54 36.9153V33.0847C54 32.608 53.61 32.218 53.1333 32.218H45.732V28.812H53.1333ZM26.9513 10.7333H29.0487V17.268H26.9513V10.7333ZM17.99 10.7333H20.0787V17.268H17.99V10.7333ZM3.73333 27.0787V24.99H10.268V27.0787H3.73333ZM3.73333 36.0487V33.9513H10.268V36.0487H3.73333ZM3.73333 45.01V42.9213H10.268V45.01H3.73333ZM20.0787 59.2667H17.99V52.732H20.0787V59.2667ZM43.9987 47.8613C43.9987 49.5947 42.5947 50.9987 40.8613 50.9987H15.1387C13.4053 50.9987 12.0013 49.5947 12.0013 47.8613V22.1387C12.0013 20.4053 13.4053 19.0013 15.1387 19.0013H40.8613C42.5947 19.0013 43.9987 20.4053 43.9987 22.1387V47.8613Z" fill="#212121"/>
<path d="M39.7702 26.5569C39.5404 26.5569 39.32 26.6482 39.1574 26.8108C38.9949 26.9733 38.9036 27.1937 38.9036 27.4236V27.9462C38.9036 28.1761 38.9949 28.3965 39.1574 28.559C39.32 28.7216 39.5404 28.8129 39.7702 28.8129C40.0001 28.8129 40.2205 28.7216 40.3831 28.559C40.5456 28.3965 40.6369 28.1761 40.6369 27.9462V27.4236C40.6369 27.1937 40.5456 26.9733 40.3831 26.8108C40.2205 26.6482 40.0001 26.5569 39.7702 26.5569Z" fill="#212121"/>
<path d="M33.113 29.02H22.8863C22.4077 29.02 22.0197 29.408 22.0197 29.8867V40.1133C22.0197 40.592 22.4077 40.98 22.8863 40.98H33.113C33.5916 40.98 33.9797 40.592 33.9797 40.1133V29.8867C33.9797 29.408 33.5916 29.02 33.113 29.02Z" fill="#212121"/>
</svg>
