<svg width="32" height="32" viewBox="0 0 32 32" fill="none" xmlns="http://www.w3.org/2000/svg">
<rect x="0.5" y="0.5" width="31" height="31" rx="6.45833" fill="#F35252"/>
<path fill-rule="evenodd" clip-rule="evenodd" d="M22.4286 14.0787V23.071C22.4289 23.3243 22.3793 23.5752 22.2825 23.8093C22.1857 24.0434 22.0437 24.2561 21.8645 24.4353C21.6854 24.6145 21.4727 24.7566 21.2385 24.8535C21.0044 24.9504 20.7534 25.0002 20.5 25H8.92857C8.67515 25.0002 8.42419 24.9504 8.19004 24.8535C7.9559 24.7566 7.74317 24.6145 7.56403 24.4353C7.3849 24.2561 7.24288 24.0434 7.14609 23.8093C7.04931 23.5752 6.99966 23.3243 7 23.071V13.4284C6.99966 13.1751 7.04931 12.9242 7.14609 12.6901C7.24288 12.456 7.3849 12.2432 7.56403 12.0641C7.74317 11.8849 7.9559 11.7428 8.19004 11.6459C8.42419 11.549 8.67515 11.4992 8.92857 11.4994H11.5V16.6426C11.4999 16.8813 11.5663 17.1153 11.6918 17.3185C11.8173 17.5216 11.9969 17.6858 12.2104 17.7926C12.424 17.8994 12.6632 17.9446 12.901 17.9232C13.1389 17.9018 13.3661 17.8146 13.5571 17.6714L14.7143 16.8039L15.8714 17.6714C16.0625 17.8146 16.2897 17.9018 16.5276 17.9232C16.7654 17.9446 17.0045 17.8994 17.2181 17.7926C17.4317 17.6858 17.6113 17.5216 17.7368 17.3185C17.8623 17.1153 17.9287 16.8813 17.9286 16.6426V14.7142H19.8571C20.6424 14.714 21.4005 14.4264 21.9882 13.9058L22.4286 14.0787ZM10.2143 22.4284H12.7857C12.9562 22.4284 13.1197 22.3607 13.2403 22.2402C13.3608 22.1197 13.4286 21.9562 13.4286 21.7858C13.4286 21.6154 13.3608 21.4519 13.2403 21.3314C13.1197 21.2109 12.9562 21.1432 12.7857 21.1432H10.2143C10.0438 21.1432 9.88028 21.2109 9.75972 21.3314C9.63916 21.4519 9.57143 21.6154 9.57143 21.7858C9.57143 21.9562 9.63916 22.1197 9.75972 22.2402C9.88028 22.3607 10.0438 22.4284 10.2143 22.4284ZM16.6429 14.7148V16.6426C16.6429 16.5282 16.594 16.5462 16.5657 16.5848L15.4857 15.7751C15.2632 15.6083 14.9925 15.5181 14.7143 15.5181C14.4361 15.5181 14.1654 15.6083 13.9429 15.7751L12.7857 16.6426V11.5C12.7855 11.9221 12.8684 12.3401 13.0298 12.7301C13.1913 13.1202 13.428 13.4746 13.7265 13.7731C14.025 14.0717 14.3794 14.3085 14.7695 14.4701C15.1596 14.6317 15.5777 14.7148 16 14.7148H16.6429ZM21.5806 12.3656C21.42 12.6848 21.1737 12.9533 20.8694 13.1409C20.5651 13.3286 20.2147 13.4281 19.8571 13.4284H16C15.7466 13.4284 15.4957 13.3785 15.2617 13.2815C15.0276 13.1846 14.8149 13.0425 14.6358 12.8633C14.4567 12.6842 14.3147 12.4715 14.2179 12.2375C14.121 12.0034 14.0713 11.7526 14.0714 11.4994V8.92903C14.0714 8.41764 14.2746 7.92718 14.6362 7.56545C14.9979 7.20373 15.4884 7.00034 16 7H19.8571C20.2141 6.99986 20.564 7.0988 20.868 7.28577C21.1719 7.47275 21.418 7.74043 21.5787 8.05897L23.2289 7.38683C23.4241 7.30695 23.636 7.27635 23.8459 7.29774C24.0557 7.31913 24.2571 7.39186 24.4321 7.50949C24.6072 7.62712 24.7506 7.78604 24.8496 7.9722C24.9487 8.15837 25.0003 8.36605 25 8.5769V11.8213C25.0001 12.0307 24.9491 12.237 24.8513 12.4222C24.7535 12.6073 24.6119 12.7658 24.4388 12.8838C24.2658 13.0018 24.0665 13.0758 23.8583 13.0993C23.6501 13.1227 23.4394 13.095 23.2444 13.0184L21.5806 12.3656Z" fill="white"/>
</svg>
