<svg width="95" height="70" viewBox="0 0 95 70" fill="none" xmlns="http://www.w3.org/2000/svg">
<path d="M12.0736 0.5H82.9264C86.3155 0.5 89.175 1.34615 91.505 3.03846C93.835 4.73077 95 6.80769 95 9.26923V60.7308C95 63.1923 93.835 65.2692 91.505 66.9615C89.175 68.6538 86.3155 69.5 82.9264 69.5H12.0736C8.6845 69.5 5.82497 68.6538 3.49498 66.9615C1.16499 65.2692 0 63.1923 0 60.7308V9.26923C0 6.80769 1.16499 4.73077 3.49498 3.03846C5.82497 1.34615 8.6845 0.5 12.0736 0.5ZM82.9264 67.6538C85.68 67.6538 87.9571 67 89.7575 65.6923C91.558 64.3846 92.4582 62.7308 92.4582 60.7308V9.26923C92.4582 7.42308 91.558 5.80769 89.7575 4.42307C87.9571 3.03846 85.68 2.34615 82.9264 2.34615H12.0736C9.53177 2.34615 7.30769 3.03846 5.40134 4.42307C3.49498 5.80769 2.54181 7.42308 2.54181 9.26923V60.7308C2.54181 62.7308 3.49498 64.3846 5.40134 65.6923C7.30769 67 9.53177 67.6538 12.0736 67.6538H82.9264ZM16.5217 64.8846H78.796C80.0669 64.8846 81.1789 65.2308 82.1321 65.9231C83.0853 66.6154 83.5619 67.4231 83.5619 68.3462H11.7559C11.7559 67.4231 12.2324 66.6154 13.1856 65.9231C14.1388 65.2308 15.2508 64.8846 16.5217 64.8846ZM65.7692 50.1154H28.913C28.7012 50.1154 28.4894 50 28.2776 49.7692C28.0658 49.5385 27.9599 49.3462 27.9599 49.1923C27.9599 48.8846 28.0658 48.6538 28.2776 48.5C28.4894 48.3462 28.7012 48.2692 28.913 48.2692H65.7692C66.1929 48.2692 66.5106 48.3462 66.7224 48.5C66.9342 48.6538 67.0401 48.8462 67.0401 49.0769C67.0401 49.3077 66.9342 49.5385 66.7224 49.7692C66.5106 50 66.1929 50.1154 65.7692 50.1154ZM52.7425 55.1923H28.913C28.7012 55.1923 28.4894 55.1154 28.2776 54.9615C28.0658 54.8077 27.9599 54.5769 27.9599 54.2692C27.9599 54.1154 28.0658 53.9615 28.2776 53.8077C28.4894 53.6538 28.7012 53.5769 28.913 53.5769H52.7425C52.9543 53.5769 53.1661 53.6538 53.3779 53.8077C53.5897 53.9615 53.6957 54.1154 53.6957 54.2692C53.9075 54.5769 53.9075 54.8077 53.6957 54.9615C53.4838 55.1154 53.1661 55.1923 52.7425 55.1923ZM62.2742 13.4231H32.408C30.9253 13.4231 29.7074 13.7692 28.7542 14.4615C27.801 15.1538 27.3244 16.0385 27.3244 17.1154V38.8077C27.3244 39.8846 27.801 40.7692 28.7542 41.4615C29.7074 42.1538 30.9253 42.5 32.408 42.5H62.2742C63.757 42.5 64.9749 42.1538 65.9281 41.4615C66.8813 40.7692 67.3579 39.8846 67.3579 38.8077V17.1154C67.5697 16.0385 67.146 15.1538 66.087 14.4615C65.0279 13.7692 63.757 13.4231 62.2742 13.4231ZM65.1338 39.0385C65.1338 39.5 64.869 39.9615 64.3395 40.4231C63.8099 40.8846 63.1215 41.1154 62.2742 41.1154H32.408C31.7726 41.1154 31.1371 40.8846 30.5017 40.4231C29.8662 39.9615 29.5485 39.5 29.5485 39.0385V35.8077L37.4916 31.1923C37.7035 31.0385 38.0212 31.0385 38.4448 31.1923L43.2107 34.1923C43.8462 34.3462 44.3757 34.3462 44.7993 34.1923L56.5552 25.6538C56.9788 25.3462 57.4025 25.3462 57.8261 25.6538L65.4515 32.3462L65.1338 39.0385ZM65.1338 29.3462L59.7324 24.5C59.097 24.0385 58.3556 23.7692 57.5084 23.6923C56.6611 23.6154 55.9197 23.7308 55.2843 24.0385C55.0725 24.0385 54.9666 24.1154 54.9666 24.2692L44.1639 32.1154L40.0334 29.5769C39.398 29.2692 38.7096 29.1154 37.9682 29.1154C37.2269 29.1154 36.5385 29.2692 35.903 29.5769L29.5485 33.5V17.1154C29.5485 16.6538 29.8662 16.1923 30.5017 15.7308C31.1371 15.2692 31.7726 15.0385 32.408 15.0385H62.2742C63.1215 15.0385 63.8099 15.2692 64.3395 15.7308C64.869 16.1923 65.1338 16.6538 65.1338 17.1154V29.3462ZM40.0334 17.1154C38.5507 17.1154 37.2269 17.5 36.0619 18.2692C34.8969 19.0385 34.3144 20 34.3144 21.1538C34.3144 22.3077 34.8969 23.2692 36.0619 24.0385C37.2269 24.8077 38.5507 25.1923 40.0334 25.1923C41.5162 25.1923 42.84 24.8077 44.005 24.0385C45.17 23.2692 45.7525 22.3077 45.7525 21.1538C45.7525 20 45.17 19.0385 44.005 18.2692C42.84 17.5 41.5162 17.1154 40.0334 17.1154ZM40.0334 23.3462C39.1862 23.3462 38.4448 23.1154 37.8094 22.6538C37.1739 22.1923 36.8562 21.6538 36.8562 21.0385C36.8562 20.4231 37.1739 19.8846 37.8094 19.4231C38.4448 18.9615 39.1862 18.7308 40.0334 18.7308C40.8807 18.7308 41.6221 18.9615 42.2575 19.4231C42.893 19.8846 43.2107 20.4231 43.2107 21.0385C43.2107 21.6538 42.893 22.1923 42.2575 22.6538C41.6221 23.1154 40.8807 23.3462 40.0334 23.3462Z" fill="white"/>
</svg>
