<svg width="17" height="15" viewBox="0 0 17 15" fill="none" xmlns="http://www.w3.org/2000/svg">
<path d="M15.0682 0.436951H1.93181C1.41964 0.437539 0.928617 0.642587 0.566459 1.00711C0.204302 1.37164 0.000584793 1.86587 0 2.38138V12.4925C0.000584793 13.008 0.204302 13.5023 0.566459 13.8668C0.928617 14.2313 1.41964 14.4364 1.93181 14.437H15.0682C15.5804 14.4364 16.0714 14.2313 16.4335 13.8668C16.7957 13.5023 16.9994 13.008 17 12.4925V2.38138C16.9994 1.86587 16.7957 1.37164 16.4335 1.00711C16.0714 0.642587 15.5804 0.437539 15.0682 0.436951ZM16.2273 12.4925C16.2269 12.8018 16.1047 13.0984 15.8874 13.3171C15.6701 13.5358 15.3755 13.6588 15.0682 13.6592H1.93181C1.6245 13.6588 1.32988 13.5358 1.11259 13.3171C0.89529 13.0984 0.773061 12.8018 0.772716 12.4925V2.38138C0.773061 2.07207 0.89529 1.77553 1.11259 1.55681C1.32988 1.33809 1.6245 1.21506 1.93181 1.21472H15.0682C15.3755 1.21506 15.6701 1.33809 15.8874 1.55681C16.1047 1.77553 16.2269 2.07207 16.2273 2.38138V12.4925Z" fill="white"/>
<path d="M3.86365 1.99252H2.31818C2.11332 1.99275 1.91691 2.07477 1.77205 2.22058C1.62718 2.36639 1.5457 2.56408 1.54547 2.77028V4.32585C1.54645 4.42834 1.58759 4.52629 1.65994 4.59841C1.73229 4.67053 1.83 4.71099 1.93183 4.71099C2.03365 4.71099 2.13136 4.67053 2.20371 4.59841C2.27606 4.52629 2.3172 4.42834 2.31818 4.32585V2.77028H3.86365C3.9147 2.77078 3.96535 2.76109 4.01266 2.74177C4.05997 2.72245 4.103 2.69388 4.13928 2.65772C4.17555 2.62156 4.20435 2.57853 4.224 2.5311C4.24365 2.48367 4.25377 2.43279 4.25377 2.3814C4.25377 2.33001 4.24365 2.27913 4.224 2.23171C4.20435 2.18428 4.17555 2.14124 4.13928 2.10508C4.103 2.06892 4.05997 2.04035 4.01266 2.02103C3.96535 2.00171 3.9147 1.99202 3.86365 1.99252ZM15.0682 10.1592C14.9657 10.1592 14.8674 10.2002 14.795 10.2731C14.7225 10.346 14.6818 10.4449 14.6818 10.5481V12.1036H13.1364C13.0853 12.1031 13.0347 12.1128 12.9874 12.1321C12.9401 12.1515 12.897 12.18 12.8608 12.2162C12.8245 12.2523 12.7957 12.2954 12.776 12.3428C12.7564 12.3902 12.7463 12.4411 12.7463 12.4925C12.7463 12.5439 12.7564 12.5948 12.776 12.6422C12.7957 12.6896 12.8245 12.7327 12.8608 12.7688C12.897 12.805 12.9401 12.8335 12.9874 12.8529C13.0347 12.8722 13.0853 12.8819 13.1364 12.8814H14.6819C14.8867 12.8812 15.0831 12.7991 15.228 12.6533C15.3729 12.5075 15.4543 12.3098 15.4546 12.1036V10.548C15.4546 10.4449 15.4138 10.346 15.3414 10.2731C15.2689 10.2002 15.1707 10.1592 15.0682 10.1592ZM14.6818 1.99252H13.1364C13.0853 1.99202 13.0347 2.00171 12.9874 2.02103C12.9401 2.04035 12.897 2.06892 12.8608 2.10508C12.8245 2.14124 12.7957 2.18428 12.776 2.23171C12.7564 2.27913 12.7463 2.33001 12.7463 2.3814C12.7463 2.43279 12.7564 2.48367 12.776 2.5311C12.7957 2.57853 12.8245 2.62156 12.8608 2.65772C12.897 2.69388 12.9401 2.72245 12.9874 2.74177C13.0347 2.76109 13.0853 2.77078 13.1364 2.77028H14.6819V4.32585C14.6828 4.42834 14.724 4.52629 14.7963 4.59841C14.8687 4.67053 14.9664 4.71099 15.0682 4.71099C15.17 4.71099 15.2677 4.67053 15.3401 4.59841C15.4124 4.52629 15.4536 4.42834 15.4546 4.32585V2.77028C15.4543 2.56407 15.3729 2.36637 15.228 2.22056C15.0831 2.07475 14.8867 1.99274 14.6818 1.99252ZM3.86365 12.1036H2.31818V10.548C2.3172 10.4456 2.27606 10.3476 2.20371 10.2755C2.13136 10.2034 2.03365 10.1629 1.93183 10.1629C1.83 10.1629 1.73229 10.2034 1.65994 10.2755C1.58759 10.3476 1.54645 10.4456 1.54547 10.548V12.1036C1.5457 12.3098 1.62718 12.5075 1.77205 12.6533C1.91691 12.7991 2.11332 12.8812 2.31818 12.8814H3.86365C3.9147 12.8819 3.96535 12.8722 4.01266 12.8529C4.05997 12.8335 4.103 12.805 4.13928 12.7688C4.17555 12.7327 4.20435 12.6896 4.224 12.6422C4.24365 12.5948 4.25377 12.5439 4.25377 12.4925C4.25377 12.4411 4.24365 12.3902 4.224 12.3428C4.20435 12.2954 4.17555 12.2523 4.13928 12.2162C4.103 12.18 4.05997 12.1515 4.01266 12.1321C3.96535 12.1128 3.9147 12.1031 3.86365 12.1036ZM7.72727 4.71472C7.6248 4.71473 7.52653 4.7557 7.45408 4.82864C7.38163 4.90157 7.34093 5.00048 7.34093 5.10362V7.04805H5.40908V5.10362C5.40958 5.05223 5.39995 5.00126 5.38075 4.95364C5.36156 4.90602 5.33318 4.8627 5.29725 4.82619C5.26133 4.78968 5.21857 4.7607 5.17145 4.74092C5.12433 4.72114 5.07378 4.71095 5.02273 4.71095C4.97167 4.71095 4.92112 4.72114 4.874 4.74092C4.82688 4.7607 4.78412 4.78968 4.7482 4.82619C4.71227 4.8627 4.68389 4.90602 4.6647 4.95364C4.6455 5.00126 4.63587 5.05223 4.63637 5.10362V9.77028C4.63587 9.82167 4.6455 9.87264 4.6647 9.92026C4.68389 9.96788 4.71227 10.0112 4.7482 10.0477C4.78412 10.0842 4.82688 10.1132 4.874 10.133C4.92112 10.1528 4.97167 10.163 5.02273 10.163C5.07378 10.163 5.12433 10.1528 5.17145 10.133C5.21857 10.1132 5.26133 10.0842 5.29725 10.0477C5.33318 10.0112 5.36156 9.96788 5.38075 9.92026C5.39995 9.87264 5.40958 9.82167 5.40908 9.77028V7.82585H7.34093V9.77028C7.34043 9.82167 7.35006 9.87264 7.36926 9.92026C7.38845 9.96788 7.41683 10.0112 7.45276 10.0477C7.48868 10.0842 7.53144 10.1132 7.57856 10.133C7.62568 10.1528 7.67623 10.163 7.72728 10.163C7.77834 10.163 7.82889 10.1528 7.87601 10.133C7.92313 10.1132 7.96589 10.0842 8.00181 10.0477C8.03774 10.0112 8.06612 9.96788 8.08531 9.92026C8.10451 9.87264 8.11414 9.82167 8.11364 9.77028V5.10362C8.11364 5.00047 8.07294 4.90156 8.00048 4.82862C7.92802 4.75569 7.82974 4.71472 7.72727 4.71472ZM11.1636 5.03799C10.6859 4.83863 10.176 4.72906 9.65911 4.71472C9.55664 4.71472 9.45836 4.75569 9.3859 4.82862C9.31344 4.90156 9.27273 5.00047 9.27273 5.10362V9.77028C9.27273 9.87343 9.31344 9.97234 9.3859 10.0453C9.45836 10.1182 9.55664 10.1592 9.65911 10.1592C10.176 10.1449 10.6859 10.0354 11.1636 9.83605C12.2014 9.38835 12.7501 8.55874 12.7501 7.4371C12.7501 6.31546 12.2014 5.48552 11.1636 5.03799ZM10.0454 9.3485V5.52544C10.707 5.62089 11.9773 5.99222 11.9773 7.43695C11.9773 8.88168 10.7065 9.25316 10.0454 9.3485Z" fill="white"/>
</svg>
