<svg width="14" height="16" viewBox="0 0 14 16" fill="none" xmlns="http://www.w3.org/2000/svg">
<path d="M7.36151 4.73337C7.15227 4.73337 6.98267 4.90393 6.98267 5.11434V5.84695C6.98267 6.05736 7.15227 6.22791 7.36151 6.22791C7.57075 6.22791 7.74035 6.05736 7.74035 5.84695V5.11434C7.74035 4.90393 7.57075 4.73337 7.36151 4.73337ZM7.36151 12.8054C7.15227 12.8054 6.98267 12.9759 6.98267 13.1863V13.9189C6.98267 14.1293 7.15227 14.2999 7.36151 14.2999C7.57075 14.2999 7.74035 14.1293 7.74035 13.9189V13.1863C7.74035 12.9759 7.57075 12.8054 7.36151 12.8054ZM11.7389 9.13552H11.0104C10.8011 9.13552 10.6315 9.30608 10.6315 9.51649C10.6315 9.72689 10.8011 9.89745 11.0104 9.89745H11.7389C11.9481 9.89745 12.1177 9.72689 12.1177 9.51649C12.1177 9.30608 11.9481 9.13552 11.7389 9.13552ZM10.737 12.3722C10.733 12.368 10.7289 12.3639 10.7248 12.3599L10.2095 11.8418C10.065 11.6897 9.82519 11.6842 9.67391 11.8295C9.52264 11.9749 9.51716 12.216 9.6617 12.3682C9.66567 12.3723 9.66975 12.3764 9.67391 12.3804L10.1891 12.8985C10.3337 13.0507 10.5735 13.0562 10.7248 12.9108C10.876 12.7655 10.8815 12.5243 10.737 12.3722ZM10.5101 6.32761C10.44 6.26284 10.3481 6.22703 10.2529 6.22729C10.1577 6.22755 10.066 6.26387 9.99622 6.32901L7.98544 8.35104C7.34464 8.00372 6.54516 8.24454 6.19977 8.88893C6.09611 9.0823 6.04189 9.29856 6.04197 9.51824L6.04284 9.51649C6.04247 10.2488 6.63253 10.8428 7.36081 10.8432C8.08909 10.8436 8.6798 10.2502 8.68018 9.51789C8.68029 9.29797 8.62601 9.08148 8.52223 8.8879L10.533 6.86588C10.6745 6.71088 10.6642 6.46988 10.5101 6.32761ZM7.36151 10.0806C7.0517 10.0806 6.80053 9.82802 6.80053 9.51649C6.80085 9.20506 7.05182 8.95269 7.36151 8.95237C7.67132 8.95237 7.92249 9.20495 7.92249 9.51649C7.92249 9.82802 7.67132 10.0806 7.36151 10.0806Z" fill="white"/>
<path d="M13.3472 4.84766C13.4918 4.99978 13.7316 5.00529 13.8829 4.85994C14.0341 4.71459 14.0396 4.47344 13.8951 4.32132C13.8911 4.31713 13.887 4.31303 13.8829 4.30904L12.54 2.95897C12.3887 2.81362 12.1489 2.81913 12.0044 2.97125C11.8645 3.11851 11.8645 3.35034 12.0044 3.49759L12.4097 3.90522L11.6051 4.71433C10.5357 3.75245 9.17316 3.18418 7.74064 3.10257V1.69887H9.07825C9.28749 1.69887 9.4571 1.52832 9.4571 1.31791C9.4571 1.1075 9.28749 0.936951 9.07825 0.936951H5.64506C5.43582 0.936951 5.26621 1.1075 5.26621 1.31791C5.26621 1.52832 5.43582 1.69887 5.64506 1.69887H6.98267V3.10315C5.42114 3.19209 3.94737 3.85816 2.84453 4.97338C2.69999 5.1255 2.70547 5.36665 2.85674 5.512C3.00318 5.65269 3.23375 5.65269 3.38016 5.512C5.57923 3.30064 9.14461 3.30061 11.3437 5.51194C13.5392 7.71976 13.5393 11.3123 11.3437 13.5201C9.14819 15.7279 5.5757 15.7279 3.38016 13.5201C3.22888 13.3747 2.98907 13.3802 2.84453 13.5324C2.70462 13.6796 2.70462 13.9115 2.84453 14.0587C5.3414 16.5657 9.38652 16.5626 11.8796 14.0518C14.2655 11.649 14.3799 7.79401 12.1408 5.25236L12.9457 4.44296L13.3472 4.84766Z" fill="white"/>
<path d="M3.85313 6.69239H0.378843C0.169605 6.69239 0 6.86295 0 7.07335C0 7.28376 0.169605 7.45431 0.378843 7.45431H3.85313C4.06237 7.45431 4.23197 7.28376 4.23197 7.07335C4.23197 6.86295 4.06237 6.69239 3.85313 6.69239ZM4.73612 9.13552H1.26155C1.05231 9.13552 0.882705 9.30608 0.882705 9.51649C0.882705 9.72689 1.05231 9.89745 1.26155 9.89745H4.73612C4.94536 9.89745 5.11497 9.72689 5.11497 9.51649C5.11497 9.30608 4.94536 9.13552 4.73612 9.13552ZM3.85313 11.5784H0.378843C0.169605 11.5784 0 11.7489 0 11.9593C0 12.1697 0.169605 12.3403 0.378843 12.3403H3.85313C4.06237 12.3403 4.23197 12.1697 4.23197 11.9593C4.23197 11.7489 4.06237 11.5784 3.85313 11.5784Z" fill="white"/>
</svg>
