<svg width="55" height="86" viewBox="0 0 55 86" fill="none" xmlns="http://www.w3.org/2000/svg">
<path d="M7.34 8.31197H47.48C49.4 8.31197 51.02 9.1553 52.34 10.842C53.66 12.5286 54.32 14.5986 54.32 17.052V68.342C54.32 70.7953 53.66 72.8653 52.34 74.552C51.02 76.2386 49.4 77.082 47.48 77.082H7.34C5.42 77.082 3.8 76.2386 2.48 74.552C1.16 72.8653 0.5 70.7953 0.5 68.342V17.052C0.5 14.5986 1.16 12.5286 2.48 10.842C3.8 9.1553 5.42 8.31197 7.34 8.31197ZM47.48 75.242C49.04 75.242 50.33 74.5903 51.35 73.287C52.37 71.9836 52.88 70.3353 52.88 68.342V17.052C52.88 15.212 52.37 13.602 51.35 12.222C50.33 10.842 49.04 10.152 47.48 10.152H7.34C5.9 10.152 4.64 10.842 3.56 12.222C2.48 13.602 1.94 15.212 1.94 17.052V68.342C1.94 70.3353 2.48 71.9836 3.56 73.287C4.64 74.5903 5.9 75.242 7.34 75.242H47.48ZM9.86 72.482H45.14C45.86 72.482 46.49 72.827 47.03 73.517C47.57 74.207 47.84 75.012 47.84 75.932H7.16C7.16 75.012 7.43 74.207 7.97 73.517C8.51 72.827 9.14 72.482 9.86 72.482ZM37.76 57.762H16.88C16.76 57.762 16.64 57.647 16.52 57.417C16.4 57.187 16.34 56.9953 16.34 56.842C16.34 56.5353 16.4 56.3053 16.52 56.152C16.64 55.9986 16.76 55.922 16.88 55.922H37.76C38 55.922 38.18 55.9986 38.3 56.152C38.42 56.3053 38.48 56.497 38.48 56.727C38.48 56.957 38.42 57.187 38.3 57.417C38.18 57.647 38 57.762 37.76 57.762ZM30.38 62.822H16.88C16.76 62.822 16.64 62.7453 16.52 62.592C16.4 62.4386 16.34 62.2086 16.34 61.902C16.34 61.7486 16.4 61.5953 16.52 61.442C16.64 61.2886 16.76 61.212 16.88 61.212H30.38C30.5 61.212 30.62 61.2886 30.74 61.442C30.86 61.5953 30.92 61.7486 30.92 61.902C31.04 62.2086 31.04 62.4386 30.92 62.592C30.8 62.7453 30.62 62.822 30.38 62.822ZM35.78 21.192H18.86C18.02 21.192 17.33 21.537 16.79 22.227C16.25 22.917 15.98 23.7986 15.98 24.872V46.492C15.98 47.5653 16.25 48.447 16.79 49.137C17.33 49.827 18.02 50.172 18.86 50.172H35.78C36.62 50.172 37.31 49.827 37.85 49.137C38.39 48.447 38.66 47.5653 38.66 46.492V24.872C38.78 23.7986 38.54 22.917 37.94 22.227C37.34 21.537 36.62 21.192 35.78 21.192ZM37.4 46.722C37.4 47.182 37.25 47.642 36.95 48.102C36.65 48.562 36.26 48.792 35.78 48.792H18.86C18.5 48.792 18.14 48.562 17.78 48.102C17.42 47.642 17.24 47.182 17.24 46.722V43.502L21.74 38.902C21.86 38.7486 22.04 38.7486 22.28 38.902L24.98 41.892C25.34 42.0453 25.64 42.0453 25.88 41.892L32.54 33.382C32.78 33.0753 33.02 33.0753 33.26 33.382L37.58 40.052L37.4 46.722ZM37.4 37.062L34.34 32.232C33.98 31.772 33.56 31.5036 33.08 31.427C32.6 31.3503 32.18 31.4653 31.82 31.772C31.7 31.772 31.64 31.8486 31.64 32.002L25.52 39.822L23.18 37.292C22.82 36.9853 22.43 36.832 22.01 36.832C21.59 36.832 21.2 36.9853 20.84 37.292L17.24 41.202V24.872C17.24 24.412 17.42 23.952 17.78 23.492C18.14 23.032 18.5 22.802 18.86 22.802H35.78C36.26 22.802 36.65 23.032 36.95 23.492C37.25 23.952 37.4 24.412 37.4 24.872V37.062ZM23.18 24.872C22.34 24.872 21.59 25.2553 20.93 26.022C20.27 26.7886 19.94 27.747 19.94 28.897C19.94 30.047 20.27 31.0053 20.93 31.772C21.59 32.5386 22.34 32.922 23.18 32.922C24.02 32.922 24.77 32.5386 25.43 31.772C26.09 31.0053 26.42 30.047 26.42 28.897C26.42 27.747 26.09 26.7886 25.43 26.022C24.77 25.2553 24.02 24.872 23.18 24.872ZM23.18 31.082C22.7 31.082 22.28 30.852 21.92 30.392C21.56 29.932 21.38 29.3953 21.38 28.782C21.38 28.1686 21.56 27.632 21.92 27.172C22.28 26.712 22.7 26.482 23.18 26.482C23.66 26.482 24.08 26.712 24.44 27.172C24.8 27.632 24.98 28.1686 24.98 28.782C24.98 29.3953 24.8 29.932 24.44 30.392C24.08 30.852 23.66 31.082 23.18 31.082Z" fill="#212121"/>
</svg>
