<svg width="95" height="70" viewBox="0 0 95 70" fill="none" xmlns="http://www.w3.org/2000/svg">
<path d="M48.0001 17.5538C33.5773 17.5538 21.8438 29.289 21.8438 43.7127C21.8387 48.8501 23.3484 53.8749 26.1838 58.1589C29.0193 62.4429 33.0549 65.7959 37.7858 67.7986L38.2637 68H57.7383L58.2171 67.7986C62.9482 65.7961 66.9839 62.4432 69.8194 58.1592C72.655 53.8751 74.1644 48.8502 74.1591 43.7127C74.1565 29.289 62.423 17.5538 48.0001 17.5538ZM56.6859 62.9056H39.3144C35.6226 61.2376 32.4909 58.5392 30.2955 55.1345C28.1001 51.7299 26.9343 47.7638 26.9381 43.7127C26.9381 32.0995 36.3861 22.6507 48.0001 22.6507C48.2459 22.6507 48.4892 22.661 48.7333 22.6686C50.0766 26.808 51.5113 30.9396 52.2428 35.2292C52.7685 38.3162 52.7105 41.3964 52.2777 44.4356C51.9371 44.6917 51.6172 44.9742 51.321 45.2806C45.8818 50.9135 29.9995 45.2806 29.9995 45.2806C29.9995 52.7288 34.5221 59.1179 40.9701 61.8567H55.0285C61.4773 59.1179 65.999 52.7288 65.999 45.2806C65.999 45.2806 59.266 41.1796 53.913 43.484C54.1955 40.8399 54.1955 38.1677 53.8166 35.4639C53.2072 31.1351 51.7588 26.9539 50.3847 22.789C60.8782 23.9787 69.0621 32.9052 69.0621 43.7136C69.066 47.7646 67.9001 51.7305 65.7047 55.135C63.5093 58.5395 60.3776 61.2377 56.6859 62.9056ZM44.7732 8.97723V4.98469H43.4144V3.45612H53.4009V14.5811H55.643V16.8753H40.3564V14.5811H43.4144V8.97723H44.7732ZM30.0047 9.62758C29.998 9.59806 29.9974 9.56751 30.0028 9.53774C30.0083 9.50797 30.0196 9.4796 30.0362 9.45432C30.0521 9.42867 30.073 9.40661 30.0979 9.38956C30.1227 9.37251 30.1509 9.36085 30.1805 9.35532L31.034 9.16927C31.0634 9.16288 31.0939 9.1624 31.1236 9.16784C31.1532 9.17327 31.1815 9.18453 31.2068 9.20095C31.2322 9.21737 31.254 9.23863 31.271 9.26351C31.2881 9.2884 31.3 9.31641 31.3062 9.34593L31.3975 9.77438C31.404 9.80376 31.4046 9.83413 31.3993 9.86375C31.3939 9.89336 31.3828 9.92161 31.3664 9.94687C31.3501 9.97212 31.3288 9.99387 31.304 10.0109C31.2792 10.0278 31.2512 10.0397 31.2217 10.0458L30.3682 10.2293C30.3389 10.236 30.3084 10.2369 30.2787 10.2317C30.249 10.2265 30.2206 10.2154 30.1953 10.1991C30.1699 10.1828 30.1481 10.1616 30.131 10.1368C30.114 10.1119 30.1021 10.0839 30.096 10.0543L30.0047 9.62758ZM35.2535 4.44615C35.2278 4.39134 35.2238 4.3288 35.2424 4.27118L35.3807 3.8564C35.4002 3.79864 35.4417 3.75095 35.4963 3.72376C35.5508 3.69656 35.6139 3.69209 35.6717 3.71131L37.0868 4.18498C37.1443 4.205 37.1917 4.24677 37.2189 4.30133C37.246 4.35589 37.2507 4.41891 37.2319 4.47687L37.0928 4.89166C37.073 4.9491 37.0313 4.99639 36.9768 5.02325C36.9222 5.0501 36.8593 5.05434 36.8017 5.03504L35.3867 4.56137C35.3528 4.5498 35.3221 4.53051 35.2971 4.50504C35.2803 4.4872 35.2657 4.46743 35.2535 4.44615ZM31.9489 15.2853C31.9305 15.2615 31.917 15.2343 31.9092 15.2053C31.9014 15.1763 31.8995 15.146 31.9036 15.1163C31.9131 15.0556 31.9455 15.0009 31.9941 14.9635L32.6905 14.4429C32.7143 14.4239 32.7417 14.41 32.771 14.402C32.8004 14.3939 32.831 14.392 32.8612 14.3962C32.8913 14.4004 32.9202 14.4108 32.9462 14.4266C32.9722 14.4424 32.9947 14.4633 33.0123 14.4881L33.276 14.8363C33.2943 14.8604 33.3076 14.8879 33.3151 14.9172C33.3227 14.9464 33.3244 14.9769 33.3201 15.0068C33.3158 15.0367 33.3056 15.0655 33.2902 15.0915C33.2747 15.1174 33.2542 15.1401 33.2299 15.1581L32.5327 15.6813C32.4838 15.7174 32.4231 15.7335 32.3628 15.7265C32.3029 15.7169 32.2489 15.6848 32.2118 15.6369L31.9489 15.2853ZM30.2214 2.80492C30.1912 2.77508 30.1701 2.73723 30.1605 2.69582C30.151 2.6544 30.1535 2.61113 30.1677 2.57107L30.3059 2.15628C30.3259 2.09904 30.3667 2.05147 30.4203 2.02314C30.4753 1.99715 30.5381 1.99289 30.5961 2.01119L31.4248 2.28771C31.5443 2.33124 31.6101 2.45926 31.5699 2.5796L31.4317 2.99268C31.4225 3.02141 31.4075 3.04795 31.3877 3.0707C31.3679 3.09344 31.3436 3.11191 31.3165 3.12497C31.2618 3.15299 31.1983 3.1582 31.1398 3.13948L30.3119 2.86125C30.2774 2.85071 30.2462 2.83128 30.2214 2.80492ZM37.0612 8.78862L35.6026 9.10355C35.543 9.11622 35.4807 9.10474 35.4295 9.07163C35.3784 9.03851 35.3424 8.98646 35.3295 8.92688L35.2382 8.50014C35.2318 8.47055 35.2315 8.44 35.237 8.41026C35.2426 8.38053 35.254 8.35219 35.2706 8.32689C35.3022 8.27568 35.3559 8.23898 35.414 8.22703L36.8743 7.91381C36.9036 7.90717 36.934 7.90646 36.9636 7.91169C36.9932 7.91693 37.0214 7.92802 37.0467 7.94431C37.072 7.9606 37.0937 7.98177 37.1107 8.00657C37.1277 8.03138 37.1396 8.05932 37.1457 8.08877L37.2379 8.5155C37.2444 8.54505 37.2449 8.57559 37.2396 8.60536C37.2342 8.63513 37.223 8.66354 37.2065 8.68894C37.1901 8.71434 37.1688 8.73623 37.1438 8.75334C37.1189 8.77045 37.0908 8.78244 37.0612 8.78862ZM32.3176 9.12915C32.3111 9.09977 32.3105 9.06938 32.3159 9.03978C32.3214 9.01018 32.3326 8.98195 32.3491 8.95675C32.3655 8.93156 32.3868 8.9099 32.4118 8.89304C32.4367 8.87619 32.4647 8.86448 32.4942 8.8586L33.9537 8.54282C34.0132 8.5304 34.0752 8.542 34.1262 8.57509C34.1772 8.60818 34.213 8.66008 34.2259 8.71948L34.3173 9.14622C34.3238 9.17561 34.3243 9.20599 34.3189 9.23559C34.3135 9.2652 34.3022 9.29342 34.2858 9.31862C34.2693 9.34382 34.248 9.36548 34.2231 9.38233C34.1982 9.39918 34.1701 9.41089 34.1406 9.41677L32.6829 9.73341C32.6232 9.74608 32.561 9.7346 32.5098 9.70149C32.4586 9.66838 32.4227 9.61633 32.4098 9.55674L32.3176 9.12915ZM32.4661 3.55768C32.436 3.52752 32.415 3.48957 32.4054 3.4481C32.3957 3.40664 32.3978 3.3633 32.4115 3.32298L32.5497 2.90819C32.5692 2.85063 32.6106 2.8031 32.665 2.77592C32.7193 2.74875 32.7822 2.74414 32.8399 2.7631L34.2558 3.23763C34.3762 3.27945 34.4419 3.40832 34.4009 3.52781L34.2618 3.94345C34.2524 3.97206 34.2375 3.99854 34.2179 4.02137C34.1982 4.0442 34.1743 4.06294 34.1474 4.0765C34.1206 4.09005 34.0913 4.09817 34.0612 4.10039C34.0312 4.1026 34.001 4.09887 33.9725 4.08939L32.5557 3.61316C32.5218 3.60216 32.491 3.58313 32.4661 3.55768ZM38.0862 5.3935C38.0728 5.36653 38.065 5.33717 38.0631 5.30713C38.0612 5.2771 38.0653 5.24698 38.0751 5.21854L38.2125 4.80631C38.2222 4.77762 38.2373 4.7511 38.2572 4.72828C38.2771 4.70545 38.3013 4.68677 38.3284 4.6733C38.3555 4.65982 38.385 4.65182 38.4152 4.64975C38.4454 4.64768 38.4757 4.65158 38.5044 4.66122L39.9195 5.13661C40.0389 5.17672 40.1038 5.30645 40.0637 5.42679L39.9254 5.83987C39.9047 5.8965 39.8631 5.94307 39.8092 5.97004C39.7552 5.99702 39.693 6.00235 39.6353 5.98496L38.2193 5.50872C38.1856 5.49868 38.1551 5.48017 38.1306 5.45495C38.1129 5.43669 38.098 5.416 38.0862 5.3935ZM40.9607 6.40316C40.9309 6.37284 40.91 6.33489 40.9004 6.29348C40.8908 6.25208 40.8927 6.20882 40.9061 6.16845L41.0452 5.75367C41.0544 5.72509 41.0693 5.69865 41.089 5.67593C41.1086 5.6532 41.1326 5.63465 41.1596 5.62138C41.2141 5.59501 41.2764 5.58984 41.3345 5.60687L42.1641 5.8851C42.2219 5.90475 42.2696 5.94646 42.2968 6.00114C42.324 6.05582 42.3284 6.11904 42.3092 6.17699L42.1709 6.59007C42.1515 6.64782 42.1099 6.69552 42.0554 6.72271C42.0008 6.7499 41.9377 6.75438 41.8799 6.73516L41.0512 6.45863C41.0172 6.44718 40.9863 6.42822 40.9607 6.40316ZM33.8863 13.545L35.082 12.6463C35.1062 12.6282 35.1337 12.615 35.1631 12.6076C35.1924 12.6001 35.2229 12.5986 35.2528 12.603C35.2828 12.6075 35.3115 12.6178 35.3374 12.6335C35.3633 12.6491 35.3859 12.6697 35.4037 12.6941L35.6658 13.0415C35.7017 13.0905 35.717 13.1516 35.7084 13.2118C35.6998 13.2719 35.6679 13.3263 35.6197 13.3632L34.4248 14.2611C34.4007 14.2789 34.3732 14.2918 34.3441 14.299C34.3149 14.3062 34.2846 14.3075 34.255 14.3029C34.2061 14.2963 34.1606 14.2741 34.1252 14.2397C34.1184 14.2312 34.1099 14.2227 34.1056 14.2133L33.8427 13.8651C33.8244 13.8413 33.811 13.8141 33.8032 13.785C33.7955 13.756 33.7936 13.7257 33.7976 13.696C33.8017 13.6662 33.8116 13.6375 33.8268 13.6116C33.842 13.5857 33.8622 13.5631 33.8863 13.545ZM42.3775 6.96048L42.4705 7.38721C42.4822 7.44699 42.4706 7.50896 42.4381 7.56047C42.422 7.58598 42.4009 7.60797 42.3761 7.62513C42.3514 7.64229 42.3234 7.65426 42.2938 7.66032L42.0847 7.70556L42.3339 8.03841C42.3522 8.06246 42.3656 8.08989 42.3732 8.11912C42.3808 8.14835 42.3826 8.1788 42.3784 8.20872C42.3742 8.23864 42.3641 8.26742 42.3487 8.29342C42.3333 8.31941 42.3129 8.3421 42.2887 8.36017L41.5914 8.88421C41.5473 8.91733 41.4928 8.93349 41.4378 8.92973C41.3828 8.92597 41.331 8.90254 41.2918 8.86372C41.2845 8.8559 41.2777 8.84763 41.2714 8.83897L41.0085 8.48905C40.9904 8.46491 40.9772 8.43743 40.9697 8.40818C40.9622 8.37893 40.9605 8.34849 40.9648 8.31861C40.9691 8.28872 40.9792 8.25997 40.9946 8.234C41.01 8.20804 41.0304 8.18537 41.0546 8.16729L41.5018 7.83187L41.4421 7.84553C41.4042 7.85421 41.3647 7.85296 41.3275 7.8419C41.2903 7.83083 41.2565 7.81033 41.2295 7.78237C41.1981 7.75224 41.1767 7.71323 41.1681 7.67057L41.0768 7.24042C41.0642 7.18114 41.0752 7.1193 41.1075 7.06801C41.1408 7.01709 41.193 6.98148 41.2526 6.96901L42.1061 6.78466C42.1354 6.77828 42.1658 6.77777 42.1953 6.78316C42.2249 6.78855 42.2531 6.79974 42.2784 6.81609C42.3036 6.83243 42.3253 6.8536 42.3423 6.87838C42.3593 6.90316 42.3713 6.93106 42.3775 6.96048ZM40.0296 9.02247C40.0597 9.02583 40.0887 9.03556 40.1147 9.05101C40.1408 9.06646 40.1632 9.08728 40.1806 9.11208L40.4426 9.4603C40.479 9.50913 40.4946 9.5704 40.486 9.63069C40.4774 9.69098 40.4452 9.74541 40.3966 9.78206L39.2043 10.6774C39.1598 10.7095 39.1054 10.725 39.0506 10.7211C38.9958 10.7172 38.9442 10.6942 38.9047 10.656C38.8953 10.6492 38.8893 10.6407 38.8825 10.6338L38.6188 10.2839C38.5825 10.2352 38.5668 10.1742 38.5752 10.1141C38.5841 10.0536 38.6155 9.99867 38.6632 9.96043L39.8597 9.06429C39.8836 9.04604 39.9111 9.03291 39.9403 9.02572C39.9695 9.01852 39.9999 9.01742 40.0296 9.02247ZM40.0646 7.45891L40.1567 7.88564C40.1631 7.91518 40.1636 7.94569 40.1582 7.97541C40.1528 8.00514 40.1415 8.03351 40.1251 8.05888C40.1087 8.08425 40.0874 8.10614 40.0625 8.12328C40.0376 8.14042 40.0096 8.15247 39.9801 8.15875L38.5215 8.47198C38.492 8.4786 38.4615 8.47926 38.4317 8.47392C38.4019 8.46859 38.3735 8.45736 38.3482 8.4409C38.3228 8.42445 38.301 8.40309 38.284 8.37809C38.267 8.35309 38.2552 8.32494 38.2492 8.29531L38.1579 7.86857C38.1508 7.83918 38.1498 7.80865 38.1549 7.77886C38.1601 7.74907 38.1712 7.72064 38.1878 7.69532C38.2211 7.64496 38.2731 7.60997 38.332 7.59717L39.7923 7.28224C39.8518 7.26959 39.9139 7.28109 39.965 7.31422C40.016 7.34734 40.0519 7.39939 40.0646 7.45891ZM36.276 11.7527L37.47 10.8574C37.5189 10.8211 37.5802 10.8055 37.6406 10.814C37.7009 10.8224 37.7555 10.8543 37.7926 10.9027L38.0546 11.2509C38.091 11.2997 38.1066 11.361 38.098 11.4213C38.0893 11.4816 38.0572 11.536 38.0085 11.5726L36.8137 12.4696C36.7895 12.4877 36.7619 12.5008 36.7326 12.508C36.7033 12.5151 36.6728 12.5163 36.643 12.5115C36.6132 12.5078 36.5845 12.498 36.5586 12.4827C36.5328 12.4675 36.5104 12.447 36.4928 12.4227L36.2308 12.0728C36.1944 12.0243 36.1787 11.9634 36.1872 11.9034C36.1956 11.8434 36.2276 11.7892 36.276 11.7527Z" fill="white"/>
</svg>
