<svg width="76" height="86" viewBox="0 0 76 86" fill="none" xmlns="http://www.w3.org/2000/svg">
<path d="M51.4999 15.0113C50.4245 15.0137 49.8194 13.3426 50.9705 12.7659L60.4249 8.03861C61.7887 7.35789 62.8453 9.47096 61.4815 10.1541L52.027 14.8813C51.8636 14.9645 51.6833 15.009 51.4999 15.0113ZM60.9544 29.1812C60.7709 29.1831 60.5895 29.1418 60.4249 29.0606L50.9705 24.3334C49.6208 23.6598 50.6561 21.542 52.027 22.218L61.4815 26.9452C62.564 27.4865 62.1622 29.1717 60.9544 29.1812ZM60.9544 19.7314H51.4999C51.1865 19.7314 50.8859 19.6069 50.6642 19.3853C50.4426 19.1637 50.3181 18.8631 50.3181 18.5496C50.3181 18.2362 50.4426 17.9356 50.6642 17.714C50.8859 17.4923 51.1865 17.3678 51.4999 17.3678H60.9544C61.2678 17.3678 61.5684 17.4923 61.7901 17.714C62.0117 17.9356 62.1362 18.2362 62.1362 18.5496C62.1362 18.8631 62.0117 19.1637 61.7901 19.3853C61.5684 19.6069 61.2678 19.7314 60.9544 19.7314Z" fill="#212121"/>
<path d="M43.2272 29.6374V26.8223H46.7727C47.0861 26.8223 47.3867 26.6978 47.6083 26.4762C47.83 26.2545 47.9545 25.9539 47.9545 25.6405V18.5496C47.9545 18.2362 47.83 17.9356 47.6083 17.714C47.3867 17.4923 47.0861 17.3678 46.7727 17.3678C46.4592 17.3678 46.1586 17.2433 45.937 17.0217C45.7154 16.8 45.5909 16.4994 45.5909 16.186C45.5909 15.8726 45.7154 15.572 45.937 15.3503C46.1586 15.1287 46.4592 15.0042 46.7727 15.0042C47.0861 15.0042 47.3867 14.8797 47.6083 14.6581C47.83 14.4364 47.9545 14.1358 47.9545 13.8224V11.4588C47.9545 11.1453 47.83 10.8447 47.6083 10.6231C47.3867 10.4015 47.0861 10.277 46.7727 10.277H30.2273C29.9139 10.277 29.6133 10.4015 29.3917 10.6231C29.17 10.8447 29.0455 11.1453 29.0455 11.4588V25.6405C29.0455 25.9539 29.17 26.2545 29.3917 26.4762C29.6133 26.6978 29.9139 26.8223 30.2273 26.8223H33.7728V29.6374C21.6899 31.8686 12.5002 42.4647 12.5002 55.1857C12.487 58.6492 13.1737 62.0797 14.5189 65.2713C15.8641 68.4629 17.8401 71.3499 20.3285 73.7591C20.548 73.9745 20.8434 74.0951 21.151 74.0947H55.849C56.1572 74.0947 56.4532 73.9742 56.6739 73.7591C59.1615 71.3495 61.1369 68.4623 62.4817 65.2708C63.8264 62.0792 64.5129 58.649 64.4998 55.1857C64.4998 42.4647 55.3101 31.8686 43.2272 29.6374ZM31.4091 24.4587V12.6406H45.5909V12.8415C44.2152 13.3308 43.2272 14.6449 43.2272 16.186C43.2272 17.7271 44.2152 19.0413 45.5909 19.5305V24.4587H31.4091ZM36.1364 26.8223H40.8636V29.3065C40.0836 29.2356 39.2989 29.1859 38.5 29.1859C37.7011 29.1859 36.9164 29.2356 36.1364 29.3065V26.8223ZM38.5 31.5495C48.5737 31.5495 57.1726 37.8959 60.5691 46.7925C53.7761 52.1816 46.7963 51.9287 39.2115 45.97C32.253 40.7227 25.1219 39.9026 17.9743 43.5142C22.0468 36.3784 29.7144 31.5495 38.5 31.5495ZM55.3621 71.7311H21.6379C17.2772 67.3311 14.8408 61.3805 14.8638 55.1857C14.8638 52.4108 15.3696 49.7565 16.2536 47.2794C23.5927 42.2827 30.6362 42.4671 37.772 47.842C42.1683 51.2976 46.4914 53.0278 50.7128 53.0254C54.3386 53.0254 57.884 51.7372 61.3373 49.1821C61.8408 51.1038 62.1362 53.1081 62.1362 55.1857C62.1592 61.3805 59.7228 67.3311 55.3621 71.7311Z" fill="#212121"/>
</svg>
