<svg width="26" height="22" viewBox="0 0 26 22" fill="none" xmlns="http://www.w3.org/2000/svg">
<path d="M19.3051 21.437H21.9492C23.6341 21.437 25 20.0664 25 18.3757V4.49818C25 2.80751 23.6341 1.43695 21.9492 1.43695H4.05085C2.36592 1.43695 1 2.80751 1 4.49818V7.3043M15.339 11.1818L19.4068 7.0492M20.4237 11.1308V7.63573C20.4237 6.74823 19.7067 6.02879 18.8222 6.02879H15.339M4.05085 21.437H12.8983C14.5832 21.437 15.9492 20.0664 15.9492 18.3757V13.5798C15.9492 11.8891 14.5832 10.5186 12.8983 10.5186H4.05085C2.36591 10.5186 1 11.8891 1 13.5798V18.3757C1 20.0664 2.36591 21.437 4.05085 21.437Z" stroke="white" stroke-miterlimit="10" stroke-linecap="round" stroke-linejoin="round"/>
</svg>
