<svg width="54" height="54" viewBox="0 0 54 54" fill="none" xmlns="http://www.w3.org/2000/svg">
<path d="M27 0L46.0919 7.90812L54 27L46.0919 46.0919L27 54L7.90812 46.0919L0 27L7.90812 7.90812L27 0Z" fill="#F35252"/>
<path d="M33.734 28.4991C33.6496 28.5839 33.5827 28.6845 33.5372 28.7951C33.4917 28.9058 33.4685 29.0243 33.4689 29.144C33.4693 29.2636 33.4932 29.382 33.5394 29.4923C33.5856 29.6027 33.653 29.7029 33.738 29.7871L34.061 30.1101C34.12 30.1691 34.121 30.2661 34.062 30.3251C34.003 30.3841 33.907 30.3841 33.847 30.3241L33.0939 29.5711C32.9236 29.3999 32.6923 29.3032 32.4507 29.3025C32.2092 29.3017 31.9772 29.3969 31.8059 29.5671C31.7215 29.6519 31.6546 29.7525 31.6091 29.8632C31.5636 29.9738 31.5404 30.0923 31.5408 30.212C31.5412 30.3316 31.5651 30.45 31.6113 30.5603C31.6575 30.6707 31.7249 30.7709 31.8099 30.8551L32.5629 31.6082C32.6219 31.6672 32.6229 31.7642 32.5639 31.8232C32.5049 31.8822 32.4089 31.8822 32.3489 31.8222L31.1648 30.6381C30.9945 30.4669 30.7632 30.3702 30.5216 30.3695C30.2801 30.3687 30.0481 30.4639 29.8768 30.6341C29.7924 30.7189 29.7255 30.8195 29.68 30.9302C29.6345 31.0408 29.6113 31.1593 29.6117 31.279C29.6121 31.3986 29.636 31.517 29.6822 31.6274C29.7284 31.7377 29.7958 31.8379 29.8808 31.9222L31.0648 33.1062C31.1238 33.1652 31.1248 33.2622 31.0658 33.3212C31.0068 33.3802 30.9108 33.3802 30.8508 33.3202L26.6536 29.1231C26.4833 28.9519 26.2519 28.8552 26.0104 28.8545C25.7689 28.8537 25.5369 28.9489 25.3655 29.1191C25.2811 29.2039 25.2143 29.3045 25.1688 29.4152C25.1233 29.5258 25.1001 29.6443 25.1005 29.764C25.1008 29.8836 25.1248 30.002 25.171 30.1123C25.2171 30.2227 25.2846 30.3229 25.3695 30.4071L30.4208 35.4582C29.7588 35.3552 28.6447 35.3112 27.9607 35.9942C27.3186 36.6362 27.3356 37.0802 27.5346 37.2802C28.0777 37.8232 28.4957 36.9652 30.9698 38.1472C33.444 39.3302 35.034 39.2322 36.1211 38.1632L37.6192 36.6652C37.6112 36.6732 37.6272 36.6572 37.6192 36.6652C39.1422 35.1422 39.5783 33.0602 38.0412 31.5242L35.02 28.5031C34.9359 28.4184 34.8358 28.3511 34.7257 28.305C34.6155 28.2589 34.4973 28.235 34.3778 28.2346C34.2584 28.2343 34.1401 28.2574 34.0296 28.3028C33.9191 28.3482 33.8187 28.4149 33.734 28.4991ZM34.001 15H18.0002C17.2045 15 16.4414 15.3161 15.8787 15.8787C15.3161 16.4413 15 17.2044 15 18C15 18.7957 15.3161 19.5588 15.8787 20.1214C16.4414 20.684 17.2045 21.0001 18.0002 21.0001H34.001C34.7967 21.0001 35.5598 20.684 36.1224 20.1214C36.6851 19.5588 37.0011 18.7957 37.0011 18C37.0011 17.2044 36.6851 16.4413 36.1224 15.8787C35.5598 15.3161 34.7967 15 34.001 15ZM18.0002 19C17.7349 19 17.4806 18.8947 17.293 18.7071C17.1055 18.5196 17.0001 18.2652 17.0001 18C17.0001 17.7348 17.1055 17.4805 17.293 17.2929C17.4806 17.1054 17.7349 17 18.0002 17C18.2654 17 18.5198 17.1054 18.7073 17.2929C18.8948 17.4805 19.0002 17.7348 19.0002 18C19.0002 18.2652 18.8948 18.5196 18.7073 18.7071C18.5198 18.8947 18.2654 19 18.0002 19ZM22.0004 19C21.7351 19 21.4808 18.8947 21.2932 18.7071C21.1057 18.5196 21.0003 18.2652 21.0003 18C21.0003 17.7348 21.1057 17.4805 21.2932 17.2929C21.4808 17.1054 21.7351 17 22.0004 17C22.2656 17 22.52 17.1054 22.7075 17.2929C22.8951 17.4805 23.0004 17.7348 23.0004 18C23.0004 18.2652 22.8951 18.5196 22.7075 18.7071C22.52 18.8947 22.2656 19 22.0004 19Z" fill="white"/>
<path d="M34.001 23.0001H18.0002C16.3401 23.0001 15 24.3401 15 26.0001C15 27.6601 16.3401 29.0001 18.0002 29.0001H23.2004C23.3304 28.5201 23.5904 28.0701 23.9505 27.7101C24.2208 27.4392 24.5419 27.2243 24.8954 27.0776C25.2489 26.931 25.6279 26.8555 26.0106 26.8555C26.3933 26.8555 26.7722 26.931 27.1258 27.0776C27.4793 27.2243 27.8004 27.4392 28.0707 27.7101L29.1007 28.7401C29.4307 28.5501 29.8008 28.4301 30.1808 28.3901C30.5818 27.8561 31.2798 27.4251 32.1109 27.3201C32.9819 26.1581 34.966 25.6151 36.6811 27.3301C36.8911 26.9301 37.0011 26.4801 37.0011 26.0001C37.0011 24.3401 35.6611 23.0001 34.001 23.0001ZM18.0002 27.0001C17.4501 27.0001 17.0001 26.5501 17.0001 26.0001C17.0001 25.4501 17.4501 25.0001 18.0002 25.0001C18.5502 25.0001 19.0002 25.4501 19.0002 26.0001C19.0002 26.5501 18.5502 27.0001 18.0002 27.0001ZM22.0004 27.0001C21.4503 27.0001 21.0003 26.5501 21.0003 26.0001C21.0003 25.4501 21.4503 25.0001 22.0004 25.0001C22.5504 25.0001 23.0004 25.4501 23.0004 26.0001C23.0004 26.5501 22.5504 27.0001 22.0004 27.0001ZM23.9605 31.8202C23.7205 31.5802 23.5204 31.3001 23.3804 31.0001H18.0002C16.3401 31.0001 15 32.3402 15 34.0002C15 35.6602 16.3401 37.0002 18.0002 37.0002H25.4105C25.4105 36.0002 26.1016 34.8522 26.6306 34.5002L23.9605 31.8202ZM18.0002 35.0002C17.4501 35.0002 17.0001 34.5502 17.0001 34.0002C17.0001 33.4502 17.4501 33.0002 18.0002 33.0002C18.5502 33.0002 19.0002 33.4502 19.0002 34.0002C19.0002 34.5502 18.5502 35.0002 18.0002 35.0002ZM22.0004 35.0002C21.4503 35.0002 21.0003 34.5502 21.0003 34.0002C21.0003 33.4502 21.4503 33.0002 22.0004 33.0002C22.5504 33.0002 23.0004 33.4502 23.0004 34.0002C23.0004 34.5502 22.5504 35.0002 22.0004 35.0002Z" fill="white"/>
</svg>
